<svg width="89" height="87" viewBox="0 0 89 87" fill="none" xmlns="http://www.w3.org/2000/svg">
<path d="M78.7968 66.2356L57.5423 64.8867V59.4789L78.7968 54.5349V66.2356Z" fill="#F6B700" stroke="#1A1B3A" stroke-width="3" stroke-miterlimit="10" stroke-linecap="round" stroke-linejoin="round"/>
<path d="M87 62.7067C87 67.2232 78.7968 85 78.7968 85C78.7968 85 70.5936 67.2232 70.5936 62.7067C70.5936 58.1902 74.269 54.5349 78.7968 54.5349C83.3246 54.5349 87 58.1902 87 62.7067Z" fill="#F6B700" stroke="#1A1B3A" stroke-width="3" stroke-miterlimit="10" stroke-linecap="round" stroke-linejoin="round"/>
<path d="M72.4555 69.7644C72.4555 69.7644 76.4392 62.7067 86.6917 62.7067" stroke="#1A1B3A" stroke-width="3" stroke-miterlimit="10" stroke-linecap="round" stroke-linejoin="round"/>
<path d="M10.2092 66.2356L31.4638 64.8867V59.4789L10.2092 54.5349V66.2356Z" fill="#F6B700" stroke="#1A1B3A" stroke-width="3" stroke-miterlimit="10" stroke-linecap="round" stroke-linejoin="round"/>
<path d="M2 62.7067C2 67.2232 10.2032 85 10.2032 85C10.2032 85 18.4064 67.2232 18.4064 62.7067C18.4064 58.1902 14.731 54.5349 10.2032 54.5349C5.67541 54.5349 2 58.1902 2 62.7067Z" fill="#F6B700" stroke="#1A1B3A" stroke-width="3" stroke-miterlimit="10" stroke-linecap="round" stroke-linejoin="round"/>
<path d="M16.5445 69.7644C16.5445 69.7644 12.5608 62.7067 2.30829 62.7067" stroke="#1A1B3A" stroke-width="3" stroke-miterlimit="10" stroke-linecap="round" stroke-linejoin="round"/>
<path d="M67.9761 24.6419V8.43677" stroke="#1A1B3A" stroke-width="4" stroke-miterlimit="10" stroke-linecap="round" stroke-linejoin="round"/>
<path d="M75.0549 7.05172C75.0549 10.9479 71.8873 14.1034 67.9761 14.1034C64.065 14.1034 60.8973 10.9479 60.8973 7.05172C60.8973 3.15551 64.065 0 67.9761 0C71.8873 0 75.0549 3.16153 75.0549 7.05172Z" fill="#1A1B3A"/>
<path d="M21.0239 24.6419V8.43677" stroke="#1A1B3A" stroke-width="4" stroke-miterlimit="10" stroke-linecap="round" stroke-linejoin="round"/>
<path d="M28.1088 7.05172C28.1088 10.9479 24.9411 14.1034 21.03 14.1034C17.1188 14.1034 13.9512 10.9479 13.9512 7.05172C13.9512 3.15551 17.1188 0 21.03 0C24.9351 0 28.1088 3.16153 28.1088 7.05172Z" fill="#1A1B3A"/>
<path d="M44.503 69.1682C28.0664 69.1682 14.7007 55.8476 14.7007 39.4739C14.7007 23.1002 28.0725 9.78564 44.503 9.78564C60.9396 9.78564 74.3053 23.1062 74.3053 39.4739C74.3053 55.8476 60.9336 69.1682 44.503 69.1682Z" fill="#0673B0"/>
<path d="M44.503 11.1406C60.2142 11.1406 72.9512 23.8289 72.9512 39.48C72.9512 55.1311 60.2142 67.8193 44.503 67.8193C28.7918 67.8193 16.0548 55.1311 16.0548 39.48C16.0548 23.8289 28.7918 11.1406 44.503 11.1406ZM44.503 8.43677C27.3229 8.43677 13.3406 22.3595 13.3406 39.48C13.3406 56.6004 27.3168 70.5232 44.503 70.5232C61.6832 70.5232 75.6655 56.5944 75.6655 39.48C75.6655 22.3595 61.6832 8.43677 44.503 8.43677Z" fill="#1A1B3A"/>
<path d="M44.503 11.1406C42.2603 11.1406 40.078 11.3996 37.9803 11.8873C50.5481 14.8261 59.9059 26.063 59.9059 39.474C59.9059 52.8909 50.5481 64.1279 37.9803 67.0666C40.0719 67.5544 42.2542 67.8133 44.503 67.8133C60.2142 67.8133 72.9512 55.125 72.9512 39.474C72.9452 23.8289 60.2142 11.1406 44.503 11.1406Z" fill="#0D5988"/>
<path d="M65.4009 39.6848C65.4009 45.0443 61.0424 49.3862 55.6623 49.3862H33.3378C27.9576 49.3862 23.5991 45.0443 23.5991 39.6848C23.5991 34.3252 27.9576 29.9834 33.3378 29.9834H55.6623C61.0424 29.9834 65.4009 34.3252 65.4009 39.6848Z" fill="#8CD3F6" stroke="#1A1B3A" stroke-width="4" stroke-miterlimit="10" stroke-linecap="round" stroke-linejoin="round"/>
<path d="M38.9536 44.0085C41.3774 44.0085 43.3424 42.0511 43.3424 39.6366C43.3424 37.222 41.3774 35.2646 38.9536 35.2646C36.5298 35.2646 34.5649 37.222 34.5649 39.6366C34.5649 42.0511 36.5298 44.0085 38.9536 44.0085Z" fill="white"/>
<path d="M52.7062 62.7067C52.7062 67.2232 44.503 85 44.503 85C44.503 85 36.2998 67.2232 36.2998 62.7067C36.2998 58.1902 39.9752 54.5349 44.503 54.5349C49.0308 54.5349 52.7062 58.1902 52.7062 62.7067Z" fill="#F6B700" stroke="#1A1B3A" stroke-width="3" stroke-miterlimit="10" stroke-linecap="round" stroke-linejoin="round"/>
<path d="M38.2826 69.5296C38.2826 66.1091 41.0633 63.339 44.4969 63.339C47.9306 63.339 50.7113 66.1091 50.7113 69.5296" stroke="#1A1B3A" stroke-width="3" stroke-miterlimit="10" stroke-linecap="round" stroke-linejoin="round"/>
</svg>
