<svg width="72" height="82" viewBox="0 0 72 82" fill="none" xmlns="http://www.w3.org/2000/svg">
<path d="M36 49.9355V77.8008" stroke="#1A1B3A" stroke-width="4" stroke-miterlimit="10" stroke-linecap="round" stroke-linejoin="round"/>
<path d="M8.88134 41.2118C8.48016 41.2118 8.10684 41.021 7.86725 40.69C7.63322 40.3647 7.56636 39.9439 7.68894 39.5624L19.8191 2.12622C19.9862 1.61009 20.4654 1.25665 21.0059 1.25665H50.9718C51.5123 1.25665 51.9915 1.61009 52.1586 2.12622L64.2887 39.5624C64.4113 39.9439 64.35 40.3647 64.1104 40.69C63.8764 41.0154 63.4975 41.2118 63.0964 41.2118H8.88134Z" fill="#0673B0"/>
<path d="M50.983 2.51893L63.1131 39.9551H8.88135L21.0115 2.51893H50.983ZM50.983 0H21.0115C19.9305 0 18.9666 0.701262 18.6322 1.73913L6.50213 39.1753C6.25139 39.9439 6.38511 40.7854 6.85316 41.4362C7.3212 42.087 8.07899 42.4741 8.87578 42.4741H63.1075C63.9099 42.4741 64.6621 42.087 65.1301 41.4362C65.5982 40.7854 65.7319 39.9439 65.4812 39.1753L53.351 1.73913C53.0223 0.701262 52.0639 0 50.983 0Z" fill="#1A1B3A"/>
<path d="M50.983 2.51892H39.0701L51.2003 39.9551H63.1131L50.983 2.51892Z" fill="#0D5988"/>
<path d="M50.8994 49.784L61.7647 60.7237V78.0252" stroke="#1A1B3A" stroke-width="3" stroke-miterlimit="10" stroke-linecap="round" stroke-linejoin="round"/>
<path d="M70 75.6073H54.7106V80H70V75.6073Z" fill="#0673B0" stroke="#1A1B3A" stroke-width="3" stroke-miterlimit="10" stroke-linecap="round" stroke-linejoin="round"/>
<path d="M43.6447 75.6073H28.3553V80H43.6447V75.6073Z" fill="#0673B0" stroke="#1A1B3A" stroke-width="3" stroke-miterlimit="10" stroke-linecap="round" stroke-linejoin="round"/>
<path d="M56.0646 60.8359C56.0646 64.0056 58.6165 66.575 61.7647 66.575C64.9128 66.575 67.4648 64.0056 67.4648 60.8359C67.4648 57.6662 64.9128 55.0967 61.7647 55.0967C58.6165 55.1024 56.0646 57.6662 56.0646 60.8359Z" fill="#1A1B3A"/>
<path d="M21.0951 49.784L10.2298 60.7237V78.0252" stroke="#1A1B3A" stroke-width="3" stroke-miterlimit="10" stroke-linecap="round" stroke-linejoin="round"/>
<path d="M17.2894 75.6073H2V80H17.2894V75.6073Z" fill="#0673B0" stroke="#1A1B3A" stroke-width="3" stroke-miterlimit="10" stroke-linecap="round" stroke-linejoin="round"/>
<path d="M15.9299 60.8359C15.9299 64.0056 13.3779 66.575 10.2298 66.575C7.08161 66.575 4.52966 64.0056 4.52966 60.8359C4.52966 57.6662 7.08161 55.0967 10.2298 55.0967C13.3779 55.1024 15.9299 57.6662 15.9299 60.8359Z" fill="#1A1B3A"/>
<path d="M47.1383 17.7279C47.1383 23.9214 42.1514 28.9425 36 28.9425C29.8486 28.9425 24.8617 23.9214 24.8617 17.7279C24.8617 11.5343 29.8486 6.51331 36 6.51331C42.1514 6.51331 47.1383 11.5343 47.1383 17.7279Z" fill="#8CD3F6" stroke="#1A1B3A" stroke-width="4" stroke-miterlimit="10" stroke-linecap="round" stroke-linejoin="round"/>
<path d="M38.3904 16.791C38.3904 18.9621 36.6408 20.7237 34.4844 20.7237C32.3281 20.7237 30.5785 18.9621 30.5785 16.791C30.5785 14.6199 32.3281 12.8583 34.4844 12.8583C36.6408 12.8583 38.3904 14.6199 38.3904 16.791Z" fill="white"/>
<path d="M8.88136 51.0406C8.19044 51.0406 7.62767 50.474 7.62767 49.784V39.9551C7.62767 39.2594 8.19044 38.6928 8.88136 38.6928H63.1131C63.804 38.6928 64.3612 39.2594 64.3612 39.9551V49.784C64.3612 50.4796 63.7984 51.0406 63.1131 51.0406H8.88136Z" fill="#8CD3F6"/>
<path d="M63.1131 39.9551V49.784H8.88135V39.9551H63.1131ZM63.1131 37.4362H8.88135C7.49951 37.4362 6.37955 38.5638 6.37955 39.9551V49.784C6.37955 51.1753 7.49951 52.3029 8.88135 52.3029H63.1131C64.4949 52.3029 65.6149 51.1753 65.6149 49.784V39.9551C65.6149 38.5638 64.4949 37.4362 63.1131 37.4362Z" fill="#1A1B3A"/>
<path d="M13.5562 39.9551V49.2117" stroke="#1A1B3A" stroke-width="4" stroke-miterlimit="10" stroke-linecap="round" stroke-linejoin="round"/>
<path d="M22.1147 39.9551V49.2117" stroke="#1A1B3A" stroke-width="4" stroke-miterlimit="10" stroke-linecap="round" stroke-linejoin="round"/>
<path d="M30.6788 39.9551V49.2117" stroke="#1A1B3A" stroke-width="4" stroke-miterlimit="10" stroke-linecap="round" stroke-linejoin="round"/>
<path d="M39.2373 39.9551V49.2117" stroke="#1A1B3A" stroke-width="4" stroke-miterlimit="10" stroke-linecap="round" stroke-linejoin="round"/>
<path d="M47.7958 39.9551V49.2117" stroke="#1A1B3A" stroke-width="4" stroke-miterlimit="10" stroke-linecap="round" stroke-linejoin="round"/>
<path d="M56.3599 39.9551V49.2117" stroke="#1A1B3A" stroke-width="4" stroke-miterlimit="10" stroke-linecap="round" stroke-linejoin="round"/>
<path d="M30.2999 60.8359C30.2999 64.0056 32.8518 66.5751 36 66.5751C39.1481 66.5751 41.7001 64.0056 41.7001 60.8359C41.7001 57.6662 39.1481 55.0968 36 55.0968C32.8518 55.1024 30.2999 57.6662 30.2999 60.8359Z" fill="#1A1B3A"/>
</svg>
