<svg width="86" height="88" viewBox="0 0 86 88" fill="none" xmlns="http://www.w3.org/2000/svg">
<path d="M8.37158 71.5837V55.218C8.37158 49.0726 13.2728 44.0931 19.3217 44.0931H66.6783C72.7271 44.0931 77.6284 49.0726 77.6284 55.218V71.5837" stroke="#1A1B3A" stroke-width="4" stroke-miterlimit="10" stroke-linecap="round" stroke-linejoin="round"/>
<path d="M71.2568 78.051C71.2568 74.4742 74.1079 71.5776 77.6284 71.5776C81.149 71.5776 84 74.4742 84 78.051" stroke="#1A1B3A" stroke-width="4" stroke-miterlimit="10" stroke-linecap="round" stroke-linejoin="round"/>
<path d="M2.00598 78.051C2.00598 74.4742 4.85706 71.5776 8.37758 71.5776C11.8981 71.5776 14.7492 74.4742 14.7492 78.051" stroke="#1A1B3A" stroke-width="4" stroke-miterlimit="10" stroke-linecap="round" stroke-linejoin="round"/>
<path d="M77.6284 16.5964V32.962C77.6284 39.1075 72.7271 44.087 66.6783 44.087H19.3217C13.2728 44.087 8.37158 39.1075 8.37158 32.962V16.5964" stroke="#1A1B3A" stroke-width="4" stroke-miterlimit="10" stroke-linecap="round" stroke-linejoin="round"/>
<path d="M14.7432 10.123C14.7432 13.6998 11.8921 16.5964 8.3716 16.5964C4.85108 16.5964 2 13.6998 2 10.123" stroke="#1A1B3A" stroke-width="4" stroke-miterlimit="10" stroke-linecap="round" stroke-linejoin="round"/>
<path d="M84 10.123C84 13.6998 81.1489 16.5964 77.6284 16.5964C74.1079 16.5964 71.2568 13.6998 71.2568 10.123" stroke="#1A1B3A" stroke-width="4" stroke-miterlimit="10" stroke-linecap="round" stroke-linejoin="round"/>
<path d="M22.382 76.9822C21.6408 76.9822 21.0371 76.3689 21.0371 75.6159V23.2094C21.0371 11.1614 30.8874 1.36026 42.997 1.36026C55.1066 1.36026 64.9569 11.1614 64.9569 23.2094V75.6159C64.9569 76.3689 64.3592 76.9822 63.6181 76.9822H22.382Z" fill="#F6B700"/>
<path d="M43.003 2.72659C54.3894 2.72659 63.624 11.8962 63.624 23.2094V75.6159H22.382V23.2094C22.382 11.9023 31.6106 2.72659 43.003 2.72659ZM43.003 0C30.1522 0 19.6982 10.4145 19.6982 23.2094V75.6159C19.6982 77.1219 20.8996 78.3425 22.382 78.3425H63.624C65.1064 78.3425 66.3078 77.1219 66.3078 75.6159V23.2094C66.3078 10.4145 55.8478 0 43.003 0Z" fill="#1A1B3A"/>
<path d="M43.003 2.72659C41.2756 2.72659 39.5961 2.93913 37.9942 3.33992C46.9599 5.56249 53.6064 13.6147 53.6064 23.2094V75.6159H63.6241V23.2094C63.6181 11.9023 54.3894 2.72659 43.003 2.72659Z" fill="#CE9900"/>
<path d="M68.9496 80.2614C68.9496 83.4313 66.4213 85.9939 63.3013 85.9939H22.6987C19.5787 85.9939 17.0504 83.4252 17.0504 80.2614C17.0504 77.0915 19.5787 74.5228 22.6987 74.5228H63.3013C66.4213 74.5289 68.9496 77.0976 68.9496 80.2614Z" fill="#0673B0" stroke="#1A1B3A" stroke-width="4" stroke-miterlimit="10" stroke-linecap="round" stroke-linejoin="round"/>
<path d="M34.3541 80.5468C34.3541 83.5588 31.9513 86 28.9866 86C26.022 86 23.6192 83.5588 23.6192 80.5468C23.6192 77.5348 26.022 75.0936 28.9866 75.0936C31.9513 75.0936 34.3541 77.5348 34.3541 80.5468Z" fill="#F6B700" stroke="#1A1B3A" stroke-width="2" stroke-miterlimit="10" stroke-linecap="round" stroke-linejoin="round"/>
<path d="M30.8874 80.5468C30.8874 81.6156 30.0327 82.4779 28.9867 82.4779C27.9347 82.4779 27.0859 81.6095 27.0859 80.5468C27.0859 79.478 27.9347 78.6157 28.9867 78.6157C30.0327 78.6157 30.8874 79.478 30.8874 80.5468Z" fill="#1A1B3A"/>
<path d="M48.3705 80.5468C48.3705 83.5588 45.9676 86 43.003 86C40.0384 86 37.6356 83.5588 37.6356 80.5468C37.6356 77.5348 40.0384 75.0936 43.003 75.0936C45.9676 75.0936 48.3705 77.5348 48.3705 80.5468Z" fill="#F6B700" stroke="#1A1B3A" stroke-width="2" stroke-miterlimit="10" stroke-linecap="round" stroke-linejoin="round"/>
<path d="M44.9037 80.5468C44.9037 81.6156 44.049 82.4779 43.003 82.4779C41.951 82.4779 41.1023 81.6095 41.1023 80.5468C41.1023 79.478 41.957 78.6157 43.003 78.6157C44.049 78.6157 44.9037 79.478 44.9037 80.5468Z" fill="#1A1B3A"/>
<path d="M62.3867 80.5468C62.3867 83.5588 59.9839 86 57.0193 86C54.0547 86 51.6519 83.5588 51.6519 80.5468C51.6519 77.5348 54.0547 75.0936 57.0193 75.0936C59.9839 75.0936 62.3867 77.5348 62.3867 80.5468Z" fill="#F6B700" stroke="#1A1B3A" stroke-width="2" stroke-miterlimit="10" stroke-linecap="round" stroke-linejoin="round"/>
<path d="M58.92 80.5468C58.92 81.6156 58.0653 82.4779 57.0193 82.4779C55.9673 82.4779 55.1186 81.6095 55.1186 80.5468C55.1186 79.478 55.9673 78.6157 57.0193 78.6157C58.0653 78.6157 58.92 79.478 58.92 80.5468Z" fill="#1A1B3A"/>
<path d="M32.3637 37.4436H28.9627V40.8989H32.3637V37.4436Z" fill="#1A1B3A"/>
<path d="M37.3008 37.4436H33.8998V40.8989H37.3008V37.4436Z" fill="#1A1B3A"/>
<path d="M42.2319 37.4436H38.8309V40.8989H42.2319V37.4436Z" fill="#1A1B3A"/>
<path d="M47.169 37.4436H43.768V40.8989H47.169V37.4436Z" fill="#1A1B3A"/>
<path d="M52.1001 37.4436H48.6992V40.8989H52.1001V37.4436Z" fill="#1A1B3A"/>
<path d="M57.0372 37.4436H53.6362V40.8989H57.0372V37.4436Z" fill="#1A1B3A"/>
<path d="M38.831 27.4238C38.831 30.5755 36.3146 33.132 33.2125 33.132C30.1104 33.132 27.594 30.5755 27.594 27.4238C27.594 24.2721 30.1104 21.7156 33.2125 21.7156C36.3146 21.7156 38.831 24.2721 38.831 27.4238Z" fill="#8CD3F6" stroke="#1A1B3A" stroke-width="4" stroke-miterlimit="10" stroke-linecap="round" stroke-linejoin="round"/>
<path d="M35.6213 27.4238C35.6213 28.7719 34.5454 29.8711 33.2125 29.8711C31.8796 29.8711 30.8037 28.778 30.8037 27.4238C30.8037 26.0757 31.8796 24.9766 33.2125 24.9766C34.5454 24.9766 35.6213 26.0757 35.6213 27.4238Z" fill="#1A1B3A"/>
<path d="M58.412 27.4238C58.412 30.5755 55.8956 33.132 52.7935 33.132C49.6914 33.132 47.175 30.5755 47.175 27.4238C47.175 24.2721 49.6914 21.7156 52.7935 21.7156C55.8956 21.7156 58.412 24.2721 58.412 27.4238Z" fill="#8CD3F6" stroke="#1A1B3A" stroke-width="4" stroke-miterlimit="10" stroke-linecap="round" stroke-linejoin="round"/>
<path d="M55.1963 27.4238C55.1963 28.7719 54.1204 29.8711 52.7875 29.8711C51.4546 29.8711 50.3787 28.778 50.3787 27.4238C50.3787 26.0757 51.4546 24.9766 52.7875 24.9766C54.1204 24.9766 55.1963 26.0757 55.1963 27.4238Z" fill="#1A1B3A"/>
</svg>
