<svg width="82" height="91" viewBox="0 0 82 91" fill="none" xmlns="http://www.w3.org/2000/svg">
<path d="M72.2229 20.5333V24.887C72.2229 32.3775 66.2364 38.4494 58.8511 38.4494H23.1428C15.7576 38.4494 9.77106 32.3775 9.77106 24.887V20.5333" stroke="#1A1B3A" stroke-width="4" stroke-miterlimit="10" stroke-linecap="round" stroke-linejoin="round"/>
<path d="M17.5542 12.6453C17.5542 17.0051 14.0696 20.5333 9.77709 20.5333C5.48462 20.5333 2 16.999 2 12.6453" stroke="#1A1B3A" stroke-width="4" stroke-miterlimit="10" stroke-linecap="round" stroke-linejoin="round"/>
<path d="M80 12.6453C80 17.0051 76.5154 20.5333 72.2229 20.5333C67.9304 20.5333 64.4458 16.999 64.4458 12.6453" stroke="#1A1B3A" stroke-width="4" stroke-miterlimit="10" stroke-linecap="round" stroke-linejoin="round"/>
<path d="M25.6628 72.2884C24.9153 72.2884 24.3124 71.6708 24.3124 70.9187V45.298C24.3124 36.1564 31.8001 28.7148 41 28.7148C50.1998 28.7148 57.6875 36.1503 57.6875 45.298V70.9187C57.6875 71.6769 57.0786 72.2884 56.3371 72.2884H25.6628Z" fill="#F6B700"/>
<path d="M41 30.0906C49.4704 30.0906 56.3371 36.8963 56.3371 45.298V70.9187H25.6628V45.298C25.6628 36.8963 32.5296 30.0906 41 30.0906ZM41 27.3451C31.0525 27.3451 22.9559 35.3982 22.9559 45.298V70.9187C22.9559 72.4352 24.1677 73.6642 25.6628 73.6642H56.3311C57.8262 73.6642 59.038 72.4352 59.038 70.9187V45.298C59.038 35.3982 50.9474 27.3451 41 27.3451Z" fill="#1A1B3A"/>
<path d="M41 30.0906C39.7159 30.0906 38.4679 30.2496 37.2742 30.5431C43.942 32.1941 48.8856 38.1743 48.8856 45.298V70.9187H56.3311V45.298C56.3311 36.8963 49.4644 30.0906 41 30.0906Z" fill="#CE9900"/>
<path d="M30.3351 82.0598C30.3351 85.8937 27.2725 89 23.4925 89C19.7124 89 16.6498 85.8937 16.6498 82.0598V59.7716C16.6498 55.9376 19.7124 52.8313 23.4925 52.8313C27.2725 52.8313 30.3351 55.9376 30.3351 59.7716V82.0598Z" fill="#0673B0" stroke="#1A1B3A" stroke-width="4" stroke-miterlimit="10" stroke-linecap="round" stroke-linejoin="round"/>
<path d="M17.7772 58.9828H28.9123" stroke="#1A1B3A" stroke-width="4" stroke-miterlimit="10" stroke-linecap="round" stroke-linejoin="round"/>
<path d="M17.7772 64.9507H28.9123" stroke="#1A1B3A" stroke-width="4" stroke-miterlimit="10" stroke-linecap="round" stroke-linejoin="round"/>
<path d="M17.7772 70.9126H28.9123" stroke="#1A1B3A" stroke-width="4" stroke-miterlimit="10" stroke-linecap="round" stroke-linejoin="round"/>
<path d="M17.7772 76.8806H28.9123" stroke="#1A1B3A" stroke-width="4" stroke-miterlimit="10" stroke-linecap="round" stroke-linejoin="round"/>
<path d="M17.7772 82.8486H28.9123" stroke="#1A1B3A" stroke-width="4" stroke-miterlimit="10" stroke-linecap="round" stroke-linejoin="round"/>
<path d="M65.3441 82.0598C65.3441 85.8937 62.2815 89 58.5014 89C54.7214 89 51.6588 85.8937 51.6588 82.0598V59.7716C51.6588 55.9376 54.7214 52.8313 58.5014 52.8313C62.2815 52.8313 65.3441 55.9376 65.3441 59.7716V82.0598Z" fill="#0673B0" stroke="#1A1B3A" stroke-width="4" stroke-miterlimit="10" stroke-linecap="round" stroke-linejoin="round"/>
<path d="M52.7802 58.9828H63.9153" stroke="#1A1B3A" stroke-width="4" stroke-miterlimit="10" stroke-linecap="round" stroke-linejoin="round"/>
<path d="M52.7802 64.9507H63.9153" stroke="#1A1B3A" stroke-width="4" stroke-miterlimit="10" stroke-linecap="round" stroke-linejoin="round"/>
<path d="M52.7802 70.9126H63.9153" stroke="#1A1B3A" stroke-width="4" stroke-miterlimit="10" stroke-linecap="round" stroke-linejoin="round"/>
<path d="M52.7802 76.8806H63.9153" stroke="#1A1B3A" stroke-width="4" stroke-miterlimit="10" stroke-linecap="round" stroke-linejoin="round"/>
<path d="M52.7802 82.8486H63.9153" stroke="#1A1B3A" stroke-width="4" stroke-miterlimit="10" stroke-linecap="round" stroke-linejoin="round"/>
<path d="M28.8098 37.0064C28.0623 37.0064 27.4594 36.3949 27.4594 35.6367L27.4534 14.8405C27.4534 7.41717 33.5243 1.3758 40.9939 1.36969C48.4636 1.36969 54.5406 7.40494 54.5466 14.8282L54.5526 35.6244C54.5526 35.9913 54.4079 36.3399 54.1547 36.5967C53.9015 36.8535 53.5579 37.0003 53.1961 37.0003L28.8098 37.0064Z" fill="#F6B700"/>
<path d="M40.994 2.74552C47.7281 2.74552 53.1841 8.15706 53.1841 14.8344L53.1901 35.6306L28.8038 35.6367L28.7978 14.8405C28.7978 8.16318 34.2599 2.74552 40.994 2.74552ZM40.994 0C32.7768 0.00611474 26.0909 6.65895 26.0969 14.8405L26.103 35.6367C26.103 37.1531 27.3147 38.3822 28.8099 38.3822L53.1962 38.37C53.9136 38.37 54.6009 38.0826 55.1073 37.5628C55.6137 37.0492 55.8971 36.3521 55.8971 35.6183L55.891 14.8221C55.891 6.65284 49.2051 0 40.994 0Z" fill="#1A1B3A"/>
<path d="M40.9879 2.74552C39.9691 2.74552 38.9743 2.87393 38.0278 3.10629C43.3331 4.41484 47.2639 9.16599 47.2639 14.8344L47.2699 35.6306H53.1901L53.1841 14.8344C53.1841 8.15095 47.7221 2.7394 40.9879 2.74552Z" fill="#CE9900"/>
<path d="M34.712 23.5112H32.6984V25.5535H34.712V23.5112Z" fill="#1A1B3A"/>
<path d="M37.6299 23.5051H35.6163V25.5474H37.6299V23.5051Z" fill="#1A1B3A"/>
<path d="M40.5478 23.5051H38.5342V25.5474H40.5478V23.5051Z" fill="#1A1B3A"/>
<path d="M43.4658 23.5051H41.4521V25.5474H43.4658V23.5051Z" fill="#1A1B3A"/>
<path d="M46.3837 23.5051H44.3701V25.5474H46.3837V23.5051Z" fill="#1A1B3A"/>
<path d="M49.3016 23.5051H47.288V25.5474H49.3016V23.5051Z" fill="#1A1B3A"/>
<path d="M47.4568 20.1542C47.4568 20.7534 46.9745 21.2426 46.3837 21.2426H35.6103C35.0195 21.2426 34.5372 20.7534 34.5372 20.1542V11.3795C34.5372 10.7803 35.0195 10.2911 35.6103 10.2911H46.3837C46.9745 10.2911 47.4568 10.7803 47.4568 11.3795V20.1542Z" fill="#1A1B3A"/>
<path d="M39.1491 17.6838C39.1491 18.5277 38.4739 19.2125 37.642 19.2125C36.81 19.2125 36.1348 18.5277 36.1348 17.6838V13.8438C36.1348 12.9999 36.81 12.3151 37.642 12.3151C38.4739 12.3151 39.1491 12.9999 39.1491 13.8438V17.6838Z" fill="#8CD3F6"/>
<path d="M45.8651 17.6838C45.8651 18.5277 45.1899 19.2125 44.358 19.2125C43.526 19.2125 42.8508 18.5277 42.8508 17.6838V13.8438C42.8508 12.9999 43.526 12.3151 44.358 12.3151C45.1899 12.3151 45.8651 12.9999 45.8651 13.8438V17.6838Z" fill="#8CD3F6"/>
</svg>
