<svg width="91" height="94" viewBox="0 0 91 94" fill="none" xmlns="http://www.w3.org/2000/svg">
<path d="M23.9136 63.4672C23.1631 63.4672 22.5518 62.8523 22.5518 62.1035V23.9623C22.5518 11.5002 32.8472 1.36371 45.497 1.36371C58.1468 1.36371 68.4422 11.5002 68.4422 23.9623V62.0974C68.4422 62.8523 67.8309 63.4611 67.0804 63.4611H23.9136V63.4672Z" fill="#8CD3F6"/>
<path d="M45.503 2.7335C57.4265 2.7335 67.0864 12.2368 67.0864 23.9623V62.0974H23.9136V23.9623C23.9136 12.2368 33.5795 2.7335 45.503 2.7335ZM45.503 0C32.0966 0 21.196 10.7514 21.196 23.9623V62.0974C21.196 63.6072 22.4126 64.8309 23.9136 64.8309H67.0864C68.5874 64.8309 69.804 63.6072 69.804 62.0974V23.9623C69.804 10.7514 58.9034 0 45.503 0Z" fill="#1A1B3A"/>
<path d="M45.503 2.73349C43.6933 2.73349 41.9381 2.95266 40.2615 3.36664C49.649 5.6679 56.6034 14.0145 56.6034 23.9623V62.0974H67.0864V23.9623C67.0864 12.2368 57.4205 2.73349 45.503 2.73349Z" fill="#4CB2DC"/>
<path d="M34.3664 24.4067H30.8075V27.9865H34.3664V24.4067Z" fill="#1A1B3A"/>
<path d="M39.5292 24.4067H35.9703V27.9865H39.5292V24.4067Z" fill="#1A1B3A"/>
<path d="M44.6981 24.4067H41.1392V27.9865H44.6981V24.4067Z" fill="#1A1B3A"/>
<path d="M49.8609 24.4067H46.302V27.9865H49.8609V24.4067Z" fill="#1A1B3A"/>
<path d="M55.0237 24.4067H51.4648V27.9865H55.0237V24.4067Z" fill="#1A1B3A"/>
<path d="M60.1926 24.4067H56.6337V27.9865H60.1926V24.4067Z" fill="#1A1B3A"/>
<path d="M40.1586 14.2581C40.1586 18.2579 36.9326 21.5028 32.9561 21.5028C28.9796 21.5028 25.7536 18.2579 25.7536 14.2581C25.7536 10.2583 28.9796 7.01337 32.9561 7.01337C36.9387 7.01945 40.1586 10.2583 40.1586 14.2581Z" fill="white" stroke="#1A1B3A" stroke-width="3" stroke-miterlimit="10" stroke-linecap="round" stroke-linejoin="round"/>
<path d="M36.0429 14.2581C36.0429 15.9749 34.6629 17.3629 32.9561 17.3629C31.2553 17.3629 29.8693 15.9749 29.8693 14.2581C29.8693 12.5473 31.2493 11.1532 32.9561 11.1532C34.6629 11.1593 36.0429 12.5473 36.0429 14.2581Z" fill="#1A1B3A"/>
<path d="M65.2404 14.2581C65.2404 18.2579 62.0144 21.5028 58.0379 21.5028C54.0613 21.5028 50.8353 18.2579 50.8353 14.2581C50.8353 10.2583 54.0613 7.01337 58.0379 7.01337C62.0144 7.01337 65.2404 10.2583 65.2404 14.2581Z" fill="white" stroke="#1A1B3A" stroke-width="3" stroke-miterlimit="10" stroke-linecap="round" stroke-linejoin="round"/>
<path d="M61.1307 14.2581C61.1307 15.9749 59.7507 17.3629 58.0439 17.3629C56.3371 17.3629 54.9571 15.9749 54.9571 14.2581C54.9571 12.5473 56.3371 11.1532 58.0439 11.1532C59.7447 11.1593 61.1307 12.5473 61.1307 14.2581Z" fill="#1A1B3A"/>
<path d="M88.1008 72.5505C88.1008 77.5304 79.1309 88.6166 79.1309 88.6166C79.1309 88.6166 70.1611 77.5365 70.1611 72.5505C70.1611 67.5705 74.1739 63.5281 79.1309 63.5281C84.088 63.5281 88.1008 67.5644 88.1008 72.5505Z" fill="#F6B700" stroke="#1A1B3A" stroke-width="2" stroke-miterlimit="10" stroke-linecap="round" stroke-linejoin="round"/>
<path d="M83.0469 73.3419C83.0469 75.5153 79.1309 80.3552 79.1309 80.3552C79.1309 80.3552 75.2149 75.5153 75.2149 73.3419C75.2149 71.1624 76.9702 69.403 79.1309 69.403C81.2977 69.3969 83.0469 71.1624 83.0469 73.3419Z" fill="#8CD3F6" stroke="#1A1B3A" stroke-width="2" stroke-miterlimit="10" stroke-linecap="round" stroke-linejoin="round"/>
<path d="M20.8389 72.5505C20.8389 77.5304 11.869 88.6166 11.869 88.6166C11.869 88.6166 2.89917 77.5365 2.89917 72.5505C2.89917 67.5705 6.91201 63.5281 11.869 63.5281C16.82 63.5281 20.8389 67.5644 20.8389 72.5505Z" fill="#F6B700" stroke="#1A1B3A" stroke-width="2" stroke-miterlimit="10" stroke-linecap="round" stroke-linejoin="round"/>
<path d="M15.785 73.3419C15.785 75.5153 11.869 80.3552 11.869 80.3552C11.869 80.3552 7.95303 75.5153 7.95303 73.3419C7.95303 71.1624 9.70827 69.403 11.869 69.403C14.0298 69.3969 15.785 71.1624 15.785 73.3419Z" fill="#8CD3F6" stroke="#1A1B3A" stroke-width="2" stroke-miterlimit="10" stroke-linecap="round" stroke-linejoin="round"/>
<path d="M69.9795 64.5996C69.229 64.5996 68.6237 63.9847 68.6237 63.2298V57.9576C68.6237 52.1253 73.3387 47.3828 79.137 47.3828C84.9353 47.3828 89.6503 52.1253 89.6503 57.9576V63.2298C89.6503 63.9847 89.0389 64.5996 88.2945 64.5996H69.9795Z" fill="#8CD3F6"/>
<path d="M79.1309 48.7525C84.1848 48.7525 88.2824 52.8741 88.2824 57.9576V63.2298H69.9795V57.9576C69.9795 52.8741 74.0771 48.7525 79.1309 48.7525ZM79.1309 46.019C72.5821 46.019 67.2619 51.3765 67.2619 57.9576V63.2298C67.2619 64.7396 68.4785 65.9633 69.9795 65.9633H88.2824C89.7834 65.9633 91 64.7396 91 63.2298V57.9576C91.006 51.3765 85.6798 46.019 79.1309 46.019Z" fill="#1A1B3A"/>
<path d="M85.6193 57.9576V63.2298H88.2824V57.9576C88.2824 52.8741 84.1848 48.7526 79.1309 48.7526C78.677 48.7526 78.2352 48.7891 77.7994 48.85C82.2238 49.5014 85.6193 53.3307 85.6193 57.9576Z" fill="#4CB2DC"/>
<path d="M2.7176 64.5996C1.96708 64.5996 1.35577 63.9847 1.35577 63.2298V57.9576C1.35577 52.1253 6.07071 47.3828 11.869 47.3828C17.6674 47.3828 22.3823 52.1253 22.3823 57.9576V63.2298C22.3823 63.9847 21.771 64.5996 21.0265 64.5996H2.7176Z" fill="#8CD3F6"/>
<path d="M11.869 48.7525C16.9229 48.7525 21.0205 52.8741 21.0205 57.9576V63.2298H2.71759V57.9576C2.71759 52.8741 6.81516 48.7525 11.869 48.7525ZM11.869 46.019C5.32019 46.019 0 51.3765 0 57.9576V63.2298C0 64.7396 1.21656 65.9633 2.71759 65.9633H21.0265C22.5276 65.9633 23.7441 64.7396 23.7441 63.2298V57.9576C23.7381 51.3765 18.4118 46.019 11.869 46.019Z" fill="#1A1B3A"/>
<path d="M18.3574 57.9576V63.2298H21.0205V57.9576C21.0205 52.8741 16.9229 48.7526 11.869 48.7526C11.4151 48.7526 10.9733 48.7891 10.5375 48.85C14.9558 49.5014 18.3574 53.3307 18.3574 57.9576Z" fill="#4CB2DC"/>
<path d="M55.4231 75.2231C55.4231 80.7388 45.497 93 45.497 93C45.497 93 35.5708 80.7388 35.5708 75.2231C35.5708 69.7074 40.0134 65.2388 45.497 65.2388C50.9806 65.2449 55.4231 69.7135 55.4231 75.2231Z" fill="#F6B700" stroke="#1A1B3A" stroke-width="2" stroke-miterlimit="10" stroke-linecap="round" stroke-linejoin="round"/>
<path d="M49.8367 76.0998C49.8367 78.5106 45.503 83.862 45.503 83.862C45.503 83.862 41.1694 78.5045 41.1694 76.0998C41.1694 73.6889 43.1123 71.7408 45.503 71.7408C47.8938 71.7408 49.8367 73.6889 49.8367 76.0998Z" fill="#8CD3F6" stroke="#1A1B3A" stroke-width="2" stroke-miterlimit="10" stroke-linecap="round" stroke-linejoin="round"/>
<path d="M69.2895 62.0974H21.7105V67.5462H69.2895V62.0974Z" fill="#0673B0" stroke="#1A1B3A" stroke-width="2" stroke-miterlimit="10" stroke-linecap="round" stroke-linejoin="round"/>
<path d="M26.5344 62.0974V67.5462" stroke="#1A1B3A" stroke-width="2" stroke-miterlimit="10" stroke-linecap="round" stroke-linejoin="round"/>
<path d="M32.8593 62.0974V67.5462" stroke="#1A1B3A" stroke-width="2" stroke-miterlimit="10" stroke-linecap="round" stroke-linejoin="round"/>
<path d="M39.1781 62.0974V67.5462" stroke="#1A1B3A" stroke-width="2" stroke-miterlimit="10" stroke-linecap="round" stroke-linejoin="round"/>
<path d="M45.503 62.0974V67.5462" stroke="#1A1B3A" stroke-width="2" stroke-miterlimit="10" stroke-linecap="round" stroke-linejoin="round"/>
<path d="M51.8219 62.0974V67.5462" stroke="#1A1B3A" stroke-width="2" stroke-miterlimit="10" stroke-linecap="round" stroke-linejoin="round"/>
<path d="M58.1468 62.0974V67.5462" stroke="#1A1B3A" stroke-width="2" stroke-miterlimit="10" stroke-linecap="round" stroke-linejoin="round"/>
<path d="M64.4656 62.0974V67.5462" stroke="#1A1B3A" stroke-width="2" stroke-miterlimit="10" stroke-linecap="round" stroke-linejoin="round"/>
</svg>
