<svg width="104" height="88" viewBox="0 0 104 88" fill="none" xmlns="http://www.w3.org/2000/svg">
<path d="M85.3632 28.295L96.3494 35.7379V60.5152" stroke="#1A1B3A" stroke-width="4" stroke-miterlimit="10" stroke-linecap="round" stroke-linejoin="round"/>
<path d="M90.705 27.1945C90.705 31.9166 86.7959 35.7439 81.9728 35.7439C77.1498 35.7439 73.2407 31.9166 73.2407 27.1945C73.2407 22.4725 77.1498 18.6452 81.9728 18.6452C86.7959 18.6452 90.705 22.4725 90.705 27.1945Z" fill="#1A1B3A"/>
<path d="M90.705 72.8797V65.4429L96.6582 59.8078L102 65.4429V72.8797" stroke="#1A1B3A" stroke-width="4" stroke-miterlimit="10" stroke-linecap="round" stroke-linejoin="round"/>
<path d="M18.6368 28.295L7.65057 35.7379V60.5152" stroke="#1A1B3A" stroke-width="4" stroke-miterlimit="10" stroke-linecap="round" stroke-linejoin="round"/>
<path d="M13.3012 27.1945C13.3012 31.9166 17.2103 35.7439 22.0334 35.7439C26.8564 35.7439 30.7655 31.9166 30.7655 27.1945C30.7655 22.4725 26.8564 18.6452 22.0334 18.6452C17.2041 18.6452 13.3012 22.4725 13.3012 27.1945Z" fill="#1A1B3A"/>
<path d="M13.3012 72.8797V65.4429L7.34181 59.8078L2 65.4429V72.8797" stroke="#1A1B3A" stroke-width="4" stroke-miterlimit="10" stroke-linecap="round" stroke-linejoin="round"/>
<path d="M52.0031 71.2231C33.81 71.2231 19.0135 56.7303 19.0135 38.9242C19.0135 21.1181 33.8162 6.62537 52.0031 6.62537C70.1899 6.62537 84.9926 21.1181 84.9926 38.9242C84.9926 56.7303 70.1899 71.2231 52.0031 71.2231Z" fill="#8CD3F6"/>
<path d="M52.0031 7.9797C69.4551 7.9797 83.6093 21.8316 83.6093 38.9242C83.6093 56.0108 69.4612 69.8687 52.0031 69.8687C34.5511 69.8687 20.3968 56.0168 20.3968 38.9242C20.3968 21.8376 34.5449 7.9797 52.0031 7.9797ZM52.0031 5.26495C42.8201 5.26495 34.1867 8.76571 27.6963 15.1203C21.1996 21.4809 17.624 29.9335 17.624 38.9242C17.624 47.9149 21.1996 56.3675 27.6901 62.7221C34.1806 69.0767 42.8139 72.5774 51.9969 72.5774C61.1799 72.5774 69.8132 69.0767 76.3037 62.7221C82.7942 56.3675 86.3698 47.9149 86.3698 38.9242C86.3698 29.9335 82.7942 21.4809 76.3037 15.1263C69.8132 8.76571 61.1861 5.26495 52.0031 5.26495Z" fill="#1A1B3A"/>
<path d="M52.0031 7.97968C49.644 7.97968 47.3468 8.23362 45.1359 8.71731C59.2902 11.7888 69.875 24.1472 69.875 38.9242C69.875 53.7011 59.2902 66.0596 45.1359 69.131C47.3468 69.6087 49.644 69.8626 52.0031 69.8626C69.4551 69.8626 83.6093 56.0108 83.6093 38.9181C83.6032 21.8376 69.4551 7.97968 52.0031 7.97968Z" fill="#4CB2DC"/>
<path d="M47.4703 7.9797C47.4703 11.2809 44.7345 13.9594 41.3627 13.9594C37.9909 13.9594 35.2551 11.2809 35.2551 7.9797C35.2551 4.67847 37.9909 2 41.3627 2C44.7345 2 47.4703 4.67847 47.4703 7.9797Z" fill="#FDFADE" stroke="#1A1B3A" stroke-width="3" stroke-miterlimit="10" stroke-linecap="round" stroke-linejoin="round"/>
<path d="M43.9811 7.97973C43.9811 9.39454 42.8077 10.5433 41.3627 10.5433C39.9176 10.5433 38.7443 9.39454 38.7443 7.97973C38.7443 6.56492 39.9176 5.41614 41.3627 5.41614C42.8077 5.42218 43.9811 6.56492 43.9811 7.97973Z" fill="#1A1B3A"/>
<path d="M68.7511 7.9797C68.7511 11.2809 66.0154 13.9594 62.6435 13.9594C59.2717 13.9594 56.5359 11.2809 56.5359 7.9797C56.5359 4.67847 59.2717 2 62.6435 2C66.0154 2 68.7511 4.67847 68.7511 7.9797Z" fill="#FDFADE" stroke="#1A1B3A" stroke-width="3" stroke-miterlimit="10" stroke-linecap="round" stroke-linejoin="round"/>
<path d="M65.2558 7.97973C65.2558 9.39454 64.0824 10.5433 62.6373 10.5433C61.1923 10.5433 60.0189 9.39454 60.0189 7.97973C60.0189 6.56492 61.1923 5.41614 62.6373 5.41614C64.0824 5.42218 65.2558 6.56492 65.2558 7.97973Z" fill="#1A1B3A"/>
<path d="M69.6465 54.1788C69.6465 58.4655 66.0956 61.9421 61.7172 61.9421H42.2829C37.9044 61.9421 34.3535 58.4655 34.3535 54.1788V41.4455C34.3535 37.1587 37.9044 33.6821 42.2829 33.6821H61.7172C66.0956 33.6821 69.6465 37.1587 69.6465 41.4455V54.1788Z" fill="#0673B0" stroke="#1A1B3A" stroke-width="4" stroke-miterlimit="10" stroke-linecap="round" stroke-linejoin="round"/>
<path d="M65.5707 50.0069C65.5707 51.5064 64.3294 52.7217 62.7979 52.7217C61.2664 52.7217 60.0251 51.5064 60.0251 50.0069C60.0251 48.5075 61.2664 47.2922 62.7979 47.2922C64.3294 47.2922 65.5707 48.5075 65.5707 50.0069Z" fill="#1A1B3A"/>
<path d="M43.2833 19.2377H38.8246V22.0553H43.2833V19.2377Z" fill="#1A1B3A"/>
<path d="M50.5827 19.2377H46.124V22.0553H50.5827V19.2377Z" fill="#1A1B3A"/>
<path d="M57.876 19.2377H53.4173V22.0553H57.876V19.2377Z" fill="#1A1B3A"/>
<path d="M65.1754 19.2377H60.7167V22.0553H65.1754V19.2377Z" fill="#1A1B3A"/>
<path d="M34.3473 80.3891C34.3473 83.4908 31.7783 86 28.6164 86C25.4484 86 22.8856 83.4848 22.8856 80.3891V62.3653C22.8856 59.2636 25.4546 56.7545 28.6164 56.7545C31.7845 56.7545 34.3473 59.2697 34.3473 62.3653V80.3891Z" fill="#FDFADE" stroke="#1A1B3A" stroke-width="3" stroke-miterlimit="10" stroke-linecap="round" stroke-linejoin="round"/>
<path d="M23.8242 61.7184H33.1554" stroke="#1A1B3A" stroke-width="3" stroke-miterlimit="10" stroke-linecap="round" stroke-linejoin="round"/>
<path d="M23.8242 66.5493H33.1554" stroke="#1A1B3A" stroke-width="3" stroke-miterlimit="10" stroke-linecap="round" stroke-linejoin="round"/>
<path d="M23.8242 71.3742H33.1554" stroke="#1A1B3A" stroke-width="3" stroke-miterlimit="10" stroke-linecap="round" stroke-linejoin="round"/>
<path d="M23.8242 76.199H33.1554" stroke="#1A1B3A" stroke-width="3" stroke-miterlimit="10" stroke-linecap="round" stroke-linejoin="round"/>
<path d="M23.8242 81.0239H33.1554" stroke="#1A1B3A" stroke-width="3" stroke-miterlimit="10" stroke-linecap="round" stroke-linejoin="round"/>
<path d="M81.1145 80.3891C81.1145 83.4908 78.5454 86 75.3836 86C72.2155 86 69.6527 83.4848 69.6527 80.3891V62.3653C69.6527 59.2636 72.2217 56.7545 75.3836 56.7545C78.5516 56.7545 81.1145 59.2697 81.1145 62.3653V80.3891Z" fill="#FDFADE" stroke="#1A1B3A" stroke-width="3" stroke-miterlimit="10" stroke-linecap="round" stroke-linejoin="round"/>
<path d="M70.5914 61.7184H79.9164" stroke="#1A1B3A" stroke-width="3" stroke-miterlimit="10" stroke-linecap="round" stroke-linejoin="round"/>
<path d="M70.5914 66.5493H79.9164" stroke="#1A1B3A" stroke-width="3" stroke-miterlimit="10" stroke-linecap="round" stroke-linejoin="round"/>
<path d="M70.5914 71.3742H79.9164" stroke="#1A1B3A" stroke-width="3" stroke-miterlimit="10" stroke-linecap="round" stroke-linejoin="round"/>
<path d="M70.5914 76.199H79.9164" stroke="#1A1B3A" stroke-width="3" stroke-miterlimit="10" stroke-linecap="round" stroke-linejoin="round"/>
<path d="M70.5914 81.0239H79.9164" stroke="#1A1B3A" stroke-width="3" stroke-miterlimit="10" stroke-linecap="round" stroke-linejoin="round"/>
</svg>
