<svg width="101" height="112" viewBox="0 0 101 112" fill="none" xmlns="http://www.w3.org/2000/svg">
<path d="M75.8729 29.4282L86.5225 36.9488V62.0053" stroke="#1A1B3A" stroke-width="4" stroke-miterlimit="10" stroke-linecap="round" stroke-linejoin="round"/>
<path d="M81.0451 28.3093C81.0451 33.0846 77.2558 36.9549 72.5805 36.9549C67.9052 36.9549 64.1158 33.0846 64.1158 28.3093C64.1158 23.534 67.9052 19.6636 72.5805 19.6636C77.2618 19.6636 81.0451 23.534 81.0451 28.3093Z" fill="#1A1B3A"/>
<path d="M81.0451 74.5091V66.9884L86.8219 61.296L92 66.9884V74.5091" stroke="#1A1B3A" stroke-width="4" stroke-miterlimit="10" stroke-linecap="round" stroke-linejoin="round"/>
<path d="M25.1331 29.4282L14.4775 36.9488V62.0053" stroke="#1A1B3A" stroke-width="4" stroke-miterlimit="10" stroke-linecap="round" stroke-linejoin="round"/>
<path d="M19.9549 28.3093C19.9549 33.0846 23.7442 36.9549 28.4195 36.9549C33.0948 36.9549 36.8841 33.0846 36.8841 28.3093C36.8841 23.534 33.0948 19.6636 28.4195 19.6636C23.7442 19.6636 19.9549 23.534 19.9549 28.3093Z" fill="#1A1B3A"/>
<path d="M19.9549 74.5091V66.9884L14.1781 61.296L9 66.9884V74.5091" stroke="#1A1B3A" stroke-width="4" stroke-miterlimit="10" stroke-linecap="round" stroke-linejoin="round"/>
<path d="M28.7787 78.2204C28.0364 78.2204 27.4318 77.6029 27.4318 76.8447V24.4389C27.4318 11.7211 37.7821 1.3696 50.503 1.3696C63.2239 1.3696 73.5742 11.715 73.5742 24.4389V76.8508C73.5742 77.609 72.9696 78.2266 72.2273 78.2266H28.7787V78.2204Z" fill="#8CD3F6"/>
<path d="M50.503 2.74533C62.4995 2.74533 72.2273 12.461 72.2273 24.4389V76.8509H28.7787V24.4389C28.7787 12.461 38.5005 2.74533 50.503 2.74533ZM50.503 0C37.0398 0 26.0909 10.963 26.0909 24.4389V76.8509C26.0909 78.3672 27.2941 79.5962 28.7787 79.5962H72.2273C73.7119 79.5962 74.9151 78.3672 74.9151 76.8509V24.4389C74.9151 10.963 63.9602 0 50.503 0Z" fill="#1A1B3A"/>
<path d="M50.503 2.74533C48.6832 2.74533 46.9172 2.97156 45.2291 3.39345C54.6754 5.74746 61.6794 14.2769 61.6794 24.4389V76.8508H72.2332V24.4389C72.2273 12.461 62.4995 2.74533 50.503 2.74533Z" fill="#4CB2DC"/>
<path d="M77.8364 82.9224C77.8364 86.2791 75.1725 89 71.886 89H29.114C25.8275 89 23.1636 86.2791 23.1636 82.9224C23.1636 79.5656 25.8275 76.8447 29.114 76.8447H71.892C75.1725 76.8508 77.8364 79.5717 77.8364 82.9224Z" fill="#0673B0" stroke="#1A1B3A" stroke-width="44.9009" stroke-miterlimit="10" stroke-linecap="round" stroke-linejoin="round"/>
<path d="M41.3859 82.9224C41.3859 86.1141 38.8537 88.7004 35.7288 88.7004C32.604 88.7004 30.0718 86.1141 30.0718 82.9224C30.0718 79.7307 32.604 77.1443 35.7288 77.1443C38.8597 77.1505 41.3859 79.7368 41.3859 82.9224Z" fill="#F6B700" stroke="#1A1B3A" stroke-width="2" stroke-miterlimit="10" stroke-linecap="round" stroke-linejoin="round"/>
<path d="M37.7403 82.9224C37.7403 84.0535 36.8423 84.9707 35.7348 84.9707C34.6274 84.9707 33.7294 84.0535 33.7294 82.9224C33.7294 81.7912 34.6274 80.8741 35.7348 80.8741C36.8423 80.8741 37.7403 81.7973 37.7403 82.9224Z" fill="#1A1B3A"/>
<path d="M56.1541 82.9224C56.1541 86.1141 53.6219 88.7004 50.497 88.7004C47.3722 88.7004 44.84 86.1141 44.84 82.9224C44.84 79.7307 47.3722 77.1443 50.497 77.1443C53.6219 77.1443 56.1541 79.7368 56.1541 82.9224Z" fill="#F6B700" stroke="#1A1B3A" stroke-width="2" stroke-miterlimit="10" stroke-linecap="round" stroke-linejoin="round"/>
<path d="M52.5025 82.9224C52.5025 84.0535 51.6045 84.9707 50.497 84.9707C49.3896 84.9707 48.4916 84.0535 48.4916 82.9224C48.4916 81.7912 49.3896 80.8741 50.497 80.8741C51.6045 80.8741 52.5025 81.7973 52.5025 82.9224Z" fill="#1A1B3A"/>
<path d="M70.9223 82.9224C70.9223 86.1141 68.3901 88.7004 65.2652 88.7004C62.1404 88.7004 59.6082 86.1141 59.6082 82.9224C59.6082 79.7307 62.1404 77.1443 65.2652 77.1443C68.3901 77.1505 70.9223 79.7368 70.9223 82.9224Z" fill="#F6B700" stroke="#1A1B3A" stroke-width="2" stroke-miterlimit="10" stroke-linecap="round" stroke-linejoin="round"/>
<path d="M67.2706 82.9224C67.2706 84.0535 66.3727 84.9707 65.2652 84.9707C64.1578 84.9707 63.2598 84.0535 63.2598 82.9224C63.2598 81.7912 64.1578 80.8741 65.2652 80.8741C66.3727 80.8802 67.2706 81.7973 67.2706 82.9224Z" fill="#1A1B3A"/>
<path d="M46.109 24.494C46.109 27.8324 43.4571 30.541 40.1886 30.541C36.9201 30.541 34.2681 27.8324 34.2681 24.494C34.2681 21.1555 36.9201 18.4469 40.1886 18.4469C43.4571 18.4469 46.109 21.1555 46.109 24.494Z" fill="white" stroke="#1A1B3A" stroke-width="3" stroke-miterlimit="10" stroke-linecap="round" stroke-linejoin="round"/>
<path d="M42.7268 24.494C42.7268 25.9247 41.5894 27.0864 40.1886 27.0864C38.7878 27.0864 37.6504 25.9247 37.6504 24.494C37.6504 23.0632 38.7878 21.9015 40.1886 21.9015C41.5894 21.9015 42.7268 23.0632 42.7268 24.494Z" fill="#1A1B3A"/>
<path d="M66.7378 24.494C66.7378 27.8324 64.0859 30.541 60.8174 30.541C57.5488 30.541 54.8969 27.8324 54.8969 24.494C54.8969 21.1555 57.5488 18.4469 60.8174 18.4469C64.0859 18.4469 66.7378 21.1555 66.7378 24.494Z" fill="white" stroke="#1A1B3A" stroke-width="3" stroke-miterlimit="10" stroke-linecap="round" stroke-linejoin="round"/>
<path d="M63.3496 24.494C63.3496 25.9247 62.2122 27.0864 60.8114 27.0864C59.4106 27.0864 58.2732 25.9247 58.2732 24.494C58.2732 23.0632 59.4106 21.9015 60.8114 21.9015C62.2122 21.9015 63.3496 23.0632 63.3496 24.494Z" fill="#1A1B3A"/>
<path d="M39.2967 43.8641H35.7109V47.5266H39.2967V43.8641Z" fill="#1A1B3A"/>
<path d="M44.4988 43.8641H40.913V47.5266H44.4988V43.8641Z" fill="#1A1B3A"/>
<path d="M49.6949 43.8641H46.1091V47.5266H49.6949V43.8641Z" fill="#1A1B3A"/>
<path d="M54.891 43.8641H51.3052V47.5266H54.891V43.8641Z" fill="#1A1B3A"/>
<path d="M60.0931 43.8641H56.5073V47.5266H60.0931V43.8641Z" fill="#1A1B3A"/>
<path d="M65.2892 43.8641H61.7034V47.5266H65.2892V43.8641Z" fill="#1A1B3A"/>
</svg>
