<svg width="93" height="95" viewBox="0 0 93 95" fill="none" xmlns="http://www.w3.org/2000/svg">
<path d="M76.1875 24.6814L85.9688 31.2785V45.2105" stroke="#1A1B3A" stroke-width="4" stroke-miterlimit="10" stroke-linecap="round" stroke-linejoin="round"/>
<path d="M80.9438 23.6998C80.9438 27.8885 77.4625 31.2785 73.175 31.2785C68.8875 31.2785 65.4062 27.8824 65.4062 23.6998C65.4062 19.511 68.8875 16.121 73.175 16.121C77.4625 16.121 80.9438 19.511 80.9438 23.6998Z" fill="#1A1B3A"/>
<path d="M80.9437 56.1793V49.5822L86.2437 44.5886L91 49.5822V56.1793" stroke="#1A1B3A" stroke-width="4" stroke-miterlimit="10" stroke-linecap="round" stroke-linejoin="round"/>
<path d="M16.8063 24.6814L7.02502 31.2785V45.2105" stroke="#1A1B3A" stroke-width="4" stroke-miterlimit="10" stroke-linecap="round" stroke-linejoin="round"/>
<path d="M12.05 23.6998C12.05 27.8885 15.5312 31.2785 19.8187 31.2785C24.1125 31.2785 27.5875 27.8824 27.5875 23.6998C27.5875 19.511 24.1062 16.121 19.8187 16.121C15.5312 16.121 12.05 19.511 12.05 23.6998Z" fill="#1A1B3A"/>
<path d="M12.05 56.1793V49.5822L6.75 44.5886L2 49.5822V56.1793" stroke="#1A1B3A" stroke-width="4" stroke-miterlimit="10" stroke-linecap="round" stroke-linejoin="round"/>
<path d="M23.8188 83.2994C23.0438 83.2994 22.4188 82.6836 22.4188 81.9336V29.6689C22.4188 16.9868 33.225 6.66431 46.5063 6.66431C59.7875 6.66431 70.5938 16.9807 70.5938 29.6689V81.9336C70.5938 82.6897 69.9625 83.2994 69.1875 83.2994H23.8188Z" fill="#F6B700"/>
<path d="M46.5 8.03007C59.025 8.03007 69.1813 17.7184 69.1813 29.6628V81.9276H23.8188V29.6689C23.8188 17.7184 33.9688 8.03007 46.5 8.03007ZM46.5 5.29245C32.4438 5.29245 21.0125 16.2246 21.0125 29.6628V81.9276C21.0125 83.4397 22.2688 84.6652 23.8188 84.6652H69.1813C70.7313 84.6652 71.9875 83.4397 71.9875 81.9276V29.6689C71.9875 16.2307 60.55 5.29245 46.5 5.29245Z" fill="#1A1B3A"/>
<path d="M46.5 8.03006C44.6 8.03006 42.7563 8.25565 40.9938 8.67636C50.8563 11.0238 58.1688 19.5293 58.1688 29.6628V81.9276H69.1875V29.6689C69.1813 17.7184 59.025 8.03006 46.5 8.03006Z" fill="#CE9900"/>
<path d="M41.9125 8.03008C41.9125 11.3591 39.1437 14.0602 35.7312 14.0602C32.3187 14.0602 29.55 11.3591 29.55 8.03008C29.55 4.70104 32.3187 2 35.7312 2C39.1437 2 41.9125 4.70104 41.9125 8.03008Z" fill="#FDFADE" stroke="#1A1B3A" stroke-width="4" stroke-miterlimit="10" stroke-linecap="round" stroke-linejoin="round"/>
<path d="M38.3812 8.03008C38.3812 9.45681 37.1937 10.6153 35.7312 10.6153C34.2687 10.6153 33.0812 9.45681 33.0812 8.03008C33.0812 6.60334 34.2687 5.44489 35.7312 5.44489C37.1937 5.45098 38.3812 6.60334 38.3812 8.03008Z" fill="#1A1B3A"/>
<path d="M63.45 8.03008C63.45 11.3591 60.6812 14.0602 57.2687 14.0602C53.8562 14.0602 51.0875 11.3591 51.0875 8.03008C51.0875 4.70104 53.8562 2 57.2687 2C60.6812 2 63.45 4.70104 63.45 8.03008Z" fill="#FDFADE" stroke="#1A1B3A" stroke-width="4" stroke-miterlimit="10" stroke-linecap="round" stroke-linejoin="round"/>
<path d="M59.9125 8.03008C59.9125 9.45681 58.725 10.6153 57.2625 10.6153C55.8 10.6153 54.6125 9.45681 54.6125 8.03008C54.6125 6.60334 55.8 5.44489 57.2625 5.44489C58.725 5.45098 59.9125 6.60334 59.9125 8.03008Z" fill="#1A1B3A"/>
<path d="M83.5312 83.1165C86.2857 83.1165 88.5187 80.9381 88.5187 78.251C88.5187 75.5638 86.2857 73.3854 83.5312 73.3854C80.7767 73.3854 78.5437 75.5638 78.5437 78.251C78.5437 80.9381 80.7767 83.1165 83.5312 83.1165Z" fill="#1A1B3A"/>
<path d="M83.5312 87.3418C83.5312 90.4697 80.9312 93 77.7312 93C74.525 93 71.9312 90.4636 71.9312 87.3418V69.1662C71.9312 66.0384 74.5312 63.5081 77.7312 63.5081C80.9375 63.5081 83.5312 66.0445 83.5312 69.1662V87.3418Z" fill="#0673B0" stroke="#1A1B3A" stroke-width="3" stroke-miterlimit="10" stroke-linecap="round" stroke-linejoin="round"/>
<path d="M72.8812 68.5138H82.3187" stroke="#1A1B3A" stroke-width="3" stroke-miterlimit="10" stroke-linecap="round" stroke-linejoin="round"/>
<path d="M72.8812 73.3854H82.3187" stroke="#1A1B3A" stroke-width="3" stroke-miterlimit="10" stroke-linecap="round" stroke-linejoin="round"/>
<path d="M72.8812 78.251H82.3187" stroke="#1A1B3A" stroke-width="3" stroke-miterlimit="10" stroke-linecap="round" stroke-linejoin="round"/>
<path d="M72.8812 83.1165H82.3187" stroke="#1A1B3A" stroke-width="3" stroke-miterlimit="10" stroke-linecap="round" stroke-linejoin="round"/>
<path d="M72.8812 87.982H82.3187" stroke="#1A1B3A" stroke-width="3" stroke-miterlimit="10" stroke-linecap="round" stroke-linejoin="round"/>
<path d="M9.46248 83.1165C12.217 83.1165 14.45 80.9381 14.45 78.251C14.45 75.5638 12.217 73.3854 9.46248 73.3854C6.70796 73.3854 4.47498 75.5638 4.47498 78.251C4.47498 80.9381 6.70796 83.1165 9.46248 83.1165Z" fill="#1A1B3A"/>
<path d="M9.46246 87.3418C9.46246 90.4697 12.0625 93 15.2625 93C18.4687 93 21.0625 90.4636 21.0625 87.3418V69.1662C21.0625 66.0384 18.4625 63.5081 15.2625 63.5081C12.0562 63.5081 9.46246 66.0445 9.46246 69.1662V87.3418Z" fill="#0673B0" stroke="#1A1B3A" stroke-width="3" stroke-miterlimit="10" stroke-linecap="round" stroke-linejoin="round"/>
<path d="M20.1187 68.5138H10.675" stroke="#1A1B3A" stroke-width="3" stroke-miterlimit="10" stroke-linecap="round" stroke-linejoin="round"/>
<path d="M20.1187 73.3854H10.675" stroke="#1A1B3A" stroke-width="3" stroke-miterlimit="10" stroke-linecap="round" stroke-linejoin="round"/>
<path d="M20.1187 78.251H10.675" stroke="#1A1B3A" stroke-width="3" stroke-miterlimit="10" stroke-linecap="round" stroke-linejoin="round"/>
<path d="M20.1187 83.1165H10.675" stroke="#1A1B3A" stroke-width="3" stroke-miterlimit="10" stroke-linecap="round" stroke-linejoin="round"/>
<path d="M20.1187 87.982H10.675" stroke="#1A1B3A" stroke-width="3" stroke-miterlimit="10" stroke-linecap="round" stroke-linejoin="round"/>
<path d="M37.675 24.0168H33.1625V26.8581H37.675V24.0168Z" fill="#1A1B3A"/>
<path d="M45.0625 24.0168H40.55V26.8581H45.0625V24.0168Z" fill="#1A1B3A"/>
<path d="M52.4437 24.0168H47.9312V26.8581H52.4437V24.0168Z" fill="#1A1B3A"/>
<path d="M59.8312 24.0168H55.3187V26.8581H59.8312V24.0168Z" fill="#1A1B3A"/>
<path d="M64.3563 63.4166C64.3563 67.7395 60.7625 71.2453 56.3313 71.2453H36.6625C32.2313 71.2453 28.6375 67.7395 28.6375 63.4166V50.5699C28.6375 46.247 32.2313 42.7411 36.6625 42.7411H56.3313C60.7625 42.7411 64.3563 46.247 64.3563 50.5699V63.4166Z" fill="#8CD3F6" stroke="#1A1B3A" stroke-width="4" stroke-miterlimit="10" stroke-linecap="round" stroke-linejoin="round"/>
<path d="M60.2313 59.2035C60.2313 60.7156 58.975 61.9411 57.425 61.9411C55.875 61.9411 54.6188 60.7156 54.6188 59.2035C54.6188 57.6914 55.875 56.4659 57.425 56.4659C58.975 56.4659 60.2313 57.6914 60.2313 59.2035Z" fill="#1A1B3A"/>
</svg>
