<svg width="88" height="92" viewBox="0 0 88 92" fill="none" xmlns="http://www.w3.org/2000/svg">
<path d="M77.6238 14.1202V35.2943C77.6238 43.2453 71.1768 49.683 63.2219 49.683H24.772C16.817 49.683 10.3701 43.2392 10.3701 35.2943V14.1202" stroke="#1A1B3A" stroke-width="4" stroke-miterlimit="10" stroke-linecap="round" stroke-linejoin="round"/>
<path d="M18.7524 5.74817C18.7524 10.3735 15.0039 14.1202 10.3762 14.1202C5.74853 14.1202 2 10.3735 2 5.74817" stroke="#1A1B3A" stroke-width="4" stroke-miterlimit="10" stroke-linecap="round" stroke-linejoin="round"/>
<path d="M86 5.74817C86 10.3735 82.2515 14.1202 77.6238 14.1202C72.9962 14.1202 69.2476 10.3735 69.2476 5.74817" stroke="#1A1B3A" stroke-width="4" stroke-miterlimit="10" stroke-linecap="round" stroke-linejoin="round"/>
<path d="M24.2836 83.6898C23.5266 83.6898 22.9161 83.0735 22.9161 82.3229V47.2849C22.9161 46.5282 23.5327 45.918 24.2836 45.918H65.2C65.957 45.918 66.5675 46.5343 66.5675 47.2849V82.3168C66.5675 83.0735 65.9509 83.6837 65.2 83.6837H24.2836V83.6898Z" fill="#F6B700"/>
<path d="M65.2 47.2849V82.3168H24.2836V47.2788H65.2M65.2 44.545H24.2836C22.7695 44.545 21.5424 45.7716 21.5424 47.2849V82.3168C21.5424 83.8301 22.7695 85.0566 24.2836 85.0566H65.2C66.714 85.0566 67.9412 83.8301 67.9412 82.3168V47.2788C67.9412 45.7716 66.714 44.545 65.2 44.545Z" fill="#1A1B3A"/>
<path d="M65.1999 47.2849H51.3902V82.3229H65.1999V47.2849Z" fill="#CE9900"/>
<path d="M32.0798 69.6733C31.3228 69.6733 30.7123 69.057 30.7123 68.3065V54.3083C30.7123 53.5517 31.3289 52.9415 32.0798 52.9415H57.4038C58.1608 52.9415 58.7713 53.5578 58.7713 54.3083V68.3004C58.7713 69.057 58.1547 69.6672 57.4038 69.6672H32.0798V69.6733Z" fill="#F6B700"/>
<path d="M57.4037 54.3083V68.3003H32.0798V54.3083H57.4037ZM57.4037 51.5685H32.0798C30.5657 51.5685 29.3386 52.795 29.3386 54.3083V68.3003C29.3386 69.8136 30.5657 71.0401 32.0798 71.0401H57.4037C58.9178 71.0401 60.1449 69.8136 60.1449 68.3003V54.3083C60.1449 52.795 58.9178 51.5685 57.4037 51.5685Z" fill="#1A1B3A"/>
<path d="M62.9838 26.9223V5.0647" stroke="#1A1B3A" stroke-width="4" stroke-miterlimit="10" stroke-linecap="round" stroke-linejoin="round"/>
<path d="M62.9838 8.86019C65.4317 8.86019 67.4161 6.87677 67.4161 4.43009C67.4161 1.98342 65.4317 0 62.9838 0C60.5359 0 58.5515 1.98342 58.5515 4.43009C58.5515 6.87677 60.5359 8.86019 62.9838 8.86019Z" fill="#1A1B3A"/>
<path d="M26.4998 26.9223V5.0647" stroke="#1A1B3A" stroke-width="4" stroke-miterlimit="10" stroke-linecap="round" stroke-linejoin="round"/>
<path d="M26.4997 8.86019C28.9476 8.86019 30.932 6.87677 30.932 4.43009C30.932 1.98342 28.9476 0 26.4997 0C24.0519 0 22.0674 1.98342 22.0674 4.43009C22.0674 6.87677 24.0519 8.86019 26.4997 8.86019Z" fill="#1A1B3A"/>
<path d="M44.7418 44.4047C33.9297 44.4047 25.1261 35.6116 25.1261 24.7988C25.1261 13.9859 33.9235 5.19287 44.7418 5.19287C55.5539 5.19287 64.3574 13.9859 64.3574 24.7988C64.3574 35.6116 55.5539 44.4047 44.7418 44.4047Z" fill="#F6B700"/>
<path d="M44.7418 6.56581C54.8152 6.56581 62.9838 14.7304 62.9838 24.7988C62.9838 34.8672 54.8152 43.0317 44.7418 43.0317C34.6684 43.0317 26.4997 34.8672 26.4997 24.7988C26.4997 14.7304 34.6684 6.56581 44.7418 6.56581ZM44.7418 3.82599C33.1726 3.82599 23.7585 13.2354 23.7585 24.7988C23.7585 36.3622 33.1726 45.7715 44.7418 45.7715C56.3109 45.7715 65.725 36.3622 65.725 24.7988C65.725 13.2354 56.3109 3.82599 44.7418 3.82599Z" fill="#1A1B3A"/>
<path d="M44.7418 6.5658C43.3498 6.5658 41.9945 6.72445 40.6941 7.02345C48.82 8.86627 54.8884 16.1216 54.8884 24.7987C54.8884 33.4759 48.82 40.7373 40.6941 42.574C41.9945 42.8669 43.3498 43.0317 44.7418 43.0317C54.8152 43.0317 62.9838 34.8671 62.9838 24.7987C62.9838 14.7304 54.8152 6.5658 44.7418 6.5658Z" fill="#CE9900"/>
<path d="M58.1424 24.933C58.1424 28.3807 55.3463 31.1754 51.8969 31.1754H37.5866C34.1372 31.1754 31.3411 28.3807 31.3411 24.933C31.3411 21.4854 34.1372 18.6906 37.5866 18.6906H51.8969C55.3463 18.6906 58.1424 21.4854 58.1424 24.933Z" fill="#8CD3F6" stroke="#1A1B3A" stroke-width="4" stroke-miterlimit="10" stroke-linecap="round" stroke-linejoin="round"/>
<path d="M44.003 24.9025C44.003 26.4586 42.7454 27.7156 41.1886 27.7156C39.6318 27.7156 38.3741 26.4586 38.3741 24.9025C38.3741 23.3465 39.6318 22.0895 41.1886 22.0895C42.7393 22.0895 44.003 23.3465 44.003 24.9025Z" fill="white"/>
<path d="M50.2486 63.7543C51.7996 63.7543 53.0569 62.4976 53.0569 60.9473C53.0569 59.3971 51.7996 58.1404 50.2486 58.1404C48.6976 58.1404 47.4402 59.3971 47.4402 60.9473C47.4402 62.4976 48.6976 63.7543 50.2486 63.7543Z" fill="#1A1B3A"/>
<path d="M78.735 81.1085C81.4256 81.1085 83.6068 78.9284 83.6068 76.2391C83.6068 73.5498 81.4256 71.3696 78.735 71.3696C76.0443 71.3696 73.8631 73.5498 73.8631 76.2391C73.8631 78.9284 76.0443 81.1085 78.735 81.1085Z" fill="#1A1B3A"/>
<path d="M78.7349 85.3373C78.7349 88.4676 76.1952 91 73.0694 91C69.9375 91 67.4039 88.4615 67.4039 85.3373V67.147C67.4039 64.0167 69.9436 61.4843 73.0694 61.4843C76.2013 61.4843 78.7349 64.0228 78.7349 67.147V85.3373Z" fill="#0673B0" stroke="#1A1B3A" stroke-width="2" stroke-miterlimit="10" stroke-linecap="round" stroke-linejoin="round"/>
<path d="M68.3318 66.4941H77.5505" stroke="#1A1B3A" stroke-width="2" stroke-miterlimit="10" stroke-linecap="round" stroke-linejoin="round"/>
<path d="M68.3318 71.3696H77.5505" stroke="#1A1B3A" stroke-width="2" stroke-miterlimit="10" stroke-linecap="round" stroke-linejoin="round"/>
<path d="M68.3318 76.2391H77.5505" stroke="#1A1B3A" stroke-width="2" stroke-miterlimit="10" stroke-linecap="round" stroke-linejoin="round"/>
<path d="M68.3318 81.1085H77.5505" stroke="#1A1B3A" stroke-width="2" stroke-miterlimit="10" stroke-linecap="round" stroke-linejoin="round"/>
<path d="M68.3318 85.978H77.5505" stroke="#1A1B3A" stroke-width="2" stroke-miterlimit="10" stroke-linecap="round" stroke-linejoin="round"/>
<path d="M10.7486 81.1085C13.4392 81.1085 15.6204 78.9284 15.6204 76.2391C15.6204 73.5498 13.4392 71.3696 10.7486 71.3696C8.05792 71.3696 5.87671 73.5498 5.87671 76.2391C5.87671 78.9284 8.05792 81.1085 10.7486 81.1085Z" fill="#1A1B3A"/>
<path d="M10.7486 85.3373C10.7486 88.4676 13.2883 91 16.4141 91C19.546 91 22.0797 88.4615 22.0797 85.3373V67.147C22.0797 64.0167 19.5399 61.4843 16.4141 61.4843C13.2822 61.4843 10.7486 64.0228 10.7486 67.147V85.3373Z" fill="#0673B0" stroke="#1A1B3A" stroke-width="2" stroke-miterlimit="10" stroke-linecap="round" stroke-linejoin="round"/>
<path d="M21.1517 66.4941H11.9269" stroke="#1A1B3A" stroke-width="2" stroke-miterlimit="10" stroke-linecap="round" stroke-linejoin="round"/>
<path d="M21.1517 71.3696H11.9269" stroke="#1A1B3A" stroke-width="2" stroke-miterlimit="10" stroke-linecap="round" stroke-linejoin="round"/>
<path d="M21.1517 76.2391H11.9269" stroke="#1A1B3A" stroke-width="2" stroke-miterlimit="10" stroke-linecap="round" stroke-linejoin="round"/>
<path d="M21.1517 81.1085H11.9269" stroke="#1A1B3A" stroke-width="2" stroke-miterlimit="10" stroke-linecap="round" stroke-linejoin="round"/>
<path d="M21.1517 85.978H11.9269" stroke="#1A1B3A" stroke-width="2" stroke-miterlimit="10" stroke-linecap="round" stroke-linejoin="round"/>
</svg>
