<svg width="92" height="80" viewBox="0 0 92 80" fill="none" xmlns="http://www.w3.org/2000/svg">
<path d="M46.0031 47.4807C33.091 47.4807 22.588 37.1372 22.588 24.4213C22.588 11.7053 33.091 1.36179 46.0031 1.36179C58.9152 1.36179 69.4181 11.7053 69.4181 24.4213C69.4181 37.1372 58.9152 47.4807 46.0031 47.4807Z" fill="#8CD3F6"/>
<path d="M46.0031 2.71751C58.1715 2.71751 68.0415 12.4315 68.0415 24.4212C68.0415 36.4049 58.1777 46.125 46.0031 46.125C33.8285 46.125 23.9647 36.411 23.9647 24.4212C23.9647 12.4315 33.8285 2.71751 46.0031 2.71751ZM46.0031 0C32.3289 0 21.2053 10.9548 21.2053 24.4212C21.2053 37.8877 32.3289 48.8425 46.0031 48.8425C59.6772 48.8425 70.8009 37.8877 70.8009 24.4212C70.7948 10.9548 59.6711 0 46.0031 0Z" fill="#1A1B3A"/>
<path d="M46.0031 2.7175C44.2454 2.7175 42.5431 2.92328 40.9083 3.31063C50.6185 5.57421 57.852 14.1625 57.852 24.4212C57.852 34.68 50.6246 43.2683 40.9083 45.5318C42.5431 45.9131 44.2516 46.1189 46.0031 46.1189C58.1715 46.1189 68.0415 36.4049 68.0415 24.4152C68.0353 12.4315 58.1715 2.7175 46.0031 2.7175Z" fill="#4CB2DC"/>
<path d="M62.1908 24.5786C62.1908 28.6821 58.8168 32.0048 54.6501 32.0048H37.3561C33.1893 32.0048 29.8154 28.6821 29.8154 24.5786C29.8154 20.4751 33.1893 17.1524 37.3561 17.1524H54.6501C58.8107 17.1463 62.1908 20.4751 62.1908 24.5786Z" fill="#8CD3F6" stroke="#1A1B3A" stroke-width="4" stroke-miterlimit="10" stroke-linecap="round" stroke-linejoin="round"/>
<path d="M45.1058 24.5423C45.1058 26.3943 43.5817 27.8892 41.7072 27.8892C39.8267 27.8892 38.3087 26.3882 38.3087 24.5423C38.3087 22.6903 39.8328 21.1953 41.7072 21.1953C43.5817 21.1893 45.1058 22.6903 45.1058 24.5423Z" fill="white"/>
<path d="M17.2474 78.6382C16.8848 78.6382 16.5345 78.499 16.2703 78.2388L7.00873 69.1179C6.65842 68.7729 6.52322 68.2766 6.65228 67.8045L10.0385 55.3488C10.1676 54.8827 10.5363 54.5135 11.0157 54.3864L23.6635 51.0516C23.7803 51.0213 23.9032 51.0032 24.02 51.0032C24.3826 51.0032 24.7329 51.1424 24.9971 51.4026L34.2587 60.5235C34.609 60.8685 34.7442 61.3648 34.6151 61.8369L32.8636 68.2826C32.7345 68.7487 32.3658 69.1179 31.8864 69.245C31.7697 69.2752 31.6468 69.2934 31.53 69.2934C31.1674 69.2934 30.8171 69.1542 30.5528 68.8939L23.3439 61.8006L18.7838 63.005L17.5609 67.4958L24.7636 74.5892C25.1139 74.9342 25.2491 75.4305 25.12 75.9026C24.991 76.3686 24.6222 76.7378 24.1429 76.8649L17.5977 78.5898C17.4871 78.6201 17.3642 78.6382 17.2474 78.6382Z" fill="#8CD3F6"/>
<path d="M24.0261 52.365L33.2877 61.4859L31.5361 67.9316L23.768 60.2815L17.6653 61.8914L16.0306 67.9014L23.7987 75.5515L17.2536 77.2765L7.98589 68.1616L11.3722 55.7059L24.0261 52.365ZM24.0261 49.6475C23.7864 49.6475 23.5468 49.6777 23.3132 49.7382L10.6654 53.0731C9.71283 53.3273 8.9692 54.0596 8.71108 54.9977L5.32481 67.4535C5.06669 68.3916 5.34325 69.3902 6.03771 70.0802L15.2931 79.2011C15.8155 79.7156 16.5222 80 17.2413 80C17.481 80 17.7206 79.9698 17.9542 79.9092L24.4993 78.1843C25.4519 77.9362 26.1955 77.2038 26.4537 76.2597C26.7118 75.3215 26.4352 74.3229 25.7408 73.6329L19.1034 67.0903L19.9147 64.1126L22.9383 63.3137L29.5818 69.8563C30.1042 70.3707 30.8109 70.6491 31.5361 70.6491C31.7758 70.6491 32.0155 70.6189 32.249 70.5583C33.2016 70.3041 33.9452 69.5718 34.2034 68.6337L35.9549 62.1879C36.213 61.2498 35.9364 60.2512 35.242 59.5612L25.9804 50.4403C25.4519 49.9259 24.7452 49.6475 24.0261 49.6475Z" fill="#1A1B3A"/>
<path d="M11.8085 56.6318C11.1325 56.6318 10.5548 56.1477 10.4442 55.4879L5.6997 26.019C5.63825 25.6256 5.74887 25.2262 6.01313 24.9236C6.2774 24.621 6.65843 24.4454 7.06405 24.4454H18.9068C19.3001 24.4454 19.675 24.6088 19.9331 24.8994C20.1974 25.1899 20.3203 25.5712 20.2773 25.9585L16.9217 55.4274C16.8418 56.1174 16.2518 56.6318 15.5512 56.6318H11.8085Z" fill="#8CD3F6"/>
<path d="M18.9068 25.8072L15.5512 55.2701H11.8147L7.06404 25.8012H18.9068M18.9068 23.0897H7.06404C6.25896 23.0897 5.49075 23.4408 4.96837 24.0399C4.44598 24.6452 4.21245 25.4441 4.3415 26.2309L9.08597 55.6998C9.30107 57.0192 10.4565 57.9936 11.8085 57.9936H15.5451C16.9524 57.9936 18.1324 56.9526 18.2861 55.5788L21.6416 26.1098C21.7276 25.3412 21.4818 24.5725 20.9533 23.9976C20.437 23.4165 19.6873 23.0897 18.9068 23.0897Z" fill="#1A1B3A"/>
<path d="M12.9823 15.1248C19.0481 15.1248 23.9647 19.9667 23.9647 25.9404C23.9647 31.914 19.0481 36.7559 12.9823 36.7559C6.91655 36.7559 2 31.914 2 25.9404C2.00615 19.9606 6.92269 15.1248 12.9823 15.1248Z" fill="#0673B0" stroke="#1A1B3A" stroke-width="4" stroke-miterlimit="10" stroke-linecap="round" stroke-linejoin="round"/>
<path d="M12.9823 20.4085C16.0798 20.4085 18.5933 22.8839 18.5933 25.9343C18.5933 28.9847 16.0798 31.4601 12.9823 31.4601C9.88491 31.4601 7.37132 28.9847 7.37132 25.9343C7.37132 22.8839 9.88491 20.4085 12.9823 20.4085Z" fill="#1A1B3A"/>
<path d="M12.1404 53.5633C14.8322 52.8794 17.5793 54.4772 18.2676 57.1342C18.9621 59.7851 17.3396 62.4905 14.6417 63.1684C11.9499 63.8523 9.20274 62.2545 8.51442 59.5975C7.81996 56.9465 9.44242 54.2411 12.1404 53.5633Z" fill="#8CD3F6" stroke="#1A1B3A" stroke-width="4" stroke-miterlimit="10" stroke-linecap="round" stroke-linejoin="round"/>
<path d="M12.7488 55.9116C14.1254 55.5606 15.5266 56.3776 15.8831 57.7334C16.2395 59.0891 15.4099 60.469 14.0332 60.8201C12.6566 61.1711 11.2554 60.354 10.8989 58.9983C10.5425 57.6426 11.3722 56.2566 12.7488 55.9116Z" fill="#1A1B3A"/>
<path d="M74.7526 78.6382C74.6358 78.6382 74.5129 78.6261 74.3961 78.5898L67.851 76.8649C67.3778 76.7378 67.0029 76.3746 66.8738 75.9026C66.7448 75.4365 66.88 74.9342 67.2303 74.5892L74.433 67.4958L73.21 63.005L68.6499 61.8006L61.4472 68.8939C61.1829 69.1542 60.8326 69.2934 60.47 69.2934C60.3532 69.2934 60.2303 69.2813 60.1136 69.245C59.6403 69.1179 59.2655 68.7547 59.1364 68.2826L57.3849 61.8369C57.2558 61.3648 57.391 60.8685 57.7413 60.5235L67.0029 51.4026C67.2671 51.1424 67.6174 51.0032 67.98 51.0032C68.0968 51.0032 68.2197 51.0153 68.3365 51.0516L80.9843 54.3864C81.4575 54.5135 81.8324 54.8767 81.9615 55.3488L85.3477 67.8045C85.4768 68.2766 85.3416 68.7729 84.9913 69.1179L75.7297 78.2388C75.4716 78.499 75.1152 78.6382 74.7526 78.6382Z" fill="#8CD3F6"/>
<path d="M67.9739 52.365L80.6217 55.6998L84.008 68.1556L74.7464 77.2765L68.2013 75.5515L75.9694 67.9014L74.3347 61.8914L68.232 60.2815L60.4639 67.9316L58.7123 61.4859L67.9739 52.365ZM67.9739 49.6475C67.2487 49.6475 66.5481 49.9259 66.0196 50.4403L56.758 59.5612C56.0636 60.2451 55.787 61.2498 56.0451 62.1879L57.7966 68.6337C58.0548 69.5718 58.7984 70.3041 59.751 70.5583C59.9845 70.6189 60.2242 70.6491 60.4639 70.6491C61.1891 70.6491 61.8897 70.3707 62.4182 69.8563L69.0617 63.3137L72.0853 64.1126L72.8966 67.0903L66.2531 73.6329C65.5586 74.3169 65.2821 75.3215 65.5402 76.2597C65.7983 77.1978 66.5419 77.9301 67.4945 78.1843L74.0397 79.9092C74.2732 79.9698 74.5129 80 74.7526 80C75.4778 80 76.1784 79.7216 76.7069 79.2011L85.9684 70.0802C86.6629 69.3963 86.9395 68.3916 86.6813 67.4535L83.2951 54.9977C83.0369 54.0596 82.2933 53.3273 81.3407 53.0731L68.6929 49.7382C68.4532 49.6777 68.2136 49.6475 67.9739 49.6475Z" fill="#1A1B3A"/>
<path d="M76.4488 56.6318C75.7482 56.6318 75.1582 56.1113 75.0783 55.4274L71.7228 25.9585C71.6797 25.5772 71.8027 25.1899 72.0669 24.8994C72.3312 24.6088 72.6999 24.4454 73.0932 24.4454H84.936C85.3416 24.4454 85.7226 24.621 85.9869 24.9236C86.2512 25.2262 86.3618 25.6256 86.3003 26.019L81.5558 55.4879C81.4514 56.1477 80.8737 56.6318 80.1915 56.6318H76.4488Z" fill="#8CD3F6"/>
<path d="M84.936 25.8072L80.1915 55.2701H76.4549L73.0994 25.8012H84.936M84.936 23.0897H73.0932C72.3066 23.0897 71.5568 23.4165 71.0344 23.9976C70.5121 24.5725 70.2601 25.3412 70.3523 26.1098L73.7078 55.5788C73.8615 56.9526 75.0476 57.9936 76.4488 57.9936H80.1854C81.5436 57.9936 82.6989 57.0192 82.914 55.6998L87.6462 26.3156C87.677 26.1522 87.6954 25.9827 87.6954 25.8072C87.6954 24.3062 86.4601 23.0897 84.936 23.0897Z" fill="#1A1B3A"/>
<path d="M79.0177 15.1248C72.9519 15.1248 68.0353 19.9667 68.0353 25.9404C68.0353 31.914 72.9519 36.7559 79.0177 36.7559C85.0835 36.7559 90 31.914 90 25.9404C90 19.9606 85.0835 15.1248 79.0177 15.1248Z" fill="#0673B0" stroke="#1A1B3A" stroke-width="4" stroke-miterlimit="10" stroke-linecap="round" stroke-linejoin="round"/>
<path d="M79.0177 20.4085C75.9202 20.4085 73.4067 22.8839 73.4067 25.9343C73.4067 28.9847 75.9202 31.4601 79.0177 31.4601C82.1151 31.4601 84.6287 28.9847 84.6287 25.9343C84.6287 22.8839 82.1151 20.4085 79.0177 20.4085Z" fill="#1A1B3A"/>
<path d="M79.8658 53.5633C77.174 52.8794 74.4268 54.4772 73.7385 57.1342C73.0441 59.7851 74.6665 62.4905 77.3645 63.1684C80.0563 63.8523 82.8034 62.2545 83.4917 59.5975C84.18 56.9465 82.5576 54.2411 79.8658 53.5633Z" fill="#8CD3F6" stroke="#1A1B3A" stroke-width="4" stroke-miterlimit="10" stroke-linecap="round" stroke-linejoin="round"/>
<path d="M79.2512 55.9116C77.8746 55.5606 76.4734 56.3776 76.1169 57.7334C75.7605 59.0891 76.5901 60.469 77.9668 60.8201C79.3434 61.1711 80.7446 60.354 81.1011 58.9983C81.4575 57.6426 80.6278 56.2566 79.2512 55.9116Z" fill="#1A1B3A"/>
</svg>
