<svg width="94" height="98" viewBox="0 0 94 98" fill="none" xmlns="http://www.w3.org/2000/svg">
<path d="M10.9757 57.5162V52.5149C10.9757 43.9141 17.8834 36.9417 26.4043 36.9417H67.6017C76.1226 36.9417 83.0303 43.9141 83.0303 52.5149V57.5162" stroke="#1A1B3A" stroke-width="4" stroke-miterlimit="10" stroke-linecap="round" stroke-linejoin="round"/>
<path d="M74.0485 66.576C74.0485 61.5747 78.0633 57.5162 83.0243 57.5162C87.9791 57.5162 92 61.5686 92 66.576" stroke="#1A1B3A" stroke-width="4" stroke-miterlimit="10" stroke-linecap="round" stroke-linejoin="round"/>
<path d="M2 66.576C2 61.5747 6.01482 57.5162 10.9757 57.5162C15.9367 57.5162 19.9515 61.5686 19.9515 66.576" stroke="#1A1B3A" stroke-width="4" stroke-miterlimit="10" stroke-linecap="round" stroke-linejoin="round"/>
<path d="M47 72.8261C40.25 72.8261 33.7365 68.1615 28.6664 59.6893C24.0876 52.0435 21.3585 42.1694 21.3585 33.2749C21.3585 26.7738 22.8322 20.7686 25.628 15.9203C30.2129 7.9501 38.0061 3.37732 47 3.37732C55.9939 3.37732 63.7871 7.9501 68.372 15.9203C71.1678 20.7686 72.6415 26.7677 72.6415 33.2749C72.6415 42.1694 69.9124 52.0435 65.3336 59.6893C60.2574 68.1553 53.75 72.8261 47 72.8261Z" fill="#8CD3F6"/>
<path d="M47 4.74857C55.4238 4.74857 62.841 9.03976 67.1954 16.606C69.779 21.0869 71.283 26.7126 71.283 33.2688C71.283 50.9049 60.4151 71.4487 47 71.4487C33.591 71.4487 22.717 50.9049 22.717 33.2688C22.717 26.7126 24.221 21.0869 26.8046 16.606C31.153 9.04588 38.5761 4.74857 47 4.74857ZM47 2C42.3726 2 37.8848 3.19982 34.0094 5.46479C30.122 7.73587 26.8167 11.115 24.4454 15.2286C21.5344 20.285 19.9939 26.5228 19.9939 33.2749C19.9939 42.4082 22.8019 52.5516 27.4959 60.3994C29.9643 64.5192 32.7904 67.8064 35.9077 70.1632C39.4434 72.8383 43.1732 74.1973 46.9939 74.1973C50.8147 74.1973 54.5445 72.8383 58.0802 70.1632C61.1974 67.8003 64.0296 64.5131 66.4919 60.3994C71.192 52.5516 73.9939 42.4082 73.9939 33.2749C73.9939 26.529 72.4535 20.285 69.5424 15.2286C67.1772 11.115 63.872 7.74199 59.9845 5.46479C56.1152 3.19982 51.6213 2 47 2Z" fill="#1A1B3A"/>
<path d="M67.1954 16.606C65.6974 14.0043 63.8356 11.7822 61.6947 10.0009C63.5809 14.0778 64.6543 18.9444 64.6543 24.4783C64.6543 42.1144 53.7803 62.6583 40.3713 62.6583C36.2716 62.6583 32.4083 60.7361 29.0182 57.5651C33.4575 65.6517 39.874 71.4549 47 71.4549C60.409 71.4549 71.283 50.911 71.283 33.2749C71.2769 26.7126 69.7729 21.0869 67.1954 16.606Z" fill="#4CB2DC"/>
<path d="M67.1954 14.5859V26.2535C67.1954 37.511 58.153 46.6382 47 46.6382C41.4265 46.6382 36.3747 44.3549 32.7176 40.6697C29.0606 36.9784 26.7985 31.8853 26.7985 26.2535V14.5859C31.153 7.01965 38.5701 2.72845 46.9939 2.72845C55.4238 2.72845 62.841 7.01965 67.1954 14.5859Z" fill="#0673B0" stroke="#1A1B3A" stroke-width="4" stroke-miterlimit="10" stroke-linecap="round" stroke-linejoin="round"/>
<path d="M55.2965 30.006C55.2965 34.6339 51.5788 38.3864 46.9939 38.3864C42.409 38.3864 38.6914 34.6339 38.6914 30.006C38.6914 25.3781 42.409 21.6256 46.9939 21.6256C51.5788 21.6256 55.2965 25.3781 55.2965 30.006Z" fill="#8CD3F6" stroke="#1A1B3A" stroke-width="4" stroke-miterlimit="10" stroke-linecap="round" stroke-linejoin="round"/>
<path d="M48.777 29.302C48.777 30.9242 47.473 32.2403 45.8659 32.2403C44.2588 32.2403 42.9548 30.9242 42.9548 29.302C42.9548 27.6798 44.2588 26.3636 45.8659 26.3636C47.4791 26.3698 48.777 27.6798 48.777 29.302Z" fill="white"/>
<path d="M55.2662 82.137C55.2662 86.7465 47 97 47 97C47 97 38.7338 86.7465 38.7338 82.137C38.7338 77.5275 42.4333 73.7933 47 73.7933C51.5667 73.7933 55.2662 77.5275 55.2662 82.137Z" fill="#8CD3F6" stroke="#1A1B3A" stroke-width="2" stroke-miterlimit="10" stroke-linecap="round" stroke-linejoin="round"/>
<path d="M50.6085 82.8655C50.6085 84.8794 47 89.3543 47 89.3543C47 89.3543 43.3915 84.8794 43.3915 82.8655C43.3915 80.8515 45.0047 79.2231 47 79.2231C48.9892 79.2231 50.6085 80.8515 50.6085 82.8655Z" fill="#0673B0" stroke="#1A1B3A" stroke-width="2" stroke-miterlimit="10" stroke-linecap="round" stroke-linejoin="round"/>
<path d="M62.7924 73.7933H31.1954V79.5415H62.7924V73.7933Z" fill="#1A1B3A"/>
<path d="M66.8194 64.96H27.1806V75.7216H66.8194V64.96Z" fill="#F6B700" stroke="#1A1B3A" stroke-width="2" stroke-miterlimit="10" stroke-linecap="round" stroke-linejoin="round"/>
<path d="M31.1954 66.6066V75.7216" stroke="#1A1B3A" stroke-width="2" stroke-miterlimit="10" stroke-linecap="round" stroke-linejoin="round"/>
<path d="M36.4656 66.6066V75.7216" stroke="#1A1B3A" stroke-width="2" stroke-miterlimit="10" stroke-linecap="round" stroke-linejoin="round"/>
<path d="M41.7298 66.6066V75.7216" stroke="#1A1B3A" stroke-width="2" stroke-miterlimit="10" stroke-linecap="round" stroke-linejoin="round"/>
<path d="M47 66.6066V75.7216" stroke="#1A1B3A" stroke-width="2" stroke-miterlimit="10" stroke-linecap="round" stroke-linejoin="round"/>
<path d="M52.2641 66.6066V75.7216" stroke="#1A1B3A" stroke-width="2" stroke-miterlimit="10" stroke-linecap="round" stroke-linejoin="round"/>
<path d="M57.5283 66.6066V75.7216" stroke="#1A1B3A" stroke-width="2" stroke-miterlimit="10" stroke-linecap="round" stroke-linejoin="round"/>
<path d="M62.7985 66.6066V75.7216" stroke="#1A1B3A" stroke-width="2" stroke-miterlimit="10" stroke-linecap="round" stroke-linejoin="round"/>
</svg>
