<svg width="94" height="94" viewBox="0 0 94 94" fill="none" xmlns="http://www.w3.org/2000/svg">
<path d="M74.5126 33.6057L86.0662 41.5206V67.8679" stroke="#1A1B3A" stroke-width="4" stroke-miterlimit="10" stroke-linecap="round" stroke-linejoin="round"/>
<path d="M80.126 32.4314C80.126 37.4521 76.0185 41.5206 70.9498 41.5206C65.8811 41.5206 61.7736 37.4521 61.7736 32.4314C61.7736 27.4108 65.8811 23.3422 70.9498 23.3422C76.0185 23.3422 80.126 27.4108 80.126 32.4314Z" fill="#1A1B3A"/>
<path d="M80.126 81.0193V73.1044L86.3866 67.1189L92 73.1044V81.0193" stroke="#1A1B3A" stroke-width="4" stroke-miterlimit="10" stroke-linecap="round" stroke-linejoin="round"/>
<path d="M19.4874 33.6057L7.94019 41.5206V67.8679" stroke="#1A1B3A" stroke-width="4" stroke-miterlimit="10" stroke-linecap="round" stroke-linejoin="round"/>
<path d="M13.874 32.4314C13.874 37.4521 17.9815 41.5206 23.0502 41.5206C28.1189 41.5206 32.2264 37.4521 32.2264 32.4314C32.2264 27.4108 28.1189 23.3422 23.0502 23.3422C17.9815 23.3422 13.874 27.4108 13.874 32.4314Z" fill="#1A1B3A"/>
<path d="M13.874 81.0193V73.1044L7.61339 67.1189L2 73.1044V81.0193" stroke="#1A1B3A" stroke-width="4" stroke-miterlimit="10" stroke-linecap="round" stroke-linejoin="round"/>
<path d="M47.0032 55.7257C32.1688 55.7257 20.1025 43.7739 20.1025 29.0801C20.1025 14.3863 32.1688 2.43448 47.0032 2.43448C61.8377 2.43448 73.9103 14.3863 73.9103 29.0801C73.9039 43.7675 61.8377 55.7257 47.0032 55.7257Z" fill="#F6B700"/>
<path d="M47.0032 3.8499C61.0687 3.8499 72.4685 15.1416 72.4685 29.0737C72.4685 43.0059 61.0623 54.2976 47.0032 54.2976C32.9377 54.2976 21.5379 43.0059 21.5379 29.0737C21.5379 15.1416 32.9377 3.8499 47.0032 3.8499ZM47.0032 1C31.3742 1 18.6608 13.5929 18.6608 29.0737C18.6608 44.5546 31.3742 57.1475 47.0032 57.1475C62.6323 57.1475 75.3457 44.5546 75.3457 29.0737C75.3457 13.5929 62.6259 1 47.0032 1Z" fill="#1A1B3A"/>
<path d="M47.0033 3.84991C45.6063 3.84991 44.2414 3.96416 42.9086 4.17997C55.026 6.12222 64.2792 16.5253 64.2792 29.0737C64.2792 41.6222 55.026 52.0316 42.9086 53.9675C44.2414 54.1833 45.6063 54.2976 47.0033 54.2976C61.0688 54.2976 72.4686 43.0059 72.4686 29.0737C72.4686 15.1416 61.0624 3.84991 47.0033 3.84991Z" fill="#CE9900"/>
<path d="M57.6917 73.1424C57.6917 78.9946 46.9968 92 46.9968 92C46.9968 92 36.3083 78.9882 36.3083 73.1424C36.3083 67.2966 41.095 62.5553 46.9968 62.5553C52.9049 62.5489 57.6917 67.2903 57.6917 73.1424Z" fill="#8CD3F6" stroke="#1A1B3A" stroke-width="4" stroke-miterlimit="10" stroke-linecap="round" stroke-linejoin="round"/>
<path d="M51.6682 74.0691C51.6682 76.627 46.9968 82.3078 46.9968 82.3078C46.9968 82.3078 42.3254 76.627 42.3254 74.0691C42.3254 71.5112 44.4144 69.442 46.9968 69.442C49.5792 69.442 51.6682 71.5112 51.6682 74.0691Z" fill="#0673B0" stroke="#1A1B3A" stroke-width="4" stroke-miterlimit="10" stroke-linecap="round" stroke-linejoin="round"/>
<path d="M67.4318 62.5489H26.5681V69.8419H67.4318V62.5489Z" fill="#1A1B3A"/>
<path d="M72.6287 51.3461H21.3713V64.999H72.6287V51.3461Z" fill="#8CD3F6" stroke="#1A1B3A" stroke-width="4" stroke-miterlimit="10" stroke-linecap="round" stroke-linejoin="round"/>
<path d="M26.5681 53.4343V64.9989" stroke="#1A1B3A" stroke-width="4" stroke-miterlimit="10" stroke-linecap="round" stroke-linejoin="round"/>
<path d="M33.3798 53.4343V64.9989" stroke="#1A1B3A" stroke-width="4" stroke-miterlimit="10" stroke-linecap="round" stroke-linejoin="round"/>
<path d="M40.1915 53.4343V64.9989" stroke="#1A1B3A" stroke-width="4" stroke-miterlimit="10" stroke-linecap="round" stroke-linejoin="round"/>
<path d="M47.0032 53.4343V64.9989" stroke="#1A1B3A" stroke-width="4" stroke-miterlimit="10" stroke-linecap="round" stroke-linejoin="round"/>
<path d="M53.8084 53.4343V64.9989" stroke="#1A1B3A" stroke-width="4" stroke-miterlimit="10" stroke-linecap="round" stroke-linejoin="round"/>
<path d="M60.6201 53.4343V64.9989" stroke="#1A1B3A" stroke-width="4" stroke-miterlimit="10" stroke-linecap="round" stroke-linejoin="round"/>
<path d="M67.4318 53.4343V64.9989" stroke="#1A1B3A" stroke-width="4" stroke-miterlimit="10" stroke-linecap="round" stroke-linejoin="round"/>
<path d="M41.2489 9.89244C41.2489 14.1387 37.7758 17.5789 33.4888 17.5789C29.2019 17.5789 25.7288 14.1387 25.7288 9.89244C25.7288 5.64615 29.2019 2.20596 33.4888 2.20596C37.7758 2.21231 41.2489 5.6525 41.2489 9.89244Z" fill="#8CD3F6" stroke="#1A1B3A" stroke-width="4" stroke-miterlimit="10" stroke-linecap="round" stroke-linejoin="round"/>
<path d="M36.8146 9.89244C36.8146 11.7077 35.3279 13.1866 33.4888 13.1866C31.6561 13.1866 30.1631 11.7141 30.1631 9.89244C30.1631 8.07714 31.6497 6.59824 33.4888 6.59824C35.3279 6.60458 36.8146 8.07714 36.8146 9.89244Z" fill="#1A1B3A"/>
<path d="M68.2713 9.89244C68.2713 14.1387 64.7982 17.5789 60.5112 17.5789C56.2243 17.5789 52.7512 14.1387 52.7512 9.89244C52.7512 5.64615 56.2243 2.20596 60.5112 2.20596C64.7982 2.21231 68.2713 5.6525 68.2713 9.89244Z" fill="#8CD3F6" stroke="#1A1B3A" stroke-width="4" stroke-miterlimit="10" stroke-linecap="round" stroke-linejoin="round"/>
<path d="M63.837 9.89244C63.837 11.7077 62.3503 13.1866 60.5112 13.1866C58.6785 13.1866 57.1855 11.7141 57.1855 9.89244C57.1855 8.07714 58.6721 6.59824 60.5112 6.59824C62.3503 6.60458 63.837 8.07714 63.837 9.89244Z" fill="#1A1B3A"/>
<path d="M35.3086 39.4832C31.2844 39.4832 28.0292 36.2524 28.0292 32.2727C28.0292 28.2867 31.2908 25.0623 35.3086 25.0623H58.6913C62.7155 25.0623 65.9708 28.293 65.9708 32.2727C65.9708 36.2588 62.7091 39.4832 58.6913 39.4832H35.3086Z" fill="#8CD3F6" stroke="#1A1B3A" stroke-width="4" stroke-miterlimit="10" stroke-linecap="round" stroke-linejoin="round"/>
<path d="M59.5179 26.2429V37.9789" stroke="#1A1B3A" stroke-width="4" stroke-miterlimit="10" stroke-linecap="round" stroke-linejoin="round"/>
<path d="M53.2574 26.2429V37.9789" stroke="#1A1B3A" stroke-width="4" stroke-miterlimit="10" stroke-linecap="round" stroke-linejoin="round"/>
<path d="M47.0032 26.2429V37.9789" stroke="#1A1B3A" stroke-width="4" stroke-miterlimit="10" stroke-linecap="round" stroke-linejoin="round"/>
<path d="M40.7426 26.2429V37.9789" stroke="#1A1B3A" stroke-width="4" stroke-miterlimit="10" stroke-linecap="round" stroke-linejoin="round"/>
<path d="M34.482 26.2429V37.9789" stroke="#1A1B3A" stroke-width="4" stroke-miterlimit="10" stroke-linecap="round" stroke-linejoin="round"/>
</svg>
