<svg width="95" height="86" viewBox="0 0 95 86" fill="none" xmlns="http://www.w3.org/2000/svg">
<path d="M63.8646 2H31.1414V19.9121H63.8646V2Z" fill="#0673B0" stroke="#1A1B3A" stroke-width="4" stroke-miterlimit="10" stroke-linecap="round" stroke-linejoin="round"/>
<path d="M75.3201 20.4518L86.9983 28.4993V55.2865" stroke="#1A1B3A" stroke-width="4" stroke-miterlimit="10" stroke-linecap="round" stroke-linejoin="round"/>
<path d="M80.9967 19.2525C80.9967 24.3556 76.8431 28.4934 71.7203 28.4934C66.5975 28.4934 62.4439 24.3556 62.4439 19.2525C62.4439 14.1493 66.5975 10.0116 71.7203 10.0116C76.8431 10.0116 80.9967 14.1493 80.9967 19.2525Z" fill="#1A1B3A"/>
<path d="M80.9967 68.6651V60.6175L87.3234 54.5309L93 60.6175V68.6651" stroke="#1A1B3A" stroke-width="4" stroke-miterlimit="10" stroke-linecap="round" stroke-linejoin="round"/>
<path d="M19.6859 20.4518L8.00165 28.4993V55.2865" stroke="#1A1B3A" stroke-width="4" stroke-miterlimit="10" stroke-linecap="round" stroke-linejoin="round"/>
<path d="M14.0033 19.2525C14.0033 24.3556 18.1569 28.4934 23.2797 28.4934C28.4024 28.4934 32.5561 24.3556 32.5561 19.2525C32.5561 14.1493 28.4024 10.0116 23.2797 10.0116C18.1569 10.0116 14.0033 14.1493 14.0033 19.2525Z" fill="#1A1B3A"/>
<path d="M14.0033 68.6651V60.6175L7.67659 54.5309L2 60.6175V68.6651" stroke="#1A1B3A" stroke-width="4" stroke-miterlimit="10" stroke-linecap="round" stroke-linejoin="round"/>
<path d="M47.497 76.7246C29.3837 76.7246 14.6534 62.0447 14.6534 44.0067C14.6534 25.9627 29.3897 11.2828 47.497 11.2828C65.6103 11.2828 80.3405 25.9627 80.3405 44.0067C80.3466 62.0447 65.6103 76.7246 47.497 76.7246Z" fill="#0673B0"/>
<path d="M47.497 12.6321C64.8879 12.6321 78.9921 26.6763 78.9921 44.0067C78.9921 61.3311 64.894 75.3813 47.497 75.3813C30.106 75.3813 16.0019 61.3371 16.0019 44.0067C16.0079 26.6823 30.106 12.6321 47.497 12.6321ZM47.497 9.93958C38.3651 9.93958 29.775 13.4836 23.3158 19.918C16.8567 26.3525 13.299 34.9097 13.299 44.0067C13.299 53.1037 16.8567 61.6609 23.3158 68.0954C29.775 74.5298 38.3651 78.0738 47.497 78.0738C56.6289 78.0738 65.219 74.5298 71.6782 68.0954C78.1373 61.6609 81.695 53.1096 81.695 44.0067C81.695 34.9097 78.1373 26.3525 71.6782 19.918C65.219 13.4836 56.6349 9.93958 47.497 9.93958Z" fill="#1A1B3A"/>
<path d="M47.497 12.6321C44.6677 12.6321 41.9228 13.0039 39.3162 13.7055C52.7462 17.2915 62.6306 29.5007 62.6306 44.0067C62.6306 58.5126 52.7462 70.7219 39.3162 74.3079C41.9228 75.0035 44.6677 75.3813 47.497 75.3813C64.888 75.3813 78.9922 61.3371 78.9922 44.0067C78.9922 26.6823 64.894 12.6321 47.497 12.6321Z" fill="#0D5988"/>
<path d="M70.6368 44.2346C70.6368 50.1653 65.815 54.9746 59.8554 54.9746H35.1445C29.191 54.9746 24.3632 50.1653 24.3632 44.2346C24.3632 38.3038 29.191 33.4945 35.1445 33.4945H59.8554C65.8089 33.4945 70.6368 38.3038 70.6368 44.2346Z" fill="#8CD3F6" stroke="#1A1B3A" stroke-width="4" stroke-miterlimit="10" stroke-linecap="round" stroke-linejoin="round"/>
<path d="M46.2208 44.1806C46.2208 46.8552 44.0417 49.026 41.3569 49.026C38.6721 49.026 36.493 46.8552 36.493 44.1806C36.493 41.5061 38.6721 39.3353 41.3569 39.3353C44.0477 39.3353 46.2208 41.5061 46.2208 44.1806Z" fill="white"/>
<path d="M74.989 79.0393C74.989 82.3315 72.3103 85 69.0054 85H25.9946C22.6898 85 20.011 82.3315 20.011 79.0393C20.011 75.7471 22.6898 73.0786 25.9946 73.0786H69.0115C72.3103 73.0846 74.989 75.7531 74.989 79.0393Z" fill="#0673B0" stroke="#1A1B3A" stroke-width="2" stroke-miterlimit="10" stroke-linecap="round" stroke-linejoin="round"/>
<path d="M38.335 79.0393C38.335 82.1696 35.7887 84.7062 32.6464 84.7062C29.5041 84.7062 26.9578 82.1696 26.9578 79.0393C26.9578 75.909 29.5041 73.3724 32.6464 73.3724C35.7947 73.3784 38.335 75.915 38.335 79.0393Z" fill="#FDFADE" stroke="#1A1B3A" stroke-width="2" stroke-miterlimit="10" stroke-linecap="round" stroke-linejoin="round"/>
<path d="M34.669 79.0393C34.669 80.1487 33.7661 81.0482 32.6524 81.0482C31.5388 81.0482 30.6358 80.1487 30.6358 79.0393C30.6358 77.9299 31.5388 77.0304 32.6524 77.0304C33.7661 77.0364 34.669 77.9359 34.669 79.0393Z" fill="#1A1B3A"/>
<path d="M53.1857 79.0393C53.1857 82.1696 50.6393 84.7062 47.497 84.7062C44.3547 84.7062 41.8084 82.1696 41.8084 79.0393C41.8084 75.909 44.3547 73.3724 47.497 73.3724C50.6393 73.3784 53.1857 75.915 53.1857 79.0393Z" fill="#FDFADE" stroke="#1A1B3A" stroke-width="2" stroke-miterlimit="10" stroke-linecap="round" stroke-linejoin="round"/>
<path d="M49.5136 79.0393C49.5136 80.1487 48.6107 81.0482 47.497 81.0482C46.3834 81.0482 45.4804 80.1487 45.4804 79.0393C45.4804 77.9299 46.3834 77.0304 47.497 77.0304C48.6167 77.0364 49.5136 77.9359 49.5136 79.0393Z" fill="#1A1B3A"/>
<path d="M68.0363 79.0393C68.0363 82.1696 65.49 84.7062 62.3477 84.7062C59.2054 84.7062 56.6591 82.1696 56.6591 79.0393C56.6591 75.909 59.2054 73.3724 62.3477 73.3724C65.49 73.3784 68.0363 75.915 68.0363 79.0393Z" fill="#FDFADE" stroke="#1A1B3A" stroke-width="2" stroke-miterlimit="10" stroke-linecap="round" stroke-linejoin="round"/>
<path d="M64.3643 79.0393C64.3643 80.1487 63.4613 81.0482 62.3477 81.0482C61.234 81.0482 60.3311 80.1487 60.3311 79.0393C60.3311 77.9299 61.234 77.0304 62.3477 77.0304C63.4613 77.0364 64.3643 77.9359 64.3643 79.0393Z" fill="#1A1B3A"/>
</svg>
