<svg width="79" height="89" viewBox="0 0 79 89" fill="none" xmlns="http://www.w3.org/2000/svg">
<path d="M55.9331 54.626L67.9169 66.347V84.8842" stroke="#1A1B3A" stroke-width="3" stroke-miterlimit="10" stroke-linecap="round" stroke-linejoin="round"/>
<path d="M77 82.2936H60.1367V87H77V82.2936Z" fill="#0673B0" stroke="#1A1B3A" stroke-width="3" stroke-miterlimit="10" stroke-linecap="round" stroke-linejoin="round"/>
<path d="M72.3625 70.8201C74.8177 68.4188 74.8177 64.5255 72.3625 62.1242C69.9074 59.7229 65.9268 59.7229 63.4716 62.1242C61.0165 64.5255 61.0165 68.4188 63.4716 70.8201C65.9268 73.2215 69.9074 73.2215 72.3625 70.8201Z" fill="#1A1B3A"/>
<path d="M23.0607 54.626L11.077 66.347V84.8842" stroke="#1A1B3A" stroke-width="3" stroke-miterlimit="10" stroke-linecap="round" stroke-linejoin="round"/>
<path d="M18.8633 82.2936H2V87H18.8633V82.2936Z" fill="#0673B0" stroke="#1A1B3A" stroke-width="3" stroke-miterlimit="10" stroke-linecap="round" stroke-linejoin="round"/>
<path d="M15.5237 70.8215C17.9788 68.4202 17.9788 64.5269 15.5237 62.1255C13.0685 59.7242 9.08792 59.7242 6.63277 62.1255C4.17761 64.5269 4.17761 68.4202 6.63277 70.8215C9.08792 73.2228 13.0685 73.2228 15.5237 70.8215Z" fill="#1A1B3A"/>
<path d="M39.5 65.5716C21.3953 65.5716 6.67059 51.1637 6.67059 33.462C6.67059 15.7542 21.4014 1.35242 39.5 1.35242C57.6047 1.35242 72.3294 15.7603 72.3294 33.462C72.3294 51.1637 57.5986 65.5716 39.5 65.5716Z" fill="#0673B0"/>
<path d="M39.5 2.69884C56.8672 2.69884 70.9528 16.4695 70.9528 33.462C70.9528 50.4485 56.8734 64.2252 39.5 64.2252C22.1327 64.2252 8.04718 50.4545 8.04718 33.462C8.04718 16.4695 22.1266 2.69884 39.5 2.69884ZM39.5 0C30.3616 0 21.7701 3.48024 15.3112 9.80358C8.8461 16.1209 5.28784 24.524 5.28784 33.462C5.28784 42.4 8.8461 50.8031 15.305 57.1204C21.764 63.4377 30.3554 66.918 39.4938 66.918C48.6322 66.918 57.2237 63.4377 63.6826 57.1204C70.1416 50.8031 73.706 42.4 73.706 33.462C73.706 24.524 70.1477 16.1209 63.6888 9.80358C57.2237 3.48024 48.6384 0 39.5 0Z" fill="#1A1B3A"/>
<path d="M39.5 2.69885C37.1524 2.69885 34.8663 2.95131 32.6662 3.43217C46.7517 6.48564 57.2852 18.7717 57.2852 33.462C57.2852 48.1584 46.7517 60.4384 32.6662 63.4919C34.8663 63.9667 37.1524 64.2252 39.5 64.2252C56.8673 64.2252 70.9528 50.4545 70.9528 33.462C70.9467 16.4695 56.8673 2.69885 39.5 2.69885Z" fill="#0D5988"/>
<path d="M39.5 40.9034C29.9253 40.9034 22.1389 33.2877 22.1389 23.9229V6.9605C22.1389 6.48565 22.397 6.04085 22.8149 5.80042C27.8543 2.8852 33.6249 1.34644 39.5 1.34644C45.3751 1.34644 51.1458 2.8852 56.1851 5.80042C56.603 6.04085 56.8611 6.48565 56.8611 6.9605V23.9169C56.8611 33.2817 49.0686 40.9034 39.5 40.9034Z" fill="#F6B700"/>
<path d="M39.5 2.69884C45.3321 2.69884 50.7955 4.25563 55.4845 6.96048V23.9169C55.4845 32.5484 48.3311 39.5509 39.5 39.5509C30.6689 39.5509 23.5155 32.5544 23.5155 23.9229V6.96048C28.1984 4.25563 33.6618 2.69884 39.5 2.69884ZM39.5 0C33.3791 0 27.3626 1.60488 22.1143 4.64032C21.2724 5.12719 20.7562 6.01078 20.7562 6.96649V23.9229C20.7562 34.033 29.1632 42.2558 39.5 42.2558C49.8368 42.2558 58.2439 34.033 58.2439 23.9229V6.96048C58.2439 6.00477 57.7276 5.12118 56.8857 4.63431C51.6313 1.60488 45.621 0 39.5 0Z" fill="#1A1B3A"/>
<path d="M47.692 29.2244C47.692 33.7686 43.9248 37.4532 39.2788 37.4532C34.6327 37.4532 30.8655 33.7686 30.8655 29.2244C30.8655 24.6803 34.6327 20.9957 39.2788 20.9957C43.9248 21.0017 47.692 24.6803 47.692 29.2244Z" fill="#8CD3F6" stroke="#1A1B3A" stroke-width="4" stroke-miterlimit="10" stroke-linecap="round" stroke-linejoin="round"/>
<path d="M41.0856 28.5332C41.0856 30.126 39.7643 31.4184 38.1357 31.4184C36.5071 31.4184 35.1859 30.126 35.1859 28.5332C35.1859 26.9403 36.5071 25.648 38.1357 25.648C39.7643 25.648 41.0856 26.9463 41.0856 28.5332Z" fill="white"/>
<path d="M31.0868 46.0906H23.7306V51.2599H31.0868V46.0906Z" fill="#1A1B3A"/>
<path d="M43.175 46.0906H35.8188V51.2599H43.175V46.0906Z" fill="#1A1B3A"/>
<path d="M55.2633 46.0906H47.9071V51.2599H55.2633V46.0906Z" fill="#1A1B3A"/>
</svg>
