<svg width="84" height="84" viewBox="0 0 84 84" fill="none" xmlns="http://www.w3.org/2000/svg">
<path d="M22.0504 76.3717C18.066 80.3561 2 82 2 82C2 82 3.64388 65.934 7.62829 61.9496C11.6066 57.9652 18.066 57.9713 22.0504 61.9496C26.0348 65.934 26.0348 72.3873 22.0504 76.3717Z" fill="#8CD3F6" stroke="#1A1B3A" stroke-width="4" stroke-miterlimit="10" stroke-linecap="round" stroke-linejoin="round"/>
<path d="M17.3571 72.9434C15.6155 74.685 8.59995 75.4 8.59995 75.4C8.59995 75.4 9.32105 68.3845 11.0566 66.6429C12.7982 64.9012 15.6155 64.9012 17.3571 66.6429C19.0988 68.3845 19.0988 71.2017 17.3571 72.9434Z" fill="#0673B0" stroke="#1A1B3A" stroke-width="4" stroke-miterlimit="10" stroke-linecap="round" stroke-linejoin="round"/>
<path d="M8.26848 48.1739L3.3035 53.1389L30.8594 80.6948L35.8244 75.7298L8.26848 48.1739Z" fill="#1A1B3A"/>
<path d="M12.3944 37.0419L3.09967 46.3366L37.6644 80.9014L46.9592 71.6067L12.3944 37.0419Z" fill="#0673B0" stroke="#1A1B3A" stroke-width="4" stroke-miterlimit="10" stroke-linecap="round" stroke-linejoin="round"/>
<path d="M14.4788 41.9664L6.60774 49.8374" stroke="#1A1B3A" stroke-width="4" stroke-miterlimit="10" stroke-linecap="round" stroke-linejoin="round"/>
<path d="M19.0682 46.5619L11.1972 54.4329" stroke="#1A1B3A" stroke-width="4" stroke-miterlimit="10" stroke-linecap="round" stroke-linejoin="round"/>
<path d="M23.6637 51.1513L15.7927 59.0285" stroke="#1A1B3A" stroke-width="4" stroke-miterlimit="10" stroke-linecap="round" stroke-linejoin="round"/>
<path d="M28.2532 55.7468L20.3821 63.6179" stroke="#1A1B3A" stroke-width="4" stroke-miterlimit="10" stroke-linecap="round" stroke-linejoin="round"/>
<path d="M32.8487 60.3362L24.9776 68.2134" stroke="#1A1B3A" stroke-width="4" stroke-miterlimit="10" stroke-linecap="round" stroke-linejoin="round"/>
<path d="M37.4381 64.9318L29.567 72.8028" stroke="#1A1B3A" stroke-width="4" stroke-miterlimit="10" stroke-linecap="round" stroke-linejoin="round"/>
<path d="M42.0336 69.5212L34.1626 77.3983" stroke="#1A1B3A" stroke-width="4" stroke-miterlimit="10" stroke-linecap="round" stroke-linejoin="round"/>
<path d="M75.455 40.1514C66.7284 48.878 52.5752 48.878 43.8486 40.1514C35.122 31.4248 35.122 17.2716 43.8486 8.54495C52.5752 -0.181651 66.7223 -0.181651 75.455 8.54495C84.1816 17.2777 84.1816 31.4248 75.455 40.1514Z" fill="#0673B0" stroke="#1A1B3A" stroke-width="4" stroke-miterlimit="10" stroke-linecap="round" stroke-linejoin="round"/>
<path d="M76.555 30.667C73.5667 33.6553 68.7267 33.6553 65.7384 30.667L53.3391 18.2677C50.3508 15.2794 50.3508 10.4394 53.3391 7.45107C56.3274 4.46276 61.1674 4.46276 64.1557 7.45107L76.555 19.8504C79.5433 22.8326 79.5433 27.6787 76.555 30.667Z" fill="#8CD3F6" stroke="#1A1B3A" stroke-width="4" stroke-miterlimit="10" stroke-linecap="round" stroke-linejoin="round"/>
<path d="M64.3329 18.3899C62.9885 19.7343 60.8007 19.7343 59.4563 18.3899C58.1118 17.0454 58.1118 14.8577 59.4563 13.5132C60.8007 12.1688 62.9885 12.1688 64.3329 13.5132C65.6773 14.8577 65.6773 17.0393 64.3329 18.3899Z" fill="white"/>
<path d="M48.3036 71.9106C47.9552 71.9106 47.6008 71.7762 47.3319 71.5073L12.4927 36.6681C11.9549 36.1303 11.9549 35.2625 12.4927 34.7309L38.9047 8.31883C39.1614 8.06216 39.5097 7.9155 39.8764 7.9155C40.2431 7.9155 40.5914 8.06216 40.8481 8.31883L75.6873 43.158C75.9439 43.4147 76.0906 43.763 76.0906 44.1297C76.0906 44.4963 75.9439 44.8447 75.6873 45.1013L49.2752 71.5073C49.0063 71.7762 48.6519 71.9106 48.3036 71.9106Z" fill="#8CD3F6"/>
<path d="M39.8703 9.2905L74.7095 44.1297L48.2974 70.5417L13.4644 35.6964L39.8703 9.2905ZM39.8703 6.54663C39.1431 6.54663 38.4464 6.83385 37.9331 7.34718L11.521 33.7592C10.4516 34.8287 10.4516 36.5703 11.521 37.6397L46.3602 72.479C46.898 73.0167 47.6008 73.2856 48.2974 73.2856C48.9941 73.2856 49.703 73.0167 50.2347 72.479L76.6467 46.0669C77.16 45.5536 77.4534 44.8569 77.4534 44.1236C77.4534 43.3903 77.1661 42.6997 76.6467 42.1803L41.8075 7.34107C41.2942 6.83385 40.5975 6.54663 39.8703 6.54663Z" fill="#1A1B3A"/>
<path d="M65.3417 34.7608L38.9309 61.1715L48.2992 70.5398L74.7099 44.129L65.3417 34.7608Z" fill="#4CB2DC"/>
</svg>
