<svg width="93" height="93" viewBox="0 0 93 93" fill="none" xmlns="http://www.w3.org/2000/svg">
<path d="M53.9423 2V17.3087" stroke="#1A1B3A" stroke-width="4" stroke-miterlimit="10" stroke-linecap="round" stroke-linejoin="round"/>
<path d="M91 39.0542H75.6863" stroke="#1A1B3A" stroke-width="4" stroke-miterlimit="10" stroke-linecap="round" stroke-linejoin="round"/>
<path d="M19.1069 86.9173C15.5122 90.5122 1 92 1 92C1 92 2.48765 77.4929 6.08231 73.8919C9.67697 70.297 15.5061 70.297 19.1069 73.8919C22.7015 77.4929 22.7015 83.3225 19.1069 86.9173Z" fill="#8CD3F6" stroke="#1A1B3A" stroke-width="2" stroke-miterlimit="10" stroke-linecap="round" stroke-linejoin="round"/>
<path d="M14.8686 83.8204C13.2959 85.3931 6.96277 86.0429 6.96277 86.0429C6.96277 86.0429 7.61248 79.7032 9.18514 78.1365C10.7578 76.5638 13.302 76.5638 14.8747 78.1365C16.4412 79.7032 16.4352 82.2537 14.8686 83.8204Z" fill="#0673B0" stroke="#1A1B3A" stroke-width="2" stroke-miterlimit="10" stroke-linecap="round" stroke-linejoin="round"/>
<path d="M6.66199 61.4512L2.17523 65.9382L27.0606 90.8253L31.5474 86.3383L6.66199 61.4512Z" fill="#1A1B3A"/>
<path d="M10.3869 51.3961L1.99298 59.7905L33.2071 91.0067L41.601 82.6123L10.3869 51.3961Z" fill="#8CD3F6" stroke="#1A1B3A" stroke-width="2" stroke-miterlimit="10" stroke-linecap="round" stroke-linejoin="round"/>
<path d="M12.2697 55.8506L5.15936 62.9554" stroke="#1A1B3A" stroke-width="2" stroke-miterlimit="10" stroke-linecap="round" stroke-linejoin="round"/>
<path d="M16.417 59.9981L9.30658 67.109" stroke="#1A1B3A" stroke-width="2" stroke-miterlimit="10" stroke-linecap="round" stroke-linejoin="round"/>
<path d="M20.5642 64.1456L13.4538 71.2564" stroke="#1A1B3A" stroke-width="2" stroke-miterlimit="10" stroke-linecap="round" stroke-linejoin="round"/>
<path d="M24.7114 68.2931L17.601 75.4039" stroke="#1A1B3A" stroke-width="2" stroke-miterlimit="10" stroke-linecap="round" stroke-linejoin="round"/>
<path d="M28.8586 72.4406L21.7482 79.5514" stroke="#1A1B3A" stroke-width="2" stroke-miterlimit="10" stroke-linecap="round" stroke-linejoin="round"/>
<path d="M33.0058 76.5881L25.8954 83.6989" stroke="#1A1B3A" stroke-width="2" stroke-miterlimit="10" stroke-linecap="round" stroke-linejoin="round"/>
<path d="M37.153 80.7355L30.0427 87.8464" stroke="#1A1B3A" stroke-width="2" stroke-miterlimit="10" stroke-linecap="round" stroke-linejoin="round"/>
<path d="M56.2618 59.5123C50.1776 59.5123 44.4577 57.144 40.1587 52.8387C31.2813 43.9607 31.2813 29.5082 40.1587 20.6303C44.4577 16.331 50.1776 13.9567 56.2618 13.9567C62.346 13.9567 68.0658 16.3249 72.3649 20.6303C81.2422 29.5082 81.2422 43.9607 72.3649 52.8387C68.0658 57.144 62.346 59.5123 56.2618 59.5123Z" fill="#F6B700"/>
<path d="M56.2618 15.323C61.7388 15.323 67.2218 17.4119 71.3994 21.5958C79.7606 29.9576 79.7606 43.5114 71.3994 51.8792C67.2218 56.0571 61.7388 58.1521 56.2618 58.1521C50.7848 58.1521 45.3017 56.0631 41.1241 51.8792C32.7629 43.5174 32.7629 29.9637 41.1241 21.6019C45.3017 17.418 50.7848 15.323 56.2618 15.323ZM56.2618 12.5964C49.8133 12.5964 43.7533 15.1104 39.1932 19.6648C29.7815 29.0771 29.7815 44.3919 39.1932 53.7981C43.7533 58.3585 49.8133 60.8665 56.2618 60.8665C62.7103 60.8665 68.7702 58.3585 73.3303 53.7981C82.742 44.3858 82.742 29.071 73.3303 19.6587C68.7702 15.1104 62.7103 12.5964 56.2618 12.5964Z" fill="#1A1B3A"/>
<path d="M64.6958 45.1691C64.2222 45.6428 63.7243 46.0922 63.2203 46.5172L69.93 53.2273C70.44 52.8083 70.9318 52.3589 71.4115 51.8853C79.7728 43.5235 79.7728 29.9698 71.4115 21.6019C70.2579 20.4481 69.0009 19.4583 67.6772 18.6264C72.8871 26.891 71.9034 37.9611 64.6958 45.1691Z" fill="#CE9900"/>
<path d="M41.5734 81.5979C40.2619 81.5979 39.0232 81.0878 38.1002 80.1587L12.8465 54.9033C10.9278 52.9844 10.9278 49.8692 12.8465 47.9503L37.6509 23.1443C37.9181 22.8771 38.2642 22.7435 38.6164 22.7435C38.9625 22.7435 39.3146 22.8771 39.5818 23.1443L69.8632 53.4216C70.1182 53.6767 70.2639 54.0228 70.2639 54.3871C70.2639 54.7515 70.1182 55.0976 69.8632 55.3527L45.0588 80.1587C44.1237 81.0878 42.8911 81.5979 41.5734 81.5979Z" fill="#F6B700"/>
<path d="M38.6103 24.1098L68.8916 54.3871L44.0873 79.1932C43.3951 79.8854 42.4843 80.2316 41.5735 80.2316C40.6627 80.2316 39.7579 79.8854 39.0596 79.1932L13.806 53.9378C12.4155 52.5472 12.4215 50.3004 13.806 48.9159L38.6103 24.1098ZM38.6103 21.3833C37.912 21.3833 37.2137 21.6505 36.6855 22.1849L11.8811 46.9848C9.43408 49.432 9.43408 53.4156 11.8811 55.8628L37.1348 81.1181C38.3188 82.3023 39.8976 82.9581 41.5735 82.9581C43.2494 82.9581 44.8281 82.3023 46.0121 81.1181L70.8165 56.3121C71.3265 55.802 71.618 55.1098 71.618 54.3811C71.618 53.6524 71.3326 52.9662 70.8165 52.45L40.5412 22.1727C40.0069 21.6505 39.3086 21.3833 38.6103 21.3833Z" fill="#1A1B3A"/>
<path d="M62.9349 48.4301L38.1306 73.2361C36.7462 74.6267 34.4934 74.6267 33.109 73.2361L39.0657 79.1932C40.4501 80.5838 42.7029 80.5838 44.0873 79.1932L68.8916 54.3871" fill="#CE9900"/>
<path d="M48.9207 57.1562C45.3078 60.7693 39.4604 60.7632 35.8475 57.1562C32.2347 53.5491 32.2347 47.6953 35.8475 44.0822C39.4604 40.469 45.3139 40.469 48.9207 44.0822C52.5275 47.6892 52.5275 53.5431 48.9207 57.1562Z" fill="#0673B0" stroke="#1A1B3A" stroke-width="4" stroke-miterlimit="10" stroke-linecap="round" stroke-linejoin="round"/>
<path d="M44.3363 51.4723C43.0733 52.7354 41.0209 52.7354 39.7519 51.4723C38.4889 50.2093 38.4889 48.1568 39.7519 46.8876C41.0149 45.6245 43.0672 45.6245 44.3302 46.8876C45.5993 48.1568 45.5993 50.2093 44.3363 51.4723Z" fill="white"/>
</svg>
