<svg width="76" height="95" viewBox="0 0 76 95" fill="none" xmlns="http://www.w3.org/2000/svg">
<path d="M61.5556 25.5069C61.5556 38.4913 51.0113 49.0138 38 49.0138C24.9887 49.0138 14.4444 38.4913 14.4444 25.5069C14.4444 12.5225 24.9887 2 38 2C51.0048 2 61.5556 12.5225 61.5556 25.5069Z" fill="#0673B0" stroke="#1A1B3A" stroke-width="4" stroke-miterlimit="10" stroke-linecap="round" stroke-linejoin="round"/>
<path d="M55.3011 17.6327C55.3011 22.0744 51.6876 25.6804 47.2367 25.6804H28.7504C24.2995 25.674 20.6924 22.0744 20.6924 17.6327C20.6924 13.191 24.2995 9.58493 28.7568 9.58493H47.2432C51.694 9.58493 55.3011 13.1846 55.3011 17.6327Z" fill="#8CD3F6" stroke="#1A1B3A" stroke-width="4" stroke-miterlimit="10" stroke-linecap="round" stroke-linejoin="round"/>
<path d="M37.0403 17.5941C37.0403 19.5996 35.4106 21.2195 33.4074 21.2195C31.3977 21.2195 29.7746 19.5932 29.7746 17.5941C29.7746 15.5886 31.4042 13.9688 33.4074 13.9688C35.4106 13.9623 37.0403 15.5886 37.0403 17.5941Z" fill="white"/>
<path d="M12.029 82.1111C11.2303 82.1111 10.5862 81.4619 10.5862 80.6648V30.1736C10.5862 29.3765 11.2367 28.7337 12.029 28.7337H63.9646C64.7633 28.7337 65.4074 29.3829 65.4074 30.1736V80.6648C65.4074 81.4619 64.7568 82.1111 63.9646 82.1111H12.029Z" fill="#8CD3F6"/>
<path d="M63.9646 30.1735V80.6648H12.029V30.1735H63.9646ZM63.9646 27.2874H12.029C10.4316 27.2874 9.13688 28.5794 9.13688 30.1735V80.6648C9.13688 82.2589 10.4316 83.551 12.029 83.551H63.9646C65.562 83.551 66.8567 82.2589 66.8567 80.6648V30.1735C66.8567 28.5794 65.562 27.2874 63.9646 27.2874Z" fill="#1A1B3A"/>
<path d="M63.9646 30.1735H50V80.6648H63.9646V30.1735Z" fill="#4CB2DC"/>
<path d="M74 85.1837C74 89.4968 70.496 93 66.1675 93H9.83253C5.50403 93 2 89.5032 2 85.1837C2 80.8641 5.50403 77.3673 9.83253 77.3673H66.1675C70.4895 77.3673 74 80.8705 74 85.1837Z" fill="#0673B0" stroke="#1A1B3A" stroke-width="4" stroke-miterlimit="10" stroke-linecap="round" stroke-linejoin="round"/>
<path d="M26 85.5693C26 89.6768 22.6634 93 18.5539 93C14.438 93 11.1079 89.6768 11.1079 85.5693C11.1079 81.4619 14.438 78.1387 18.5539 78.1387C22.6634 78.1387 26 81.4683 26 85.5693Z" fill="#F6B700" stroke="#1A1B3A" stroke-width="3" stroke-miterlimit="10" stroke-linecap="round" stroke-linejoin="round"/>
<path d="M21.1884 85.5693C21.1884 87.0221 20.0097 88.2048 18.5475 88.2048C17.0918 88.2048 15.9066 87.0221 15.9066 85.5693C15.9066 84.1166 17.0918 82.9339 18.5475 82.9339C20.0097 82.9339 21.1884 84.1166 21.1884 85.5693Z" fill="#1A1B3A"/>
<path d="M45.4461 85.5693C45.4461 89.6768 42.1095 93 38 93C33.8841 93 30.5539 89.6768 30.5539 85.5693C30.5539 81.4619 33.8905 78.1387 38 78.1387C42.1095 78.1387 45.4461 81.4683 45.4461 85.5693Z" fill="#F6B700" stroke="#1A1B3A" stroke-width="3" stroke-miterlimit="10" stroke-linecap="round" stroke-linejoin="round"/>
<path d="M40.6409 85.5693C40.6409 87.0221 39.4622 88.2048 38 88.2048C36.5443 88.2048 35.3591 87.0221 35.3591 85.5693C35.3591 84.1166 36.5443 82.9339 38 82.9339C39.4557 82.9339 40.6409 84.1166 40.6409 85.5693Z" fill="#1A1B3A"/>
<path d="M64.8921 85.5693C64.8921 89.6768 61.5556 93 57.4461 93C53.3301 93 50 89.6768 50 85.5693C50 81.4619 53.3366 78.1387 57.4461 78.1387C61.5556 78.1387 64.8921 81.4683 64.8921 85.5693Z" fill="#F6B700" stroke="#1A1B3A" stroke-width="3" stroke-miterlimit="10" stroke-linecap="round" stroke-linejoin="round"/>
<path d="M60.0805 85.5693C60.0805 87.0221 58.9018 88.2048 57.4396 88.2048C55.9839 88.2048 54.7987 87.0221 54.7987 85.5693C54.7987 84.1166 55.9775 82.9339 57.4396 82.9339C58.9018 82.9339 60.0805 84.1166 60.0805 85.5693Z" fill="#1A1B3A"/>
<path d="M51.1723 42.1809H24.8213V68.4775H51.1723V42.1809Z" fill="#0673B0" stroke="#1A1B3A" stroke-width="4" stroke-miterlimit="10" stroke-linecap="round" stroke-linejoin="round"/>
<path d="M46.4251 55.3324C46.4251 56.9265 45.1304 58.2186 43.533 58.2186C41.9356 58.2186 40.6409 56.9265 40.6409 55.3324C40.6409 53.7383 41.9356 52.4463 43.533 52.4463C45.1304 52.4463 46.4251 53.7383 46.4251 55.3324Z" fill="#1A1B3A"/>
</svg>
