<svg width="99" height="79" viewBox="0 0 99 79" fill="none" xmlns="http://www.w3.org/2000/svg">
<path d="M96.0904 33.8586C96.0904 37.8155 88.7457 46.6239 88.7457 46.6239C88.7457 46.6239 81.4009 37.8155 81.4009 33.8586C81.4009 29.9017 84.6858 26.6894 88.7457 26.6894C92.8056 26.6894 96.0904 29.9017 96.0904 33.8586Z" fill="#8CD3F6" stroke="#1A1B3A" stroke-width="3" stroke-miterlimit="10" stroke-linecap="round" stroke-linejoin="round"/>
<path d="M91.9567 34.4891C91.9567 36.2183 88.7457 40.0671 88.7457 40.0671C88.7457 40.0671 85.5408 36.2183 85.5408 34.4891C85.5408 32.7598 86.9741 31.3548 88.7457 31.3548C90.5173 31.3548 91.9567 32.7598 91.9567 34.4891Z" fill="#0673B0" stroke="#1A1B3A" stroke-width="3" stroke-miterlimit="10" stroke-linecap="round" stroke-linejoin="round"/>
<path d="M17.6052 33.8586C17.6052 37.8155 10.2605 46.6239 10.2605 46.6239C10.2605 46.6239 2.91577 37.8155 2.91577 33.8586C2.91577 29.9017 6.2006 26.6894 10.2605 26.6894C14.3204 26.6894 17.6052 29.9017 17.6052 33.8586Z" fill="#8CD3F6" stroke="#1A1B3A" stroke-width="3" stroke-miterlimit="10" stroke-linecap="round" stroke-linejoin="round"/>
<path d="M13.4715 34.4891C13.4715 36.2183 10.2666 40.0671 10.2666 40.0671C10.2666 40.0671 7.06177 36.2183 7.06177 34.4891C7.06177 32.7598 8.49503 31.3548 10.2666 31.3548C12.0321 31.3548 13.4715 32.7598 13.4715 34.4891Z" fill="#0673B0" stroke="#1A1B3A" stroke-width="3" stroke-miterlimit="10" stroke-linecap="round" stroke-linejoin="round"/>
<path d="M87.2448 16.9503H11.7676V25.2484H87.2448V16.9503Z" fill="#0673B0" stroke="#1A1B3A" stroke-width="4" stroke-miterlimit="10" stroke-linecap="round" stroke-linejoin="round"/>
<path d="M94.7186 27.6981H82.7727V31.4869H94.7186V27.6981Z" fill="#1A1B3A"/>
<path d="M81.2472 27.8062C80.4844 27.8062 79.8693 27.1998 79.8693 26.4612V22.2702C79.8693 17.4907 83.8492 13.6059 88.7457 13.6059C93.6422 13.6059 97.6221 17.4907 97.6221 22.2702V26.4612C97.6221 27.2058 97.0008 27.8062 96.238 27.8062H81.2472Z" fill="#F6B700"/>
<path d="M88.7456 14.9449C92.8855 14.9449 96.238 18.2233 96.238 22.2642V26.4552H81.2471V22.2642C81.2471 18.2233 84.6058 14.9449 88.7456 14.9449ZM88.7456 12.2489C83.0864 12.2489 78.4852 16.7402 78.4852 22.2642V26.4552C78.4852 27.9443 79.7216 29.1512 81.2471 29.1512H96.238C97.7635 29.1512 99 27.9443 99 26.4552V22.2642C99.0061 16.7402 94.4049 12.2489 88.7456 12.2489Z" fill="#1A1B3A"/>
<path d="M94.0604 22.2642V26.4552H96.2442V22.2642C96.2442 18.2233 92.8855 14.9449 88.7518 14.9449C88.3827 14.9449 88.0137 14.9749 87.663 15.0229C91.28 15.5393 94.0604 18.5835 94.0604 22.2642Z" fill="#CE9900"/>
<path d="M16.2334 27.6981H4.28748V31.4869H16.2334V27.6981Z" fill="#1A1B3A"/>
<path d="M2.76809 27.8062C2.00532 27.8062 1.38403 27.1998 1.38403 26.4612V22.2702C1.38403 17.4907 5.36396 13.6059 10.2604 13.6059C15.1569 13.6059 19.1369 17.4907 19.1369 22.2702V26.4612C19.1369 27.2058 18.5156 27.8062 17.759 27.8062H2.76809Z" fill="#F6B700"/>
<path d="M10.2605 14.9449C14.4003 14.9449 17.759 18.2233 17.759 22.2642V26.4552H2.76811V22.2642C2.76811 18.2233 6.1206 14.9449 10.2605 14.9449ZM10.2605 12.2489C4.60122 12.2489 0 16.7402 0 22.2642V26.4552C0 27.9443 1.23642 29.1512 2.76196 29.1512H17.7528C19.2784 29.1512 20.5148 27.9443 20.5148 26.4552V22.2642C20.5209 16.7402 15.9197 12.2489 10.2605 12.2489Z" fill="#1A1B3A"/>
<path d="M15.5752 22.2642V26.4552H17.759V22.2642C17.759 18.2233 14.4003 14.9449 10.2605 14.9449C9.89139 14.9449 9.52231 14.9749 9.16553 15.0229C12.7948 15.5393 15.5752 18.5835 15.5752 22.2642Z" fill="#CE9900"/>
<path d="M49.5062 36.6567V70.6294" stroke="#1A1B3A" stroke-width="4" stroke-miterlimit="10" stroke-linecap="round" stroke-linejoin="round"/>
<path d="M63.9127 38.4039L74.4192 51.9498V69.8548" stroke="#1A1B3A" stroke-width="4" stroke-miterlimit="10" stroke-linecap="round" stroke-linejoin="round"/>
<path d="M74.4191 57.4378C77.4631 57.4378 79.9308 55.0291 79.9308 52.0579C79.9308 49.0866 77.4631 46.6779 74.4191 46.6779C71.3752 46.6779 68.9075 49.0866 68.9075 52.0579C68.9075 55.0291 71.3752 57.4378 74.4191 57.4378Z" fill="#1A1B3A"/>
<path d="M35.0935 38.4039L24.5931 51.9498V69.8548" stroke="#1A1B3A" stroke-width="4" stroke-miterlimit="10" stroke-linecap="round" stroke-linejoin="round"/>
<path d="M24.5932 57.4378C27.6371 57.4378 30.1048 55.0291 30.1048 52.0579C30.1048 49.0866 27.6371 46.6779 24.5932 46.6779C21.5492 46.6779 19.0815 49.0866 19.0815 52.0579C19.0815 55.0291 21.5492 57.4378 24.5932 57.4378Z" fill="#1A1B3A"/>
<path d="M43.9946 52.0579C43.9946 55.03 46.4613 57.4378 49.5062 57.4378C52.5511 57.4378 55.0178 55.03 55.0178 52.0579C55.0178 49.0857 52.5511 46.6779 49.5062 46.6779C46.4613 46.6779 43.9946 49.0857 43.9946 52.0579Z" fill="#1A1B3A"/>
<path d="M23.2829 39.1365C22.8401 39.1365 22.4279 38.9323 22.1634 38.5781C21.905 38.2298 21.8312 37.7795 21.9666 37.3712L33.6972 2.28166C33.8817 1.72926 34.4108 1.35098 35.0074 1.35098H63.9865C64.5832 1.35098 65.1122 1.72325 65.2967 2.28166L77.0274 37.3712C77.1627 37.7795 77.095 38.2298 76.8305 38.5781C76.566 38.9263 76.1539 39.1365 75.711 39.1365H23.2829Z" fill="#F6B700"/>
<path d="M63.9926 2.69596L75.7233 37.7855H23.2829L35.0136 2.69596H63.9926ZM63.9926 0H35.0136C33.8202 0 32.756 0.750546 32.3869 1.86135L20.6563 36.9509C20.3795 37.7735 20.5271 38.6741 21.0438 39.3706C21.5606 40.0671 22.3971 40.4814 23.2768 40.4814H75.711C76.5968 40.4814 77.4272 40.0671 77.9439 39.3706C78.4606 38.6741 78.6083 37.7735 78.3315 36.9509L66.6193 1.86135C66.2502 0.750546 65.186 0 63.9926 0Z" fill="#1A1B3A"/>
<path d="M63.9926 2.69596H52.4711L64.2018 37.7855H75.7233L63.9926 2.69596Z" fill="#CE9900"/>
<path d="M60.2772 16.9563C60.2772 22.7626 55.4546 27.47 49.5062 27.47C43.5578 27.47 38.7352 22.7626 38.7352 16.9563C38.7352 11.1501 43.5578 6.44269 49.5062 6.44269C55.4546 6.44269 60.2772 11.1441 60.2772 16.9563Z" fill="#8CD3F6" stroke="#1A1B3A" stroke-width="4" stroke-miterlimit="10" stroke-linecap="round" stroke-linejoin="round"/>
<path d="M51.813 16.0737C51.813 18.1092 50.1213 19.7604 48.036 19.7604C45.9507 19.7604 44.2591 18.1092 44.2591 16.0737C44.2591 14.0382 45.9507 12.387 48.036 12.387C50.1275 12.387 51.813 14.0382 51.813 16.0737Z" fill="white"/>
<path d="M42.9796 77C42.9796 73.4814 45.9014 70.6294 49.5061 70.6294C53.1108 70.6294 56.0327 73.4814 56.0327 77" stroke="#1A1B3A" stroke-width="4" stroke-miterlimit="10" stroke-linecap="round" stroke-linejoin="round"/>
<path d="M18.0665 77C18.0665 73.4814 20.9884 70.6294 24.5931 70.6294C28.1978 70.6294 31.1197 73.4814 31.1197 77" stroke="#1A1B3A" stroke-width="4" stroke-miterlimit="10" stroke-linecap="round" stroke-linejoin="round"/>
<path d="M67.8925 77C67.8925 73.4814 70.8144 70.6294 74.4191 70.6294C78.0238 70.6294 80.9457 73.4814 80.9457 77" stroke="#1A1B3A" stroke-width="4" stroke-miterlimit="10" stroke-linecap="round" stroke-linejoin="round"/>
</svg>
