<svg width="98" height="87" viewBox="0 0 98 87" fill="none" xmlns="http://www.w3.org/2000/svg">
<path d="M26.4459 49.1822C26.3297 49.1822 26.2073 49.164 26.0911 49.1337L16.4143 46.5684C15.9372 46.441 15.5702 46.0771 15.4418 45.6041C15.3133 45.1371 15.4479 44.6338 15.7965 44.2881L26.715 33.4629L24.7087 26.0459L17.2279 24.0568L6.30939 34.882C6.04637 35.1428 5.69771 35.2822 5.33682 35.2822C5.2206 35.2822 5.09826 35.2701 4.98204 35.2337C4.50493 35.1064 4.13793 34.7425 4.00947 34.2695L1.41595 24.6754C1.2875 24.2023 1.42207 23.705 1.77073 23.3593L15.454 9.79296C15.717 9.53219 16.0657 9.3927 16.4266 9.3927C16.5428 9.3927 16.6651 9.41089 16.7813 9.44122L35.4682 14.4081C35.9453 14.5354 36.3123 14.8993 36.4407 15.3723L41.4504 33.8995C41.5788 34.3665 41.4443 34.8699 41.0956 35.2155L27.4123 48.7819C27.1554 49.0427 26.8068 49.1822 26.4459 49.1822Z" fill="#0673B0"/>
<path d="M16.4327 10.7633L35.1195 15.7301L40.1292 34.2573L26.4459 47.8237L16.7691 45.2523L28.2503 33.8692L25.8342 24.93L16.818 22.5345L5.34293 33.9177L2.74941 24.3236L16.4327 10.7633ZM16.4327 8.04028C15.7109 8.04028 15.0136 8.31925 14.4875 8.8408L0.804269 22.4011C0.113071 23.0864 -0.162185 24.0931 0.0947202 25.0331L2.68824 34.6212C2.94515 35.5612 3.68528 36.295 4.63339 36.5497C4.86582 36.6103 5.10438 36.6407 5.34293 36.6407C6.06471 36.6407 6.76203 36.3617 7.28808 35.8402L17.6438 25.5729L23.5955 27.1557L25.1919 33.0565L14.8362 43.3238C14.145 44.0091 13.8698 45.0158 14.1267 45.9558C14.3836 46.8958 15.1237 47.6296 16.0718 47.8843L25.7486 50.4557C25.981 50.5163 26.2196 50.5467 26.4581 50.5467C27.1799 50.5467 27.8772 50.2677 28.4033 49.7522L42.0865 36.1858C42.7777 35.5005 43.053 34.4938 42.7961 33.5538L37.7742 15.0206C37.5173 14.0806 36.7772 13.3468 35.8291 13.092L17.1422 8.12519C16.9037 8.07061 16.6651 8.04028 16.4327 8.04028Z" fill="#1A1B3A"/>
<path d="M79.974 28.12C79.925 28.12 79.87 28.12 79.8211 28.1139L35.6149 23.2016C34.9176 23.1228 34.3977 22.5406 34.3977 21.8492V16.3669C34.3977 15.6998 34.8871 15.1297 35.5538 15.0206L79.7599 8.06452C79.8333 8.05239 79.9006 8.04633 79.974 8.04633C80.2982 8.04633 80.6162 8.16155 80.867 8.37381C81.1729 8.63459 81.3503 9.01059 81.3503 9.41085V26.7554C81.3503 27.1436 81.1851 27.5135 80.8915 27.7682C80.6346 27.9926 80.3104 28.12 79.974 28.12Z" fill="#0673B0"/>
<path d="M79.974 9.41085V26.7554L35.7679 21.8432V16.3669L79.974 9.41085ZM79.974 6.68787C79.8333 6.68787 79.6865 6.7 79.5458 6.72425L35.3336 13.6742C34.0001 13.8865 33.0153 15.0266 33.0153 16.3608V21.8371C33.0153 23.2259 34.0674 24.3903 35.4559 24.5419L79.662 29.4542C79.766 29.4663 79.8639 29.4724 79.9679 29.4724C80.6407 29.4724 81.2891 29.2298 81.7968 28.781C82.3779 28.2655 82.7143 27.5256 82.7143 26.7494V9.40478C82.7143 8.61033 82.3595 7.85226 81.754 7.33677C81.2524 6.91832 80.6224 6.68787 79.974 6.68787Z" fill="#1A1B3A"/>
<path d="M35.7618 21.8432L79.974 26.7555V22.0555L35.7618 17.1432V21.8432Z" fill="#0D5988"/>
<path d="M67.8994 73.5798C67.7465 73.5798 67.5936 73.5555 67.4468 73.5009L54.3079 68.9404C53.5922 68.6917 53.213 67.9155 53.4638 67.2059L72.224 14.0623C72.4197 13.5044 72.9519 13.1526 73.5208 13.1526C73.6737 13.1526 73.8266 13.1769 73.9734 13.2315L87.1123 17.792C87.4548 17.9133 87.7362 18.162 87.8952 18.4834C88.0543 18.8109 88.0726 19.1808 87.9564 19.5265L69.1962 72.6701C69.0738 73.0097 68.8231 73.2887 68.4989 73.4464C68.3092 73.5313 68.1013 73.5798 67.8994 73.5798Z" fill="#0673B0"/>
<path d="M73.5208 14.5111L86.6596 19.0717L67.8994 72.2153L54.7605 67.6547L73.5208 14.5111ZM73.5208 11.7881C72.383 11.7881 71.3248 12.4916 70.9272 13.6136L52.167 66.7572C51.6654 68.1763 52.4178 69.7288 53.8553 70.2261L66.9941 74.7866C67.2877 74.8897 67.5936 74.9383 67.8994 74.9383C68.3092 74.9383 68.713 74.8473 69.0922 74.6714C69.7467 74.3561 70.2544 73.7981 70.4929 73.1189L89.2532 19.9753C89.4917 19.2961 89.4489 18.5441 89.1369 17.8951C88.8189 17.2462 88.2561 16.7429 87.571 16.5064L74.4322 11.9458C74.1263 11.8367 73.8205 11.7881 73.5208 11.7881Z" fill="#1A1B3A"/>
<path d="M79.1054 16.4518L60.7489 68.4674L55.1582 66.5267L54.7606 67.6547L67.8994 72.2153L86.6597 19.0717L79.1054 16.4518Z" fill="#0D5988"/>
<path d="M79.7783 34.1663C88.7373 34.1663 96 26.9657 96 18.0832C96 9.20068 88.7373 2 79.7783 2C70.8192 2 63.5565 9.20068 63.5565 18.0832C63.5565 26.9657 70.8192 34.1663 79.7783 34.1663Z" fill="#8CD3F6" stroke="#1A1B3A" stroke-width="4" stroke-miterlimit="10" stroke-linecap="round" stroke-linejoin="round"/>
<path d="M88.0665 18.0832C88.0665 22.6195 84.3536 26.3006 79.7783 26.3006C75.2029 26.3006 71.49 22.6195 71.49 18.0832C71.49 13.5469 75.2029 9.86572 79.7783 9.86572C84.3536 9.86572 88.0665 13.5469 88.0665 18.0832Z" fill="#1A1B3A"/>
<path d="M72.2179 66.3266C73.8083 72.4639 70.0831 78.7104 63.8929 80.2872C57.7027 81.864 51.4024 78.1707 49.8121 72.0333C48.2217 65.9021 51.9468 59.6495 58.137 58.0728C64.3272 56.502 70.6337 60.1953 72.2179 66.3266Z" fill="#8CD3F6" stroke="#1A1B3A" stroke-width="4" stroke-miterlimit="10" stroke-linecap="round" stroke-linejoin="round"/>
<path d="M66.7434 67.7275C67.5569 70.8628 65.6485 74.0528 62.4922 74.8594C59.3298 75.666 56.1124 73.7738 55.2988 70.6445C54.4853 67.5092 56.3937 64.3192 59.55 63.5126C62.7063 62.7 65.9298 64.5921 66.7434 67.7275Z" fill="#1A1B3A"/>
<path d="M38.3308 16.846C39.3523 20.794 36.9546 24.8148 32.9786 25.8276C28.9966 26.8403 24.9412 24.463 23.9197 20.5211C22.8982 16.567 25.2898 12.5462 29.2719 11.5334C33.2539 10.5207 37.3093 12.898 38.3308 16.846Z" fill="#8CD3F6" stroke="#1A1B3A" stroke-width="4" stroke-miterlimit="10" stroke-linecap="round" stroke-linejoin="round"/>
<path d="M34.8076 17.7435C35.3275 19.7569 34.1041 21.8128 32.0734 22.3283C30.0426 22.8438 27.969 21.6309 27.4429 19.6174C26.923 17.604 28.1464 15.5481 30.1771 15.0266C32.214 14.5111 34.2815 15.724 34.8076 17.7435Z" fill="#1A1B3A"/>
<path d="M88.9534 79.9718C88.9534 83.3013 86.2315 86 82.8734 86H39.1627C35.8046 86 33.0826 83.3013 33.0826 79.9718C33.0826 76.6424 35.8046 73.9437 39.1627 73.9437H82.8734C86.2315 73.9437 88.9534 76.6424 88.9534 79.9718Z" fill="#0673B0" stroke="#1A1B3A" stroke-width="2" stroke-miterlimit="10" stroke-linecap="round" stroke-linejoin="round"/>
<path d="M51.7083 79.9718C51.7083 83.1375 49.1209 85.7028 45.9279 85.7028C42.7349 85.7028 40.1475 83.1375 40.1475 79.9718C40.1475 76.8061 42.7349 74.2408 45.9279 74.2408C49.1209 74.2408 51.7083 76.8061 51.7083 79.9718Z" fill="#F6B700" stroke="#1A1B3A" stroke-width="2" stroke-miterlimit="10" stroke-linecap="round" stroke-linejoin="round"/>
<path d="M47.977 79.9719C47.977 81.0938 47.0595 82.0035 45.9279 82.0035C44.7963 82.0035 43.8788 81.0938 43.8788 79.9719C43.8788 78.8499 44.7963 77.9402 45.9279 77.9402C47.0595 77.9402 47.977 78.8499 47.977 79.9719Z" fill="#1A1B3A"/>
<path d="M66.7984 79.9718C66.7984 83.1375 64.211 85.7028 61.018 85.7028C57.8251 85.7028 55.2377 83.1375 55.2377 79.9718C55.2377 76.8061 57.8251 74.2408 61.018 74.2408C64.211 74.2408 66.7984 76.8061 66.7984 79.9718Z" fill="#F6B700" stroke="#1A1B3A" stroke-width="2" stroke-miterlimit="10" stroke-linecap="round" stroke-linejoin="round"/>
<path d="M63.0672 79.9719C63.0672 81.0938 62.1496 82.0035 61.018 82.0035C59.8864 82.0035 58.9689 81.0938 58.9689 79.9719C58.9689 78.8499 59.8864 77.9402 61.018 77.9402C62.1496 77.9402 63.0672 78.8499 63.0672 79.9719Z" fill="#1A1B3A"/>
<path d="M81.8886 79.9718C81.8886 83.1375 79.3012 85.7028 76.1082 85.7028C72.9152 85.7028 70.3278 83.1375 70.3278 79.9718C70.3278 76.8061 72.9152 74.2408 76.1082 74.2408C79.3012 74.2408 81.8886 76.8061 81.8886 79.9718Z" fill="#F6B700" stroke="#1A1B3A" stroke-width="2" stroke-miterlimit="10" stroke-linecap="round" stroke-linejoin="round"/>
<path d="M78.1573 79.9719C78.1573 81.0938 77.2398 82.0035 76.1082 82.0035C74.9766 82.0035 74.0591 81.0938 74.0591 79.9719C74.0591 78.8499 74.9766 77.9402 76.1082 77.9402C77.2398 77.9402 78.1573 78.8499 78.1573 79.9719Z" fill="#1A1B3A"/>
</svg>
