<svg width="92" height="90" viewBox="0 0 92 90" fill="none" xmlns="http://www.w3.org/2000/svg">
<path d="M64.8365 54.4606C64.4718 54.4606 64.1253 54.318 63.8701 54.0684L36.7005 27.5007C36.1656 26.9777 36.1656 26.1337 36.7005 25.6107L61.1288 1.72363C61.3962 1.46212 61.7427 1.33136 62.0952 1.33136C62.4417 1.33136 62.7942 1.46212 63.0617 1.72363L90.2312 28.2912C90.4865 28.5409 90.6324 28.8797 90.6324 29.2363C90.6324 29.5929 90.4865 29.9317 90.2312 30.1813L65.8029 54.0684C65.5476 54.318 65.2012 54.4606 64.8365 54.4606Z" fill="#0673B0"/>
<path d="M62.0953 2.66865L89.2648 29.2363L64.8365 53.1233L37.6669 26.5557L62.0953 2.66865ZM62.0953 0C61.3963 0 60.6973 0.261516 60.1685 0.784548L35.7401 24.6657C34.6765 25.7058 34.6765 27.3997 35.7401 28.4398L62.9097 55.0074C63.4203 55.5067 64.1132 55.792 64.8426 55.792C65.5659 55.792 66.2588 55.5126 66.7755 55.0074L91.2038 31.1204C91.7144 30.6211 92 29.9435 92 29.2363C92 28.529 91.7144 27.8514 91.2038 27.3462L64.0342 0.778604C63.4932 0.261516 62.7942 0 62.0953 0Z" fill="#1A1B3A"/>
<path d="M84.0085 24.1007L59.5835 47.9845L64.8398 53.1243L89.2648 29.2405L84.0085 24.1007Z" fill="#0D5988"/>
<path d="M80.2995 35.9049C80.2995 36.7786 79.5762 37.4859 78.6827 37.4859H62.4174C61.5239 37.4859 60.8006 36.7786 60.8006 35.9049V23.1382C60.8006 22.2645 61.5239 21.5572 62.4174 21.5572H78.6827C79.5762 21.5572 80.2995 22.2645 80.2995 23.1382V35.9049Z" fill="#1A1B3A"/>
<path d="M77.2543 32.315C77.2543 33.5453 76.2331 34.5438 74.9749 34.5438C73.7168 34.5438 72.6956 33.5453 72.6956 32.315V26.7221C72.6956 25.4918 73.7168 24.4933 74.9749 24.4933C76.2331 24.4933 77.2543 25.4918 77.2543 26.7221V32.315Z" fill="#8CD3F6" stroke="#1A1B3A" stroke-width="4" stroke-miterlimit="10" stroke-linecap="round" stroke-linejoin="round"/>
<path d="M39.1743 71.8455C38.8218 71.8455 38.4692 71.7088 38.2079 71.4532L18.9217 52.5944C18.5023 52.1842 18.4051 51.5602 18.6725 51.049L34.7919 20.0178C34.9925 19.6374 35.3633 19.37 35.7948 19.3046C35.8678 19.2927 35.9407 19.2868 36.0076 19.2868C36.3662 19.2868 36.7126 19.4235 36.974 19.679L71.8751 53.8068C72.185 54.1099 72.3248 54.5379 72.258 54.9599C72.1911 55.3819 71.9176 55.7444 71.5286 55.9406L39.7943 71.7028C39.5937 71.7979 39.381 71.8455 39.1743 71.8455Z" fill="#0673B0"/>
<path d="M36.0075 20.6241L70.9086 54.7518L39.1743 70.5141L19.8881 51.6553L36.0075 20.6241ZM36.0075 17.9554C35.8677 17.9554 35.7219 17.9673 35.576 17.9911C34.7129 18.1278 33.9653 18.6567 33.5702 19.4175L17.4508 50.4487C16.9159 51.477 17.1165 52.7251 17.9553 53.5453L37.2414 72.3982C37.7641 72.9094 38.4631 73.1828 39.1743 73.1828C39.5937 73.1828 40.0192 73.0877 40.4082 72.8915L72.1425 57.1293C72.9205 56.7429 73.4615 56.0119 73.6013 55.1679C73.7411 54.3239 73.4554 53.468 72.8354 52.8618L37.9343 18.734C37.4177 18.2288 36.7248 17.9554 36.0075 17.9554Z" fill="#1A1B3A"/>
<path d="M39.1743 70.5082L31.5036 63.0134L63.2379 47.2511L70.9025 54.7459L39.1743 70.5082Z" fill="#0D5988"/>
<path d="M21.9426 82.526C17.9796 86.4012 2 88 2 88C2 88 3.63504 72.3744 7.59803 68.4993C11.561 64.6241 17.9796 64.6241 21.9426 68.4993C25.8995 72.3744 25.8995 78.6508 21.9426 82.526Z" fill="#8CD3F6" stroke="#1A1B3A" stroke-width="3" stroke-miterlimit="10" stroke-linecap="round" stroke-linejoin="round"/>
<path d="M17.2745 79.1917C15.5422 80.8856 8.56445 81.581 8.56445 81.581C8.56445 81.581 9.28168 74.7578 11.0079 73.0639C12.7402 71.37 15.5422 71.37 17.2684 73.0639C19.0007 74.7578 19.0007 77.4978 17.2745 79.1917Z" fill="#0673B0" stroke="#1A1B3A" stroke-width="3" stroke-miterlimit="10" stroke-linecap="round" stroke-linejoin="round"/>
<path d="M14.7675 61.4876L9.82922 66.3165L24.1713 80.3408L29.1096 75.5119L14.7675 61.4876Z" fill="#1A1B3A"/>
<path d="M18.57 50.3681L9.32526 59.4081L31.2402 80.8375L40.485 71.7976L18.57 50.3681Z" fill="#8CD3F6" stroke="#1A1B3A" stroke-width="3" stroke-miterlimit="10" stroke-linecap="round" stroke-linejoin="round"/>
<path d="M24.9635 56.6122L15.7186 65.6582" stroke="#1A1B3A" stroke-width="3" stroke-miterlimit="10" stroke-linecap="round" stroke-linejoin="round"/>
<path d="M29.5283 61.0817L20.2833 70.1218" stroke="#1A1B3A" stroke-width="3" stroke-miterlimit="10" stroke-linecap="round" stroke-linejoin="round"/>
<path d="M34.0991 65.5453L24.8541 74.5914" stroke="#1A1B3A" stroke-width="3" stroke-miterlimit="10" stroke-linecap="round" stroke-linejoin="round"/>
<path d="M47.2279 56.3566L54.1449 66.1397H77.1813" stroke="#1A1B3A" stroke-width="4" stroke-miterlimit="10" stroke-linecap="round" stroke-linejoin="round"/>
<path d="M46.1946 61.1114C50.5831 61.1114 54.1449 57.6345 54.1449 53.3373C54.1449 49.0461 50.5892 45.5631 46.1946 45.5631C41.8062 45.5631 38.2443 49.0401 38.2443 53.3373C38.2504 57.6345 41.8062 61.1114 46.1946 61.1114Z" fill="#1A1B3A"/>
<path d="M88.6813 61.1114H81.7643L76.5249 66.4131L81.7643 71.1679H88.6813" stroke="#1A1B3A" stroke-width="4" stroke-miterlimit="10" stroke-linecap="round" stroke-linejoin="round"/>
</svg>
