<svg width="90" height="91" viewBox="0 0 90 91" fill="none" xmlns="http://www.w3.org/2000/svg">
<path d="M79.7003 69.72L58.1957 68.334V62.7777L79.7003 57.6916V69.72Z" fill="#0673B0" stroke="#1A1B3A" stroke-width="3" stroke-miterlimit="10" stroke-linecap="round" stroke-linejoin="round"/>
<path d="M88 66.094C88 70.7346 79.7003 88.9999 79.7003 88.9999C79.7003 88.9999 71.4006 70.7346 71.4006 66.094C71.4006 61.4535 75.1193 57.6977 79.7003 57.6977C84.2814 57.6915 88 61.4535 88 66.094Z" fill="#0673B0" stroke="#1A1B3A" stroke-width="3" stroke-miterlimit="10" stroke-linecap="round" stroke-linejoin="round"/>
<path d="M73.2844 73.3458C73.2844 73.3458 77.315 66.0941 87.6881 66.0941" stroke="#1A1B3A" stroke-width="3" stroke-miterlimit="10" stroke-linecap="round" stroke-linejoin="round"/>
<path d="M10.3058 69.72L31.8104 68.334V62.7777L10.3058 57.6916V69.72Z" fill="#0673B0" stroke="#1A1B3A" stroke-width="3" stroke-miterlimit="10" stroke-linecap="round" stroke-linejoin="round"/>
<path d="M2 66.0941C2 70.7347 10.2997 89 10.2997 89C10.2997 89 18.5994 70.7347 18.5994 66.0941C18.5994 61.4535 14.8807 57.6978 10.2997 57.6978C5.71865 57.6916 2 61.4535 2 66.0941Z" fill="#0673B0" stroke="#1A1B3A" stroke-width="3" stroke-miterlimit="10" stroke-linecap="round" stroke-linejoin="round"/>
<path d="M16.7156 73.3458C16.7156 73.3458 12.685 66.0941 2.31192 66.0941" stroke="#1A1B3A" stroke-width="3" stroke-miterlimit="10" stroke-linecap="round" stroke-linejoin="round"/>
<path d="M64.3914 25.319V8.66241" stroke="#1A1B3A" stroke-width="4" stroke-miterlimit="10" stroke-linecap="round" stroke-linejoin="round"/>
<path d="M71.5535 7.24548C71.5535 11.2487 68.3486 14.491 64.3914 14.491C60.4342 14.491 57.2294 11.2487 57.2294 7.24548C57.2294 3.24221 60.4342 0 64.3914 0C68.3486 0 71.5535 3.24221 71.5535 7.24548Z" fill="#1A1B3A"/>
<path d="M25.6086 25.319V8.66241" stroke="#1A1B3A" stroke-width="4" stroke-miterlimit="10" stroke-linecap="round" stroke-linejoin="round"/>
<path d="M32.7706 7.24548C32.7706 11.2487 29.5658 14.491 25.6086 14.491C21.6514 14.491 18.4465 11.2487 18.4465 7.24548C18.4465 3.24221 21.6514 0 25.6086 0C29.5658 0 32.7706 3.24221 32.7706 7.24548Z" fill="#1A1B3A"/>
<path d="M28.5505 67.9937C27.9572 67.9937 27.4312 67.6101 27.2477 67.0346L13.9327 25.7459C13.7982 25.3252 13.8654 24.8611 14.1284 24.5022C14.3853 24.1434 14.8012 23.9268 15.2416 23.9268H74.7707C75.211 23.9268 75.6208 24.1372 75.8838 24.5022C76.1407 24.8611 76.2141 25.3252 76.0795 25.7459L62.7645 67.0285C62.581 67.5977 62.0551 67.9875 61.4618 67.9875H28.5505V67.9937Z" fill="#8CD3F6"/>
<path d="M74.7645 25.319L61.4495 66.6077H28.5505L15.2355 25.319H74.7645ZM74.7645 22.5408H15.2355C14.3547 22.5408 13.5291 22.9678 13.0153 23.6855C12.5015 24.4032 12.3547 25.3314 12.63 26.179L25.945 67.4678C26.3119 68.6124 27.37 69.3859 28.5566 69.3859H61.4495C62.6361 69.3859 63.6942 68.6124 64.0612 67.4678L77.3517 26.2657C77.4557 25.9687 77.5168 25.6531 77.5168 25.319C77.5107 23.7845 76.2813 22.5408 74.7645 22.5408Z" fill="#1A1B3A"/>
<path d="M61.4495 66.6015H48.3731L61.6881 25.319H74.7645L61.4495 66.6015Z" fill="#4CB2DC"/>
<path d="M57.2294 42.0931C57.2294 48.924 51.7554 54.4618 45.0031 54.4618C38.2508 54.4618 32.7768 48.924 32.7768 42.0931C32.7768 35.2622 38.2508 29.7244 45.0031 29.7244C51.7554 29.7244 57.2294 35.2622 57.2294 42.0931Z" fill="#0673B0" stroke="#1A1B3A" stroke-width="4" stroke-miterlimit="10" stroke-linecap="round" stroke-linejoin="round"/>
<path d="M47.6269 41.0536C47.6269 43.4482 45.7064 45.391 43.3395 45.391C40.9725 45.391 39.052 43.4482 39.052 41.0536C39.052 38.6591 40.9725 36.7162 43.3395 36.7162C45.7064 36.7162 47.6269 38.6591 47.6269 41.0536Z" fill="white"/>
<path d="M53.3028 66.0941C53.3028 70.7347 45.0031 89 45.0031 89C45.0031 89 36.7034 70.7347 36.7034 66.0941C36.7034 61.4535 40.422 57.6978 45.0031 57.6978C49.5841 57.6978 53.3028 61.4535 53.3028 66.0941Z" fill="#0673B0" stroke="#1A1B3A" stroke-width="3" stroke-miterlimit="10" stroke-linecap="round" stroke-linejoin="round"/>
<path d="M38.7095 73.1045C38.7095 69.59 41.5229 66.7438 44.9969 66.7438C48.471 66.7438 51.2844 69.59 51.2844 73.1045" stroke="#1A1B3A" stroke-width="3" stroke-miterlimit="10" stroke-linecap="round" stroke-linejoin="round"/>
</svg>
