<svg width="68" height="87" viewBox="0 0 68 87" fill="none" xmlns="http://www.w3.org/2000/svg">
<path d="M12.0802 46.1351C11.3038 46.1351 10.6714 45.5323 10.6714 44.7921V23.1063C10.6714 11.1025 21.1336 1.33704 33.9937 1.33704C46.8538 1.33704 57.3159 11.1025 57.3159 23.1063V44.7981C57.3159 45.5382 56.6836 46.1411 55.9072 46.1411H12.0802V46.1351Z" fill="#0673B0"/>
<path d="M34 2.68013C46.1025 2.68013 55.9135 11.8248 55.9135 23.1064V44.7981H12.0865V23.1064C12.0802 11.8248 21.8912 2.68013 34 2.68013ZM34 0C20.3635 0 9.27527 10.3683 9.27527 23.1064V44.7981C9.27527 46.2784 10.5337 47.4782 12.0865 47.4782H55.9135C57.4662 47.4782 58.7247 46.2784 58.7247 44.7981V23.1064C58.7247 10.3624 47.6302 0 34 0Z" fill="#1A1B3A"/>
<path d="M45.2698 23.1064V44.7982H55.9135V23.1064C55.9135 11.8248 46.1025 2.68018 34 2.68018C32.1655 2.68018 30.3811 2.89506 28.6781 3.28902C38.2073 5.50356 45.2698 13.538 45.2698 23.1064Z" fill="#0D5988"/>
<path d="M34 48.4452V78.6668" stroke="#1A1B3A" stroke-width="4" stroke-miterlimit="10" stroke-linecap="round" stroke-linejoin="round"/>
<path d="M48.6633 50.1823L59.3571 63.6485V77.8968" stroke="#1A1B3A" stroke-width="4" stroke-miterlimit="10" stroke-linecap="round" stroke-linejoin="round"/>
<path d="M53.7472 63.756C53.7472 66.7107 56.2579 69.1043 59.3571 69.1043C62.4562 69.1043 64.9669 66.7107 64.9669 63.756C64.9669 60.8013 62.4562 58.4077 59.3571 58.4077C56.2579 58.4137 53.7472 60.8073 53.7472 63.756Z" fill="#1A1B3A"/>
<path d="M19.3305 50.1823L8.64294 63.6485V77.8968" stroke="#1A1B3A" stroke-width="4" stroke-miterlimit="10" stroke-linecap="round" stroke-linejoin="round"/>
<path d="M14.2465 63.756C14.2465 66.7107 11.7359 69.1043 8.63665 69.1043C5.53746 69.1043 3.02679 66.7107 3.02679 63.756C3.02679 60.8013 5.53746 58.4077 8.63665 58.4077C11.7359 58.4137 14.2465 60.8073 14.2465 63.756Z" fill="#1A1B3A"/>
<path d="M28.3901 63.756C28.3901 66.7107 30.9008 69.1043 34 69.1043C37.0992 69.1043 39.6099 66.7107 39.6099 63.756C39.6099 60.8013 37.0992 58.4077 34 58.4077C30.9008 58.4137 28.3901 60.8073 28.3901 63.756Z" fill="#1A1B3A"/>
<path d="M7.30931 50.9104C6.85852 50.9104 6.43903 50.7075 6.1698 50.3553C5.90684 50.0091 5.83171 49.5614 5.96945 49.1555L9.32535 39.3423C9.51318 38.7932 10.0516 38.4171 10.6589 38.4171H57.316C57.9233 38.4171 58.4617 38.7872 58.6496 39.3423L62.0055 49.1555C62.1432 49.5614 62.0743 50.0091 61.8051 50.3553C61.5421 50.7015 61.1164 50.9104 60.6656 50.9104H7.30931Z" fill="#0673B0"/>
<path d="M57.3285 39.7602L60.6844 49.5734H7.30934L10.6652 39.7602H57.3285ZM57.3285 37.0801H10.6715C9.45686 37.0801 8.37371 37.8262 7.99805 38.9305L4.64215 48.7377C4.3604 49.5555 4.51067 50.4509 5.03659 51.1433C5.56252 51.8357 6.41402 52.2476 7.30934 52.2476H60.6781C61.5797 52.2476 62.425 51.8357 62.9509 51.1433C63.4768 50.4509 63.6271 49.5555 63.3453 48.7377L59.9894 38.9245C59.62 37.8202 58.5431 37.0801 57.3285 37.0801Z" fill="#1A1B3A"/>
<path d="M45.6016 39.7603L48.9575 49.5675H60.6844L57.3285 39.7603H45.6016Z" fill="#0D5988"/>
<path d="M27.3571 85C27.3571 81.5021 30.331 78.6667 34 78.6667C37.6689 78.6667 40.6429 81.5021 40.6429 85" stroke="#1A1B3A" stroke-width="4" stroke-miterlimit="10" stroke-linecap="round" stroke-linejoin="round"/>
<path d="M2 85C2 81.5021 4.97398 78.6667 8.64293 78.6667C12.3119 78.6667 15.2859 81.5021 15.2859 85" stroke="#1A1B3A" stroke-width="4" stroke-miterlimit="10" stroke-linecap="round" stroke-linejoin="round"/>
<path d="M52.7141 85C52.7141 81.5021 55.6881 78.6667 59.357 78.6667C63.026 78.6667 66 81.5021 66 85" stroke="#1A1B3A" stroke-width="4" stroke-miterlimit="10" stroke-linecap="round" stroke-linejoin="round"/>
<path d="M50.8171 23.7391C50.8171 27.8637 47.3046 31.2124 42.9783 31.2124H25.0092C20.6828 31.2124 17.1704 27.8697 17.1704 23.7391C17.1767 19.6084 20.6828 16.2657 25.0154 16.2657H42.9845C47.3109 16.2657 50.8171 19.6084 50.8171 23.7391Z" fill="#8CD3F6" stroke="#1A1B3A" stroke-width="4" stroke-miterlimit="10" stroke-linecap="round" stroke-linejoin="round"/>
<path d="M33.0671 23.6973C33.0671 25.5596 31.4831 27.0638 29.5359 27.0638C27.5825 27.0638 26.0047 25.5537 26.0047 23.6973C26.0047 21.8349 27.5887 20.3307 29.5359 20.3307C31.4831 20.3307 33.0671 21.8409 33.0671 23.6973Z" fill="white"/>
</svg>
