<svg width="90" height="72" viewBox="0 0 90 72" fill="none" xmlns="http://www.w3.org/2000/svg">
<path d="M16.6667 23.5211C16.6667 25.3318 15.1682 26.7971 13.3165 26.7971C11.4648 26.7971 9.96631 25.3318 9.96631 23.5211V11.3522C9.96631 9.54144 11.4648 8.07617 13.3165 8.07617C15.1682 8.07617 16.6667 9.54144 16.6667 11.3522V23.5211Z" fill="#0673B0" stroke="#1A1B3A" stroke-width="2" stroke-miterlimit="10" stroke-linecap="round" stroke-linejoin="round"/>
<path d="M1.78577 7.34949H24.8411" stroke="#1A1B3A" stroke-width="2" stroke-miterlimit="10" stroke-linecap="round" stroke-linejoin="round"/>
<path d="M16.557 4.17475C16.557 5.92592 15.1073 7.3495 13.3103 7.3495C11.5195 7.3495 10.0637 5.93188 10.0637 4.17475C10.0637 2.42357 11.5134 1 13.3103 1C15.1073 1.00596 16.557 2.42357 16.557 4.17475Z" fill="#8CD3F6" stroke="#1A1B3A" stroke-width="2" stroke-miterlimit="10" stroke-linecap="round" stroke-linejoin="round"/>
<path d="M48.3471 23.5211C48.3471 25.3318 46.8487 26.7971 44.997 26.7971C43.1452 26.7971 41.6468 25.3318 41.6468 23.5211V11.3522C41.6468 9.54144 43.1452 8.07617 44.997 8.07617C46.8487 8.07617 48.3471 9.54144 48.3471 11.3522V23.5211Z" fill="#0673B0" stroke="#1A1B3A" stroke-width="2" stroke-miterlimit="10" stroke-linecap="round" stroke-linejoin="round"/>
<path d="M33.4724 7.34949H56.5277" stroke="#1A1B3A" stroke-width="2" stroke-miterlimit="10" stroke-linecap="round" stroke-linejoin="round"/>
<path d="M48.2436 4.17475C48.2436 5.92592 46.7938 7.3495 44.9969 7.3495C43.2061 7.3495 41.7503 5.93188 41.7503 4.17475C41.7503 2.42357 43.2 1 44.9969 1C46.7938 1.00596 48.2436 2.42357 48.2436 4.17475Z" fill="#8CD3F6" stroke="#1A1B3A" stroke-width="2" stroke-miterlimit="10" stroke-linecap="round" stroke-linejoin="round"/>
<path d="M80.0337 23.5211C80.0337 25.3318 78.5353 26.7971 76.6836 26.7971C74.8318 26.7971 73.3334 25.3318 73.3334 23.5211V11.3522C73.3334 9.54144 74.8318 8.07617 76.6836 8.07617C78.5353 8.07617 80.0337 9.54144 80.0337 11.3522V23.5211Z" fill="#0673B0" stroke="#1A1B3A" stroke-width="2" stroke-miterlimit="10" stroke-linecap="round" stroke-linejoin="round"/>
<path d="M65.1589 7.34949H88.2142" stroke="#1A1B3A" stroke-width="2" stroke-miterlimit="10" stroke-linecap="round" stroke-linejoin="round"/>
<path d="M79.9301 4.17475C79.9301 5.92592 78.4804 7.3495 76.6835 7.3495C74.8927 7.3495 73.4369 5.93188 73.4369 4.17475C73.4369 2.42357 74.8866 1 76.6835 1C78.4743 1.00596 79.9301 2.42357 79.9301 4.17475Z" fill="#8CD3F6" stroke="#1A1B3A" stroke-width="2" stroke-miterlimit="10" stroke-linecap="round" stroke-linejoin="round"/>
<path d="M45.003 70.6598C31.9678 70.6598 21.3569 60.2898 21.3569 47.5431C21.3569 34.7965 31.9617 24.4265 45.003 24.4265C58.0443 24.4265 68.6492 34.7965 68.6492 47.5431C68.6431 60.2898 58.0383 70.6598 45.003 70.6598Z" fill="#0673B0"/>
<path d="M45.003 25.7607C57.3073 25.7607 67.2786 35.5112 67.2786 47.5431C67.2786 59.575 57.3073 69.3256 45.003 69.3256C32.6987 69.3256 22.7274 59.575 22.7274 47.5431C22.7274 35.5112 32.6987 25.7607 45.003 25.7607ZM45.003 23.0862C31.2125 23.0862 19.9924 34.0579 19.9924 47.5431C19.9924 61.0284 31.2125 72 45.003 72C58.7936 72 70.0136 61.0284 70.0136 47.5431C70.0136 34.0579 58.7936 23.0862 45.003 23.0862Z" fill="#1A1B3A"/>
<path d="M45.003 25.7607C43.4071 25.7607 41.8478 25.9275 40.3433 26.2431C50.406 28.3398 57.9591 37.0778 57.9591 47.5431C57.9591 58.0085 50.406 66.7465 40.3433 68.8431C41.8478 69.1588 43.4071 69.3256 45.003 69.3256C57.3073 69.3256 67.2787 59.575 67.2787 47.5431C67.2787 35.5113 57.3012 25.7607 45.003 25.7607Z" fill="#0D5988"/>
<path d="M61.3641 47.698C61.3641 51.8138 57.9469 55.1554 53.7379 55.1554H36.256C32.047 55.1554 28.6298 51.8198 28.6298 47.698C28.6298 43.5821 32.0409 40.2406 36.256 40.2406H53.7379C57.953 40.2406 61.3641 43.5821 61.3641 47.698Z" fill="#8CD3F6" stroke="#1A1B3A" stroke-width="4" stroke-miterlimit="10" stroke-linecap="round" stroke-linejoin="round"/>
<path d="M44.0955 47.6623C44.0955 49.5206 42.5544 51.0217 40.66 51.0217C38.7595 51.0217 37.2245 49.5147 37.2245 47.6623C37.2245 45.8098 38.7656 44.3029 40.66 44.3029C42.5544 44.3029 44.0955 45.8039 44.0955 47.6623Z" fill="white"/>
<path d="M3.73497 31.5145C2.97966 31.5145 2.36444 30.9129 2.36444 30.1803V19.4767C2.36444 18.7381 2.97966 18.1425 3.73497 18.1425H86.265C87.0203 18.1425 87.6295 18.744 87.6295 19.4767V30.1743C87.6295 30.9129 87.0143 31.5086 86.265 31.5086H3.73497V31.5145Z" fill="#0673B0"/>
<path d="M86.265 19.4767V30.1743H3.73496V19.4767H86.265ZM86.265 16.8022H3.73496C2.22434 16.8022 1 17.9995 1 19.4767V30.1743C1 31.6515 2.22434 32.8487 3.73496 32.8487H86.265C87.7757 32.8487 89 31.6515 89 30.1743V19.4767C89 17.9995 87.7757 16.8022 86.265 16.8022Z" fill="#1A1B3A"/>
<path d="M66.3041 22.2821H60.225V28.2266H66.3041V22.2821Z" fill="#8CD3F6" stroke="#1A1B3A" stroke-width="4" stroke-miterlimit="10" stroke-linecap="round" stroke-linejoin="round"/>
<path d="M75.5445 22.2821H69.4655V28.2266H75.5445V22.2821Z" fill="#8CD3F6" stroke="#1A1B3A" stroke-width="4" stroke-miterlimit="10" stroke-linecap="round" stroke-linejoin="round"/>
</svg>
