<svg width="87" height="95" viewBox="0 0 87 95" fill="none" xmlns="http://www.w3.org/2000/svg">
<path d="M49.8069 81.7839C49.8069 85.2596 43.497 93 43.497 93C43.497 93 37.1871 85.2656 37.1871 81.7839C37.1871 78.3022 40.0102 75.4831 43.497 75.4831C46.9837 75.4831 49.8069 78.3022 49.8069 81.7839Z" fill="#0673B0" stroke="#1A1B3A" stroke-width="4" stroke-miterlimit="10" stroke-linecap="round" stroke-linejoin="round"/>
<path d="M55.5497 75.4831H31.4442V79.8202H55.5497V75.4831Z" fill="#1A1B3A"/>
<path d="M58.6203 68.8209H28.3798V76.9408H58.6203V68.8209Z" fill="#8CD3F6" stroke="#1A1B3A" stroke-width="4" stroke-miterlimit="10" stroke-linecap="round" stroke-linejoin="round"/>
<path d="M31.8243 18.8724V7.86707" stroke="#1A1B3A" stroke-width="4" stroke-miterlimit="10" stroke-linecap="round" stroke-linejoin="round"/>
<path d="M34.762 4.93354C34.762 6.55392 33.447 7.86708 31.8243 7.86708C30.2015 7.86708 28.8865 6.55392 28.8865 4.93354C28.8865 3.31317 30.2015 2 31.8243 2C33.447 2 34.762 3.31317 34.762 4.93354Z" stroke="#1A1B3A" stroke-width="4" stroke-miterlimit="10" stroke-linecap="round" stroke-linejoin="round"/>
<path d="M55.1757 18.8724V7.86707" stroke="#1A1B3A" stroke-width="4" stroke-miterlimit="10" stroke-linecap="round" stroke-linejoin="round"/>
<path d="M58.1136 4.93354C58.1136 6.55392 56.7985 7.86708 55.1758 7.86708C53.553 7.86708 52.238 6.55392 52.238 4.93354C52.238 3.31317 53.553 2 55.1758 2C56.7985 2 58.1136 3.31317 58.1136 4.93354Z" stroke="#1A1B3A" stroke-width="4" stroke-miterlimit="10" stroke-linecap="round" stroke-linejoin="round"/>
<path d="M76.7235 13.1981V29.968C76.7235 37.8169 70.3533 44.1779 62.4931 44.1779H24.5009C16.6407 44.1779 10.2704 37.8169 10.2704 29.968V13.1981" stroke="#1A1B3A" stroke-width="4" stroke-miterlimit="10" stroke-linecap="round" stroke-linejoin="round"/>
<path d="M18.5529 4.93353C18.5529 9.4995 14.849 13.198 10.2765 13.198C5.7039 13.198 2 9.4995 2 4.93353" stroke="#1A1B3A" stroke-width="4" stroke-miterlimit="10" stroke-linecap="round" stroke-linejoin="round"/>
<path d="M85 4.93353C85 9.4995 81.2961 13.198 76.7236 13.198C72.151 13.198 68.4471 9.4995 68.4471 4.93353" stroke="#1A1B3A" stroke-width="4" stroke-miterlimit="10" stroke-linecap="round" stroke-linejoin="round"/>
<path d="M27.5533 69.7003C25.0559 69.7003 23.0229 67.6704 23.0229 65.1765V22.0408C23.0229 19.547 25.0559 17.5231 27.5533 17.5231H59.4467C61.9441 17.5231 63.971 19.5531 63.971 22.0408V65.1765C63.971 67.6704 61.9381 69.7003 59.4467 69.7003H27.5533Z" fill="#F6B700"/>
<path d="M59.4467 18.8724C61.1961 18.8724 62.6197 20.2879 62.6197 22.0408V65.1765C62.6197 66.9294 61.1961 68.345 59.4467 68.345H27.5533C25.7979 68.345 24.3802 66.9234 24.3802 65.1765V22.0408C24.3802 20.2879 25.8039 18.8724 27.5533 18.8724H59.4467ZM59.4467 16.1677H27.5533C24.3079 16.1677 21.6717 18.8001 21.6717 22.0408V65.1765C21.6717 68.4173 24.3079 71.0496 27.5533 71.0496H59.4467C62.6921 71.0496 65.3283 68.4173 65.3283 65.1765V22.0408C65.3283 18.8061 62.6921 16.1677 59.4467 16.1677Z" fill="#1A1B3A"/>
<path d="M59.4467 18.8724H51.9243C53.6737 18.8724 55.0973 20.2879 55.0973 22.0408V65.1765C55.0973 66.9294 53.6737 68.345 51.9243 68.345H59.4467C61.1961 68.345 62.6197 66.9234 62.6197 65.1765V22.0408C62.6197 20.294 61.2021 18.8724 59.4467 18.8724Z" fill="#CE9900"/>
<path d="M55.0974 40.0698C55.0974 41.13 54.2347 41.9913 53.173 41.9913H33.827C32.7653 41.9913 31.9027 41.13 31.9027 40.0698V24.5588C31.9027 23.4986 32.7653 22.6372 33.827 22.6372H53.173C54.2347 22.6372 55.0974 23.4986 55.0974 24.5588V40.0698Z" fill="#1A1B3A"/>
<path d="M40.1791 35.7086C40.1791 37.2025 38.9666 38.4133 37.4706 38.4133C35.9745 38.4133 34.762 37.2025 34.762 35.7086V28.9199C34.762 27.426 35.9745 26.2153 37.4706 26.2153C38.9666 26.2153 40.1791 27.426 40.1791 28.9199V35.7086Z" fill="#8CD3F6" stroke="#1A1B3A" stroke-width="2" stroke-miterlimit="10" stroke-linecap="round" stroke-linejoin="round"/>
<path d="M52.2439 35.7086C52.2439 37.2025 51.0314 38.4133 49.5354 38.4133C48.0394 38.4133 46.8268 37.2025 46.8268 35.7086V28.9199C46.8268 27.426 48.0394 26.2153 49.5354 26.2153C51.0314 26.2153 52.2439 27.426 52.2439 28.9199V35.7086Z" fill="#8CD3F6" stroke="#1A1B3A" stroke-width="2" stroke-miterlimit="10" stroke-linecap="round" stroke-linejoin="round"/>
</svg>
