<svg width="66" height="89" viewBox="0 0 66 89" fill="none" xmlns="http://www.w3.org/2000/svg">
<path d="M17.0054 81.3197C16.2551 81.3197 15.644 80.7052 15.644 79.9508V53.5399C15.644 52.7855 16.2551 52.171 17.0054 52.171H49.0007C49.751 52.171 50.3561 52.7855 50.3561 53.5399V79.9508C50.3561 80.7052 49.745 81.3197 49.0007 81.3197H17.0054Z" fill="#8CD3F6"/>
<path d="M49.0007 53.5459V79.9569H17.0054V53.5459H49.0007ZM49.0007 50.8081H17.0054C15.5049 50.8081 14.2887 52.031 14.2887 53.5399V79.9508C14.2887 81.4597 15.5049 82.6826 17.0054 82.6826H49.0007C50.5012 82.6826 51.7174 81.4597 51.7174 79.9508V53.5399C51.7174 52.031 50.5012 50.8081 49.0007 50.8081Z" fill="#1A1B3A"/>
<path d="M48.9947 53.546H41.2258V79.9569H48.9947V53.546Z" fill="#4CB2DC"/>
<path d="M62.6387 77.2799C62.6387 79.2329 61.0655 80.8208 59.1173 80.8208C57.175 80.8208 55.5958 79.2389 55.5958 77.2799C55.5958 75.3208 57.169 73.739 59.1173 73.739C61.0655 73.739 62.6387 75.3269 62.6387 77.2799Z" fill="#1A1B3A"/>
<path d="M59.1233 83.8872C59.1233 86.1626 57.29 88 55.0331 88C52.7702 88 50.9429 86.1565 50.9429 83.8872V70.6726C50.9429 68.3971 52.7763 66.5598 55.0331 66.5598C57.296 66.5598 59.1233 68.4032 59.1233 70.6726V83.8872Z" fill="#0673B0" stroke="#1A1B3A" stroke-width="2" stroke-miterlimit="10" stroke-linecap="round" stroke-linejoin="round"/>
<path d="M51.6085 70.2041H58.2641" stroke="#1A1B3A" stroke-width="2" stroke-miterlimit="10" stroke-linecap="round" stroke-linejoin="round"/>
<path d="M51.6085 73.739H58.2641" stroke="#1A1B3A" stroke-width="2" stroke-miterlimit="10" stroke-linecap="round" stroke-linejoin="round"/>
<path d="M51.6085 77.2798H58.2641" stroke="#1A1B3A" stroke-width="2" stroke-miterlimit="10" stroke-linecap="round" stroke-linejoin="round"/>
<path d="M51.6085 80.8147H58.2641" stroke="#1A1B3A" stroke-width="2" stroke-miterlimit="10" stroke-linecap="round" stroke-linejoin="round"/>
<path d="M51.6085 84.3557H58.2641" stroke="#1A1B3A" stroke-width="2" stroke-miterlimit="10" stroke-linecap="round" stroke-linejoin="round"/>
<path d="M3.36139 77.2799C3.36139 79.2329 4.93453 80.8208 6.88281 80.8208C8.82504 80.8208 10.4042 79.2389 10.4042 77.2799C10.4042 75.3208 8.83109 73.739 6.88281 73.739C4.94058 73.739 3.36139 75.3269 3.36139 77.2799Z" fill="#1A1B3A"/>
<path d="M6.88281 83.8872C6.88281 86.1626 8.71613 88 10.973 88C13.2359 88 15.0632 86.1565 15.0632 83.8872V70.6726C15.0632 68.3971 13.2298 66.5598 10.973 66.5598C8.71008 66.5598 6.88281 68.4032 6.88281 70.6726V83.8872Z" fill="#0673B0" stroke="#1A1B3A" stroke-width="2" stroke-miterlimit="10" stroke-linecap="round" stroke-linejoin="round"/>
<path d="M14.3916 70.2041H7.73596" stroke="#1A1B3A" stroke-width="2" stroke-miterlimit="10" stroke-linecap="round" stroke-linejoin="round"/>
<path d="M14.3916 73.739H7.73596" stroke="#1A1B3A" stroke-width="2" stroke-miterlimit="10" stroke-linecap="round" stroke-linejoin="round"/>
<path d="M14.3916 77.2798H7.73596" stroke="#1A1B3A" stroke-width="2" stroke-miterlimit="10" stroke-linecap="round" stroke-linejoin="round"/>
<path d="M14.3916 80.8147H7.73596" stroke="#1A1B3A" stroke-width="2" stroke-miterlimit="10" stroke-linecap="round" stroke-linejoin="round"/>
<path d="M14.3916 84.3557H7.73596" stroke="#1A1B3A" stroke-width="2" stroke-miterlimit="10" stroke-linecap="round" stroke-linejoin="round"/>
<path d="M52.1954 34.442L59.9945 39.8689V54.5863" stroke="#1A1B3A" stroke-width="4" stroke-miterlimit="10" stroke-linecap="round" stroke-linejoin="round"/>
<path d="M55.9891 33.6388C55.9891 37.0763 53.2179 39.8689 49.7933 39.8689C46.3747 39.8689 43.5975 37.0824 43.5975 33.6388C43.5975 30.2013 46.3687 27.4088 49.7933 27.4088C53.2119 27.4088 55.9891 30.2013 55.9891 33.6388Z" fill="#1A1B3A"/>
<path d="M55.983 63.6029V58.1759L60.2124 54.0753L64 58.1759V63.6029" stroke="#1A1B3A" stroke-width="4" stroke-miterlimit="10" stroke-linecap="round" stroke-linejoin="round"/>
<path d="M13.8047 34.442L6.00549 39.8689V54.5863" stroke="#1A1B3A" stroke-width="4" stroke-miterlimit="10" stroke-linecap="round" stroke-linejoin="round"/>
<path d="M10.017 33.6388C10.017 37.0763 12.7881 39.8689 16.2127 39.8689C19.6313 39.8689 22.4085 37.0824 22.4085 33.6388C22.4085 30.2013 19.6373 27.4088 16.2127 27.4088C12.7881 27.4088 10.017 30.2013 10.017 33.6388Z" fill="#1A1B3A"/>
<path d="M10.017 63.6029V58.1759L5.78765 54.0753L2 58.1759V63.6029" stroke="#1A1B3A" stroke-width="4" stroke-miterlimit="10" stroke-linecap="round" stroke-linejoin="round"/>
<path d="M33.0031 61.8446C24.0422 61.8446 16.7573 54.5133 16.7573 45.5088C16.7573 36.5044 24.0482 29.1731 33.0031 29.1731C41.9639 29.1731 49.2488 36.4983 49.2488 45.5088C49.2488 54.5193 41.9579 61.8446 33.0031 61.8446Z" fill="#8CD3F6"/>
<path d="M33.003 30.5359C41.2257 30.5359 47.8935 37.2406 47.8935 45.5088C47.8935 53.7771 41.2257 60.4757 33.003 60.4757C24.7803 60.4757 18.1126 53.771 18.1126 45.5028C18.1126 37.2345 24.7803 30.5359 33.003 30.5359ZM33.003 27.8042C23.298 27.8042 15.3959 35.7439 15.3959 45.5088C15.3959 55.2677 23.2919 63.2135 33.003 63.2135C42.7081 63.2135 50.6101 55.2738 50.6101 45.5088C50.6041 35.7439 42.7081 27.8042 33.003 27.8042Z" fill="#1A1B3A"/>
<path d="M33.003 30.5359C31.7203 30.5359 30.48 30.7002 29.3001 31.0105C35.7197 32.6775 40.4634 38.5365 40.4634 45.5088C40.4634 52.4812 35.7197 58.3402 29.3001 60.0072C30.486 60.3114 31.7264 60.4817 33.003 60.4817C41.2257 60.4817 47.8935 53.7771 47.8935 45.5088C47.8935 37.2406 41.2257 30.5359 33.003 30.5359Z" fill="#4CB2DC"/>
<path d="M33.0031 34.0404C24.0422 34.0404 16.7573 26.7091 16.7573 17.7046C16.7573 8.69412 24.0482 1.3689 33.0031 1.3689C41.9639 1.3689 49.2488 8.69412 49.2488 17.7046C49.2488 26.7091 41.9579 34.0404 33.0031 34.0404Z" fill="#8CD3F6"/>
<path d="M33.003 2.73175C41.2257 2.73175 47.8935 9.43639 47.8935 17.7046C47.8935 25.9729 41.2257 32.6775 33.003 32.6775C24.7803 32.6775 18.1126 25.9729 18.1126 17.7046C18.1126 9.43639 24.7803 2.73175 33.003 2.73175ZM33.003 0C23.298 0 15.3959 7.93971 15.3959 17.7046C15.3959 27.4635 23.2919 35.4093 33.003 35.4093C42.7081 35.4093 50.6101 27.4696 50.6101 17.7046C50.6041 7.93971 42.7081 0 33.003 0Z" fill="#1A1B3A"/>
<path d="M33.0031 2.73175C31.8172 2.73175 30.6676 2.87777 29.5603 3.13938C36.1191 4.70299 41.0079 10.6289 41.0079 17.7046C41.0079 24.7804 36.1252 30.7063 29.5603 32.2699C30.6676 32.5315 31.8172 32.6775 33.0031 32.6775C41.2258 32.6775 47.8935 25.9729 47.8935 17.7046C47.8874 9.4364 41.2258 2.73175 33.0031 2.73175Z" fill="#4CB2DC"/>
<path d="M43.9364 17.8081C43.9364 20.6372 41.6553 22.9309 38.8418 22.9309H27.1582C24.3447 22.9309 22.0637 20.6372 22.0637 17.8081C22.0637 14.979 24.3447 12.6853 27.1582 12.6853H38.8418C41.6553 12.6853 43.9364 14.979 43.9364 17.8081Z" fill="#0673B0" stroke="#1A1B3A" stroke-width="4" stroke-miterlimit="10" stroke-linecap="round" stroke-linejoin="round"/>
<path d="M32.398 17.7837C32.398 19.0614 31.3694 20.0957 30.0988 20.0957C28.8282 20.0957 27.7996 19.0614 27.7996 17.7837C27.7996 16.5061 28.8282 15.4718 30.0988 15.4718C31.3694 15.4718 32.398 16.5061 32.398 17.7837Z" fill="white"/>
</svg>
