<svg width="87" height="89" viewBox="0 0 87 89" fill="none" xmlns="http://www.w3.org/2000/svg">
<path d="M10.2765 70.3175V49.5317C10.2765 41.7266 16.6467 35.401 24.507 35.401H62.5051C70.3654 35.401 76.7356 41.7266 76.7356 49.5317V70.3175" stroke="#1A1B3A" stroke-width="4" stroke-miterlimit="10" stroke-linecap="round" stroke-linejoin="round"/>
<path d="M68.4471 78.5359C68.4471 73.9954 72.151 70.3175 76.7235 70.3175C81.2961 70.3175 85 73.9954 85 78.5359" stroke="#1A1B3A" stroke-width="4" stroke-miterlimit="10" stroke-linecap="round" stroke-linejoin="round"/>
<path d="M2 78.5359C2 73.9954 5.7039 70.3175 10.2765 70.3175C14.849 70.3175 18.5529 73.9954 18.5529 78.5359" stroke="#1A1B3A" stroke-width="4" stroke-miterlimit="10" stroke-linecap="round" stroke-linejoin="round"/>
<path d="M56.7924 15.2023C56.7924 22.4922 50.8384 28.4045 43.497 28.4045C36.1555 28.4045 30.2015 22.4922 30.2015 15.2023C30.2015 7.91226 36.1555 2 43.497 2C50.8445 2.00599 56.7924 7.91226 56.7924 15.2023Z" fill="#8CD3F6" stroke="#1A1B3A" stroke-width="4" stroke-miterlimit="10" stroke-linecap="round" stroke-linejoin="round"/>
<path d="M20.6462 59.3975C19.8982 59.3975 19.2949 58.7925 19.2949 58.0497V12.6565C19.2949 11.9137 19.9042 11.3147 20.6462 11.3147H66.3598C67.1078 11.3147 67.7171 11.9197 67.7171 12.6565V58.0497C67.7171 58.7925 67.1078 59.3975 66.3598 59.3975H20.6462Z" fill="#0673B0"/>
<path d="M66.3538 12.6565V58.0497H20.6462V12.6565H66.3538ZM66.3538 9.96689H20.6462C19.1501 9.96689 17.9376 11.1709 17.9376 12.6565V58.0497C17.9376 59.5353 19.1501 60.7393 20.6462 60.7393H66.3598C67.8559 60.7393 69.0684 59.5353 69.0684 58.0497V12.6565C69.0623 11.1709 67.8498 9.96689 66.3538 9.96689Z" fill="#1A1B3A"/>
<path d="M29.4897 12.6564H20.6462V58.0497H29.4897V12.6564Z" fill="#0D5988"/>
<path d="M66.3598 12.6564H57.5163V58.0497H66.3598V12.6564Z" fill="#0D5988"/>
<path d="M55.0973 48.4715C55.0973 49.5257 54.2347 50.3823 53.173 50.3823H33.827C32.7653 50.3823 31.9027 49.5257 31.9027 48.4715V33.0469C31.9027 31.9926 32.7653 31.136 33.827 31.136H53.173C54.2347 31.136 55.0973 31.9926 55.0973 33.0469V48.4715Z" fill="#1A1B3A"/>
<path d="M40.1791 44.1346C40.1791 45.6202 38.9666 46.8242 37.4706 46.8242C35.9745 46.8242 34.762 45.6202 34.762 44.1346V37.3837C34.762 35.8982 35.9745 34.6942 37.4706 34.6942C38.9666 34.6942 40.1791 35.8982 40.1791 37.3837V44.1346Z" fill="#8CD3F6" stroke="#1A1B3A" stroke-width="4" stroke-miterlimit="10" stroke-linecap="round" stroke-linejoin="round"/>
<path d="M52.2439 44.1346C52.2439 45.6202 51.0314 46.8242 49.5354 46.8242C48.0394 46.8242 46.8268 45.6202 46.8268 44.1346V37.3837C46.8268 35.8982 48.0394 34.6942 49.5354 34.6942C51.0314 34.6942 52.2439 35.8982 52.2439 37.3837V44.1346Z" fill="#8CD3F6" stroke="#1A1B3A" stroke-width="4" stroke-miterlimit="10" stroke-linecap="round" stroke-linejoin="round"/>
<path d="M34.7741 81.4412C34.7741 84.5141 32.2646 87 29.176 87C26.0814 87 23.5779 84.5081 23.5779 81.4412V63.5846C23.5779 60.5116 26.0874 58.0257 29.176 58.0257C32.2707 58.0257 34.7741 60.5176 34.7741 63.5846V81.4412Z" fill="#FDFADE" stroke="#1A1B3A" stroke-width="3" stroke-miterlimit="10" stroke-linecap="round" stroke-linejoin="round"/>
<path d="M24.4949 62.9496H33.6038" stroke="#1A1B3A" stroke-width="3" stroke-miterlimit="10" stroke-linecap="round" stroke-linejoin="round"/>
<path d="M24.4949 67.7297H33.6038" stroke="#1A1B3A" stroke-width="3" stroke-miterlimit="10" stroke-linecap="round" stroke-linejoin="round"/>
<path d="M24.4949 72.5099H33.6038" stroke="#1A1B3A" stroke-width="3" stroke-miterlimit="10" stroke-linecap="round" stroke-linejoin="round"/>
<path d="M24.4949 77.296H33.6038" stroke="#1A1B3A" stroke-width="3" stroke-miterlimit="10" stroke-linecap="round" stroke-linejoin="round"/>
<path d="M24.4949 82.0761H33.6038" stroke="#1A1B3A" stroke-width="3" stroke-miterlimit="10" stroke-linecap="round" stroke-linejoin="round"/>
<path d="M63.4281 81.4412C63.4281 84.5141 60.9186 87 57.83 87C54.7354 87 52.2319 84.5081 52.2319 81.4412V63.5846C52.2319 60.5116 54.7414 58.0257 57.83 58.0257C60.9246 58.0257 63.4281 60.5176 63.4281 63.5846V81.4412Z" fill="#FDFADE" stroke="#1A1B3A" stroke-width="3" stroke-miterlimit="10" stroke-linecap="round" stroke-linejoin="round"/>
<path d="M53.1489 62.9496H62.2578" stroke="#1A1B3A" stroke-width="3" stroke-miterlimit="10" stroke-linecap="round" stroke-linejoin="round"/>
<path d="M53.1489 67.7297H62.2578" stroke="#1A1B3A" stroke-width="3" stroke-miterlimit="10" stroke-linecap="round" stroke-linejoin="round"/>
<path d="M53.1489 72.5099H62.2578" stroke="#1A1B3A" stroke-width="3" stroke-miterlimit="10" stroke-linecap="round" stroke-linejoin="round"/>
<path d="M53.1489 77.296H62.2578" stroke="#1A1B3A" stroke-width="3" stroke-miterlimit="10" stroke-linecap="round" stroke-linejoin="round"/>
<path d="M53.1489 82.0761H62.2578" stroke="#1A1B3A" stroke-width="3" stroke-miterlimit="10" stroke-linecap="round" stroke-linejoin="round"/>
</svg>
