<svg width="92" height="94" viewBox="0 0 92 94" fill="none" xmlns="http://www.w3.org/2000/svg">
<path d="M72.9014 30.4202L84.1926 38.1943V64.0954" stroke="#1A1B3A" stroke-width="4" stroke-miterlimit="10" stroke-linecap="round" stroke-linejoin="round"/>
<path d="M78.3851 29.2635C78.3851 34.1998 74.3675 38.2006 69.4106 38.2006C64.4536 38.2006 60.4361 34.1998 60.4361 29.2635C60.4361 24.3273 64.4536 20.3265 69.4106 20.3265C74.3739 20.3265 78.3851 24.3273 78.3851 29.2635Z" fill="#1A1B3A"/>
<path d="M78.3851 77.0206V69.2465L84.5099 63.3622L90 69.2465V77.0206" stroke="#1A1B3A" stroke-width="4" stroke-miterlimit="10" stroke-linecap="round" stroke-linejoin="round"/>
<path d="M19.1049 30.4202L7.80743 38.1943V64.0954" stroke="#1A1B3A" stroke-width="4" stroke-miterlimit="10" stroke-linecap="round" stroke-linejoin="round"/>
<path d="M13.6149 29.2635C13.6149 34.1998 17.6324 38.2006 22.5894 38.2006C27.5463 38.2006 31.5639 34.1998 31.5639 29.2635C31.5639 24.3273 27.5463 20.3265 22.5894 20.3265C17.6324 20.3265 13.6149 24.3273 13.6149 29.2635Z" fill="#1A1B3A"/>
<path d="M13.6149 77.0206V69.2465L7.49008 63.3622L2 69.2465V77.0206" stroke="#1A1B3A" stroke-width="4" stroke-miterlimit="10" stroke-linecap="round" stroke-linejoin="round"/>
<path d="M22.9702 80.8571C22.1832 80.8571 21.5422 80.2187 21.5422 79.435V25.2627C21.5422 12.1162 32.516 1.41577 46.0032 1.41577C59.4904 1.41577 70.4642 12.1099 70.4642 25.2627V79.4413C70.4642 80.2251 69.8232 80.8634 69.0361 80.8634H22.9702V80.8571Z" fill="#8CD3F6"/>
<path d="M46.0032 2.83787C58.7224 2.83787 69.0361 12.881 69.0361 25.2627V79.4413H22.9702V25.2627C22.9702 12.881 33.2776 2.83787 46.0032 2.83787ZM46.0032 0C31.729 0 20.1205 11.3325 20.1205 25.2627V79.4413C20.1205 81.0088 21.3962 82.2792 22.9702 82.2792H69.0361C70.6102 82.2792 71.8859 81.0088 71.8859 79.4413V25.2627C71.8859 11.3325 60.271 0 46.0032 0Z" fill="#1A1B3A"/>
<path d="M46.0032 2.83786C44.0737 2.83786 42.2014 3.07172 40.4115 3.50782C50.427 5.94119 57.8529 14.7582 57.8529 25.2627V79.4413H69.0425V25.2627C69.0361 12.881 58.7224 2.83786 46.0032 2.83786Z" fill="#4CB2DC"/>
<path d="M74.9832 85.7175C74.9832 89.1874 72.1588 92 68.6744 92H23.3256C19.8412 92 17.0168 89.1874 17.0168 85.7175C17.0168 82.2476 19.8412 79.435 23.3256 79.435H68.6807C72.1588 79.4413 74.9832 82.2539 74.9832 85.7175Z" fill="#0673B0" stroke="#1A1B3A" stroke-width="4" stroke-miterlimit="10" stroke-linecap="round" stroke-linejoin="round"/>
<path d="M36.3368 85.7175C36.3368 89.0167 33.6521 91.6903 30.339 91.6903C27.0259 91.6903 24.3411 89.0167 24.3411 85.7175C24.3411 82.4182 27.0259 79.7447 30.339 79.7447C33.6584 79.751 36.3368 82.4245 36.3368 85.7175Z" fill="#F6B700" stroke="#1A1B3A" stroke-width="2" stroke-miterlimit="10" stroke-linecap="round" stroke-linejoin="round"/>
<path d="M32.4715 85.7175C32.4715 86.8868 31.5195 87.8348 30.3453 87.8348C29.1711 87.8348 28.2191 86.8868 28.2191 85.7175C28.2191 84.5482 29.1711 83.6002 30.3453 83.6002C31.5195 83.6002 32.4715 84.5545 32.4715 85.7175Z" fill="#1A1B3A"/>
<path d="M51.9946 85.7175C51.9946 89.0167 49.3099 91.6903 45.9968 91.6903C42.6837 91.6903 39.999 89.0167 39.999 85.7175C39.999 82.4182 42.6837 79.7447 45.9968 79.7447C49.3099 79.7447 51.9946 82.4245 51.9946 85.7175Z" fill="#F6B700" stroke="#1A1B3A" stroke-width="2" stroke-miterlimit="10" stroke-linecap="round" stroke-linejoin="round"/>
<path d="M48.123 85.7175C48.123 86.8868 47.171 87.8348 45.9968 87.8348C44.8226 87.8348 43.8706 86.8868 43.8706 85.7175C43.8706 84.5482 44.8226 83.6002 45.9968 83.6002C47.171 83.6002 48.123 84.5545 48.123 85.7175Z" fill="#1A1B3A"/>
<path d="M67.6525 85.7175C67.6525 89.0167 64.9678 91.6903 61.6547 91.6903C58.3416 91.6903 55.6568 89.0167 55.6568 85.7175C55.6568 82.4182 58.3416 79.7447 61.6547 79.7447C64.9678 79.751 67.6525 82.4245 67.6525 85.7175Z" fill="#F6B700" stroke="#1A1B3A" stroke-width="2" stroke-miterlimit="10" stroke-linecap="round" stroke-linejoin="round"/>
<path d="M63.7809 85.7175C63.7809 86.8868 62.8289 87.8348 61.6547 87.8348C60.4805 87.8348 59.5285 86.8868 59.5285 85.7175C59.5285 84.5482 60.4805 83.6002 61.6547 83.6002C62.8289 83.6065 63.7809 84.5545 63.7809 85.7175Z" fill="#1A1B3A"/>
<path d="M41.3445 25.3196C41.3445 28.7706 38.5328 31.5705 35.0674 31.5705C31.602 31.5705 28.7903 28.7706 28.7903 25.3196C28.7903 21.8687 31.602 19.0687 35.0674 19.0687C38.5328 19.0687 41.3445 21.8687 41.3445 25.3196Z" fill="#FDFADE" stroke="#1A1B3A" stroke-width="4" stroke-miterlimit="10" stroke-linecap="round" stroke-linejoin="round"/>
<path d="M37.7585 25.3196C37.7585 26.7986 36.5526 27.9995 35.0674 27.9995C33.5823 27.9995 32.3763 26.7986 32.3763 25.3196C32.3763 23.8407 33.5823 22.6398 35.0674 22.6398C36.5526 22.6398 37.7585 23.8407 37.7585 25.3196Z" fill="#1A1B3A"/>
<path d="M63.216 25.3196C63.216 28.7706 60.4043 31.5705 56.9389 31.5705C53.4735 31.5705 50.6618 28.7706 50.6618 25.3196C50.6618 21.8687 53.4735 19.0687 56.9389 19.0687C60.4043 19.0687 63.216 21.8687 63.216 25.3196Z" fill="#FDFADE" stroke="#1A1B3A" stroke-width="4" stroke-miterlimit="10" stroke-linecap="round" stroke-linejoin="round"/>
<path d="M59.6237 25.3196C59.6237 26.7986 58.4177 27.9995 56.9326 27.9995C55.4474 27.9995 54.2415 26.7986 54.2415 25.3196C54.2415 23.8407 55.4474 22.6398 56.9326 22.6398C58.4177 22.6398 59.6237 23.8407 59.6237 25.3196Z" fill="#1A1B3A"/>
<path d="M34.1218 45.3427H30.3199V49.1286H34.1218V45.3427Z" fill="#1A1B3A"/>
<path d="M39.6372 45.3427H35.8354V49.1286H39.6372V45.3427Z" fill="#1A1B3A"/>
<path d="M45.1463 45.3427H41.3445V49.1286H45.1463V45.3427Z" fill="#1A1B3A"/>
<path d="M50.6555 45.3427H46.8537V49.1286H50.6555V45.3427Z" fill="#1A1B3A"/>
<path d="M56.1709 45.3427H52.3691V49.1286H56.1709V45.3427Z" fill="#1A1B3A"/>
<path d="M61.6801 45.3427H57.8783V49.1286H61.6801V45.3427Z" fill="#1A1B3A"/>
</svg>
