<svg width="129" height="129" viewBox="0 0 129 129" fill="none" xmlns="http://www.w3.org/2000/svg">
<path d="M33.3288 118.206C27.1031 124.431 2 127 2 127C2 127 4.56856 101.897 10.7942 95.6712C17.0103 89.4456 27.1031 89.4551 33.3288 95.6712C39.5544 101.897 39.5544 111.98 33.3288 118.206Z" fill="#F5E0A4" stroke="#1A1B3A" stroke-width="4" stroke-miterlimit="10" stroke-linecap="round" stroke-linejoin="round"/>
<path d="M25.9955 112.849C23.2742 115.57 12.3124 116.688 12.3124 116.688C12.3124 116.688 13.4392 105.726 16.151 103.005C18.8723 100.283 23.2742 100.283 25.9955 103.005C28.7168 105.726 28.7168 110.128 25.9955 112.849Z" fill="#CE9900" stroke="#1A1B3A" stroke-width="4" stroke-miterlimit="10" stroke-linecap="round" stroke-linejoin="round"/>
<path d="M11.7945 74.1467L4.03674 81.9045L47.0928 124.961L54.8506 117.203L11.7945 74.1467Z" fill="#1A1B3A"/>
<path d="M18.2413 56.7529L3.71826 71.276L57.7257 125.283L72.2488 110.76L18.2413 56.7529Z" fill="#CE9900" stroke="#1A1B3A" stroke-width="4" stroke-miterlimit="10" stroke-linecap="round" stroke-linejoin="round"/>
<path d="M21.4982 64.4475L9.19965 76.746" stroke="#1A1B3A" stroke-width="4" stroke-miterlimit="10" stroke-linecap="round" stroke-linejoin="round"/>
<path d="M28.6691 71.628L16.3706 83.9265" stroke="#1A1B3A" stroke-width="4" stroke-miterlimit="10" stroke-linecap="round" stroke-linejoin="round"/>
<path d="M35.8496 78.799L23.5511 91.107" stroke="#1A1B3A" stroke-width="4" stroke-miterlimit="10" stroke-linecap="round" stroke-linejoin="round"/>
<path d="M43.0206 85.9794L30.722 98.278" stroke="#1A1B3A" stroke-width="4" stroke-miterlimit="10" stroke-linecap="round" stroke-linejoin="round"/>
<path d="M50.2011 93.1504L37.9026 105.458" stroke="#1A1B3A" stroke-width="4" stroke-miterlimit="10" stroke-linecap="round" stroke-linejoin="round"/>
<path d="M57.3721 100.331L45.0735 112.629" stroke="#1A1B3A" stroke-width="4" stroke-miterlimit="10" stroke-linecap="round" stroke-linejoin="round"/>
<path d="M64.5525 107.502L52.254 119.81" stroke="#1A1B3A" stroke-width="4" stroke-miterlimit="10" stroke-linecap="round" stroke-linejoin="round"/>
<path d="M116.774 61.6116C103.138 75.2469 81.0238 75.2469 67.3885 61.6116C53.7532 47.9762 53.7532 25.8618 67.3885 12.2265C81.0238 -1.40883 103.129 -1.40883 116.774 12.2265C130.409 25.8714 130.409 47.9762 116.774 61.6116Z" fill="#CE9900" stroke="#1A1B3A" stroke-width="4" stroke-miterlimit="10" stroke-linecap="round" stroke-linejoin="round"/>
<path d="M118.492 46.7922C113.823 51.4615 106.261 51.4615 101.591 46.7922L82.2174 27.4182C77.5481 22.749 77.5481 15.1865 82.2174 10.5173C86.8866 5.84806 94.449 5.84806 99.1183 10.5173L118.492 29.8913C123.162 34.551 123.162 42.123 118.492 46.7922Z" fill="#F6B700" stroke="#1A1B3A" stroke-width="4" stroke-miterlimit="10" stroke-linecap="round" stroke-linejoin="round"/>
<path d="M99.3952 27.6092C97.2945 29.7099 93.8761 29.7099 91.7755 27.6092C89.6748 25.5085 89.6748 22.0901 91.7755 19.9895C93.8761 17.8888 97.2945 17.8888 99.3952 19.9895C101.496 22.0901 101.496 25.499 99.3952 27.6092Z" fill="white"/>
<path d="M74.3493 111.235C73.805 111.235 73.2512 111.025 72.8311 110.605L18.3949 56.1689C17.5546 55.3286 17.5546 53.9727 18.3949 53.142L59.6637 11.8732C60.0647 11.4721 60.609 11.243 61.1819 11.243C61.7548 11.243 62.2991 11.4721 62.7001 11.8732L117.136 66.3094C117.537 66.7105 117.767 67.2547 117.767 67.8277C117.767 68.4006 117.537 68.9448 117.136 69.3459L75.8675 110.605C75.4474 111.025 74.8936 111.235 74.3493 111.235Z" fill="#F6B700"/>
<path d="M61.1724 13.3914L115.609 67.8277L74.3398 109.096L19.9131 54.6507L61.1724 13.3914ZM61.1724 9.10411C60.0361 9.10411 58.9475 9.55289 58.1455 10.355L16.8767 51.6238C15.2057 53.2948 15.2057 56.0161 16.8767 57.6871L71.3129 112.123C72.1532 112.964 73.2513 113.384 74.3398 113.384C75.4283 113.384 76.536 112.964 77.3667 112.123L118.635 70.8545C119.438 70.0525 119.896 68.9639 119.896 67.8181C119.896 66.6723 119.447 65.5933 118.635 64.7817L64.1992 10.3454C63.3972 9.55289 62.3086 9.10411 61.1724 9.10411Z" fill="#1A1B3A"/>
<path d="M100.971 53.1887L59.7047 94.4555L74.3425 109.093L115.609 67.8265L100.971 53.1887Z" fill="#F7760D"/>
</svg>
