<svg width="29" height="28" viewBox="0 0 29 28" fill="none" xmlns="http://www.w3.org/2000/svg">
<path d="M13.5656 6.85087V5.52059C13.4029 5.45995 13.2451 5.38701 13.0937 5.30239C12.5005 4.95232 12.0538 4.40184 11.835 3.75143C11.6163 3.10102 11.64 2.39408 11.902 1.75966C12.0476 1.41368 12.2592 1.09899 12.525 0.83292C12.79 0.569371 13.1042 0.359773 13.45 0.215875C13.7984 0.0717955 14.1722 -0.00159146 14.5496 2.61712e-05C15.1164 -5.32837e-05 15.6706 0.167105 16.1419 0.480341C16.6132 0.793577 16.9804 1.2388 17.1971 1.75966C17.4864 2.45609 17.4864 3.23814 17.1971 3.93457C17.0529 4.2806 16.8412 4.59479 16.5741 4.85896L16.56 4.87304C16.3919 5.03737 16.205 5.18148 16.0031 5.30239C15.8533 5.39031 15.6953 5.46339 15.5312 5.52059V6.85087H22.2514C23.2159 6.85397 24.1399 7.23644 24.8217 7.91475C25.5034 8.59306 25.8875 9.51207 25.89 10.471V11.0083H27.1359C27.6301 11.0102 28.1035 11.2064 28.4528 11.5541C28.802 11.9018 28.9988 12.3727 29 12.8641V17.1741C28.9988 17.6655 28.802 18.1364 28.4528 18.4841C28.1035 18.8318 27.6301 19.028 27.1359 19.0299H25.8971V19.5156C25.894 20.4755 25.5087 21.3952 24.8256 22.0736C24.1424 22.752 23.2169 23.1339 22.2514 23.1357H13.0323L7.50602 27.8539C7.4451 27.9059 7.37443 27.9454 7.29807 27.9702C7.22172 27.9949 7.1412 28.0044 7.06114 27.9981C6.98109 27.9918 6.90308 27.9698 6.83162 27.9333C6.76015 27.8969 6.69665 27.8468 6.64475 27.7858C6.54097 27.6655 6.48774 27.5101 6.49609 27.3518L6.79105 23.1287H6.7415C5.77829 23.1262 4.85521 22.7448 4.17389 22.0678C3.49258 21.3908 3.1084 20.4733 3.10529 19.5156V19.0299H1.86648C1.37184 19.0287 0.897817 18.8327 0.548055 18.485C0.198292 18.1372 0.00124594 17.6659 0 17.1741L0 12.8641C0.00124295 12.3727 0.197965 11.9018 0.547218 11.5541C0.896471 11.2064 1.36989 11.0102 1.86412 11.0083H3.10529V10.4687C3.10716 9.51016 3.49078 8.59139 4.17223 7.91338C4.85368 7.23538 5.77747 6.85335 6.7415 6.85087H13.5656ZM19.5237 11.1022C19.9605 11.1022 20.3875 11.2309 20.7507 11.4722C21.1139 11.7135 21.397 12.0565 21.5642 12.4578C21.7313 12.8591 21.7751 13.3006 21.6899 13.7266C21.6046 14.1526 21.3943 14.5439 21.0854 14.851C20.7765 15.1581 20.383 15.3673 19.9546 15.452C19.5261 15.5367 19.082 15.4933 18.6785 15.327C18.2749 15.1608 17.93 14.8794 17.6873 14.5182C17.4446 14.1571 17.3151 13.7325 17.3151 13.2982C17.3151 12.7158 17.5477 12.1572 17.9619 11.7454C18.3761 11.3335 18.9379 11.1022 19.5237 11.1022ZM9.47632 11.1022C9.91315 11.1022 10.3402 11.2309 10.7034 11.4722C11.0666 11.7135 11.3497 12.0565 11.5168 12.4578C11.684 12.8591 11.7277 13.3006 11.6425 13.7266C11.5573 14.1526 11.3469 14.5439 11.0381 14.851C10.7292 15.1581 10.3356 15.3673 9.9072 15.452C9.47877 15.5367 9.03469 15.4933 8.63112 15.327C8.22754 15.1608 7.8826 14.8794 7.63992 14.5182C7.39723 14.1571 7.2677 13.7325 7.2677 13.2982C7.2677 12.7158 7.50039 12.1572 7.91459 11.7454C8.32879 11.3335 8.89056 11.1022 9.47632 11.1022ZM10.9818 18.4598C10.9485 18.4337 10.9184 18.4037 10.8921 18.3706C10.8156 18.2814 10.7723 18.1687 10.7694 18.0515C10.7673 17.9337 10.8056 17.8187 10.8779 17.7254C10.905 17.6915 10.9359 17.6608 10.97 17.6339C11.0998 17.5322 11.2594 17.4754 11.4246 17.472C11.5898 17.4686 11.7516 17.5189 11.8855 17.6151C12.2888 17.9315 12.7363 18.1876 13.214 18.3753C13.6256 18.5336 14.0635 18.6132 14.5047 18.6099C14.9515 18.6005 15.3932 18.5131 15.8096 18.3518C16.293 18.1597 16.7491 17.9057 17.1664 17.5964C17.3033 17.5035 17.4669 17.4575 17.6324 17.4651C17.798 17.4727 17.9566 17.5336 18.0843 17.6386C18.1163 17.6679 18.1455 17.7001 18.1716 17.7348C18.241 17.83 18.2759 17.9458 18.2707 18.0633C18.2606 18.1808 18.2126 18.2919 18.1338 18.38C18.1039 18.4138 18.0698 18.4438 18.0324 18.4692C17.5017 18.8591 16.9197 19.1749 16.3028 19.4076C15.7344 19.6207 15.1333 19.7342 14.526 19.7431C13.9179 19.7516 13.3134 19.6498 12.7421 19.4428C12.1123 19.2086 11.5226 18.8794 10.9936 18.4668L10.9818 18.4598ZM22.2491 8.07089H6.7415C6.10227 8.07336 5.48997 8.3271 5.03819 8.77675C4.5864 9.22639 4.33181 9.83545 4.32994 10.471V19.5156C4.33181 20.1511 4.5864 20.7602 5.03819 21.2098C5.48997 21.6595 6.10227 21.9132 6.7415 21.9157H7.4895C7.65127 21.9277 7.80173 22.0027 7.9082 22.1244C8.01468 22.2461 8.06857 22.4046 8.05818 22.5656L7.82221 25.9863L12.3763 22.0893C12.433 22.033 12.5003 21.9884 12.5744 21.9582C12.6486 21.928 12.728 21.9127 12.8081 21.9133H22.2467C22.8859 21.9109 23.4982 21.6571 23.95 21.2075C24.4018 20.7578 24.6564 20.1488 24.6583 19.5132V10.4687C24.657 9.83353 24.4029 9.22472 23.9514 8.77538C23.4999 8.32604 22.8879 8.07275 22.2491 8.07089Z" fill="white"/>
</svg>
