<svg width="173" height="48" viewBox="0 0 173 48" fill="none" xmlns="http://www.w3.org/2000/svg">
<path d="M66.3 12.8C66.3 13.5 66.2 14.2 66 14.9C65.7 15.6 65.4 16.2 64.9 16.7C63.7 17.7 62.2 18.2 60.7 18.1H57.8V7.7H61C62.4 7.6 63.8 8 64.9 9C65.4 9.5 65.8 10.1 66 10.7C66.2 11.4 66.4 12.1 66.3 12.8ZM64 12.8C64 10.6 63 9.5 61.1 9.5H59.9V16.2H60.8C63 16.2 64.1 15.1 64 12.8ZM72.7 14.1V18.1H70.5V7.7H73.5C74.6 7.6 75.7 7.9 76.6 8.5C76.9 8.8 77.2 9.1 77.4 9.5C77.6 9.9 77.7 10.3 77.6 10.8C77.6 11.4 77.4 11.9 77.1 12.4C76.7 12.9 76.3 13.3 75.7 13.5C77.3 15.8 78.3 17.3 78.7 18H76.3L73.8 14L72.7 14.1ZM72.7 12.3H73.4C73.9 12.3 74.5 12.2 74.9 12C75.1 11.9 75.2 11.7 75.3 11.5C75.4 11.3 75.4 11.1 75.4 10.9C75.4 10.7 75.4 10.5 75.3 10.3C75.2 10.1 75.1 10 74.9 9.8C74.4 9.6 73.9 9.4 73.3 9.5H72.7V12.3V12.3ZM89.1 18L88.3 15.5H84.5L83.9 18H81.5L85.2 7.6H87.9L91.5 18H89.1ZM87.9 13.7C87.2 11.5 86.8 10.2 86.7 9.9C86.6 9.6 86.6 9.4 86.5 9.2C86.4 9.8 85.9 11.3 85.2 13.7H87.9ZM97.7 13.9H101.2V12.1H97.7V9.5H101.4V7.7H95.5V18.1H97.7V13.9ZM110.7 9.5H113.5V7.7H105.7V9.5H108.5V18H110.7V9.5ZM122.6 12.3L126.2 7.7H123.8L121 11.2L120.1 12.4V7.7H117.9V18.1H120.1V14.4L121 13.7L123.7 18.1H126.2L122.6 12.3ZM130.9 18H133.1V7.7H130.9V18ZM147.8 7.7H145.8V12.6C145.8 13.2 145.8 14.1 145.9 15.4L141.4 7.7H138.6V18.1H140.6V13.2C140.6 12.6 140.6 11.6 140.5 10.2H140.6L145.1 18H147.9L147.8 7.7ZM156.5 14H158.5V16.2C158 16.3 157.6 16.3 157.1 16.3C156.7 16.3 156.3 16.3 156 16.1C155.7 15.9 155.3 15.7 155.1 15.4C154.6 14.6 154.3 13.7 154.4 12.8C154.4 11.9 154.7 11 155.2 10.3C155.5 10 155.8 9.7 156.2 9.6C156.6 9.4 157 9.4 157.4 9.4C158.2 9.4 159.1 9.6 159.8 10L160.5 8.2C159.5 7.8 158.5 7.6 157.4 7.6C156.7 7.6 155.9 7.7 155.3 7.9C154.6 8.1 154 8.5 153.4 9C152.9 9.5 152.5 10.1 152.3 10.8C152.1 11.5 151.9 12.2 152 12.9C151.9 14.3 152.3 15.7 153.2 16.8C153.7 17.3 154.2 17.6 154.8 17.9C155.4 18.1 156.1 18.2 156.7 18.2C157.3 18.2 157.9 18.2 158.5 18.1C159.1 18 159.8 17.8 160.4 17.6V12.2H156.3L156.5 14ZM172.1 15.1C172.1 14.5 171.9 13.9 171.6 13.4C171 12.8 170.4 12.3 169.6 12C169.1 11.8 168.7 11.5 168.2 11.3C168 11.2 167.9 11 167.8 10.9C167.7 10.7 167.6 10.5 167.7 10.2C167.8 9.9 167.8 9.8 168 9.6C168.3 9.4 168.6 9.3 169 9.3C169.4 9.3 169.7 9.3 170.1 9.4C170.6 9.5 171 9.7 171.5 9.9L172.2 8.2C171.7 8 171.2 7.8 170.7 7.7C170.2 7.6 169.7 7.5 169.2 7.5C168.3 7.5 167.4 7.7 166.6 8.3C166.3 8.6 166 8.9 165.9 9.3C165.7 9.7 165.7 10.1 165.7 10.5C165.7 10.9 165.8 11.4 166 11.8C166.2 12.2 166.5 12.5 166.8 12.8C167.2 13.1 167.7 13.4 168.2 13.6C168.7 13.8 169.1 14 169.5 14.3C169.7 14.4 169.9 14.6 170 14.8C170.1 15 170.2 15.1 170.2 15.3C170.2 15.5 170.2 15.6 170.1 15.7C170 15.8 169.9 16 169.8 16.1C169.5 16.3 169.1 16.4 168.7 16.4C168.3 16.4 167.8 16.3 167.4 16.2C166.8 16 166.2 15.8 165.6 15.5V17.6C166.5 18 167.5 18.2 168.5 18.2C169.5 18.3 170.5 18 171.3 17.4C171.6 17.1 171.9 16.8 172.1 16.4C172 16 172.1 15.6 172.1 15.1Z" fill="white"/>
<path d="M48.1 0H0V48H48.1V0Z" fill="#61B510"/>
<path d="M39.2 8.20002C38.6 8.50002 38.1 8.90002 37.8 9.40002C37.4 9.90002 37.2 10.5 37.2 11.2C36.7 10.9 36.2 10.7 35.6 10.6C35 10.5 34.4 10.6 33.9 10.8C33.9 10.9 34 11.1 34.1 11.2C34.3 11.7 34.6 12.1 35 12.4C35.4 12.7 35.8 13 36.3 13.1C35.8 13.9 35.1 14.6 34.3 15.1C33.9 15.3 33.5 15.5 33.1 15.5C32.6 15.6 32 15.5 31.6 15.2C31.2 14.9 30.7 14.6 30.5 14.1C30.2 14.7 29.7 15.1 29 15.3C28.4 15.5 27.7 15.5 27.1 15.2C26.9 15.1 26.8 15 26.6 14.9C25.7 14.3 24.9 13.4 24.4 12.4C24.2 12 24 11.6 23.9 11.1H24C24.5 11 25.1 10.9 25.5 10.6C26 10.3 26.3 9.90002 26.6 9.40002C26.7 9.30002 26.7 9.20002 26.8 9.10002L26.5 8.90002C26.1 8.70002 25.6 8.50002 25.1 8.40002C24.6 8.30002 24.1 8.40002 23.7 8.50002C23.6 8.50002 23.5 8.60002 23.4 8.60002C23.4 7.90002 23.2 7.10002 22.8 6.50002C22.4 5.90002 22 5.30002 21.4 4.90002C21 5.10002 20.9 5.00002 20.8 4.90002H20.7L20.6 5.00002C20.5 5.10002 20.4 5.20002 20.4 5.40002C20.1 6.10002 20 6.80002 20 7.50002C20 8.20002 20.2 8.90002 20.5 9.60002L20.2 9.70002C19.7 9.80002 19.3 10 18.9 10.3C18.5 10.6 18.2 10.9 17.9 11.4C17.8 11.5 17.8 11.6 17.7 11.7C17.8 11.8 17.9 11.8 18 11.9C18.5 12.2 19 12.3 19.5 12.4C20 12.4 20.6 12.4 21.1 12.1H21.2C21.3 12.5 21.4 13 21.4 13.4C21.4 14.4 21.2 15.3 20.9 16.2V16.3L20.8 16.6C20.7 16.8 20.6 17 20.5 17.2C20.2 17.6 19.8 17.8 19.4 18C19 18.2 18.6 18.2 18.2 18.2C17.8 18.2 17.4 18 17 17.8C17 18.3 16.8 18.9 16.5 19.3C16.2 19.7 15.8 20.1 15.3 20.3C15.1 20.4 14.8 20.5 14.6 20.5C13.5 20.5 12.4 20.2 11.4 19.7C11.7 19.3 12 18.9 12.2 18.5C12.4 18 12.4 17.5 12.4 17C12.4 16.8 12.4 16.6 12.3 16.4C11.2 16.7 10.3 17.3 9.6 18.2C8.9 17.6 7.7 16.6 6.4 16.7C6.1 16.7 5.8 16.8 5.5 17C7 18.1 8.4 19.3 9.8 20.7C10.7 21.6 11.7 22.6 12.5 23.6C13.7 25 15.8 27.8 15.8 27.8C16.3 28.3 17.1 28.6 17.8 28.5C17.8 28.5 17.9 28.5 17.9 28.4C17.9 28.4 17.9 28.3 18 28.3C18 28.2 17.9 28.2 17.8 28.1C17.6 28 17.3 27.9 17.2 27.7C17 27.5 16.9 27.3 16.8 27C16.4 25.8 20.1 23.6 25.4 22.2C30.7 20.8 35 21 35.3 22.3C35.4 22.6 35.4 22.8 35.3 23.1C35.2 23.4 35.1 23.6 34.9 23.8C34.9 23.9 34.8 24 34.8 24L34.9 24.1H35C35.7 23.8 36.2 23.2 36.4 22.5C36.4 22.5 37 19 37.4 17.3C37.7 16 38 14.7 38.4 13.5C39 11.7 39.6 10 40.4 8.30002C39.8 8.00002 39.5 8.10002 39.2 8.20002Z" fill="white"/>
<path d="M20.3 24.7C23.2 23.5 26.2 22.6 29.3 22.2C29.3 22.2 35.3 23.1 35.3 30.2C35.3 37.3 30.3 41.1 23.4 41.1C16.5 41.1 12.9 38.1 12.9 34.8C12.9 31.6 15.2 31.1 16.3 31.1C16.7 31.1 17.1 31.2 17.5 31.4C17.9 31.6 18.2 31.9 18.5 32.2C18.8 32.5 19 32.9 19.1 33.3C19.2 33.7 19.3 34.1 19.3 34.6C19.3 34.6 17.4 34.1 17.4 35.8C17.4 37.5 19.7 38.5 22.8 38.5C25.9 38.5 30.4 37.1 30.4 31C30.4 24.5 27.4 24.2 25.3 24.2V35.4C25.3 35.7 25.4 35.9 25.6 36.1C25.8 36.3 26.1 36.4 26.4 36.4C26.4 36.4 25.3 37.3 22.5 37.3C19.7 37.3 19 36.4 19 36.4C19 36.4 20.3 36.4 20.3 35.3C20.4 34.2 20.3 24.7 20.3 24.7Z" fill="white"/>
<path d="M106.8 26H114.1L115.9 27.8V31.5L114.4 33L115.9 34.5V38.6L114.1 40.4H106.8V26ZM112.3 32L113 31.3V28.9L112.4 28.3H109.7V32.1H112.3V32ZM112.4 38.3L113 37.7V34.9L112.3 34.2H109.7V38.3H112.4ZM119.5 38.6V27.9L121.4 26H126.8L128.7 27.9V38.5L126.8 40.4H121.4L119.5 38.6ZM125.1 38.2L125.8 37.5V29L125.1 28.3H123.1L122.4 29V37.5L123.1 38.2H125.1ZM132.3 38.6V27.9L134.2 26H139.6L141.5 27.9V38.5L139.6 40.4H134.2L132.3 38.6ZM137.9 38.2L138.6 37.5V29L137.9 28.3H135.9L135.2 29V37.5L135.9 38.2H137.9ZM151.6 40.5H154.7L151.6 32L154.6 26H151.5L148 33.6V26H145.1V40.5H148V37.6L149.6 34.4L151.6 40.5ZM70.6002 38.6V27.9L72.5002 26H77.9002L79.8002 27.9V38.5L77.9002 40.4H72.5002L70.6002 38.6ZM76.2002 38.2L76.9002 37.5V29L76.2002 28.3H74.2002L73.5002 29V37.5L74.2002 38.2H76.2002ZM85.5002 40.5H88.4002V28.5H91.5002V26H82.5002V28.5H85.6002L85.5002 40.5ZM95.9002 40.5H101.2L103.1 38.6V33.5L101.5 31.9H97.5002L97.0002 31.4V28.8L97.6002 28.2H99.5002L100.1 28.8V30.3H103V27.8L101.1 26H95.8002L93.9002 27.9V32.9L95.5002 34.5H99.5002L100 35V37.7L99.4002 38.3H97.4002L96.8002 37.7V36.3H93.9002V38.8L95.9002 40.5Z" fill="#61B510"/>
<path d="M58 26.1H65.3L67.1 27.9V31.6L65.6 33.1L67.1 34.6V38.7L65.3 40.5H58V26.1ZM63.5 32.1L64.2 31.4V29L63.6 28.4H60.9V32.2H63.5V32.1ZM63.6 38.4L64.2 37.8V35L63.5 34.3H60.9V38.4H63.6Z" fill="#61B510"/>
</svg>
