<svg width="36" height="25" viewBox="0 0 36 25" fill="none" xmlns="http://www.w3.org/2000/svg">
<path d="M35.2256 4.13348V20.8666C35.2256 21.6036 35.0655 22.3008 34.7706 22.8984L22.4247 12.0917L34.4672 1.5538C34.9391 2.26097 35.2256 3.15739 35.2256 4.13348Z" fill="#61B510"/>
<path d="M33.5486 24.3924C33.0177 24.7809 32.3941 25 31.7283 25H3.49727C2.83153 25 2.20791 24.7809 1.677 24.3924L14.2756 13.3665L15.683 14.6016C16.2223 15.0697 16.9134 15.3087 17.6044 15.3087C18.2954 15.3087 18.9864 15.0697 19.5258 14.6016L20.9331 13.3665L33.5486 24.3924Z" fill="#61B510"/>
<path d="M12.8093 12.0917L0.455069 22.8984C0.168544 22.3008 0 21.6036 0 20.8666V4.13348C0 3.15739 0.286525 2.26097 0.766874 1.5538L12.8093 12.0917Z" fill="#61B510"/>
<path d="M32.984 0.268924L20.95 10.7968L19.4837 12.0817L18.4977 12.9383C18.0342 13.3466 17.1915 13.3466 16.728 12.9383L15.742 12.0817L14.2757 10.7968L2.25006 0.268924C2.63771 0.0896412 3.05907 0 3.49728 0H31.7284C32.175 0 32.5964 0.0996013 32.984 0.268924Z" fill="#61B510"/>
</svg>
