<svg width="133" height="166" viewBox="0 0 133 166" fill="none" xmlns="http://www.w3.org/2000/svg">
<path fill-rule="evenodd" clip-rule="evenodd" d="M66.0271 44.2129C110.616 55.698 168.177 162.802 102.014 166H29.9954C-36.1678 162.802 21.3928 55.653 66.0271 44.2129Z" fill="#C5C5C5"/>
<path fill-rule="evenodd" clip-rule="evenodd" d="M78.7282 72.3176L65.2163 48.2214L85.394 71.7771L78.7282 72.3176Z" fill="#ABABAB"/>
<path fill-rule="evenodd" clip-rule="evenodd" d="M53.1458 69.1198L64.5408 47.5908L57.6497 72.9031L53.1458 69.1198Z" fill="#ABABAB"/>
<path fill-rule="evenodd" clip-rule="evenodd" d="M67.108 75.3352L64.856 47.0504L71.2516 74.7047L67.108 75.3352Z" fill="#ABABAB"/>
<path fill-rule="evenodd" clip-rule="evenodd" d="M80.0344 50.8787L99.5365 27.9085C99.5365 27.9085 105.166 19.6663 87.1957 13.1806L85.4391 4.93834C85.4391 4.93834 61.1628 -6.32157 39.4537 5.16354L38.5979 14.2615C38.5979 14.2615 27.338 17.7296 31.887 27.278L51.6144 51.149L58.5505 49.6176L61.1628 48.9871C61.1628 48.942 73.0983 46.3297 80.0344 50.8787Z" fill="#C5C5C5"/>
<path fill-rule="evenodd" clip-rule="evenodd" d="M65.0362 49.2573L39.4987 5.11847L38.6429 14.2165L65.0362 49.2573Z" fill="#ABABAB"/>
<path fill-rule="evenodd" clip-rule="evenodd" d="M65.0362 49.2573L87.1957 13.1356L85.4842 4.89331L65.0362 49.2573Z" fill="#ABABAB"/>
<path d="M49.3624 47.0504C46.9302 47.0504 44.9485 48.2664 44.9485 49.7527C44.9485 51.239 46.9302 52.4551 49.3624 52.4551H80.8901C83.3222 52.4551 85.304 51.239 85.304 49.7527C85.304 48.2664 83.3222 47.0504 80.8901 47.0504H49.3624Z" fill="#3A3A3A"/>
<path d="M48.5967 47.0954C48.0562 47.1404 47.5608 47.2756 47.1104 47.4557L49.3624 52.4551H49.4074H50.9838L48.5967 47.0954Z" fill="#12320B"/>
<path d="M54.7221 52.4551H56.3886L53.9565 47.0504H52.335L54.7221 52.4551Z" fill="#12320B"/>
<path d="M60.1269 52.4551H61.7934L59.3612 47.0504H57.6948L60.1269 52.4551Z" fill="#12320B"/>
<path d="M65.5316 52.4551H67.1981L64.766 47.0504H63.0995L65.5316 52.4551Z" fill="#12320B"/>
<path d="M70.9364 52.4551H72.5578L70.1707 47.0504H68.5042L70.9364 52.4551Z" fill="#12320B"/>
<path d="M76.3411 52.4551H77.9626L75.5755 47.0504H73.909L76.3411 52.4551Z" fill="#12320B"/>
<path d="M81.7008 52.4101C82.2413 52.365 82.7367 52.2299 83.1871 52.0498L80.9351 47.0504H80.8901H79.3137L81.7008 52.4101Z" fill="#12320B"/>
</svg>
