<svg width="133" height="166" viewBox="0 0 133 166" fill="none" xmlns="http://www.w3.org/2000/svg">
<path fill-rule="evenodd" clip-rule="evenodd" d="M66.0271 44.2129C110.616 55.698 168.177 162.802 102.014 166H29.9954C-36.1678 162.802 21.3928 55.653 66.0271 44.2129Z" fill="#C5C5C5"/>
<path fill-rule="evenodd" clip-rule="evenodd" d="M78.7282 72.3176L65.2163 48.2214L85.394 71.7771L78.7282 72.3176Z" fill="#ABABAB"/>
<path fill-rule="evenodd" clip-rule="evenodd" d="M53.1458 69.1198L64.5408 47.5908L57.6497 72.9031L53.1458 69.1198Z" fill="#ABABAB"/>
<path fill-rule="evenodd" clip-rule="evenodd" d="M67.108 75.3352L64.856 47.0504L71.2516 74.7047L67.108 75.3352Z" fill="#ABABAB"/>
<path fill-rule="evenodd" clip-rule="evenodd" d="M80.0344 50.8787L99.5365 27.9085C99.5365 27.9085 105.166 19.6663 87.1957 13.1806L85.4391 4.93834C85.4391 4.93834 61.1628 -6.32157 39.4537 5.16354L38.5979 14.2615C38.5979 14.2615 27.338 17.7296 31.887 27.278L51.6144 51.149L58.5505 49.6176L61.1628 48.9871C61.1628 48.942 73.0983 46.3297 80.0344 50.8787Z" fill="#C5C5C5"/>
<path fill-rule="evenodd" clip-rule="evenodd" d="M65.0362 49.2573L39.4987 5.11847L38.6429 14.2165L65.0362 49.2573Z" fill="#ABABAB"/>
<path fill-rule="evenodd" clip-rule="evenodd" d="M65.0362 49.2573L87.1957 13.1356L85.4842 4.89331L65.0362 49.2573Z" fill="#ABABAB"/>
<path d="M49.3624 47.0504C46.9302 47.0504 44.9485 48.2664 44.9485 49.7527C44.9485 51.239 46.9302 52.4551 49.3624 52.4551H80.8901C83.3222 52.4551 85.304 51.239 85.304 49.7527C85.304 48.2664 83.3222 47.0504 80.8901 47.0504H49.3624Z" fill="#3A3A3A"/>
<path d="M48.5967 47.0954C48.0562 47.1404 47.5608 47.2756 47.1104 47.4557L49.3624 52.4551H49.4074H50.9838L48.5967 47.0954Z" fill="#12320B"/>
<path d="M54.7221 52.4551H56.3886L53.9565 47.0504H52.335L54.7221 52.4551Z" fill="#12320B"/>
<path d="M60.1269 52.4551H61.7934L59.3612 47.0504H57.6948L60.1269 52.4551Z" fill="#12320B"/>
<path d="M65.5316 52.4551H67.1981L64.766 47.0504H63.0995L65.5316 52.4551Z" fill="#12320B"/>
<path d="M70.9364 52.4551H72.5578L70.1707 47.0504H68.5042L70.9364 52.4551Z" fill="#12320B"/>
<path d="M76.3411 52.4551H77.9626L75.5755 47.0504H73.909L76.3411 52.4551Z" fill="#12320B"/>
<path d="M81.7008 52.4101C82.2413 52.365 82.7367 52.2299 83.1871 52.0498L80.9351 47.0504H80.8901H79.3137L81.7008 52.4101Z" fill="#12320B"/>
<path d="M67.032 142.6C63.792 142.6 61.092 142.12 58.932 141.16C56.772 140.16 55.152 138.76 54.072 136.96C52.992 135.12 52.452 132.94 52.452 130.42C52.452 129.86 52.472 129.32 52.512 128.8C52.592 128.24 52.712 127.7 52.872 127.18H49.932V122.74H55.152C55.512 122.3 55.912 121.9 56.352 121.54C56.792 121.14 57.252 120.76 57.732 120.4C58.252 120.04 58.792 119.7 59.352 119.38C59.912 119.02 60.492 118.7 61.092 118.42H49.932V113.98H69.972C70.492 113.5 70.872 112.96 71.112 112.36C71.392 111.72 71.532 111 71.532 110.2C71.532 109.32 71.312 108.58 70.872 107.98C70.472 107.38 69.872 106.92 69.072 106.6C68.272 106.28 67.272 106.12 66.072 106.12C64.992 106.12 63.912 106.22 62.832 106.42C61.792 106.62 60.692 106.9 59.532 107.26C58.372 107.62 57.132 108.08 55.812 108.64L53.112 101.56C55.192 100.64 57.352 99.92 59.592 99.4C61.872 98.84 64.272 98.56 66.792 98.56C69.592 98.56 71.992 99.02 73.992 99.94C76.032 100.82 77.612 102.14 78.732 103.9C79.852 105.66 80.412 107.82 80.412 110.38C80.412 111.02 80.372 111.64 80.292 112.24C80.212 112.84 80.092 113.42 79.932 113.98H82.992V118.42H77.412C76.972 118.9 76.472 119.36 75.912 119.8C75.392 120.2 74.832 120.58 74.232 120.94C73.672 121.26 73.072 121.58 72.432 121.9C71.832 122.18 71.212 122.46 70.572 122.74H82.992V127.18H62.472C62.072 127.62 61.772 128.12 61.572 128.68C61.412 129.2 61.332 129.78 61.332 130.42C61.332 131.38 61.552 132.22 61.992 132.94C62.472 133.62 63.172 134.16 64.092 134.56C65.052 134.92 66.212 135.1 67.572 135.1C69.732 135.1 71.852 134.86 73.932 134.38C76.012 133.86 78.092 133.18 80.172 132.34V139.9C78.452 140.74 76.472 141.4 74.232 141.88C71.992 142.36 69.592 142.6 67.032 142.6Z" fill="black"/>
</svg>
