<svg width="340" height="188" viewBox="0 0 340 188" fill="none" xmlns="http://www.w3.org/2000/svg">
<g clip-path="url(#clip0_5_36)">
<path d="M236.082 0.0964936C233.093 0.28971 228.852 0.772753 226.152 1.3524C218.73 2.80153 207.258 8.30821 200.992 13.3318C195.787 17.486 191.16 23.2825 187.882 29.8519C186.147 33.4264 182.966 43.3771 182.58 46.855C182.484 47.7244 182.387 50.1397 182.387 52.1684C182.387 54.1972 182.291 55.8396 182.291 55.8396C182.194 55.8396 181.52 55.743 180.652 55.5497C178.82 55.2599 177.953 55.4531 177.664 56.226C177.374 56.9989 177.856 57.3853 180.266 57.9649L182.291 58.448L182.387 62.3123C182.484 66.3699 182.773 68.8817 183.544 72.4562C184.412 76.3205 185.954 80.9577 187.496 84.1458C188.46 86.078 191.642 91.3915 192.991 93.5169L194.148 95.2558L193.666 96.4151C192.316 99.41 191.16 103.854 190.485 108.201C189.81 113.032 189.714 115.157 189.714 126.847C189.714 137.184 189.81 138.343 190.099 141.048C190.774 146.265 192.027 151.675 194.437 160.08C195.016 161.916 195.498 163.848 195.498 164.234L195.594 165.104H194.726C192.509 165.104 180.459 165.49 178.628 165.587L176.507 165.683V164.91C176.507 163.461 176.507 163.461 171.301 161.143C166.289 158.921 163.782 157.858 161.661 157.182L160.408 156.795L128.307 156.892L96.2064 156.989L96.3027 156.119C96.3991 155.636 96.4955 154.767 96.5919 154.187L96.7847 153.124L97.5559 153.028C98.3271 152.931 105.557 152.545 123.777 151.675C134.766 151.192 139.297 150.902 140.646 150.612C141.225 150.516 141.418 150.323 141.707 149.84C141.9 149.453 142.574 148.68 143.249 148.101C144.502 146.845 146.623 144.333 147.009 143.753C147.394 143.077 147.202 142.207 146.334 137.957C145.852 135.735 144.599 129.455 143.635 124.142C140.454 107.525 138.333 97.7676 134.38 80.3781C131.488 67.7224 128.693 56.0328 127.15 49.56C126.379 46.3719 125.705 43.2805 125.608 42.7008C125.512 41.8313 125.415 41.6381 124.837 41.2517L124.259 40.8652H116.257C111.823 40.8652 108.063 40.7686 107.774 40.7686C107.485 40.7686 90.7116 40.672 70.3714 40.672C37.4028 40.672 33.3541 40.672 32.9685 40.9619C32.7757 41.1551 32.5829 41.3483 32.5829 41.3483C32.5829 41.3483 31.5225 42.411 30.1729 43.5703C28.8233 44.7296 27.0881 46.2753 26.2205 47.0482L24.7745 48.4973L24.6781 50.7193C24.5817 53.2311 24.6781 62.1191 24.9673 66.8529C25.0637 69.3647 25.1601 69.9444 25.5457 70.4274C25.9313 71.1037 28.5341 78.6392 30.9441 86.561C33.9325 96.1253 37.4992 108.201 41.4516 122.596C43.0904 128.682 43.7652 130.808 44.0544 131.001C44.44 131.291 44.44 131.387 42.8976 141.628C42.03 147.328 41.066 154.187 40.7768 156.795C40.3912 159.5 40.102 162.012 40.0056 162.399C39.9092 162.978 39.62 163.461 38.8488 164.331L37.7884 165.587L20.3402 165.49L2.89192 165.394L2.60273 165.78C2.40993 165.973 2.31353 166.263 2.31353 166.36C2.31353 166.746 2.89192 167.132 3.47032 167.132H4.04871V175.827V184.522L3.37392 184.619C2.98832 184.715 2.60273 184.715 2.50633 184.619C2.12073 184.425 0.771141 184.715 0.385544 185.198C-0.192851 185.778 -0.0964523 186.261 0.481943 186.841L0.963939 187.324L17.641 187.42C26.7989 187.517 102.858 187.517 186.532 187.517C333.156 187.517 338.65 187.517 339.229 187.227C340 186.841 340.193 186.068 339.807 185.488C339.325 184.522 338.94 184.425 333.734 184.425L329.01 184.329L328.914 181.044C328.625 171.77 328.432 167.616 328.239 167.036C328.143 166.649 327.95 166.263 327.661 166.263C327.468 166.166 323.516 166.07 318.985 165.973C314.454 165.877 307.61 165.78 303.947 165.78L297.102 165.683V165.2C297.102 163.075 296.524 153.704 296.331 150.612C295.367 140.179 293.921 131.774 291.897 125.881C288.908 116.993 286.113 111.003 281.968 104.723L280.425 102.405L281.678 101.342C283.896 99.41 289.776 93.3236 291.608 91.1016C294.5 87.7203 296.331 84.6289 299.03 79.1222C302.404 72.1664 304.429 65.2106 305.296 58.3514C305.778 54.1006 305.489 46.7584 304.621 40.7686C302.886 28.7892 298.837 22.1232 287.848 13.4285C284.185 10.5302 278.401 7.34213 273.484 5.50657C263.17 1.64223 247.746 -0.579765 236.082 0.0964936ZM245.529 2.4151C255.072 2.89814 265.098 4.83031 272.617 7.63195C279.654 10.2404 286.306 14.4911 292.09 20.2877C298.741 26.9536 301.537 33.04 302.597 43.5703C303.947 55.8396 302.886 63.5682 298.452 74.7748C294.789 83.856 289.487 91.1982 280.811 99.0235C273.484 105.593 269.05 108.298 260.471 111.389C258.253 112.162 253.048 113.708 252.951 113.611C252.951 113.611 252.277 112.452 251.409 111.1C243.312 97.2846 236.564 90.1356 228.08 85.9814C222.875 83.4696 216.705 82.0204 211.885 82.2137C209.475 82.3103 207.547 82.8899 205.137 84.1458C202.149 85.6916 198.968 88.5898 196.944 91.5847L195.883 93.0338L194.437 90.7152C191.834 86.7543 189.424 82.0204 188.171 78.8324C187.496 77.0934 186.436 73.3257 186.532 73.2291C186.532 73.2291 187.014 73.2291 187.496 73.3257C190.292 73.9053 195.401 73.7121 198.197 72.9393C201.185 72.1664 203.884 70.4274 204.848 68.5919C205.716 67.0461 205.909 65.7902 205.812 63.7615C205.716 61.9259 205.619 61.5395 204.655 59.2209C204.559 59.0276 204.655 58.8344 205.041 58.7378C205.909 58.3514 207.933 56.9989 208.704 56.0328C209.572 55.0667 209.765 54.2938 209.186 53.7142C208.608 53.1345 207.933 53.3277 206.873 54.2938C203.209 57.8683 197.329 58.6412 187.496 56.9023C186.34 56.709 185.279 56.5158 185.086 56.4192C184.797 56.3226 184.797 56.0328 184.797 53.6176C184.797 52.1684 184.894 50.1397 185.086 49.1736C185.183 48.2075 185.376 46.7584 185.472 45.8889C185.954 42.3144 187.786 35.9382 189.521 32.1705C192.991 24.4418 198.679 17.486 205.137 13.2352C212.175 8.50143 220.754 4.7337 227.309 3.47779C232.9 2.4151 238.877 2.02866 245.529 2.4151ZM121.27 43.1839L122.523 43.2805L120.981 44.9228C120.113 45.7923 118.86 47.1448 118.185 47.8211L116.932 49.1736L115.101 49.077C102.183 48.3041 87.2412 48.0143 56.0079 48.1109C40.8732 48.2075 28.5341 48.2075 28.5341 48.1109C28.5341 48.1109 29.7873 46.855 31.4261 45.5025L34.3181 42.894H77.1193C100.641 42.9906 120.499 43.0872 121.27 43.1839ZM125.319 50.0431C126.765 56.226 133.416 84.6289 135.152 92.4542C137.562 103.081 139.008 110.037 140.55 118.538C141.128 121.92 142.478 128.682 143.442 133.609C144.406 138.536 145.177 142.691 145.177 142.884C145.177 143.077 144.31 144.14 143.153 145.396L141.128 147.618L139.586 139.889C138.718 135.638 137.272 128.489 136.308 124.045C135.344 119.601 133.513 110.906 132.26 104.723C127.825 82.8899 126.861 79.2188 121.559 60.67C120.403 56.709 119.342 52.7481 119.053 51.8786L118.571 50.2363L119.342 49.2702C119.824 48.7871 120.981 47.4346 121.945 46.3719C123.68 44.4398 123.777 44.4398 123.873 44.9228C124.259 45.4058 124.741 47.6278 125.319 50.0431ZM89.7476 50.1397C95.0496 50.2363 101.412 50.4295 103.822 50.5261C108.545 50.7193 115.583 51.1057 115.679 51.1057C115.775 51.2024 113.173 56.1294 111.052 59.8971C108.738 64.0513 106.714 67.4326 106.135 68.0122L105.653 68.4953L101.894 68.6885C99.4839 68.7851 89.7476 68.7851 74.9985 68.7851C52.9231 68.6885 45.404 68.7851 32.2937 69.1715C29.5945 69.2681 27.2809 69.3647 27.2809 69.2681C27.2809 69.2681 27.0881 66.6597 26.9917 63.6648C26.7025 57.2887 26.6061 50.1397 26.8953 50.0431C27.5701 49.9464 81.3609 50.0431 89.7476 50.1397ZM119.728 60.8632C123.873 75.5477 125.319 80.9578 126.765 87.9136C127.536 91.6813 127.922 93.3236 131.006 108.201C131.97 113.032 133.416 119.988 134.188 123.659C136.694 135.445 138.429 144.333 138.911 147.618L139.008 148.584L137.754 148.487C132.934 148.004 126.861 145.975 126.186 144.623C126.09 144.333 125.801 143.367 125.608 142.401C119.631 113.611 116.257 99.5066 109.991 77.3832C108.063 70.6207 107.774 69.4613 107.967 69.1715C108.545 68.4953 113.365 59.9937 115.775 55.3565C117.029 52.8447 117.318 52.5549 117.414 52.9413C117.607 53.3277 118.571 56.8056 119.728 60.8632ZM192.22 60.0903C195.69 60.3802 197.136 60.4768 199.45 60.1869C202.342 59.8005 202.149 59.8005 202.631 61.153C203.017 62.1191 203.113 62.6022 203.113 64.1479C203.113 65.7902 203.113 66.0801 202.727 66.9495C201.86 68.7851 199.932 70.041 197.136 70.8139C195.305 71.2969 190.87 71.4901 188.364 71.2003C187.4 71.1037 186.436 70.9105 186.147 70.9105C185.761 70.9105 185.665 70.7173 185.568 70.2342C185.279 68.7851 184.894 64.8241 184.797 62.0225L184.701 59.0276L187.014 59.4141C188.364 59.6073 190.678 59.8971 192.22 60.0903ZM107.292 74.485C114.619 100.859 117.896 114.094 122.909 138.73C123.584 142.111 124.162 144.913 124.259 145.009C124.355 145.106 124.066 145.202 123.68 145.299C121.367 145.685 98.4235 147.038 98.2307 146.845C98.1343 146.748 99.1947 139.406 101.605 122.789C103.051 113.032 103.051 113.998 101.701 109.361C101.026 106.849 100.159 103.564 97.1703 92.0677C96.8811 91.1016 96.5919 90.1356 96.4955 89.8457C96.2064 89.2661 95.628 88.8796 95.2424 89.1695C95.0496 89.2661 92.9288 89.2661 89.6512 89.0729C81.6501 88.6864 66.3226 88.5898 59.6711 88.783C52.2483 89.0729 51.0915 89.1695 50.6095 89.4593C50.3203 89.7491 50.1275 90.522 49.3563 95.8354C48.8743 99.1201 48.2959 103.178 48.1031 104.723C46.6572 115.737 45.1148 127.523 44.922 127.909C44.8256 128.199 44.3436 126.654 43.2832 122.982C36.728 99.6998 33.6433 89.3627 29.3053 76.0307C28.4377 73.4223 27.7629 71.2969 27.8593 71.2969C28.0521 71.1037 57.4539 70.9105 74.9985 70.9105C86.1808 71.0071 97.7487 70.9105 100.641 70.8139C103.533 70.7173 105.943 70.7173 106.039 70.7173C106.135 70.8139 106.714 72.4562 107.292 74.485ZM212.464 85.2085C212.464 85.2085 211.982 85.4983 211.403 85.6916C210.825 85.8848 209.572 86.4644 208.704 86.8509C206.391 88.0102 205.33 89.0729 205.909 89.6525C206.294 90.0389 206.487 90.0389 208.029 89.0729C210.729 87.5271 214.392 86.1746 216.898 85.8848C217.669 85.7882 217.959 85.8848 219.019 86.3678C220.658 87.1407 222.393 88.4932 224.321 90.3288C225.188 91.1982 226.056 91.8745 226.249 91.8745C226.634 91.8745 227.116 91.4881 227.116 91.1982C227.116 90.8118 225.96 89.3627 224.899 88.4932C224.224 88.0102 223.742 87.5271 223.742 87.4305C223.839 87.3339 227.213 88.8796 228.659 89.7491C234.154 93.0338 239.07 98.0574 243.986 105.4C246.011 108.395 249.481 114.094 249.288 114.288C249.192 114.384 248.613 114.481 247.842 114.674C242.348 115.64 235.792 115.833 231.647 115.157C226.924 114.384 222.779 113.225 218.344 111.293C210.632 108.008 203.017 102.501 198.775 97.2846C198.197 96.5117 197.618 95.8354 197.618 95.6422C197.618 95.0626 199.932 91.9711 201.667 90.2322C204.173 87.7203 206.391 86.3678 209.09 85.6916C210.632 85.2085 212.464 85.0153 212.464 85.2085ZM80.2041 90.8118C87.7232 91.005 94.0856 91.1982 94.182 91.3915C94.182 91.4881 94.0856 92.4542 93.8928 93.6135C93.0252 98.7337 92.1576 105.883 90.808 117.862C89.7476 128.103 88.9764 134.189 87.5304 144.816C86.7592 150.129 86.0844 156.216 85.7952 158.244L85.4096 162.012L84.542 162.109C84.0601 162.205 79.0473 162.302 73.4561 162.399C65.3586 162.592 61.5026 162.592 55.0439 162.399C50.5131 162.302 45.7896 162.205 44.5364 162.205H42.2228L42.3192 161.239C43.476 151.482 44.0544 147.038 45.5968 137.474C47.6212 125.398 48.1031 121.533 49.5491 110.23C50.0311 106.173 50.7059 101.246 50.9951 99.3134C51.2843 97.2846 51.5735 94.7728 51.7663 93.7101C52.0555 90.6186 51.8627 90.9084 53.7907 90.9084C54.6583 90.9084 58.1287 90.8118 61.4062 90.8118C70.8534 90.6186 71.8174 90.6186 80.2041 90.8118ZM97.7487 102.888C98.7127 106.752 99.7731 110.81 100.062 111.776C100.352 112.839 100.641 113.901 100.641 114.288C100.641 114.867 99.6767 121.92 97.4595 136.797C96.5919 142.98 94.2784 157.375 93.8928 159.114L93.7 159.983L91.6756 160.563C89.0728 161.239 87.8196 161.529 87.6268 161.433C87.434 161.239 88.0124 156.119 89.844 143.463C90.9044 135.638 92.4468 123.562 93.6036 112.742C94.182 107.042 94.9532 100.859 95.2424 99.0235C95.5316 97.188 95.7244 95.5456 95.7244 95.3524C95.7244 95.0626 95.7244 95.0626 95.9172 95.3524C95.9172 95.7388 96.7847 99.0235 97.7487 102.888ZM198.004 99.9896C205.716 108.684 219.694 116.027 232.033 117.669C236.274 118.249 243.697 117.959 248.999 116.993C250.059 116.799 250.927 116.606 250.927 116.606C250.927 116.606 251.602 117.669 252.373 119.021L253.723 121.437L250.445 125.108C237.238 139.985 229.044 148.004 219.79 154.767C213.813 159.114 204.077 165.394 203.402 165.2C203.209 165.104 202.149 165.104 201.089 165.104H199.161L198.486 162.399C198.1 160.95 197.329 157.955 196.751 155.926C193.377 143.946 192.702 138.826 192.991 124.335C193.088 114.481 193.377 110.52 194.244 106.076C194.823 103.178 196.269 98.2507 196.654 98.3473C196.558 98.3473 197.233 99.1201 198.004 99.9896ZM278.979 106.462C281.389 111.486 281.871 119.118 280.522 130.035C279.461 138.343 277.34 145.782 273.195 155.636C272.52 157.182 271.653 159.404 271.267 160.466C270.111 163.558 269.147 165.683 268.857 165.683C268.761 165.683 268.568 165.104 268.375 164.138C267.508 158.244 265.387 147.231 263.748 140.469C262.302 134.286 260.567 128.972 258.446 124.238C257.868 122.886 257.386 121.727 257.386 121.63C257.386 121.533 258.253 120.374 259.314 119.118C261.338 116.51 262.591 114.674 263.17 113.515C263.459 112.839 263.652 112.742 265.965 111.679C270.496 109.65 274.256 107.428 276.762 105.4L277.726 104.627L278.015 105.013C278.304 105.206 278.69 105.883 278.979 106.462ZM258.928 114.771C257.771 116.316 256.036 118.442 255.843 118.538C255.651 118.635 254.205 116.413 254.205 116.027C254.205 115.93 255.169 115.544 256.422 115.254C258.928 114.481 259.217 114.384 258.928 114.771ZM285.631 118.055C287.173 121.63 289.969 130.131 290.451 132.836C292.186 141.338 293.439 153.607 293.632 163.461L293.728 165.877H283.317C277.63 165.877 272.906 165.877 272.906 165.78C272.81 165.683 275.798 157.955 276.184 157.182C276.762 156.022 278.786 150.709 279.75 147.907C283.028 137.86 284.763 126.943 284.474 117.669C284.474 116.413 284.474 115.447 284.474 115.447C284.474 115.447 285.052 116.703 285.631 118.055ZM256.325 127.233C258.35 132.257 260.374 139.213 261.82 146.168C263.073 152.255 265.291 164.234 265.291 165.394C265.291 165.587 218.633 165.587 212.946 165.297L209.765 165.2L210.921 164.524C216.416 161.046 222.875 156.506 227.116 153.124C233.19 148.197 242.444 138.923 252.277 127.813C253.819 126.074 255.169 124.625 255.265 124.721C255.361 124.818 255.747 125.881 256.325 127.233ZM127.15 147.714C128.018 148.101 129.368 148.68 130.139 148.97L131.488 149.453L130.524 149.55C129.56 149.646 119.439 150.226 104.882 150.902C100.834 151.095 97.5559 151.192 97.5559 151.192C97.4595 151.095 97.8451 148.97 97.9415 148.777C97.9415 148.777 99.8695 148.68 102.279 148.584C106.81 148.39 110.955 148.101 118.764 147.424C125.608 146.845 125.223 146.845 127.15 147.714ZM155.299 158.921L159.541 159.017L159.444 160.466C159.348 162.785 159.059 165.973 158.866 166.939L158.673 167.809L153.467 167.905C150.576 168.002 144.117 168.099 139.104 168.195C134.091 168.292 127.536 168.485 124.548 168.582C121.559 168.678 116.354 168.775 113.076 168.871L107.099 168.968L104.497 166.746C103.051 165.49 100.544 163.461 99.0983 162.302C97.5559 161.046 96.2064 159.983 96.2064 159.887C96.11 159.79 96.11 159.5 96.2064 159.307C96.3027 158.921 96.5919 158.921 114.137 158.921C147.587 158.728 151.057 158.728 155.299 158.921ZM164.361 160.177C165.614 160.756 168.506 161.916 170.723 162.978L174.772 164.814L174.868 166.36L174.964 167.905H168.024C161.469 168.002 161.083 167.905 161.179 167.616C161.372 166.939 161.661 164.621 161.758 162.012C161.854 160.466 161.951 159.211 162.047 159.211C162.143 159.211 163.107 159.694 164.361 160.177ZM98.1343 164.041C99.7731 165.394 102.472 167.616 104.111 168.968C105.75 170.321 107.292 171.673 107.678 171.963L108.256 172.446L107.196 172.736C106.617 172.929 104.882 173.412 103.34 173.895C98.4235 175.441 93.5072 176.793 93.218 176.697C93.0252 176.6 87.5304 164.427 87.5304 163.944C87.5304 163.848 88.6872 163.461 90.0368 163.075C91.4828 162.688 93.1216 162.205 93.7 162.012C94.3748 161.819 94.9532 161.626 94.9532 161.626C95.0496 161.529 96.3992 162.688 98.1343 164.041ZM86.7592 167.132C87.5304 168.775 88.7836 171.673 89.5548 173.412C90.326 175.248 91.0008 176.697 91.0008 176.793C91.0008 176.89 87.916 176.89 84.2529 176.89C80.4933 176.89 67.4794 176.89 55.3331 176.987C42.512 176.987 32.6793 176.987 32.1009 176.89L30.9441 176.697L32.9685 174.281C34.9929 171.77 35.8604 170.804 39.7164 166.553L41.9336 164.041L50.6095 164.234C59.6711 164.427 73.8417 164.331 79.4329 164.138C81.1681 164.041 83.2889 164.041 84.0601 164.041H85.506L86.7592 167.132ZM196.558 167.809C197.04 169.741 198.1 170.997 199.161 170.997C199.739 170.997 201.86 169.934 204.366 168.485L206.583 167.132L215.259 167.326C219.983 167.422 232.322 167.519 242.54 167.616C252.759 167.616 262.109 167.616 263.363 167.712H265.676L265.773 168.195C266.255 170.321 266.833 171.093 267.99 171.093C268.375 171.093 268.954 170.997 269.243 170.804C269.821 170.514 270.785 169.451 271.364 168.485L271.749 167.809H274.352C281.196 167.809 313.876 168.195 315.997 168.292L318.406 168.388L314.358 169.161C301.055 171.77 296.909 172.543 291.511 173.798C284.956 175.248 254.494 182.783 249.963 184.136L247.167 184.908H126.572H5.8803L5.7839 176.31V167.712L20.7258 167.809C29.0161 167.809 35.764 167.905 35.764 167.905C35.764 167.905 35.0893 168.871 34.1253 169.934C33.1613 170.997 31.5225 173.026 30.3657 174.475C28.1485 177.373 27.9557 177.759 28.7269 178.532L29.1125 178.919H49.3563C60.4422 178.919 74.9985 178.919 81.5537 178.822L93.5072 178.725L96.8811 177.759C103.243 175.924 110.57 173.509 110.666 173.315C110.955 172.929 110.763 172.639 109.895 171.673L109.027 170.707L114.522 170.61C117.511 170.514 125.03 170.321 131.103 170.224C137.176 170.031 149.804 169.934 159.059 169.838C178.049 169.741 176.507 169.838 176.603 168.388C176.603 168.002 176.7 167.616 176.7 167.519C176.796 167.422 183.93 167.229 192.702 167.132H196.076L196.558 167.809ZM200.125 167.326C199.643 167.712 199.45 167.712 199.45 167.326C199.45 167.132 199.643 167.036 199.932 167.036C200.51 167.132 200.51 167.132 200.125 167.326ZM326.6 172.349C326.697 174.281 326.697 177.856 326.793 180.271L326.89 184.812H315.515C309.249 184.812 293.053 184.908 279.461 184.908C265.869 185.005 254.783 185.005 254.879 184.908C254.976 184.715 258.639 183.846 271.364 180.658C289.198 176.214 295.753 174.765 311.659 171.673C316.286 170.804 321.202 169.838 322.648 169.548C324.094 169.258 325.54 169.065 325.829 168.968H326.408L326.6 172.349Z" fill="black"/>
<path d="M255.554 51.2025C235.214 56.6126 230.201 57.7719 225.574 57.7719C224.032 57.7719 222.875 57.6752 222.489 57.5786C221.525 57.1922 220.851 56.4193 220.754 55.3566C220.658 54.8736 220.561 54.294 220.369 54.1973C220.079 53.8109 219.212 53.9075 218.923 54.294C218.633 54.777 218.633 56.3227 218.923 57.1922C219.212 58.0617 220.465 59.221 221.525 59.6074L222.393 59.8972V61.7328C222.393 63.9548 222.779 65.3073 223.743 67.3361C225.863 71.3936 228.659 73.6156 233.093 74.7749C237.624 75.9342 242.058 75.8376 247.746 74.2919C252.277 73.1326 254.397 72.0699 256.615 69.7513C258.253 68.109 259.025 66.8531 259.699 65.0175C260.278 63.2785 260.471 59.8972 260.085 57.7719C259.507 54.9702 258.157 51.5889 257.482 51.2025C257.097 50.8161 256.711 50.8161 255.554 51.2025ZM257 55.26C258.35 59.221 258.35 62.5057 256.904 65.5005C256.133 67.0463 253.915 69.3649 252.373 70.1377C250.927 70.9106 247.842 71.8767 245.143 72.4563C243.119 72.8428 242.54 72.9394 239.166 72.9394C235.889 72.9394 235.31 72.8428 233.961 72.5529C231.454 71.8767 229.623 70.9106 227.984 69.2683C225.767 67.0463 224.803 64.9209 224.61 61.8294L224.514 60.2837L226.345 60.1871C230.683 59.8972 235.503 58.9312 246.878 55.9363C256.807 53.3279 256.325 53.4245 256.422 53.7143C256.518 53.7143 256.807 54.4872 257 55.26Z" fill="black"/>
<path d="M229.816 63.8582C229.141 64.148 228.755 64.7276 228.755 65.5005C228.755 66.0802 228.852 66.2734 229.334 66.7564C229.816 67.2395 230.008 67.2395 230.587 67.2395C231.936 67.0462 232.611 65.8869 232.033 64.8242C231.647 63.8582 230.78 63.4717 229.816 63.8582Z" fill="black"/>
<path d="M210.729 54.1007C210.632 54.1973 210.536 54.6804 210.632 55.4532C210.729 56.3227 210.632 56.9024 210.343 57.8684C209.957 59.0277 209.957 59.221 210.247 59.4142C210.632 59.8006 211.211 59.4142 211.596 58.4481C212.078 57.1922 212.078 54.8736 211.596 54.2939C211.114 53.9075 211.018 53.8109 210.729 54.1007Z" fill="black"/>
<path d="M213.235 54.294C212.946 54.777 213.139 56.516 213.524 57.7719C213.91 59.0278 214.777 60.2837 215.356 60.2837C216.031 60.2837 216.031 59.8006 215.452 58.6413C214.777 57.3854 214.392 56.0329 214.392 54.9702C214.295 54.0041 213.621 53.5211 213.235 54.294Z" fill="black"/>
<path d="M189.135 62.9887C188.364 63.7616 188.364 64.8243 189.135 65.5005C189.906 66.2734 190.774 66.1768 191.545 65.4039C191.931 65.0175 192.124 64.6311 192.124 64.3412C192.22 62.6989 190.292 61.8294 189.135 62.9887Z" fill="black"/>
<path d="M214.199 93.517C212.271 94 211.114 94.7729 211.5 95.4492C211.693 95.739 211.982 95.6424 213.139 95.1593C214.103 94.7729 214.392 94.6763 216.031 94.6763C217.862 94.6763 217.959 94.6763 219.501 95.4492C220.754 96.0288 221.14 96.222 221.333 96.0288C222.007 95.4492 221.14 94.5797 219.115 93.8068C217.862 93.4204 215.356 93.2272 214.199 93.517Z" fill="black"/>
</g>
<defs>
<clipPath id="clip0_5_36">
<rect width="340" height="188" fill="white"/>
</clipPath>
</defs>
</svg>
