<svg width="109" height="88" viewBox="0 0 109 88" fill="none" xmlns="http://www.w3.org/2000/svg">
<path d="M105.796 37.8161C105.796 42.2355 97.7099 52.0735 97.7099 52.0735C97.7099 52.0735 89.6233 42.2355 89.6233 37.8161C89.6233 33.3968 93.2399 29.809 97.7099 29.809C102.18 29.809 105.796 33.3968 105.796 37.8161Z" fill="#8CD3F6" stroke="#1A1B3A" stroke-width="3" stroke-miterlimit="10" stroke-linecap="round" stroke-linejoin="round"/>
<path d="M101.245 38.5203C101.245 40.4517 97.7099 44.7503 97.7099 44.7503C97.7099 44.7503 94.1813 40.4517 94.1813 38.5203C94.1813 36.5889 95.7593 35.0197 97.7099 35.0197C99.6604 35.0197 101.245 36.5889 101.245 38.5203Z" fill="#0673B0" stroke="#1A1B3A" stroke-width="3" stroke-miterlimit="10" stroke-linecap="round" stroke-linejoin="round"/>
<path d="M19.3835 37.8161C19.3835 42.2355 11.2969 52.0735 11.2969 52.0735C11.2969 52.0735 3.21027 42.2355 3.21027 37.8161C3.21027 33.3968 6.82689 29.809 11.2969 29.809C15.7669 29.809 19.3835 33.3968 19.3835 37.8161Z" fill="#8CD3F6" stroke="#1A1B3A" stroke-width="3" stroke-miterlimit="10" stroke-linecap="round" stroke-linejoin="round"/>
<path d="M14.8322 38.5203C14.8322 40.4517 11.3037 44.7503 11.3037 44.7503C11.3037 44.7503 7.77509 40.4517 7.77509 38.5203C7.77509 36.5889 9.35312 35.0197 11.3037 35.0197C13.2474 35.0197 14.8322 36.5889 14.8322 38.5203Z" fill="#0673B0" stroke="#1A1B3A" stroke-width="3" stroke-miterlimit="10" stroke-linecap="round" stroke-linejoin="round"/>
<path d="M96.0573 18.9315H12.9562V28.1995H96.0573V18.9315Z" fill="#0673B0" stroke="#1A1B3A" stroke-width="4" stroke-miterlimit="10" stroke-linecap="round" stroke-linejoin="round"/>
<path d="M104.286 30.9356H91.1335V35.1672H104.286V30.9356Z" fill="#1A1B3A"/>
<path d="M89.4539 31.0563C88.6141 31.0563 87.9368 30.379 87.9368 29.5541V24.8732C87.9368 19.5351 92.3188 15.1962 97.7098 15.1962C103.101 15.1962 107.483 19.5351 107.483 24.8732V29.5541C107.483 30.3857 106.799 31.0563 105.959 31.0563H89.4539Z" fill="#F6B700"/>
<path d="M97.7098 16.6917C102.268 16.6917 105.959 20.3532 105.959 24.8665V29.5474H89.4539V24.8665C89.4539 20.3532 93.1518 16.6917 97.7098 16.6917ZM97.7098 13.6806C91.4789 13.6806 86.413 18.6968 86.413 24.8665V29.5474C86.413 31.2105 87.7743 32.5585 89.4539 32.5585H105.959C107.639 32.5585 109 31.2105 109 29.5474V24.8665C109.007 18.6968 103.941 13.6806 97.7098 13.6806Z" fill="#1A1B3A"/>
<path d="M103.561 24.8665V29.5474H105.966V24.8665C105.966 20.3532 102.268 16.6917 97.7166 16.6917C97.3103 16.6917 96.9039 16.7252 96.5179 16.7788C100.5 17.3556 103.561 20.7556 103.561 24.8665Z" fill="#CE9900"/>
<path d="M17.8732 30.9356H4.72058V35.1672H17.8732V30.9356Z" fill="#1A1B3A"/>
<path d="M3.04772 31.0563C2.20791 31.0563 1.52386 30.379 1.52386 29.5541V24.8732C1.52386 19.5351 5.90581 15.1962 11.2969 15.1962C16.688 15.1962 21.0699 19.5351 21.0699 24.8732V29.5541C21.0699 30.3857 20.3859 31.0563 19.5528 31.0563H3.04772Z" fill="#F6B700"/>
<path d="M11.2969 16.6917C15.8549 16.6917 19.5528 20.3532 19.5528 24.8665V29.5474H3.04772V24.8665C3.04772 20.3532 6.73885 16.6917 11.2969 16.6917ZM11.2969 13.6806C5.06599 13.6806 0 18.6968 0 24.8665V29.5474C0 31.2105 1.36131 32.5585 3.04095 32.5585H19.546C21.2257 32.5585 22.587 31.2105 22.587 29.5474V24.8665C22.5938 18.6968 17.5278 13.6806 11.2969 13.6806Z" fill="#1A1B3A"/>
<path d="M17.1485 24.8665V29.5474H19.5528V24.8665C19.5528 20.3532 15.8549 16.6917 11.2969 16.6917C10.8905 16.6917 10.4841 16.7252 10.0913 16.7788C14.0872 17.3556 17.1485 20.7556 17.1485 24.8665Z" fill="#CE9900"/>
<path d="M54.5068 40.9412V78.8848" stroke="#1A1B3A" stroke-width="4" stroke-miterlimit="10" stroke-linecap="round" stroke-linejoin="round"/>
<path d="M70.3685 42.8927L81.9362 58.0218V78.0197" stroke="#1A1B3A" stroke-width="4" stroke-miterlimit="10" stroke-linecap="round" stroke-linejoin="round"/>
<path d="M81.9363 64.1513C85.2877 64.1513 88.0046 61.4611 88.0046 58.1425C88.0046 54.824 85.2877 52.1338 81.9363 52.1338C78.5848 52.1338 75.8679 54.824 75.8679 58.1425C75.8679 61.4611 78.5848 64.1513 81.9363 64.1513Z" fill="#1A1B3A"/>
<path d="M38.6383 42.8927L27.0773 58.0218V78.0197" stroke="#1A1B3A" stroke-width="4" stroke-miterlimit="10" stroke-linecap="round" stroke-linejoin="round"/>
<path d="M27.0773 64.1513C30.4288 64.1513 33.1457 61.4611 33.1457 58.1425C33.1457 54.824 30.4288 52.1338 27.0773 52.1338C23.7259 52.1338 21.009 54.824 21.009 58.1425C21.009 61.4611 23.7259 64.1513 27.0773 64.1513Z" fill="#1A1B3A"/>
<path d="M48.4384 58.1425C48.4384 61.4621 51.1543 64.1513 54.5068 64.1513C57.8593 64.1513 60.5751 61.4621 60.5751 58.1425C60.5751 54.823 57.8593 52.1338 54.5068 52.1338C51.1543 52.1338 48.4384 54.823 48.4384 58.1425Z" fill="#1A1B3A"/>
<path d="M25.6347 43.7109C25.1471 43.7109 24.6933 43.4829 24.4021 43.0872C24.1176 42.6982 24.0364 42.1953 24.1854 41.7393L37.1009 2.54837C37.3041 1.9314 37.8866 1.50891 38.5435 1.50891H70.4498C71.1067 1.50891 71.6892 1.92469 71.8923 2.54837L84.8079 41.7393C84.9569 42.1953 84.8824 42.6982 84.5912 43.0872C84.2999 43.4762 83.8462 43.7109 83.3585 43.7109H25.6347Z" fill="#F6B700"/>
<path d="M70.4565 3.01107L83.3721 42.202H25.6348L38.5503 3.01107H70.4565ZM70.4565 0H38.5503C37.2364 0 36.0647 0.838272 35.6584 2.07891L22.7428 41.2698C22.438 42.1886 22.6006 43.1945 23.1695 43.9724C23.7384 44.7503 24.6595 45.213 25.628 45.213H83.3586C84.3338 45.213 85.2481 44.7503 85.8171 43.9724C86.386 43.1945 86.5485 42.1886 86.2437 41.2698L73.3485 2.07891C72.9421 0.838272 71.7705 0 70.4565 0Z" fill="#1A1B3A"/>
<path d="M70.4565 3.01105H57.7712L70.6868 42.2019H83.3721L70.4565 3.01105Z" fill="#CE9900"/>
<path d="M66.3658 18.9383C66.3658 25.4231 61.056 30.6808 54.5068 30.6808C47.9576 30.6808 42.6478 25.4231 42.6478 18.9383C42.6478 12.4534 47.9576 7.19574 54.5068 7.19574C61.056 7.19574 66.3658 12.4467 66.3658 18.9383Z" fill="#8CD3F6" stroke="#1A1B3A" stroke-width="4" stroke-miterlimit="10" stroke-linecap="round" stroke-linejoin="round"/>
<path d="M57.0466 17.9524C57.0466 20.2258 55.1841 22.07 52.8881 22.07C50.5922 22.07 48.7297 20.2258 48.7297 17.9524C48.7297 15.679 50.5922 13.8348 52.8881 13.8348C55.1908 13.8348 57.0466 15.679 57.0466 17.9524Z" fill="white"/>
<path d="M47.3209 86C47.3209 82.0702 50.538 78.8848 54.5068 78.8848C58.4756 78.8848 61.6926 82.0702 61.6926 86" stroke="#1A1B3A" stroke-width="4" stroke-miterlimit="10" stroke-linecap="round" stroke-linejoin="round"/>
<path d="M19.8914 86C19.8914 82.0702 23.1085 78.8848 27.0773 78.8848C31.0461 78.8848 34.2631 82.0702 34.2631 86" stroke="#1A1B3A" stroke-width="4" stroke-miterlimit="10" stroke-linecap="round" stroke-linejoin="round"/>
<path d="M74.7504 86C74.7504 82.0702 77.9674 78.8848 81.9362 78.8848C85.905 78.8848 89.1221 82.0702 89.1221 86" stroke="#1A1B3A" stroke-width="4" stroke-miterlimit="10" stroke-linecap="round" stroke-linejoin="round"/>
</svg>
