<svg width="124" height="111" viewBox="0 0 124 111" fill="none" xmlns="http://www.w3.org/2000/svg">
<path d="M62.0577 66.1311C44.4984 66.1311 30.2153 51.8862 30.2153 34.3741C30.2153 16.8619 44.4984 2.61707 62.0577 2.61707C79.6169 2.61707 93.9 16.8619 93.9 34.3741C93.9 51.8862 79.6169 66.1311 62.0577 66.1311Z" fill="#8CD3F6"/>
<path d="M62.0577 4.48413C78.6057 4.48413 92.0279 17.8621 92.0279 34.374C92.0279 50.8777 78.614 64.264 62.0577 64.264C45.5013 64.264 32.0874 50.886 32.0874 34.374C32.0874 17.8621 45.5013 4.48413 62.0577 4.48413ZM62.0577 0.741638C43.4621 0.741638 28.3349 15.8283 28.3349 34.374C28.3349 52.9198 43.4621 68.0065 62.0577 68.0065C80.6533 68.0065 95.7805 52.9198 95.7805 34.374C95.7721 15.8283 80.6449 0.741638 62.0577 0.741638Z" fill="#1A1B3A"/>
<path d="M62.0577 4.48413C59.6674 4.48413 57.3524 4.76753 55.1293 5.30098C68.3342 8.41833 78.1711 20.2459 78.1711 34.374C78.1711 48.5021 68.3426 60.3297 55.1293 63.4471C57.3524 63.9722 59.6758 64.2556 62.0577 64.2556C78.6057 64.2556 92.0279 50.8777 92.0279 34.3657C92.0196 17.8621 78.6057 4.48413 62.0577 4.48413Z" fill="#4CB2DC"/>
<path d="M84.0715 34.5908C84.0715 40.242 79.4832 44.818 73.8168 44.818H50.2986C44.6321 44.818 40.0438 40.242 40.0438 34.5908C40.0438 28.9395 44.6321 24.3635 50.2986 24.3635H73.8168C79.4748 24.3552 84.0715 28.9395 84.0715 34.5908Z" fill="#8CD3F6" stroke="#1A1B3A" stroke-width="4" stroke-miterlimit="10" stroke-linecap="round" stroke-linejoin="round"/>
<path d="M60.8375 34.5407C60.8375 37.0913 58.7648 39.1501 56.2157 39.1501C53.6583 39.1501 51.594 37.083 51.594 34.5407C51.594 31.9902 53.6667 29.9314 56.2157 29.9314C58.7648 29.9231 60.8375 31.9902 60.8375 34.5407Z" fill="white"/>
<path d="M22.9526 109.04C22.4595 109.04 21.9831 108.849 21.6238 108.49L9.02892 95.9293C8.55253 95.4542 8.36867 94.7707 8.54418 94.1205L13.1492 76.9668C13.3247 76.3249 13.8262 75.8165 14.478 75.6415L31.6779 71.0488C31.8367 71.0071 32.0039 70.9821 32.1627 70.9821C32.6558 70.9821 33.1321 71.1738 33.4915 71.5322L46.0864 84.0933C46.5628 84.5684 46.7466 85.2519 46.5711 85.9021L44.1892 94.779C44.0137 95.4208 43.5122 95.9293 42.8604 96.1043C42.7016 96.146 42.5344 96.171 42.3756 96.171C41.8825 96.171 41.4061 95.9793 41.0468 95.6209L31.2433 85.852L25.042 87.5107L23.3789 93.6954L33.1739 103.464C33.6503 103.939 33.8342 104.623 33.6587 105.273C33.4832 105.915 32.9817 106.423 32.3298 106.598L23.429 108.974C23.2786 109.015 23.1114 109.04 22.9526 109.04Z" fill="#8CD3F6"/>
<path d="M32.171 72.8575L44.7659 85.4186L42.3839 94.2956L31.82 83.7599L23.5209 85.9771L21.2978 94.2539L31.8618 104.79L22.961 107.165L10.3577 94.6123L14.9628 77.4585L32.171 72.8575ZM32.171 69.115C31.8451 69.115 31.5191 69.1567 31.2015 69.24L14.0016 73.8327C12.7062 74.1828 11.695 75.1914 11.3439 76.4833L6.73892 93.6371C6.3879 94.929 6.76399 96.3043 7.70839 97.2546L20.2949 109.816C21.0053 110.524 21.9664 110.916 22.9442 110.916C23.2702 110.916 23.5961 110.874 23.9137 110.791L32.8145 108.415C34.11 108.074 35.1212 107.065 35.4722 105.765C35.8233 104.473 35.4472 103.098 34.5028 102.147L25.4766 93.137L26.5798 89.0361L30.6917 87.9358L39.7262 96.9462C40.4366 97.6546 41.3978 98.0381 42.3839 98.0381C42.7099 98.0381 43.0358 97.9964 43.3534 97.913C44.6488 97.563 45.6601 96.5544 46.0111 95.2625L48.393 86.3855C48.7441 85.0935 48.368 83.7182 47.4236 82.768L34.8287 70.2069C34.11 69.4984 33.1488 69.115 32.171 69.115Z" fill="#1A1B3A"/>
<path d="M15.5562 78.7338C14.6368 78.7338 13.8512 78.067 13.7008 77.1585L7.24873 36.5745C7.16515 36.0328 7.31559 35.4826 7.67496 35.0659C8.03434 34.6491 8.55251 34.4074 9.10411 34.4074H25.2091C25.744 34.4074 26.2538 34.6324 26.6049 35.0325C26.9642 35.4326 27.1314 35.9577 27.0729 36.4912L22.5097 77.0751C22.401 78.0253 21.5987 78.7338 20.6459 78.7338H15.5562Z" fill="#8CD3F6"/>
<path d="M25.2091 36.2828L20.6459 76.8584H15.5645L9.10409 36.2745H25.2091M25.2091 32.5403H9.10409C8.00924 32.5403 6.96455 33.0238 6.25415 33.8489C5.54376 34.6825 5.22617 35.7827 5.40168 36.8663L11.8537 77.4502C12.1462 79.2673 13.7175 80.6092 15.5561 80.6092H20.6375C22.5514 80.6092 24.1561 79.1756 24.365 77.2835L28.9282 36.6996C29.0452 35.641 28.7109 34.5824 27.9922 33.7906C27.2902 32.9904 26.2705 32.5403 25.2091 32.5403Z" fill="#1A1B3A"/>
<path d="M17.1524 21.5712C25.4014 21.5712 32.0874 28.2394 32.0874 36.4662C32.0874 44.693 25.4014 51.3611 17.1524 51.3611C8.90353 51.3611 2.21747 44.693 2.21747 36.4662C2.22583 28.231 8.91188 21.5712 17.1524 21.5712Z" fill="#0673B0" stroke="#1A1B3A" stroke-width="4" stroke-miterlimit="10" stroke-linecap="round" stroke-linejoin="round"/>
<path d="M17.1524 28.8478C21.3646 28.8478 24.7829 32.2569 24.7829 36.4578C24.7829 40.6588 21.3646 44.0678 17.1524 44.0678C12.9402 44.0678 9.52197 40.6588 9.52197 36.4578C9.52197 32.2569 12.9402 28.8478 17.1524 28.8478Z" fill="#1A1B3A"/>
<path d="M16.0075 74.5079C19.6681 73.566 23.4039 75.7665 24.34 79.4256C25.2844 83.0764 23.078 86.8022 19.409 87.7358C15.7484 88.6777 12.0126 86.4772 11.0765 82.818C10.1321 79.1672 12.3385 75.4414 16.0075 74.5079Z" fill="#8CD3F6" stroke="#1A1B3A" stroke-width="4" stroke-miterlimit="10" stroke-linecap="round" stroke-linejoin="round"/>
<path d="M16.8349 77.7419C18.707 77.2585 20.6125 78.3837 21.0972 80.2508C21.582 82.1179 20.4537 84.0183 18.5816 84.5017C16.7095 84.9852 14.804 83.8599 14.3192 81.9929C13.8345 80.1258 14.9628 78.217 16.8349 77.7419Z" fill="#1A1B3A"/>
<path d="M101.154 109.04C100.996 109.04 100.828 109.024 100.67 108.974L91.7689 106.598C91.1253 106.423 90.6155 105.923 90.44 105.273C90.2645 104.631 90.4484 103.939 90.9248 103.464L100.72 93.6954L99.0567 87.5107L92.8554 85.852L83.0603 95.6209C82.7009 95.9793 82.2245 96.171 81.7314 96.171C81.5726 96.171 81.4055 96.1543 81.2467 96.1043C80.6032 95.9293 80.0934 95.4291 79.9178 94.779L77.5359 85.9021C77.3604 85.2519 77.5443 84.5684 78.0207 84.0933L90.6155 71.5322C90.9749 71.1738 91.4513 70.9821 91.9444 70.9821C92.1032 70.9821 92.2703 70.9988 92.4291 71.0488L109.629 75.6415C110.273 75.8165 110.782 76.3166 110.958 76.9668L115.563 94.1205C115.738 94.7707 115.555 95.4542 115.078 95.9293L102.483 108.49C102.132 108.849 101.648 109.04 101.154 109.04Z" fill="#8CD3F6"/>
<path d="M91.936 72.8575L109.136 77.4502L113.741 94.604L101.146 107.165L92.2452 104.79L102.809 94.2539L100.586 85.9771L92.287 83.7599L81.723 94.2956L79.3411 85.4186L91.936 72.8575ZM91.936 69.115C90.9498 69.115 89.997 69.4984 89.2783 70.2069L76.6834 82.768C75.739 83.7099 75.3629 85.0935 75.714 86.3855L78.0959 95.2625C78.4469 96.5544 79.4581 97.563 80.7536 97.913C81.0712 97.9964 81.3971 98.0381 81.723 98.0381C82.7092 98.0381 83.662 97.6546 84.3808 96.9462L93.4153 87.9358L97.5272 89.0361L98.6304 93.137L89.5959 102.147C88.6515 103.089 88.2754 104.473 88.6264 105.765C88.9774 107.057 89.9887 108.065 91.2841 108.415L100.185 110.791C100.503 110.874 100.828 110.916 101.154 110.916C102.141 110.916 103.093 110.532 103.812 109.816L116.407 97.2546C117.351 96.3127 117.727 94.929 117.376 93.6371L112.771 76.4833C112.42 75.1914 111.409 74.1828 110.114 73.8327L92.9138 69.24C92.5879 69.1567 92.2619 69.115 91.936 69.115Z" fill="#1A1B3A"/>
<path d="M103.461 78.7338C102.508 78.7338 101.706 78.017 101.597 77.0751L97.0341 36.4912C96.9756 35.9661 97.1427 35.4326 97.5021 35.0325C97.8615 34.6324 98.363 34.4074 98.8978 34.4074H115.003C115.554 34.4074 116.073 34.6491 116.432 35.0659C116.791 35.4826 116.942 36.0328 116.858 36.5745L110.406 77.1585C110.264 78.067 109.479 78.7338 108.551 78.7338H103.461Z" fill="#8CD3F6"/>
<path d="M115.003 36.2828L108.551 76.8584H103.469L98.9062 36.2745H115.003M115.003 32.5403H98.8979C97.8281 32.5403 96.8085 32.9904 96.0981 33.7906C95.3877 34.5824 95.045 35.641 95.1704 36.6996L99.7336 77.2835C99.9426 79.1756 101.556 80.6092 103.461 80.6092H108.543C110.39 80.6092 111.961 79.2673 112.253 77.4502L118.689 36.983C118.73 36.7579 118.755 36.5245 118.755 36.2828C118.755 34.2157 117.076 32.5403 115.003 32.5403Z" fill="#1A1B3A"/>
<path d="M106.955 21.5712C98.7056 21.5712 92.0195 28.2394 92.0195 36.4662C92.0195 44.693 98.7056 51.3611 106.955 51.3611C115.203 51.3611 121.889 44.693 121.889 36.4662C121.889 28.231 115.203 21.5712 106.955 21.5712Z" fill="#0673B0" stroke="#1A1B3A" stroke-width="4" stroke-miterlimit="10" stroke-linecap="round" stroke-linejoin="round"/>
<path d="M106.955 28.8478C102.742 28.8478 99.324 32.2569 99.324 36.4578C99.324 40.6588 102.742 44.0678 106.955 44.0678C111.167 44.0678 114.585 40.6588 114.585 36.4578C114.585 32.2569 111.167 28.8478 106.955 28.8478Z" fill="#1A1B3A"/>
<path d="M108.108 74.5079C104.447 73.566 100.711 75.7665 99.7754 79.4256C98.831 83.0764 101.037 86.8022 104.706 87.7358C108.367 88.6777 112.103 86.4772 113.039 82.818C113.975 79.1672 111.768 75.4414 108.108 74.5079Z" fill="#8CD3F6" stroke="#1A1B3A" stroke-width="4" stroke-miterlimit="10" stroke-linecap="round" stroke-linejoin="round"/>
<path d="M107.272 77.7419C105.4 77.2585 103.494 78.3837 103.01 80.2508C102.525 82.1179 103.653 84.0183 105.525 84.5017C107.397 84.9852 109.303 83.8599 109.788 81.9929C110.272 80.1258 109.144 78.217 107.272 77.7419Z" fill="#1A1B3A"/>
</svg>
