<svg width="103" height="112" viewBox="0 0 103 112" fill="none" xmlns="http://www.w3.org/2000/svg">
<path d="M59.0227 96.6886C59.0227 100.814 51.4964 110 51.4964 110C51.4964 110 43.9701 100.821 43.9701 96.6886C43.9701 92.5564 47.3375 89.2107 51.4964 89.2107C55.6553 89.2107 59.0227 92.5564 59.0227 96.6886Z" fill="#0673B0" stroke="#1A1B3A" stroke-width="4" stroke-miterlimit="10" stroke-linecap="round" stroke-linejoin="round"/>
<path d="M65.8726 89.2107H37.1202V94.358H65.8726V89.2107Z" fill="#1A1B3A"/>
<path d="M69.535 81.3039H33.465V90.9408H69.535V81.3039Z" fill="#8CD3F6" stroke="#1A1B3A" stroke-width="4" stroke-miterlimit="10" stroke-linecap="round" stroke-linejoin="round"/>
<path d="M37.5735 22.0244V8.96313" stroke="#1A1B3A" stroke-width="4" stroke-miterlimit="10" stroke-linecap="round" stroke-linejoin="round"/>
<path d="M41.0776 5.48157C41.0776 7.40465 39.509 8.96313 37.5735 8.96313C35.638 8.96313 34.0694 7.40465 34.0694 5.48157C34.0694 3.55848 35.638 2 37.5735 2C39.509 2 41.0776 3.55848 41.0776 5.48157Z" stroke="#1A1B3A" stroke-width="4" stroke-miterlimit="10" stroke-linecap="round" stroke-linejoin="round"/>
<path d="M65.4265 22.0244V8.96313" stroke="#1A1B3A" stroke-width="4" stroke-miterlimit="10" stroke-linecap="round" stroke-linejoin="round"/>
<path d="M68.9306 5.48157C68.9306 7.40465 67.362 8.96313 65.4265 8.96313C63.4909 8.96313 61.9224 7.40465 61.9224 5.48157C61.9224 3.55848 63.4909 2 65.4265 2C67.362 2 68.9306 3.55848 68.9306 5.48157Z" stroke="#1A1B3A" stroke-width="4" stroke-miterlimit="10" stroke-linecap="round" stroke-linejoin="round"/>
<path d="M91.1281 15.29V35.1928C91.1281 44.508 83.5298 52.0573 74.1544 52.0573H28.8384C19.463 52.0573 11.8647 44.508 11.8647 35.1928V15.29" stroke="#1A1B3A" stroke-width="4" stroke-miterlimit="10" stroke-linecap="round" stroke-linejoin="round"/>
<path d="M21.7439 5.48157C21.7439 10.9005 17.326 15.29 11.8719 15.29C6.41791 15.29 2 10.9005 2 5.48157" stroke="#1A1B3A" stroke-width="4" stroke-miterlimit="10" stroke-linecap="round" stroke-linejoin="round"/>
<path d="M101 5.48157C101 10.9005 96.5821 15.29 91.1281 15.29C85.674 15.29 81.2561 10.9005 81.2561 5.48157" stroke="#1A1B3A" stroke-width="4" stroke-miterlimit="10" stroke-linecap="round" stroke-linejoin="round"/>
<path d="M32.4793 82.3476C29.5004 82.3476 27.0756 79.9384 27.0756 76.9787V25.7847C27.0756 22.825 29.5004 20.423 32.4793 20.423H70.5208C73.4996 20.423 75.9172 22.8322 75.9172 25.7847V76.9787C75.9172 79.9384 73.4924 82.3476 70.5208 82.3476H32.4793Z" fill="#F6B700"/>
<path d="M70.5207 22.0244C72.6074 22.0244 74.3055 23.7044 74.3055 25.7847V76.9787C74.3055 79.0591 72.6074 80.7391 70.5207 80.7391H32.4792C30.3854 80.7391 28.6945 79.052 28.6945 76.9787V25.7847C28.6945 23.7044 30.3926 22.0244 32.4792 22.0244H70.5207ZM70.5207 18.8145H32.4792C28.6082 18.8145 25.4638 21.9386 25.4638 25.7847V76.9787C25.4638 80.8249 28.6082 83.949 32.4792 83.949H70.5207C74.3918 83.949 77.5362 80.8249 77.5362 76.9787V25.7847C77.5362 21.9457 74.3918 18.8145 70.5207 18.8145Z" fill="#1A1B3A"/>
<path d="M70.5207 22.0244H61.5482C63.6349 22.0244 65.3329 23.7044 65.3329 25.7847V76.9787C65.3329 79.0591 63.6349 80.7391 61.5482 80.7391H70.5207C72.6074 80.7391 74.3055 79.0519 74.3055 76.9787V25.7847C74.3055 23.7115 72.6146 22.0244 70.5207 22.0244Z" fill="#CE9900"/>
<path d="M65.333 47.1817C65.333 48.4399 64.304 49.4622 63.0376 49.4622H39.9623C38.696 49.4622 37.6671 48.4399 37.6671 47.1817V28.773C37.6671 27.5148 38.696 26.4925 39.9623 26.4925H63.0376C64.304 26.4925 65.333 27.5148 65.333 28.773V47.1817Z" fill="#1A1B3A"/>
<path d="M47.539 42.0058C47.539 43.7788 46.0928 45.2157 44.3083 45.2157C42.5239 45.2157 41.0776 43.7788 41.0776 42.0058V33.9489C41.0776 32.176 42.5239 30.739 44.3083 30.739C46.0928 30.739 47.539 32.176 47.539 33.9489V42.0058Z" fill="#8CD3F6" stroke="#1A1B3A" stroke-width="2" stroke-miterlimit="10" stroke-linecap="round" stroke-linejoin="round"/>
<path d="M61.9296 42.0058C61.9296 43.7788 60.4833 45.2157 58.6989 45.2157C56.9145 45.2157 55.4682 43.7788 55.4682 42.0058V33.9489C55.4682 32.176 56.9145 30.739 58.6989 30.739C60.4833 30.739 61.9296 32.176 61.9296 33.9489V42.0058Z" fill="#8CD3F6" stroke="#1A1B3A" stroke-width="2" stroke-miterlimit="10" stroke-linecap="round" stroke-linejoin="round"/>
</svg>
