<svg width="108" height="137" viewBox="0 0 108 137" fill="none" xmlns="http://www.w3.org/2000/svg">
<path d="M85.5204 57.562L98.4208 66.6955V91.4731" stroke="#1A1B3A" stroke-width="4" stroke-miterlimit="10" stroke-linecap="round" stroke-linejoin="round"/>
<path d="M91.7934 56.2042C91.7934 61.9981 87.202 66.6871 81.5473 66.6871C75.8844 66.6871 71.3013 61.9896 71.3013 56.2042C71.3013 50.4104 75.8926 45.7214 81.5473 45.7214C87.202 45.7214 91.7934 50.4189 91.7934 56.2042Z" fill="#1A1B3A"/>
<path d="M91.7934 106.645V97.52L98.7835 90.6129L105.056 97.52V106.645" stroke="#1A1B3A" stroke-width="4" stroke-miterlimit="10" stroke-linecap="round" stroke-linejoin="round"/>
<path d="M22.008 57.562L9.10773 66.6955V91.4731" stroke="#1A1B3A" stroke-width="4" stroke-miterlimit="10" stroke-linecap="round" stroke-linejoin="round"/>
<path d="M15.7351 56.2042C15.7351 61.9981 20.3265 66.6871 25.9812 66.6871C31.6441 66.6871 36.2272 61.9896 36.2272 56.2042C36.2272 50.4104 31.6359 45.7214 25.9812 45.7214C20.3265 45.7214 15.7351 50.4189 15.7351 56.2042Z" fill="#1A1B3A"/>
<path d="M15.7351 106.645V97.52L8.74503 90.6129L2.48035 97.52V106.645" stroke="#1A1B3A" stroke-width="4" stroke-miterlimit="10" stroke-linecap="round" stroke-linejoin="round"/>
<path d="M62.7038 118.966C62.7038 124.018 53.7601 135.26 53.7601 135.26C53.7601 135.26 44.8165 124.018 44.8165 118.966C44.8165 113.915 48.8226 109.816 53.7601 109.816C58.7059 109.816 62.7038 113.915 62.7038 118.966Z" fill="#8CD3F6" stroke="#1A1B3A" stroke-width="3" stroke-miterlimit="10" stroke-linecap="round" stroke-linejoin="round"/>
<path d="M57.6673 119.767C57.6673 121.977 53.7602 126.885 53.7602 126.885C53.7602 126.885 49.853 121.977 49.853 119.767C49.853 117.558 51.6005 115.77 53.7602 115.77C55.9198 115.77 57.6673 117.558 57.6673 119.767Z" fill="#0673B0" stroke="#1A1B3A" stroke-width="3" stroke-miterlimit="10" stroke-linecap="round" stroke-linejoin="round"/>
<path d="M70.8479 109.816H36.6724V116.116H70.8479V109.816Z" fill="#1A1B3A"/>
<path d="M75.2002 89.4912H32.3283V111.924H75.2002V89.4912Z" fill="#8CD3F6" stroke="#1A1B3A" stroke-width="3" stroke-miterlimit="10" stroke-linecap="round" stroke-linejoin="round"/>
<path d="M42.3683 91.3044V111.933" stroke="#1A1B3A" stroke-width="3" stroke-miterlimit="10" stroke-linecap="round" stroke-linejoin="round"/>
<path d="M48.0724 91.3044V111.933" stroke="#1A1B3A" stroke-width="3" stroke-miterlimit="10" stroke-linecap="round" stroke-linejoin="round"/>
<path d="M53.7684 91.3044V111.933" stroke="#1A1B3A" stroke-width="3" stroke-miterlimit="10" stroke-linecap="round" stroke-linejoin="round"/>
<path d="M59.4643 91.3044V111.933" stroke="#1A1B3A" stroke-width="3" stroke-miterlimit="10" stroke-linecap="round" stroke-linejoin="round"/>
<path d="M65.1602 91.3044V111.933" stroke="#1A1B3A" stroke-width="3" stroke-miterlimit="10" stroke-linecap="round" stroke-linejoin="round"/>
<path d="M53.7684 103.28C39.17 103.28 27.2836 91.1273 27.2836 76.1832C27.2836 61.2475 39.1617 49.0864 53.7684 49.0864C68.3667 49.0864 80.2532 61.239 80.2532 76.1832C80.2449 91.1273 68.3667 103.28 53.7684 103.28Z" fill="#0673B0"/>
<path d="M53.7684 50.9839C67.3693 50.9839 78.3985 62.2679 78.3985 76.1832C78.3985 90.0985 67.3693 101.382 53.7684 101.382C40.1674 101.382 29.1382 90.0985 29.1382 76.1832C29.13 62.2679 40.1591 50.9839 53.7684 50.9839ZM53.7684 47.1973C38.1479 47.1973 25.4371 60.2017 25.4371 76.1832C25.4371 92.1647 38.1479 105.169 53.7684 105.169C69.3889 105.169 82.0996 92.1647 82.0996 76.1832C82.0996 60.2017 69.3889 47.1973 53.7684 47.1973Z" fill="#1A1B3A"/>
<path d="M53.7684 50.9839C51.6499 50.9839 49.5974 51.2622 47.6356 51.7766C58.2526 54.5766 66.0999 64.4438 66.0999 76.1832C66.0999 87.9226 58.2526 97.7898 47.6356 100.59C49.5974 101.104 51.6499 101.382 53.7684 101.382C67.3693 101.382 78.3985 90.0984 78.3985 76.1832C78.3985 62.2679 67.3693 50.9839 53.7684 50.9839Z" fill="#0D5988"/>
<path d="M53.7684 56.4741C39.17 56.4741 27.2836 44.3214 27.2836 29.3773C27.2836 14.4416 39.1617 2.28046 53.7684 2.28046C68.3667 2.28046 80.2532 14.4331 80.2532 29.3773C80.2449 44.3214 68.3667 56.4741 53.7684 56.4741Z" fill="#0673B0"/>
<path d="M53.7684 4.178C67.3693 4.178 78.3985 15.462 78.3985 29.3773C78.3985 43.2926 67.3693 54.5766 53.7684 54.5766C40.1674 54.5766 29.1382 43.2926 29.1382 29.3773C29.13 15.462 40.1591 4.178 53.7684 4.178ZM53.7684 0.391357C38.1479 0.391357 25.4371 13.3958 25.4371 29.3773C25.4371 45.3588 38.1479 58.3632 53.7684 58.3632C69.3889 58.3632 82.0996 45.3588 82.0996 29.3773C82.0996 13.3958 69.3889 0.391357 53.7684 0.391357Z" fill="#1A1B3A"/>
<path d="M53.7684 4.17801C51.8065 4.17801 49.9024 4.42258 48.0724 4.86112C58.9285 7.49237 67.0067 17.4692 67.0067 29.3773C67.0067 41.2854 58.9285 51.2622 48.0724 53.8935C49.9024 54.3404 51.8065 54.5766 53.7684 54.5766C67.3693 54.5766 78.3985 43.2926 78.3985 29.3773C78.3985 15.462 67.3693 4.17801 53.7684 4.17801Z" fill="#0D5988"/>
<path d="M71.8617 29.5628C71.8617 34.3278 68.0864 38.1903 63.4291 38.1903H44.0993C39.442 38.1903 35.6667 34.3278 35.6667 29.5628C35.6667 24.7979 39.442 20.9354 44.0993 20.9354H63.4291C68.0864 20.9354 71.8617 24.7979 71.8617 29.5628Z" fill="#8CD3F6" stroke="#1A1B3A" stroke-width="4" stroke-miterlimit="10" stroke-linecap="round" stroke-linejoin="round"/>
<path d="M52.7627 29.5207C52.7627 31.6712 51.0647 33.4085 48.9627 33.4085C46.8607 33.4085 45.1627 31.6712 45.1627 29.5207C45.1627 27.3701 46.8607 25.6328 48.9627 25.6328C51.0647 25.6328 52.7627 27.3701 52.7627 29.5207Z" fill="white"/>
</svg>
