<svg width="110" height="112" viewBox="0 0 110 112" fill="none" xmlns="http://www.w3.org/2000/svg">
<path d="M87.4038 40.0551L101.011 49.5357V81.0945" stroke="#1A1B3A" stroke-width="4" stroke-miterlimit="10" stroke-linecap="round" stroke-linejoin="round"/>
<path d="M94.0151 38.6486C94.0151 44.6624 89.1774 49.5357 83.2076 49.5357C77.2378 49.5357 72.4 44.6624 72.4 38.6486C72.4 32.6349 77.2378 27.7615 83.2076 27.7615C89.1774 27.7615 94.0151 32.6349 94.0151 38.6486Z" fill="#1A1B3A"/>
<path d="M94.0151 96.8473V87.3667L101.389 80.1974L108 87.3667V96.8473" stroke="#1A1B3A" stroke-width="4" stroke-miterlimit="10" stroke-linecap="round" stroke-linejoin="round"/>
<path d="M22.5962 40.0551L8.99622 49.5357V81.0945" stroke="#1A1B3A" stroke-width="4" stroke-miterlimit="10" stroke-linecap="round" stroke-linejoin="round"/>
<path d="M15.9849 38.6486C15.9849 44.6624 20.8227 49.5357 26.7925 49.5357C32.7623 49.5357 37.6 44.6624 37.6 38.6486C37.6 32.6349 32.7623 27.7615 26.7925 27.7615C20.8227 27.7615 15.9849 32.6349 15.9849 38.6486Z" fill="#1A1B3A"/>
<path d="M15.9849 96.8473V87.3668L8.61132 80.1974L2 87.3668V96.8473" stroke="#1A1B3A" stroke-width="4" stroke-miterlimit="10" stroke-linecap="round" stroke-linejoin="round"/>
<path d="M55.0038 66.5505C37.5321 66.5505 23.3207 52.2346 23.3207 34.6344C23.3207 17.0341 37.5321 2.7182 55.0038 2.7182C72.4755 2.7182 86.6943 17.0341 86.6943 34.6344C86.6868 52.227 72.4755 66.5505 55.0038 66.5505Z" fill="#F6B700"/>
<path d="M55.0037 4.41362C71.5698 4.41362 84.9962 17.9388 84.9962 34.6268C84.9962 51.3147 71.5622 64.8399 55.0037 64.8399C38.4377 64.8399 25.0113 51.3147 25.0113 34.6268C25.0113 17.9388 38.4377 4.41362 55.0037 4.41362ZM55.0037 1C36.5962 1 21.6226 16.0838 21.6226 34.6268C21.6226 53.1698 36.5962 68.2535 55.0037 68.2535C73.4113 68.2535 88.3849 53.1698 88.3849 34.6268C88.3849 16.0838 73.4037 1 55.0037 1Z" fill="#1A1B3A"/>
<path d="M55.0037 4.4136C53.3584 4.4136 51.7509 4.55045 50.1811 4.80894C64.4528 7.13537 75.3509 19.5962 75.3509 34.6268C75.3509 49.6573 64.4528 62.1258 50.1811 64.4446C51.7509 64.7031 53.3584 64.8399 55.0037 64.8399C71.5698 64.8399 84.9962 51.3147 84.9962 34.6268C84.9962 17.9388 71.5622 4.4136 55.0037 4.4136Z" fill="#CE9900"/>
<path d="M67.5924 87.4124C67.5924 94.4221 54.9962 110 54.9962 110C54.9962 110 42.4075 94.4145 42.4075 87.4124C42.4075 80.4103 48.0453 74.7311 54.9962 74.7311C61.9547 74.7235 67.5924 80.4027 67.5924 87.4124Z" fill="#8CD3F6" stroke="#1A1B3A" stroke-width="4" stroke-miterlimit="10" stroke-linecap="round" stroke-linejoin="round"/>
<path d="M60.4981 88.5224C60.4981 91.5862 54.9962 98.3907 54.9962 98.3907C54.9962 98.3907 49.4943 91.5862 49.4943 88.5224C49.4943 85.4585 51.9547 82.98 54.9962 82.98C58.0377 82.98 60.4981 85.4585 60.4981 88.5224Z" fill="#0673B0" stroke="#1A1B3A" stroke-width="4" stroke-miterlimit="10" stroke-linecap="round" stroke-linejoin="round"/>
<path d="M79.0641 74.7234H30.9358V83.459H79.0641V74.7234Z" fill="#1A1B3A"/>
<path d="M85.1849 61.3047H24.8151V77.6581H85.1849V61.3047Z" fill="#8CD3F6" stroke="#1A1B3A" stroke-width="4" stroke-miterlimit="10" stroke-linecap="round" stroke-linejoin="round"/>
<path d="M30.9358 63.806V77.6581" stroke="#1A1B3A" stroke-width="4" stroke-miterlimit="10" stroke-linecap="round" stroke-linejoin="round"/>
<path d="M38.9584 63.806V77.6581" stroke="#1A1B3A" stroke-width="4" stroke-miterlimit="10" stroke-linecap="round" stroke-linejoin="round"/>
<path d="M46.9811 63.806V77.6581" stroke="#1A1B3A" stroke-width="4" stroke-miterlimit="10" stroke-linecap="round" stroke-linejoin="round"/>
<path d="M55.0037 63.806V77.6581" stroke="#1A1B3A" stroke-width="4" stroke-miterlimit="10" stroke-linecap="round" stroke-linejoin="round"/>
<path d="M63.0188 63.806V77.6581" stroke="#1A1B3A" stroke-width="4" stroke-miterlimit="10" stroke-linecap="round" stroke-linejoin="round"/>
<path d="M71.0414 63.806V77.6581" stroke="#1A1B3A" stroke-width="4" stroke-miterlimit="10" stroke-linecap="round" stroke-linejoin="round"/>
<path d="M79.0641 63.806V77.6581" stroke="#1A1B3A" stroke-width="4" stroke-miterlimit="10" stroke-linecap="round" stroke-linejoin="round"/>
<path d="M48.2264 11.6514C48.2264 16.7376 44.1358 20.8583 39.0868 20.8583C34.0377 20.8583 29.9471 16.7376 29.9471 11.6514C29.9471 6.56519 34.0377 2.44452 39.0868 2.44452C44.1358 2.45212 48.2264 6.57279 48.2264 11.6514Z" fill="#8CD3F6" stroke="#1A1B3A" stroke-width="4" stroke-miterlimit="10" stroke-linecap="round" stroke-linejoin="round"/>
<path d="M43.0038 11.6514C43.0038 13.8258 41.2528 15.5972 39.0868 15.5972C36.9283 15.5972 35.1698 13.8334 35.1698 11.6514C35.1698 9.47703 36.9207 7.7056 39.0868 7.7056C41.2528 7.7132 43.0038 9.47703 43.0038 11.6514Z" fill="#1A1B3A"/>
<path d="M80.0528 11.6514C80.0528 16.7376 75.9622 20.8583 70.9132 20.8583C65.8641 20.8583 61.7736 16.7376 61.7736 11.6514C61.7736 6.56519 65.8641 2.44452 70.9132 2.44452C75.9622 2.45212 80.0528 6.57279 80.0528 11.6514Z" fill="#8CD3F6" stroke="#1A1B3A" stroke-width="4" stroke-miterlimit="10" stroke-linecap="round" stroke-linejoin="round"/>
<path d="M74.8302 11.6514C74.8302 13.8258 73.0792 15.5972 70.9132 15.5972C68.7547 15.5972 66.9962 13.8334 66.9962 11.6514C66.9962 9.47703 68.7472 7.7056 70.9132 7.7056C73.0792 7.7132 74.8302 9.47703 74.8302 11.6514Z" fill="#1A1B3A"/>
<path d="M41.2302 47.0952C36.4906 47.0952 32.6566 43.2254 32.6566 38.4585C32.6566 33.684 36.4981 29.8219 41.2302 29.8219H68.7698C73.5094 29.8219 77.3434 33.6916 77.3434 38.4585C77.3434 43.233 73.5019 47.0952 68.7698 47.0952H41.2302Z" fill="#8CD3F6" stroke="#1A1B3A" stroke-width="4" stroke-miterlimit="10" stroke-linecap="round" stroke-linejoin="round"/>
<path d="M69.7434 31.236V45.2934" stroke="#1A1B3A" stroke-width="4" stroke-miterlimit="10" stroke-linecap="round" stroke-linejoin="round"/>
<path d="M62.3698 31.236V45.2934" stroke="#1A1B3A" stroke-width="4" stroke-miterlimit="10" stroke-linecap="round" stroke-linejoin="round"/>
<path d="M55.0038 31.236V45.2934" stroke="#1A1B3A" stroke-width="4" stroke-miterlimit="10" stroke-linecap="round" stroke-linejoin="round"/>
<path d="M47.6302 31.236V45.2934" stroke="#1A1B3A" stroke-width="4" stroke-miterlimit="10" stroke-linecap="round" stroke-linejoin="round"/>
<path d="M40.2566 31.236V45.2934" stroke="#1A1B3A" stroke-width="4" stroke-miterlimit="10" stroke-linecap="round" stroke-linejoin="round"/>
</svg>
