<svg width="109" height="108" viewBox="0 0 109 108" fill="none" xmlns="http://www.w3.org/2000/svg">
<path d="M76.7056 65.6003C76.272 65.6003 75.8601 65.4285 75.5566 65.1278L43.255 33.1259C42.6191 32.4959 42.6191 31.4793 43.255 30.8493L72.2976 2.07621C72.6155 1.7612 73.0274 1.6037 73.4465 1.6037C73.8584 1.6037 74.2776 1.7612 74.5955 2.07621L106.897 34.0781C107.201 34.3788 107.374 34.7869 107.374 35.2164C107.374 35.646 107.201 36.0541 106.897 36.3547L77.8546 65.1278C77.5511 65.4285 77.1392 65.6003 76.7056 65.6003Z" fill="#0673B0"/>
<path d="M73.4465 3.21451L105.748 35.2164L76.7056 63.9895L44.404 31.9876L73.4465 3.21451ZM73.4465 0C72.6155 0 71.7845 0.315008 71.1558 0.945023L42.1132 29.7109C40.8486 30.9638 40.8486 33.0042 42.1132 34.2571L74.4149 66.2589C75.0219 66.8603 75.8457 67.204 76.7128 67.204C77.5728 67.204 78.3966 66.8675 79.0108 66.2589L108.053 37.4859C108.66 36.8845 109 36.0683 109 35.2164C109 34.3644 108.66 33.5483 108.053 32.9398L75.7517 0.937863C75.1086 0.315008 74.2776 0 73.4465 0Z" fill="#1A1B3A"/>
<path d="M99.4989 29.0303L70.4603 57.7994L76.7095 63.9906L105.748 35.2215L99.4989 29.0303Z" fill="#0D5988"/>
<path d="M95.0893 43.2491C95.0893 44.3015 94.2294 45.1534 93.1671 45.1534H73.8295C72.7673 45.1534 71.9073 44.3015 71.9073 43.2491V27.871C71.9073 26.8186 72.7673 25.9666 73.8295 25.9666H93.1671C94.2294 25.9666 95.0893 26.8186 95.0893 27.871V43.2491Z" fill="#1A1B3A"/>
<path d="M91.469 38.9249C91.469 40.4068 90.2549 41.6096 88.7591 41.6096C87.2632 41.6096 86.0492 40.4068 86.0492 38.9249V32.188C86.0492 30.7061 87.2632 29.5033 88.7591 29.5033C90.2549 29.5033 91.469 30.7061 91.469 32.188V38.9249Z" fill="#8CD3F6" stroke="#1A1B3A" stroke-width="4" stroke-miterlimit="10" stroke-linecap="round" stroke-linejoin="round"/>
<path d="M46.1962 86.5411C45.777 86.5411 45.3579 86.3765 45.0472 86.0686L22.1181 63.3523C21.6195 62.8583 21.5038 62.1066 21.8218 61.4909L40.986 24.1124C41.2245 23.6542 41.6653 23.332 42.1783 23.2533C42.265 23.239 42.3518 23.2318 42.4312 23.2318C42.8576 23.2318 43.2695 23.3965 43.5802 23.7043L85.0737 64.8128C85.4423 65.1779 85.6085 65.6934 85.529 66.2017C85.4495 66.71 85.1243 67.1467 84.6618 67.383L46.9332 86.3693C46.6948 86.4839 46.4419 86.5411 46.1962 86.5411Z" fill="#0673B0"/>
<path d="M42.4312 24.8426L83.9247 65.9511L46.1961 84.9374L23.267 62.2211L42.4312 24.8426ZM42.4312 21.6281C42.265 21.6281 42.0916 21.6424 41.9182 21.6711C40.892 21.8357 40.0032 22.4729 39.5335 23.3893L20.3693 60.7678C19.7334 62.0063 19.9718 63.5098 20.9691 64.4978L43.8982 87.2069C44.5196 87.8226 45.3507 88.1519 46.1961 88.1519C46.6948 88.1519 47.2006 88.0374 47.6631 87.8011L85.3917 68.8148C86.3166 68.3494 86.9598 67.4688 87.126 66.4522C87.2922 65.4356 86.9525 64.4047 86.2155 63.6744L44.722 22.566C44.1077 21.9574 43.2839 21.6281 42.4312 21.6281Z" fill="#1A1B3A"/>
<path d="M46.1961 84.9303L37.0765 75.9025L74.8051 56.9161L83.9175 65.944L46.1961 84.9303Z" fill="#0D5988"/>
<path d="M25.7095 99.4063C20.998 104.074 2 106 2 106C2 106 3.94388 87.1783 8.65543 82.5105C13.367 77.8426 20.998 77.8426 25.7095 82.5105C30.4139 87.1783 30.4139 94.7385 25.7095 99.4063Z" fill="#8CD3F6" stroke="#1A1B3A" stroke-width="3" stroke-miterlimit="10" stroke-linecap="round" stroke-linejoin="round"/>
<path d="M20.1597 95.3899C18.1002 97.4303 9.80441 98.268 9.80441 98.268C9.80441 98.268 10.6571 90.0491 12.7094 88.0087C14.7689 85.9684 18.1002 85.9684 20.1525 88.0087C22.212 90.0491 22.212 93.3496 20.1597 95.3899Z" fill="#0673B0" stroke="#1A1B3A" stroke-width="3" stroke-miterlimit="10" stroke-linecap="round" stroke-linejoin="round"/>
<path d="M17.1792 74.0646L11.3081 79.8812L28.3592 96.7742L34.2303 90.9576L17.1792 74.0646Z" fill="#1A1B3A"/>
<path d="M21.6999 60.6707L10.7089 71.5598L36.7634 97.3725L47.7544 86.4834L21.6999 60.6707Z" fill="#8CD3F6" stroke="#1A1B3A" stroke-width="3" stroke-miterlimit="10" stroke-linecap="round" stroke-linejoin="round"/>
<path d="M29.301 68.192L18.3098 79.0883" stroke="#1A1B3A" stroke-width="3" stroke-miterlimit="10" stroke-linecap="round" stroke-linejoin="round"/>
<path d="M34.728 73.5757L23.7368 84.4649" stroke="#1A1B3A" stroke-width="3" stroke-miterlimit="10" stroke-linecap="round" stroke-linejoin="round"/>
<path d="M40.1622 78.9523L29.1709 89.8487" stroke="#1A1B3A" stroke-width="3" stroke-miterlimit="10" stroke-linecap="round" stroke-linejoin="round"/>
<path d="M55.771 67.8841L63.9945 79.6682H91.3822" stroke="#1A1B3A" stroke-width="4" stroke-miterlimit="10" stroke-linecap="round" stroke-linejoin="round"/>
<path d="M54.5425 73.6115C59.7599 73.6115 63.9945 69.4233 63.9945 64.2472C63.9945 59.0782 59.7671 54.8829 54.5425 54.8829C49.3251 54.8829 45.0905 59.071 45.0905 64.2472C45.0977 69.4233 49.3251 73.6115 54.5425 73.6115Z" fill="#1A1B3A"/>
<path d="M105.054 73.6115H96.8309L90.6018 79.9976L96.8309 85.725H105.054" stroke="#1A1B3A" stroke-width="4" stroke-miterlimit="10" stroke-linecap="round" stroke-linejoin="round"/>
</svg>
