<svg width="130" height="134" viewBox="0 0 130 134" fill="none" xmlns="http://www.w3.org/2000/svg">
<path d="M15.1102 77.4765V70.6264C15.1102 58.8461 24.6597 49.2961 36.4395 49.2961H93.3931C105.173 49.2961 114.722 58.8461 114.722 70.6264V77.4765" stroke="#1A1B3A" stroke-width="4" stroke-miterlimit="10" stroke-linecap="round" stroke-linejoin="round"/>
<path d="M102.305 89.8856C102.305 83.0355 107.856 77.4765 114.714 77.4765C121.564 77.4765 127.123 83.0271 127.123 89.8856" stroke="#1A1B3A" stroke-width="4" stroke-miterlimit="10" stroke-linecap="round" stroke-linejoin="round"/>
<path d="M2.7016 89.8856C2.7016 83.0355 8.25191 77.4765 15.1102 77.4765C21.9684 77.4765 27.5187 83.0271 27.5187 89.8856" stroke="#1A1B3A" stroke-width="4" stroke-miterlimit="10" stroke-linecap="round" stroke-linejoin="round"/>
<path d="M64.9121 98.4462C55.5805 98.4462 46.5759 92.0572 39.5668 80.453C33.2367 69.9808 29.4638 56.4565 29.4638 44.2738C29.4638 35.3694 31.5012 27.1442 35.3663 20.5036C41.7047 9.58695 52.4784 3.3237 64.9121 3.3237C77.3458 3.3237 88.1194 9.58695 94.4578 20.5036C98.3229 27.1442 100.36 35.361 100.36 44.2738C100.36 56.4565 96.5874 69.9808 90.2574 80.453C83.2398 92.0488 74.2436 98.4462 64.9121 98.4462Z" fill="#8CD3F6"/>
<path d="M64.9121 5.20185C76.5576 5.20185 86.8115 11.0794 92.8313 21.4427C96.403 27.5802 98.4822 35.2856 98.4822 44.2654C98.4822 68.4212 83.4578 96.5597 64.9121 96.5597C46.3747 96.5597 31.3419 68.4212 31.3419 44.2654C31.3419 35.2856 33.4212 27.5802 36.9928 21.4427C43.0042 11.0878 53.2665 5.20185 64.9121 5.20185ZM64.9121 1.43719C58.5149 1.43719 52.3107 3.08056 46.9532 6.18284C41.5789 9.2935 37.0096 13.9218 33.7314 19.5562C29.707 26.4818 27.5774 35.0256 27.5774 44.2738C27.5774 56.7835 31.4593 70.6767 37.9486 81.4257C41.3609 87.0685 45.268 91.5709 49.5774 94.799C54.4654 98.463 59.6216 100.324 64.9037 100.324C70.1857 100.324 75.342 98.463 80.2299 94.799C84.5394 91.5626 88.4548 87.0601 91.8587 81.4257C98.3565 70.6767 102.23 56.7835 102.23 44.2738C102.23 35.034 100.1 26.4818 96.076 19.5562C92.8062 13.9218 88.2368 9.30189 82.8625 6.18284C77.5135 3.08056 71.3008 1.43719 64.9121 1.43719Z" fill="#1A1B3A"/>
<path d="M92.8313 21.4427C90.7604 17.8793 88.1865 14.8357 85.2269 12.3958C87.8344 17.9799 89.3184 24.6456 89.3184 32.2252C89.3184 56.3811 74.2856 84.5196 55.7482 84.5196C50.0805 84.5196 44.7398 81.8868 40.053 77.5436C46.1902 88.6196 55.0607 96.5681 64.9121 96.5681C83.4494 96.5681 98.4822 68.4296 98.4822 44.2738C98.4739 35.2856 96.3946 27.5802 92.8313 21.4427Z" fill="#4CB2DC"/>
<path d="M92.8313 18.6758V34.6567C92.8313 50.0759 80.3305 62.5772 64.912 62.5772C57.207 62.5772 50.223 59.4498 45.1673 54.4023C40.1117 49.3464 36.9844 42.3705 36.9844 34.6567V18.6758C43.0042 8.31252 53.2581 2.43497 64.9037 2.43497C76.5576 2.43497 86.8115 8.31252 92.8313 18.6758Z" fill="#0673B0" stroke="#1A1B3A" stroke-width="4" stroke-miterlimit="10" stroke-linecap="round" stroke-linejoin="round"/>
<path d="M76.3816 39.7964C76.3816 46.1352 71.2421 51.2749 64.9037 51.2749C58.5652 51.2749 53.4258 46.1352 53.4258 39.7964C53.4258 33.4577 58.5652 28.318 64.9037 28.318C71.2421 28.318 76.3816 33.4577 76.3816 39.7964Z" fill="#8CD3F6" stroke="#1A1B3A" stroke-width="4" stroke-miterlimit="10" stroke-linecap="round" stroke-linejoin="round"/>
<path d="M67.3686 38.8322C67.3686 41.0541 65.566 42.8568 63.3442 42.8568C61.1224 42.8568 59.3198 41.0541 59.3198 38.8322C59.3198 36.6103 61.1224 34.8076 63.3442 34.8076C65.5744 34.816 67.3686 36.6103 67.3686 38.8322Z" fill="white"/>
<path d="M76.3397 111.199C76.3397 117.513 64.9121 131.557 64.9121 131.557C64.9121 131.557 53.4845 117.513 53.4845 111.199C53.4845 104.886 58.5988 99.771 64.9121 99.771C71.2253 99.771 76.3397 104.886 76.3397 111.199Z" fill="#8CD3F6" stroke="#1A1B3A" stroke-width="3" stroke-miterlimit="10" stroke-linecap="round" stroke-linejoin="round"/>
<path d="M69.9006 112.197C69.9006 114.955 64.9121 121.085 64.9121 121.085C64.9121 121.085 59.9235 114.955 59.9235 112.197C59.9235 109.438 62.1537 107.208 64.9121 107.208C67.6621 107.208 69.9006 109.438 69.9006 112.197Z" fill="#0673B0" stroke="#1A1B3A" stroke-width="3" stroke-miterlimit="10" stroke-linecap="round" stroke-linejoin="round"/>
<path d="M86.7444 99.771H43.063V107.644H86.7444V99.771Z" fill="#1A1B3A"/>
<path d="M92.3115 87.6721H37.5126V102.412H92.3115V87.6721Z" fill="#F6B700" stroke="#1A1B3A" stroke-width="3" stroke-miterlimit="10" stroke-linecap="round" stroke-linejoin="round"/>
<path d="M43.063 89.9276V102.412" stroke="#1A1B3A" stroke-width="3" stroke-miterlimit="10" stroke-linecap="round" stroke-linejoin="round"/>
<path d="M50.3488 89.9276V102.412" stroke="#1A1B3A" stroke-width="3" stroke-miterlimit="10" stroke-linecap="round" stroke-linejoin="round"/>
<path d="M57.6263 89.9276V102.412" stroke="#1A1B3A" stroke-width="3" stroke-miterlimit="10" stroke-linecap="round" stroke-linejoin="round"/>
<path d="M64.9121 89.9276V102.412" stroke="#1A1B3A" stroke-width="3" stroke-miterlimit="10" stroke-linecap="round" stroke-linejoin="round"/>
<path d="M72.1895 89.9276V102.412" stroke="#1A1B3A" stroke-width="3" stroke-miterlimit="10" stroke-linecap="round" stroke-linejoin="round"/>
<path d="M79.467 89.9276V102.412" stroke="#1A1B3A" stroke-width="3" stroke-miterlimit="10" stroke-linecap="round" stroke-linejoin="round"/>
<path d="M86.7528 89.9276V102.412" stroke="#1A1B3A" stroke-width="3" stroke-miterlimit="10" stroke-linecap="round" stroke-linejoin="round"/>
</svg>
