<svg width="119" height="126" viewBox="0 0 119 126" fill="none" xmlns="http://www.w3.org/2000/svg">
<path d="M105.049 19.654V48.6046C105.049 59.4757 96.3017 68.2777 85.5082 68.2777H33.3384C22.545 68.2777 13.7975 59.4674 13.7975 48.6046V19.654" stroke="#1A1B3A" stroke-width="4" stroke-miterlimit="10" stroke-linecap="round" stroke-linejoin="round"/>
<path d="M25.1709 8.20724C25.1709 14.5313 20.0848 19.654 13.8058 19.654C7.52689 19.654 2.4408 14.5313 2.4408 8.20724" stroke="#1A1B3A" stroke-width="4" stroke-miterlimit="10" stroke-linecap="round" stroke-linejoin="round"/>
<path d="M116.414 8.20724C116.414 14.5313 111.328 19.654 105.049 19.654C98.7702 19.654 93.6841 14.5313 93.6841 8.20724" stroke="#1A1B3A" stroke-width="4" stroke-miterlimit="10" stroke-linecap="round" stroke-linejoin="round"/>
<path d="M32.6758 114.774C31.6486 114.774 30.8203 113.931 30.8203 112.905V64.9988C30.8203 63.9643 31.6569 63.13 32.6758 63.13H88.1921C89.2193 63.13 90.0476 63.9726 90.0476 64.9988V112.897C90.0476 113.931 89.211 114.766 88.1921 114.766H32.6758V114.774Z" fill="#F6B700"/>
<path d="M88.1921 64.9988V112.897H32.6758V64.9905H88.1921M88.1921 61.2528H32.6758C30.6214 61.2528 28.9565 62.9297 28.9565 64.9988V112.897C28.9565 114.966 30.6214 116.643 32.6758 116.643H88.1921C90.2464 116.643 91.9114 114.966 91.9114 112.897V64.9905C91.9114 62.9297 90.2464 61.2528 88.1921 61.2528Z" fill="#1A1B3A"/>
<path d="M88.1921 64.9988H69.4547V112.905H88.1921V64.9988Z" fill="#CE9900"/>
<path d="M43.2539 95.6097C42.2267 95.6097 41.3983 94.7671 41.3983 93.7409V74.6018C41.3983 73.5672 42.235 72.7329 43.2539 72.7329H77.614C78.6412 72.7329 79.4695 73.5756 79.4695 74.6018V93.7325C79.4695 94.7671 78.6329 95.6014 77.614 95.6014H43.2539V95.6097Z" fill="#F6B700"/>
<path d="M77.614 74.6018V93.7325H43.2539V74.6018H77.614ZM77.614 70.8557H43.2539C41.1995 70.8557 39.5345 72.5327 39.5345 74.6018V93.7325C39.5345 95.8016 41.1995 97.4786 43.2539 97.4786H77.614C79.6684 97.4786 81.3333 95.8016 81.3333 93.7325V74.6018C81.3333 72.5327 79.6684 70.8557 77.614 70.8557Z" fill="#1A1B3A"/>
<path d="M85.1852 37.1579V7.2728" stroke="#1A1B3A" stroke-width="4" stroke-miterlimit="10" stroke-linecap="round" stroke-linejoin="round"/>
<path d="M85.1852 12.4622C88.5065 12.4622 91.199 9.75037 91.199 6.40513C91.199 3.05988 88.5065 0.348022 85.1852 0.348022C81.8638 0.348022 79.1713 3.05988 79.1713 6.40513C79.1713 9.75037 81.8638 12.4622 85.1852 12.4622Z" fill="#1A1B3A"/>
<path d="M35.6827 37.1579V7.2728" stroke="#1A1B3A" stroke-width="4" stroke-miterlimit="10" stroke-linecap="round" stroke-linejoin="round"/>
<path d="M35.6827 12.4622C39.004 12.4622 41.6965 9.75037 41.6965 6.40513C41.6965 3.05988 39.004 0.348022 35.6827 0.348022C32.3613 0.348022 29.6688 3.05988 29.6688 6.40513C29.6688 9.75037 32.3613 12.4622 35.6827 12.4622Z" fill="#1A1B3A"/>
<path d="M60.434 61.0609C45.7638 61.0609 33.8189 49.0385 33.8189 34.2545C33.8189 19.4705 45.7555 7.44803 60.434 7.44803C75.1041 7.44803 87.049 19.4705 87.049 34.2545C87.049 49.0385 75.1041 61.0609 60.434 61.0609Z" fill="#F6B700"/>
<path d="M60.434 9.32522C74.1018 9.32522 85.1852 20.4883 85.1852 34.2545C85.1852 48.0206 74.1018 59.1837 60.434 59.1837C46.7661 59.1837 35.6827 48.0206 35.6827 34.2545C35.6827 20.4883 46.7661 9.32522 60.434 9.32522ZM60.434 5.57916C44.7366 5.57916 31.9634 18.4443 31.9634 34.2545C31.9634 50.0647 44.7366 62.9298 60.434 62.9298C76.1313 62.9298 88.9045 50.0647 88.9045 34.2545C88.9045 18.4443 76.1313 5.57916 60.434 5.57916Z" fill="#1A1B3A"/>
<path d="M60.434 9.32523C58.5453 9.32523 56.7064 9.54215 54.942 9.95096C65.9674 12.4706 74.2012 22.3906 74.2012 34.2545C74.2012 46.1184 65.9674 56.0467 54.942 58.558C56.7064 58.9584 58.5453 59.1837 60.434 59.1837C74.1018 59.1837 85.1852 48.0206 85.1852 34.2545C85.1852 20.4883 74.1018 9.32523 60.434 9.32523Z" fill="#CE9900"/>
<path d="M78.6164 34.438C78.6164 39.1519 74.8225 42.973 70.1423 42.973H50.7256C46.0454 42.973 42.2516 39.1519 42.2516 34.438C42.2516 29.7241 46.0454 25.903 50.7256 25.903H70.1423C74.8225 25.903 78.6164 29.7241 78.6164 34.438Z" fill="#8CD3F6" stroke="#1A1B3A" stroke-width="4" stroke-miterlimit="10" stroke-linecap="round" stroke-linejoin="round"/>
<path d="M59.4316 34.3963C59.4316 36.5238 57.7252 38.2425 55.6129 38.2425C53.5006 38.2425 51.7942 36.5238 51.7942 34.3963C51.7942 32.2688 53.5006 30.5501 55.6129 30.5501C57.7169 30.5501 59.4316 32.2688 59.4316 34.3963Z" fill="white"/>
<path d="M67.9057 87.5169C70.0101 87.5169 71.7161 85.7987 71.7161 83.6791C71.7161 81.5595 70.0101 79.8412 67.9057 79.8412C65.8013 79.8412 64.0953 81.5595 64.0953 83.6791C64.0953 85.7987 65.8013 87.5169 67.9057 87.5169Z" fill="#1A1B3A"/>
<path d="M106.557 111.245C110.207 111.245 113.167 108.264 113.167 104.587C113.167 100.91 110.207 97.9291 106.557 97.9291C102.906 97.9291 99.9464 100.91 99.9464 104.587C99.9464 108.264 102.906 111.245 106.557 111.245Z" fill="#1A1B3A"/>
<path d="M106.557 117.027C106.557 121.307 103.111 124.769 98.8696 124.769C94.6201 124.769 91.1824 121.298 91.1824 117.027V92.1557C91.1824 87.8757 94.6284 84.4133 98.8696 84.4133C103.119 84.4133 106.557 87.884 106.557 92.1557V117.027Z" fill="#0673B0" stroke="#1A1B3A" stroke-width="2" stroke-miterlimit="10" stroke-linecap="round" stroke-linejoin="round"/>
<path d="M92.4415 91.263H104.95" stroke="#1A1B3A" stroke-width="2" stroke-miterlimit="10" stroke-linecap="round" stroke-linejoin="round"/>
<path d="M92.4415 97.9291H104.95" stroke="#1A1B3A" stroke-width="2" stroke-miterlimit="10" stroke-linecap="round" stroke-linejoin="round"/>
<path d="M92.4415 104.587H104.95" stroke="#1A1B3A" stroke-width="2" stroke-miterlimit="10" stroke-linecap="round" stroke-linejoin="round"/>
<path d="M92.4415 111.245H104.95" stroke="#1A1B3A" stroke-width="2" stroke-miterlimit="10" stroke-linecap="round" stroke-linejoin="round"/>
<path d="M92.4415 117.903H104.95" stroke="#1A1B3A" stroke-width="2" stroke-miterlimit="10" stroke-linecap="round" stroke-linejoin="round"/>
<path d="M14.3111 111.245C17.9619 111.245 20.9214 108.264 20.9214 104.587C20.9214 100.91 17.9619 97.9291 14.3111 97.9291C10.6604 97.9291 7.70084 100.91 7.70084 104.587C7.70084 108.264 10.6604 111.245 14.3111 111.245Z" fill="#1A1B3A"/>
<path d="M14.3111 117.027C14.3111 121.307 17.7571 124.769 21.9982 124.769C26.2477 124.769 29.6854 121.298 29.6854 117.027V92.1557C29.6854 87.8757 26.2394 84.4133 21.9982 84.4133C17.7488 84.4133 14.3111 87.884 14.3111 92.1557V117.027Z" fill="#0673B0" stroke="#1A1B3A" stroke-width="2" stroke-miterlimit="10" stroke-linecap="round" stroke-linejoin="round"/>
<path d="M28.4263 91.263H15.9098" stroke="#1A1B3A" stroke-width="2" stroke-miterlimit="10" stroke-linecap="round" stroke-linejoin="round"/>
<path d="M28.4263 97.9291H15.9098" stroke="#1A1B3A" stroke-width="2" stroke-miterlimit="10" stroke-linecap="round" stroke-linejoin="round"/>
<path d="M28.4263 104.587H15.9098" stroke="#1A1B3A" stroke-width="2" stroke-miterlimit="10" stroke-linecap="round" stroke-linejoin="round"/>
<path d="M28.4263 111.245H15.9098" stroke="#1A1B3A" stroke-width="2" stroke-miterlimit="10" stroke-linecap="round" stroke-linejoin="round"/>
<path d="M28.4263 117.903H15.9098" stroke="#1A1B3A" stroke-width="2" stroke-miterlimit="10" stroke-linecap="round" stroke-linejoin="round"/>
</svg>
