<svg width="122" height="145" viewBox="0 0 122 145" fill="none" xmlns="http://www.w3.org/2000/svg">
<path d="M96.3889 40.1982L111.134 50.4711V84.6976" stroke="#1A1B3A" stroke-width="4" stroke-miterlimit="10" stroke-linecap="round" stroke-linejoin="round"/>
<path d="M103.55 38.6697C103.55 45.1926 98.3035 50.4794 91.8301 50.4794C85.3566 50.4794 80.1098 45.1926 80.1098 38.6697C80.1098 32.1468 85.3566 26.86 91.8301 26.86C98.3118 26.86 103.55 32.1468 103.55 38.6697Z" fill="#1A1B3A"/>
<path d="M103.55 101.777V91.5044L111.549 83.7287L118.719 91.5044V101.777" stroke="#1A1B3A" stroke-width="4" stroke-miterlimit="10" stroke-linecap="round" stroke-linejoin="round"/>
<path d="M26.1336 40.1982L11.3797 50.4711V84.6976" stroke="#1A1B3A" stroke-width="4" stroke-miterlimit="10" stroke-linecap="round" stroke-linejoin="round"/>
<path d="M18.9639 38.6697C18.9639 45.1926 24.2106 50.4794 30.6841 50.4794C37.1576 50.4794 42.4044 45.1926 42.4044 38.6697C42.4044 32.1468 37.1576 26.86 30.6841 26.86C24.2106 26.86 18.9639 32.1468 18.9639 38.6697Z" fill="#1A1B3A"/>
<path d="M18.9639 101.777V91.5044L10.9653 83.7287L3.79553 91.5044V101.777" stroke="#1A1B3A" stroke-width="4" stroke-miterlimit="10" stroke-linecap="round" stroke-linejoin="round"/>
<path d="M31.1815 106.847C30.1537 106.847 29.3165 106.003 29.3165 104.968V33.3829C29.3165 16.0108 43.6477 1.87085 61.2613 1.87085C78.8748 1.87085 93.206 16.0024 93.206 33.3829V104.976C93.206 106.012 92.3688 106.855 91.341 106.855H31.1815V106.847Z" fill="#8CD3F6"/>
<path d="M61.2612 3.75004C77.8719 3.75004 91.341 17.0214 91.341 33.3829V104.976H31.1815V33.3829C31.1815 17.0214 44.6424 3.75004 61.2612 3.75004ZM61.2612 0C42.6199 0 27.4598 14.9751 27.4598 33.3829V104.976C27.4598 107.047 29.1259 108.726 31.1815 108.726H91.341C93.3966 108.726 95.0627 107.047 95.0627 104.976V33.3829C95.0627 14.9751 79.8943 0 61.2612 0Z" fill="#1A1B3A"/>
<path d="M61.2612 3.75003C58.7415 3.75003 56.2963 4.05905 53.9589 4.63534C67.0385 7.85086 76.7363 19.5019 76.7363 33.3829V104.976H91.3493V33.3829C91.341 17.0213 77.8718 3.75003 61.2612 3.75003Z" fill="#4CB2DC"/>
<path d="M99.1076 113.27C99.1076 117.855 95.4191 121.572 90.8686 121.572H31.6457C27.0952 121.572 23.4067 117.855 23.4067 113.27C23.4067 108.684 27.0952 104.968 31.6457 104.968H90.8769C95.4191 104.976 99.1076 108.693 99.1076 113.27Z" fill="#0673B0" stroke="#1A1B3A" stroke-width="44.9009" stroke-miterlimit="10" stroke-linecap="round" stroke-linejoin="round"/>
<path d="M48.6375 113.27C48.6375 117.629 45.1314 121.162 40.8047 121.162C36.478 121.162 32.9719 117.629 32.9719 113.27C32.9719 108.91 36.478 105.377 40.8047 105.377C45.1397 105.385 48.6375 108.918 48.6375 113.27Z" fill="#F6B700" stroke="#1A1B3A" stroke-width="2" stroke-miterlimit="10" stroke-linecap="round" stroke-linejoin="round"/>
<path d="M43.5897 113.27C43.5897 114.815 42.3464 116.068 40.813 116.068C39.2796 116.068 38.0363 114.815 38.0363 113.27C38.0363 111.725 39.2796 110.472 40.813 110.472C42.3464 110.472 43.5897 111.733 43.5897 113.27Z" fill="#1A1B3A"/>
<path d="M69.0859 113.27C69.0859 117.629 65.5797 121.162 61.253 121.162C56.9263 121.162 53.4202 117.629 53.4202 113.27C53.4202 108.91 56.9263 105.377 61.253 105.377C65.5797 105.377 69.0859 108.918 69.0859 113.27Z" fill="#F6B700" stroke="#1A1B3A" stroke-width="2" stroke-miterlimit="10" stroke-linecap="round" stroke-linejoin="round"/>
<path d="M64.0298 113.27C64.0298 114.815 62.7865 116.068 61.253 116.068C59.7196 116.068 58.4763 114.815 58.4763 113.27C58.4763 111.725 59.7196 110.472 61.253 110.472C62.7865 110.472 64.0298 111.733 64.0298 113.27Z" fill="#1A1B3A"/>
<path d="M89.5341 113.27C89.5341 117.629 86.028 121.162 81.7013 121.162C77.3745 121.162 73.8684 117.629 73.8684 113.27C73.8684 108.91 77.3745 105.377 81.7013 105.377C86.028 105.385 89.5341 108.918 89.5341 113.27Z" fill="#F6B700" stroke="#1A1B3A" stroke-width="2" stroke-miterlimit="10" stroke-linecap="round" stroke-linejoin="round"/>
<path d="M84.478 113.27C84.478 114.815 83.2347 116.068 81.7013 116.068C80.1678 116.068 78.9245 114.815 78.9245 113.27C78.9245 111.725 80.1678 110.472 81.7013 110.472C83.2347 110.48 84.478 111.733 84.478 113.27Z" fill="#1A1B3A"/>
<path d="M55.1773 33.4581C55.1773 38.0183 51.5054 41.7182 46.9798 41.7182C42.4541 41.7182 38.7822 38.0183 38.7822 33.4581C38.7822 28.8979 42.4541 25.198 46.9798 25.198C51.5054 25.198 55.1773 28.8979 55.1773 33.4581Z" fill="white" stroke="#1A1B3A" stroke-width="3" stroke-miterlimit="10" stroke-linecap="round" stroke-linejoin="round"/>
<path d="M50.4942 33.4581C50.4942 35.4125 48.9193 36.9993 46.9798 36.9993C45.0402 36.9993 43.4653 35.4125 43.4653 33.4581C43.4653 31.5037 45.0402 29.9168 46.9798 29.9168C48.9193 29.9168 50.4942 31.5037 50.4942 33.4581Z" fill="#1A1B3A"/>
<path d="M83.7402 33.4581C83.7402 38.0183 80.0683 41.7182 75.5427 41.7182C71.0171 41.7182 67.3452 38.0183 67.3452 33.4581C67.3452 28.8979 71.0171 25.198 75.5427 25.198C80.0683 25.198 83.7402 28.8979 83.7402 33.4581Z" fill="white" stroke="#1A1B3A" stroke-width="3" stroke-miterlimit="10" stroke-linecap="round" stroke-linejoin="round"/>
<path d="M79.0489 33.4581C79.0489 35.4125 77.474 36.9993 75.5344 36.9993C73.5949 36.9993 72.02 35.4125 72.02 33.4581C72.02 31.5037 73.5949 29.9168 75.5344 29.9168C77.474 29.9168 79.0489 31.5037 79.0489 33.4581Z" fill="#1A1B3A"/>
<path d="M45.7447 59.9172H40.7798V64.92H45.7447V59.9172Z" fill="#1A1B3A"/>
<path d="M52.9476 59.9172H47.9827V64.92H52.9476V59.9172Z" fill="#1A1B3A"/>
<path d="M60.1423 59.9172H55.1773V64.92H60.1423V59.9172Z" fill="#1A1B3A"/>
<path d="M67.3368 59.9172H62.3719V64.92H67.3368V59.9172Z" fill="#1A1B3A"/>
<path d="M74.5398 59.9172H69.5748V64.92H74.5398V59.9172Z" fill="#1A1B3A"/>
<path d="M81.7344 59.9172H76.7694V64.92H81.7344V59.9172Z" fill="#1A1B3A"/>
</svg>
