<svg width="126" height="131" viewBox="0 0 126 131" fill="none" xmlns="http://www.w3.org/2000/svg">
<path d="M103.338 33.8329L116.699 42.9906V62.3302" stroke="#1A1B3A" stroke-width="4" stroke-miterlimit="10" stroke-linecap="round" stroke-linejoin="round"/>
<path d="M109.835 32.4703C109.835 38.2848 105.08 42.9906 99.2231 42.9906C93.3665 42.9906 88.6112 38.2764 88.6112 32.4703C88.6112 26.6557 93.3665 21.9499 99.2231 21.9499C105.08 21.9499 109.835 26.6557 109.835 32.4703Z" fill="#1A1B3A"/>
<path d="M109.835 77.5563V68.3986L117.075 61.4669L123.572 68.3986V77.5563" stroke="#1A1B3A" stroke-width="4" stroke-miterlimit="10" stroke-linecap="round" stroke-linejoin="round"/>
<path d="M22.2249 33.8329L8.86401 42.9906V62.3302" stroke="#1A1B3A" stroke-width="4" stroke-miterlimit="10" stroke-linecap="round" stroke-linejoin="round"/>
<path d="M15.728 32.4703C15.728 38.2848 20.4833 42.9906 26.3399 42.9906C32.2051 42.9906 36.9518 38.2764 36.9518 32.4703C36.9518 26.6557 32.1965 21.9499 26.3399 21.9499C20.4833 21.9499 15.728 26.6557 15.728 32.4703Z" fill="#1A1B3A"/>
<path d="M15.728 77.5563V68.3986L8.48837 61.4669L2 68.3986V77.5563" stroke="#1A1B3A" stroke-width="4" stroke-miterlimit="10" stroke-linecap="round" stroke-linejoin="round"/>
<path d="M31.8038 115.203C30.7452 115.203 29.8915 114.348 29.8915 113.307V40.7562C29.8915 23.1518 44.6525 8.82275 62.7944 8.82275C80.9362 8.82275 95.6972 23.1433 95.6972 40.7562V113.307C95.6972 114.356 94.835 115.203 93.7763 115.203H31.8038Z" fill="#F6B700"/>
<path d="M62.7858 10.7186C79.8946 10.7186 93.7678 24.1674 93.7678 40.7478V113.298H31.8038V40.7562C31.8038 24.1674 45.6685 10.7186 62.7858 10.7186ZM62.7858 6.91843C43.5854 6.91843 27.9706 22.0938 27.9706 40.7478V113.298C27.9706 115.397 29.6866 117.099 31.8038 117.099H93.7678C95.8851 117.099 97.6011 115.397 97.6011 113.298V40.7562C97.6011 22.1023 81.9777 6.91843 62.7858 6.91843Z" fill="#1A1B3A"/>
<path d="M62.7858 10.7186C60.1904 10.7186 57.6719 11.0318 55.2644 11.6158C68.7363 14.8743 78.725 26.6811 78.725 40.7478V113.298H93.7763V40.7562C93.7678 24.1674 79.8946 10.7186 62.7858 10.7186Z" fill="#CE9900"/>
<path d="M56.5194 10.7186C56.5194 15.3398 52.7374 19.0892 48.076 19.0892C43.4146 19.0892 39.6326 15.3398 39.6326 10.7186C39.6326 6.09743 43.4146 2.34802 48.076 2.34802C52.7374 2.34802 56.5194 6.09743 56.5194 10.7186Z" fill="#FDFADE" stroke="#1A1B3A" stroke-width="4" stroke-miterlimit="10" stroke-linecap="round" stroke-linejoin="round"/>
<path d="M51.6958 10.7186C51.6958 12.6991 50.0737 14.3072 48.076 14.3072C46.0783 14.3072 44.4562 12.6991 44.4562 10.7186C44.4562 8.7381 46.0783 7.13 48.076 7.13C50.0737 7.13847 51.6958 8.7381 51.6958 10.7186Z" fill="#1A1B3A"/>
<path d="M85.939 10.7186C85.939 15.3398 82.157 19.0892 77.4956 19.0892C72.8342 19.0892 69.0522 15.3398 69.0522 10.7186C69.0522 6.09743 72.8342 2.34802 77.4956 2.34802C82.157 2.34802 85.939 6.09743 85.939 10.7186Z" fill="#FDFADE" stroke="#1A1B3A" stroke-width="4" stroke-miterlimit="10" stroke-linecap="round" stroke-linejoin="round"/>
<path d="M81.1069 10.7186C81.1069 12.6991 79.4848 14.3072 77.4871 14.3072C75.4893 14.3072 73.8672 12.6991 73.8672 10.7186C73.8672 8.7381 75.4893 7.13 77.4871 7.13C79.4848 7.13847 81.1069 8.7381 81.1069 10.7186Z" fill="#1A1B3A"/>
<path d="M113.37 114.949C117.132 114.949 120.182 111.925 120.182 108.195C120.182 104.465 117.132 101.441 113.37 101.441C109.607 101.441 106.557 104.465 106.557 108.195C106.557 111.925 109.607 114.949 113.37 114.949Z" fill="#1A1B3A"/>
<path d="M113.37 120.814C113.37 125.156 109.818 128.669 105.447 128.669C101.067 128.669 97.5242 125.148 97.5242 120.814V95.584C97.5242 91.2421 101.076 87.7297 105.447 87.7297C109.827 87.7297 113.37 91.2506 113.37 95.584V120.814Z" fill="#0673B0" stroke="#1A1B3A" stroke-width="3" stroke-miterlimit="10" stroke-linecap="round" stroke-linejoin="round"/>
<path d="M98.8219 94.6784H111.713" stroke="#1A1B3A" stroke-width="3" stroke-miterlimit="10" stroke-linecap="round" stroke-linejoin="round"/>
<path d="M98.8219 101.441H111.713" stroke="#1A1B3A" stroke-width="3" stroke-miterlimit="10" stroke-linecap="round" stroke-linejoin="round"/>
<path d="M98.8219 108.195H111.713" stroke="#1A1B3A" stroke-width="3" stroke-miterlimit="10" stroke-linecap="round" stroke-linejoin="round"/>
<path d="M98.8219 114.949H111.713" stroke="#1A1B3A" stroke-width="3" stroke-miterlimit="10" stroke-linecap="round" stroke-linejoin="round"/>
<path d="M98.8219 121.703H111.713" stroke="#1A1B3A" stroke-width="3" stroke-miterlimit="10" stroke-linecap="round" stroke-linejoin="round"/>
<path d="M12.1936 114.949C15.9562 114.949 19.0064 111.925 19.0064 108.195C19.0064 104.465 15.9562 101.441 12.1936 101.441C8.43099 101.441 5.3808 104.465 5.3808 108.195C5.3808 111.925 8.43099 114.949 12.1936 114.949Z" fill="#1A1B3A"/>
<path d="M12.1936 120.814C12.1936 125.156 15.7451 128.669 20.1162 128.669C24.4959 128.669 28.0389 125.148 28.0389 120.814V95.584C28.0389 91.2421 24.4874 87.7297 20.1162 87.7297C15.7366 87.7297 12.1936 91.2506 12.1936 95.584V120.814Z" fill="#0673B0" stroke="#1A1B3A" stroke-width="3" stroke-miterlimit="10" stroke-linecap="round" stroke-linejoin="round"/>
<path d="M26.7498 94.6784H13.8499" stroke="#1A1B3A" stroke-width="3" stroke-miterlimit="10" stroke-linecap="round" stroke-linejoin="round"/>
<path d="M26.7498 101.441H13.8499" stroke="#1A1B3A" stroke-width="3" stroke-miterlimit="10" stroke-linecap="round" stroke-linejoin="round"/>
<path d="M26.7498 108.195H13.8499" stroke="#1A1B3A" stroke-width="3" stroke-miterlimit="10" stroke-linecap="round" stroke-linejoin="round"/>
<path d="M26.7498 114.949H13.8499" stroke="#1A1B3A" stroke-width="3" stroke-miterlimit="10" stroke-linecap="round" stroke-linejoin="round"/>
<path d="M26.7498 121.703H13.8499" stroke="#1A1B3A" stroke-width="3" stroke-miterlimit="10" stroke-linecap="round" stroke-linejoin="round"/>
<path d="M50.7311 32.9104H44.5671V36.8545H50.7311V32.9104Z" fill="#1A1B3A"/>
<path d="M60.8222 32.9104H54.6583V36.8545H60.8222V32.9104Z" fill="#1A1B3A"/>
<path d="M70.9048 32.9104H64.7408V36.8545H70.9048V32.9104Z" fill="#1A1B3A"/>
<path d="M80.9959 32.9104H74.832V36.8545H80.9959V32.9104Z" fill="#1A1B3A"/>
<path d="M87.177 87.6027C87.177 93.6034 82.268 98.4701 76.215 98.4701H49.348C43.2951 98.4701 38.3861 93.6034 38.3861 87.6027V69.7697C38.3861 63.769 43.2951 58.9023 49.348 58.9023H76.215C82.268 58.9023 87.177 63.769 87.177 69.7697V87.6027Z" fill="#8CD3F6" stroke="#1A1B3A" stroke-width="4" stroke-miterlimit="10" stroke-linecap="round" stroke-linejoin="round"/>
<path d="M81.5423 81.7543C81.5423 83.8533 79.8263 85.5545 77.7091 85.5545C75.5918 85.5545 73.8758 83.8533 73.8758 81.7543C73.8758 79.6553 75.5918 77.9541 77.7091 77.9541C79.8263 77.9541 81.5423 79.6553 81.5423 81.7543Z" fill="#1A1B3A"/>
</svg>
