<svg width="90" height="112" viewBox="0 0 90 112" fill="none" xmlns="http://www.w3.org/2000/svg">
<path d="M73.1358 29.8983C73.1358 45.3083 60.5412 57.7966 45 57.7966C29.4588 57.7966 16.8642 45.3083 16.8642 29.8983C16.8642 14.4882 29.4588 2 45 2C60.5335 2 73.1358 14.4882 73.1358 29.8983Z" fill="#0673B0" stroke="#1A1B3A" stroke-width="4" stroke-miterlimit="10" stroke-linecap="round" stroke-linejoin="round"/>
<path d="M65.6653 20.5531C65.6653 25.8245 61.3491 30.1042 56.0328 30.1042H33.9519C28.6355 30.0966 24.3271 25.8245 24.3271 20.5531C24.3271 15.2816 28.6356 11.0019 33.9596 11.0019H56.0404C61.3568 11.0019 65.6653 15.274 65.6653 20.5531Z" fill="#8CD3F6" stroke="#1A1B3A" stroke-width="4" stroke-miterlimit="10" stroke-linecap="round" stroke-linejoin="round"/>
<path d="M43.8536 20.5073C43.8536 22.8875 41.9071 24.8099 39.5144 24.8099C37.114 24.8099 35.1752 22.8799 35.1752 20.5073C35.1752 18.1272 37.1217 16.2047 39.5144 16.2047C41.9071 16.1971 43.8536 18.1272 43.8536 20.5073Z" fill="white"/>
<path d="M13.9791 97.0769C13.025 97.0769 12.2557 96.3064 12.2557 95.3605V35.4367C12.2557 34.4908 13.0327 33.7279 13.9791 33.7279H76.0132C76.9673 33.7279 77.7366 34.4984 77.7366 35.4367V95.3605C77.7366 96.3064 76.9596 97.0769 76.0132 97.0769H13.9791Z" fill="#8CD3F6"/>
<path d="M76.0132 35.4368V95.3605H13.9791V35.4368H76.0132ZM76.0132 32.0115H13.9791C12.071 32.0115 10.5246 33.5448 10.5246 35.4368V95.3605C10.5246 97.2524 12.071 98.7858 13.9791 98.7858H76.0132C77.9213 98.7858 79.4677 97.2524 79.4677 95.3605V35.4368C79.4677 33.5448 77.9213 32.0115 76.0132 32.0115Z" fill="#1A1B3A"/>
<path d="M76.0132 35.4368H59.3333V95.3605H76.0132V35.4368Z" fill="#4CB2DC"/>
<path d="M88 100.723C88 105.842 83.8146 110 78.6445 110H11.3555C6.18537 110 2 105.85 2 100.723C2 95.5969 6.18537 91.4469 11.3555 91.4469H78.6445C83.8069 91.4469 88 95.6046 88 100.723Z" fill="#0673B0" stroke="#1A1B3A" stroke-width="4" stroke-miterlimit="10" stroke-linecap="round" stroke-linejoin="round"/>
<path d="M30.6666 101.181C30.6666 106.056 26.6813 110 21.7727 110C16.8565 110 12.8788 106.056 12.8788 101.181C12.8788 96.3064 16.8565 92.3624 21.7727 92.3624C26.6813 92.3624 30.6666 96.314 30.6666 101.181Z" fill="#F6B700" stroke="#1A1B3A" stroke-width="3" stroke-miterlimit="10" stroke-linecap="round" stroke-linejoin="round"/>
<path d="M24.9195 101.181C24.9195 102.905 23.5115 104.309 21.7651 104.309C20.0263 104.309 18.6107 102.905 18.6107 101.181C18.6107 99.4571 20.0263 98.0534 21.7651 98.0534C23.5115 98.0534 24.9195 99.4571 24.9195 101.181Z" fill="#1A1B3A"/>
<path d="M53.8939 101.181C53.8939 106.056 49.9085 110 45 110C40.0837 110 36.1061 106.056 36.1061 101.181C36.1061 96.3064 40.0914 92.3624 45 92.3624C49.9085 92.3624 53.8939 96.314 53.8939 101.181Z" fill="#F6B700" stroke="#1A1B3A" stroke-width="3" stroke-miterlimit="10" stroke-linecap="round" stroke-linejoin="round"/>
<path d="M48.1544 101.181C48.1544 102.905 46.7465 104.309 45 104.309C43.2612 104.309 41.8456 102.905 41.8456 101.181C41.8456 99.4571 43.2612 98.0534 45 98.0534C46.7388 98.0534 48.1544 99.4571 48.1544 101.181Z" fill="#1A1B3A"/>
<path d="M77.1211 101.181C77.1211 106.056 73.1358 110 68.2272 110C63.3109 110 59.3333 106.056 59.3333 101.181C59.3333 96.3064 63.3186 92.3624 68.2272 92.3624C73.1358 92.3624 77.1211 96.314 77.1211 101.181Z" fill="#F6B700" stroke="#1A1B3A" stroke-width="3" stroke-miterlimit="10" stroke-linecap="round" stroke-linejoin="round"/>
<path d="M71.3739 101.181C71.3739 102.905 69.966 104.309 68.2195 104.309C66.4808 104.309 65.0651 102.905 65.0651 101.181C65.0651 99.4571 66.4731 98.0534 68.2195 98.0534C69.966 98.0534 71.3739 99.4571 71.3739 101.181Z" fill="#1A1B3A"/>
<path d="M60.7336 49.6873H29.2587V80.8964H60.7336V49.6873Z" fill="#0673B0" stroke="#1A1B3A" stroke-width="4" stroke-miterlimit="10" stroke-linecap="round" stroke-linejoin="round"/>
<path d="M55.0634 65.2957C55.0634 67.1876 53.5169 68.721 51.6089 68.721C49.7009 68.721 48.1544 67.1876 48.1544 65.2957C48.1544 63.4037 49.7009 61.8704 51.6089 61.8704C53.5169 61.8704 55.0634 63.4037 55.0634 65.2957Z" fill="#1A1B3A"/>
</svg>
