<svg width="140" height="120" viewBox="0 0 140 120" fill="none" xmlns="http://www.w3.org/2000/svg">
<path d="M115.404 38.6203L130.325 48.8873V83.0662" stroke="#1A1B3A" stroke-width="4" stroke-miterlimit="10" stroke-linecap="round" stroke-linejoin="round"/>
<path d="M122.659 37.1024C122.659 43.6162 117.35 48.8957 110.799 48.8957C104.249 48.8957 98.9395 43.6162 98.9395 37.1024C98.9395 30.5885 104.249 25.3091 110.799 25.3091C117.35 25.3091 122.659 30.5885 122.659 37.1024Z" fill="#1A1B3A"/>
<path d="M122.659 100.122V89.8636L130.745 82.0904L138 89.8636V100.122" stroke="#1A1B3A" stroke-width="4" stroke-miterlimit="10" stroke-linecap="round" stroke-linejoin="round"/>
<path d="M24.7775 38.6203L9.85623 48.8873V83.0662" stroke="#1A1B3A" stroke-width="4" stroke-miterlimit="10" stroke-linecap="round" stroke-linejoin="round"/>
<path d="M17.5308 37.1024C17.5308 43.6162 22.84 48.8957 29.3906 48.8957C35.9413 48.8957 41.2505 43.6162 41.2505 37.1024C41.2505 30.5885 35.9413 25.3091 29.3906 25.3091C22.8316 25.3091 17.5308 30.5885 17.5308 37.1024Z" fill="#1A1B3A"/>
<path d="M17.5308 100.122V89.8636L9.43686 82.0904L2.1817 89.8636V100.122" stroke="#1A1B3A" stroke-width="4" stroke-miterlimit="10" stroke-linecap="round" stroke-linejoin="round"/>
<path d="M70.095 97.8371C45.3855 97.8371 25.2892 77.8452 25.2892 53.2827C25.2892 28.7203 45.3939 8.72842 70.095 8.72842C94.7961 8.72842 114.901 28.7203 114.901 53.2827C114.901 77.8452 94.7961 97.8371 70.095 97.8371Z" fill="#8CD3F6"/>
<path d="M70.095 10.5967C93.798 10.5967 113.022 29.7045 113.022 53.2827C113.022 76.8527 93.8064 95.9688 70.095 95.9688C46.392 95.9688 27.168 76.861 27.168 53.2827C27.168 29.7128 46.3836 10.5967 70.095 10.5967ZM70.095 6.85184C57.6229 6.85184 45.8972 11.6809 37.082 20.4467C28.2583 29.2207 23.402 40.8806 23.402 53.2827C23.402 65.6849 28.2583 77.3447 37.0736 86.1105C45.8888 94.8762 57.6145 99.7053 70.0866 99.7053C82.5588 99.7053 94.2845 94.8762 103.1 86.1105C111.915 77.3447 116.771 65.6849 116.771 53.2827C116.771 40.8806 111.915 29.2207 103.1 20.455C94.2845 11.6809 82.5672 6.85184 70.095 6.85184Z" fill="#1A1B3A"/>
<path d="M70.095 10.5967C66.891 10.5967 63.7709 10.947 60.7682 11.6142C79.9922 15.8511 94.3684 32.8989 94.3684 53.2827C94.3684 73.6666 79.9922 90.7144 60.7682 94.9513C63.7709 95.6102 66.891 95.9605 70.095 95.9605C93.798 95.9605 113.022 76.8527 113.022 53.2744C113.014 29.7128 93.798 10.5967 70.095 10.5967Z" fill="#4CB2DC"/>
<path d="M63.9386 10.5967C63.9386 15.1505 60.223 18.8453 55.6434 18.8453C51.0639 18.8453 47.3482 15.1505 47.3482 10.5967C47.3482 6.04281 51.0639 2.34802 55.6434 2.34802C60.223 2.34802 63.9386 6.04281 63.9386 10.5967Z" fill="#FDFADE" stroke="#1A1B3A" stroke-width="3" stroke-miterlimit="10" stroke-linecap="round" stroke-linejoin="round"/>
<path d="M59.1997 10.5967C59.1997 12.5483 57.6061 14.133 55.6434 14.133C53.6807 14.133 52.0871 12.5483 52.0871 10.5967C52.0871 8.64501 53.6807 7.06033 55.6434 7.06033C57.6061 7.06867 59.1997 8.64501 59.1997 10.5967Z" fill="#1A1B3A"/>
<path d="M92.8418 10.5967C92.8418 15.1505 89.1262 18.8453 84.5466 18.8453C79.9671 18.8453 76.2514 15.1505 76.2514 10.5967C76.2514 6.04281 79.9671 2.34802 84.5466 2.34802C89.1262 2.34802 92.8418 6.04281 92.8418 10.5967Z" fill="#FDFADE" stroke="#1A1B3A" stroke-width="3" stroke-miterlimit="10" stroke-linecap="round" stroke-linejoin="round"/>
<path d="M88.0945 10.5967C88.0945 12.5483 86.5009 14.133 84.5382 14.133C82.5756 14.133 80.982 12.5483 80.982 10.5967C80.982 8.64501 82.5756 7.06033 84.5382 7.06033C86.5009 7.06867 88.0945 8.64501 88.0945 10.5967Z" fill="#1A1B3A"/>
<path d="M94.058 74.3255C94.058 80.2389 89.2352 85.0346 83.2885 85.0346H56.8932C50.9464 85.0346 46.1237 80.2389 46.1237 74.3255V56.7607C46.1237 50.8474 50.9464 46.0516 56.8932 46.0516H83.2885C89.2352 46.0516 94.058 50.8474 94.058 56.7607V74.3255Z" fill="#0673B0" stroke="#1A1B3A" stroke-width="4" stroke-miterlimit="10" stroke-linecap="round" stroke-linejoin="round"/>
<path d="M88.5223 68.5707C88.5223 70.6391 86.8364 72.3155 84.7563 72.3155C82.6762 72.3155 80.9903 70.6391 80.9903 68.5707C80.9903 66.5023 82.6762 64.8258 84.7563 64.8258C86.8364 64.8258 88.5223 66.5023 88.5223 68.5707Z" fill="#1A1B3A"/>
<path d="M58.2519 26.1265H52.1962V30.0131H58.2519V26.1265Z" fill="#1A1B3A"/>
<path d="M68.1659 26.1265H62.1102V30.0131H68.1659V26.1265Z" fill="#1A1B3A"/>
<path d="M78.0715 26.1265H72.0157V30.0131H78.0715V26.1265Z" fill="#1A1B3A"/>
<path d="M87.9855 26.1265H81.9297V30.0131H87.9855V26.1265Z" fill="#1A1B3A"/>
<path d="M46.1152 110.481C46.1152 114.76 42.6261 118.221 38.3317 118.221C34.0289 118.221 30.5481 114.751 30.5481 110.481V85.6184C30.5481 81.3398 34.0373 77.8785 38.3317 77.8785C42.6344 77.8785 46.1152 81.3481 46.1152 85.6184V110.481Z" fill="#FDFADE" stroke="#1A1B3A" stroke-width="3" stroke-miterlimit="10" stroke-linecap="round" stroke-linejoin="round"/>
<path d="M31.823 84.726H44.4965" stroke="#1A1B3A" stroke-width="3" stroke-miterlimit="10" stroke-linecap="round" stroke-linejoin="round"/>
<path d="M31.823 91.3899H44.4965" stroke="#1A1B3A" stroke-width="3" stroke-miterlimit="10" stroke-linecap="round" stroke-linejoin="round"/>
<path d="M31.823 98.0455H44.4965" stroke="#1A1B3A" stroke-width="3" stroke-miterlimit="10" stroke-linecap="round" stroke-linejoin="round"/>
<path d="M31.823 104.701H44.4965" stroke="#1A1B3A" stroke-width="3" stroke-miterlimit="10" stroke-linecap="round" stroke-linejoin="round"/>
<path d="M31.823 111.357H44.4965" stroke="#1A1B3A" stroke-width="3" stroke-miterlimit="10" stroke-linecap="round" stroke-linejoin="round"/>
<path d="M109.634 110.481C109.634 114.76 106.144 118.221 101.85 118.221C97.5472 118.221 94.0664 114.751 94.0664 110.481V85.6184C94.0664 81.3398 97.5556 77.8785 101.85 77.8785C106.153 77.8785 109.634 81.3481 109.634 85.6184V110.481Z" fill="#FDFADE" stroke="#1A1B3A" stroke-width="3" stroke-miterlimit="10" stroke-linecap="round" stroke-linejoin="round"/>
<path d="M95.3413 84.726H108.006" stroke="#1A1B3A" stroke-width="3" stroke-miterlimit="10" stroke-linecap="round" stroke-linejoin="round"/>
<path d="M95.3413 91.3899H108.006" stroke="#1A1B3A" stroke-width="3" stroke-miterlimit="10" stroke-linecap="round" stroke-linejoin="round"/>
<path d="M95.3413 98.0455H108.006" stroke="#1A1B3A" stroke-width="3" stroke-miterlimit="10" stroke-linecap="round" stroke-linejoin="round"/>
<path d="M95.3413 104.701H108.006" stroke="#1A1B3A" stroke-width="3" stroke-miterlimit="10" stroke-linecap="round" stroke-linejoin="round"/>
<path d="M95.3413 111.357H108.006" stroke="#1A1B3A" stroke-width="3" stroke-miterlimit="10" stroke-linecap="round" stroke-linejoin="round"/>
</svg>
