<svg width="120" height="122" viewBox="0 0 120 122" fill="none" xmlns="http://www.w3.org/2000/svg">
<path d="M14.2503 96.6361V68.0685C14.2503 57.3412 23.0706 48.6474 33.9541 48.6474H86.5669C97.4504 48.6474 106.271 57.3412 106.271 68.0685V96.6361" stroke="#1A1B3A" stroke-width="4" stroke-miterlimit="10" stroke-linecap="round" stroke-linejoin="round"/>
<path d="M94.7943 107.931C94.7943 101.691 99.9227 96.6361 106.254 96.6361C112.585 96.6361 117.714 101.691 117.714 107.931" stroke="#1A1B3A" stroke-width="4" stroke-miterlimit="10" stroke-linecap="round" stroke-linejoin="round"/>
<path d="M2.79059 107.931C2.79059 101.691 7.91907 96.6361 14.2503 96.6361C20.5816 96.6361 25.7101 101.691 25.7101 107.931" stroke="#1A1B3A" stroke-width="4" stroke-miterlimit="10" stroke-linecap="round" stroke-linejoin="round"/>
<path d="M78.6571 20.8866C78.6571 30.9059 70.4131 39.0316 60.248 39.0316C50.0829 39.0316 41.8389 30.9059 41.8389 20.8866C41.8389 10.8674 50.0829 2.74164 60.248 2.74164C70.4214 2.74987 78.6571 10.8674 78.6571 20.8866Z" fill="#8CD3F6" stroke="#1A1B3A" stroke-width="4" stroke-miterlimit="10" stroke-linecap="round" stroke-linejoin="round"/>
<path d="M28.6084 81.6278C27.5727 81.6278 26.7374 80.7963 26.7374 79.7755V17.3877C26.7374 16.3668 27.581 15.5436 28.6084 15.5436H91.9043C92.94 15.5436 93.7836 16.3751 93.7836 17.3877V79.7755C93.7836 80.7963 92.94 81.6278 91.9043 81.6278H28.6084Z" fill="#0673B0"/>
<path d="M91.8959 17.3877V79.7755H28.6084V17.3877H91.8959ZM91.8959 13.6912H28.6084C26.537 13.6912 24.8581 15.346 24.8581 17.3877V79.7755C24.8581 81.8172 26.537 83.472 28.6084 83.472H91.9043C93.9757 83.472 95.6546 81.8172 95.6546 79.7755V17.3877C95.6462 15.346 93.9674 13.6912 91.8959 13.6912Z" fill="#1A1B3A"/>
<path d="M40.8533 17.3877H28.6084V79.7755H40.8533V17.3877Z" fill="#0D5988"/>
<path d="M91.9043 17.3877H79.6594V79.7755H91.9043V17.3877Z" fill="#0D5988"/>
<path d="M76.31 66.6113C76.31 68.0603 75.1156 69.2376 73.6455 69.2376H46.8588C45.3888 69.2376 44.1943 68.0603 44.1943 66.6113V45.412C44.1943 43.963 45.3888 42.7857 46.8588 42.7857H73.6455C75.1156 42.7857 76.31 43.963 76.31 45.412V66.6113Z" fill="#1A1B3A"/>
<path d="M55.6541 60.6508C55.6541 62.6925 53.9752 64.3473 51.9038 64.3473C49.8323 64.3473 48.1534 62.6925 48.1534 60.6508V51.3725C48.1534 49.3308 49.8323 47.676 51.9038 47.676C53.9752 47.676 55.6541 49.3308 55.6541 51.3725V60.6508Z" fill="#8CD3F6" stroke="#1A1B3A" stroke-width="4" stroke-miterlimit="10" stroke-linecap="round" stroke-linejoin="round"/>
<path d="M72.3592 60.6508C72.3592 62.6925 70.6804 64.3473 68.6089 64.3473C66.5375 64.3473 64.8586 62.6925 64.8586 60.6508V51.3725C64.8586 49.3308 66.5375 47.676 68.6089 47.676C70.6804 47.676 72.3592 49.3308 72.3592 51.3725V60.6508Z" fill="#8CD3F6" stroke="#1A1B3A" stroke-width="4" stroke-miterlimit="10" stroke-linecap="round" stroke-linejoin="round"/>
<path d="M48.1702 111.924C48.1702 116.148 44.6955 119.564 40.419 119.564C36.1341 119.564 32.6678 116.14 32.6678 111.924V87.3825C32.6678 83.1591 36.1424 79.7425 40.419 79.7425C44.7038 79.7425 48.1702 83.1674 48.1702 87.3825V111.924Z" fill="#FDFADE" stroke="#1A1B3A" stroke-width="3" stroke-miterlimit="10" stroke-linecap="round" stroke-linejoin="round"/>
<path d="M33.9374 86.5099H46.5498" stroke="#1A1B3A" stroke-width="3" stroke-miterlimit="10" stroke-linecap="round" stroke-linejoin="round"/>
<path d="M33.9374 93.0796H46.5498" stroke="#1A1B3A" stroke-width="3" stroke-miterlimit="10" stroke-linecap="round" stroke-linejoin="round"/>
<path d="M33.9374 99.6493H46.5498" stroke="#1A1B3A" stroke-width="3" stroke-miterlimit="10" stroke-linecap="round" stroke-linejoin="round"/>
<path d="M33.9374 106.227H46.5498" stroke="#1A1B3A" stroke-width="3" stroke-miterlimit="10" stroke-linecap="round" stroke-linejoin="round"/>
<path d="M33.9374 112.797H46.5498" stroke="#1A1B3A" stroke-width="3" stroke-miterlimit="10" stroke-linecap="round" stroke-linejoin="round"/>
<path d="M87.8449 111.924C87.8449 116.148 84.3702 119.564 80.0937 119.564C75.8088 119.564 72.3425 116.14 72.3425 111.924V87.3825C72.3425 83.1591 75.8172 79.7425 80.0937 79.7425C84.3786 79.7425 87.8449 83.1674 87.8449 87.3825V111.924Z" fill="#FDFADE" stroke="#1A1B3A" stroke-width="3" stroke-miterlimit="10" stroke-linecap="round" stroke-linejoin="round"/>
<path d="M73.6121 86.5099H86.2245" stroke="#1A1B3A" stroke-width="3" stroke-miterlimit="10" stroke-linecap="round" stroke-linejoin="round"/>
<path d="M73.6121 93.0796H86.2245" stroke="#1A1B3A" stroke-width="3" stroke-miterlimit="10" stroke-linecap="round" stroke-linejoin="round"/>
<path d="M73.6121 99.6493H86.2245" stroke="#1A1B3A" stroke-width="3" stroke-miterlimit="10" stroke-linecap="round" stroke-linejoin="round"/>
<path d="M73.6121 106.227H86.2245" stroke="#1A1B3A" stroke-width="3" stroke-miterlimit="10" stroke-linecap="round" stroke-linejoin="round"/>
<path d="M73.6121 112.797H86.2245" stroke="#1A1B3A" stroke-width="3" stroke-miterlimit="10" stroke-linecap="round" stroke-linejoin="round"/>
</svg>
