<svg width="106" height="106" viewBox="0 0 106 106" fill="none" xmlns="http://www.w3.org/2000/svg">
<path d="M94.1562 81.4705L68.6508 79.8509V73.3582L94.1562 67.4149V81.4705Z" fill="#0673B0" stroke="#1A1B3A" stroke-width="3" stroke-miterlimit="10" stroke-linecap="round" stroke-linejoin="round"/>
<path d="M104 77.2335C104 82.6562 94.1562 104 94.1562 104C94.1562 104 84.3124 82.6562 84.3124 77.2335C84.3124 71.8108 88.7229 67.4221 94.1562 67.4221C99.5895 67.4148 104 71.8108 104 77.2335Z" fill="#0673B0" stroke="#1A1B3A" stroke-width="3" stroke-miterlimit="10" stroke-linecap="round" stroke-linejoin="round"/>
<path d="M86.5466 85.7074C86.5466 85.7074 91.3271 77.2336 103.63 77.2336" stroke="#1A1B3A" stroke-width="3" stroke-miterlimit="10" stroke-linecap="round" stroke-linejoin="round"/>
<path d="M11.8511 81.4705L37.3565 79.8509V73.3582L11.8511 67.4149V81.4705Z" fill="#0673B0" stroke="#1A1B3A" stroke-width="3" stroke-miterlimit="10" stroke-linecap="round" stroke-linejoin="round"/>
<path d="M2 77.2336C2 82.6563 11.8438 104 11.8438 104C11.8438 104 21.6876 82.6563 21.6876 77.2336C21.6876 71.8109 17.2772 67.4221 11.8438 67.4221C6.4105 67.4149 2 71.8109 2 77.2336Z" fill="#0673B0" stroke="#1A1B3A" stroke-width="3" stroke-miterlimit="10" stroke-linecap="round" stroke-linejoin="round"/>
<path d="M19.4534 85.7074C19.4534 85.7074 14.6729 77.2336 2.36993 77.2336" stroke="#1A1B3A" stroke-width="3" stroke-miterlimit="10" stroke-linecap="round" stroke-linejoin="round"/>
<path d="M75.9991 29.5862V10.1224" stroke="#1A1B3A" stroke-width="4" stroke-miterlimit="10" stroke-linecap="round" stroke-linejoin="round"/>
<path d="M84.4937 8.46663C84.4937 13.1446 80.6925 16.9333 75.9991 16.9333C71.3057 16.9333 67.5046 13.1446 67.5046 8.46663C67.5046 3.78865 71.3057 0 75.9991 0C80.6925 0 84.4937 3.78865 84.4937 8.46663Z" fill="#1A1B3A"/>
<path d="M30.0009 29.5862V10.1224" stroke="#1A1B3A" stroke-width="4" stroke-miterlimit="10" stroke-linecap="round" stroke-linejoin="round"/>
<path d="M38.4954 8.46663C38.4954 13.1446 34.6943 16.9333 30.0008 16.9333C25.3074 16.9333 21.5063 13.1446 21.5063 8.46663C21.5063 3.78865 25.3074 0 30.0008 0C34.6943 0 38.4954 3.78865 38.4954 8.46663Z" fill="#1A1B3A"/>
<path d="M33.4901 79.4533C32.7864 79.4533 32.1626 79.005 31.945 78.3326L16.1528 30.0851C15.9932 29.5934 16.073 29.0512 16.3849 28.6318C16.6896 28.2125 17.1828 27.9594 17.7051 27.9594H88.3094C88.8317 27.9594 89.3177 28.2052 89.6296 28.6318C89.9343 29.0512 90.0213 29.5934 89.8617 30.0851L74.0696 78.3254C73.8519 78.9906 73.2281 79.4461 72.5244 79.4461H33.4901V79.4533Z" fill="#8CD3F6"/>
<path d="M88.3021 29.5862L72.5099 77.8337H33.4901L17.6979 29.5862H88.3021ZM88.3021 26.3398H17.6979C16.6533 26.3398 15.674 26.8387 15.0646 27.6774C14.4553 28.5162 14.2812 29.6007 14.6076 30.5912L30.3998 78.8387C30.8351 80.1763 32.09 81.0801 33.4973 81.0801H72.5099C73.9172 81.0801 75.1722 80.1763 75.6074 78.8387L91.3706 30.6925C91.4939 30.3454 91.5664 29.9767 91.5664 29.5862C91.5592 27.7931 90.1011 26.3398 88.3021 26.3398Z" fill="#1A1B3A"/>
<path d="M72.5099 77.8265H57.0006L72.7928 29.5862H88.3021L72.5099 77.8265Z" fill="#4CB2DC"/>
<path d="M67.5046 49.1874C67.5046 57.1696 61.0122 63.6407 53.0036 63.6407C44.9951 63.6407 38.5027 57.1696 38.5027 49.1874C38.5027 41.2052 44.9951 34.7341 53.0036 34.7341C61.0122 34.7341 67.5046 41.2052 67.5046 49.1874Z" fill="#0673B0" stroke="#1A1B3A" stroke-width="4" stroke-miterlimit="10" stroke-linecap="round" stroke-linejoin="round"/>
<path d="M56.1156 47.9727C56.1156 50.7708 53.8378 53.0411 51.0305 53.0411C48.2232 53.0411 45.9454 50.7708 45.9454 47.9727C45.9454 45.1746 48.2232 42.9043 51.0305 42.9043C53.8378 42.9043 56.1156 45.1746 56.1156 47.9727Z" fill="white"/>
<path d="M62.8474 77.2336C62.8474 82.6563 53.0036 104 53.0036 104C53.0036 104 43.1598 82.6563 43.1598 77.2336C43.1598 71.8109 47.5703 67.4221 53.0036 67.4221C58.4369 67.4221 62.8474 71.8109 62.8474 77.2336Z" fill="#0673B0" stroke="#1A1B3A" stroke-width="3" stroke-miterlimit="10" stroke-linecap="round" stroke-linejoin="round"/>
<path d="M45.5391 85.4254C45.5391 81.3187 48.876 77.9927 52.9963 77.9927C57.1167 77.9927 60.4536 81.3187 60.4536 85.4254" stroke="#1A1B3A" stroke-width="3" stroke-miterlimit="10" stroke-linecap="round" stroke-linejoin="round"/>
</svg>
