<svg width="107" height="128" viewBox="0 0 107 128" fill="none" xmlns="http://www.w3.org/2000/svg">
<path d="M66.0798 105.302C66.0798 111.585 54.7603 125.561 54.7603 125.561C54.7603 125.561 43.4409 111.585 43.4409 105.302C43.4409 99.019 48.5068 93.9293 54.7603 93.9293C61.0139 93.9293 66.0798 99.019 66.0798 105.302Z" fill="#8CD3F6" stroke="#1A1B3A" stroke-width="3" stroke-miterlimit="10" stroke-linecap="round" stroke-linejoin="round"/>
<path d="M59.7017 106.295C59.7017 109.04 54.7603 115.139 54.7603 115.139C54.7603 115.139 49.819 109.04 49.819 106.295C49.819 103.55 52.0364 101.33 54.7603 101.33C57.4843 101.33 59.7017 103.55 59.7017 106.295Z" fill="#0673B0" stroke="#1A1B3A" stroke-width="3" stroke-miterlimit="10" stroke-linecap="round" stroke-linejoin="round"/>
<path d="M76.3861 93.921H33.1179V101.756H76.3861V93.921Z" fill="#1A1B3A"/>
<path d="M76.3861 81.8893H33.1179V96.5576H76.3861V81.8893Z" fill="#8CD3F6" stroke="#1A1B3A" stroke-width="3" stroke-miterlimit="10" stroke-linecap="round" stroke-linejoin="round"/>
<path d="M40.3348 84.1337V96.5493" stroke="#1A1B3A" stroke-width="3" stroke-miterlimit="10" stroke-linecap="round" stroke-linejoin="round"/>
<path d="M47.5435 84.1337V96.5493" stroke="#1A1B3A" stroke-width="3" stroke-miterlimit="10" stroke-linecap="round" stroke-linejoin="round"/>
<path d="M54.752 84.1337V96.5493" stroke="#1A1B3A" stroke-width="3" stroke-miterlimit="10" stroke-linecap="round" stroke-linejoin="round"/>
<path d="M61.9689 84.1337V96.5493" stroke="#1A1B3A" stroke-width="3" stroke-miterlimit="10" stroke-linecap="round" stroke-linejoin="round"/>
<path d="M69.1775 84.1337V96.5493" stroke="#1A1B3A" stroke-width="3" stroke-miterlimit="10" stroke-linecap="round" stroke-linejoin="round"/>
<path d="M84.749 25.7273L97.7959 34.797V64.9681" stroke="#1A1B3A" stroke-width="4" stroke-miterlimit="10" stroke-linecap="round" stroke-linejoin="round"/>
<path d="M88.0582 31.7468C92.1057 27.6803 92.1057 21.0872 88.0582 17.0207C84.0106 12.9542 77.4483 12.9542 73.4008 17.0207C69.3533 21.0872 69.3532 27.6803 73.4008 31.7468C77.4483 35.8133 84.0106 35.8133 88.0582 31.7468Z" fill="#1A1B3A"/>
<path d="M91.0939 80.0369V70.9673L98.1613 64.1087L104.498 70.9673V80.0369" stroke="#1A1B3A" stroke-width="4" stroke-miterlimit="10" stroke-linecap="round" stroke-linejoin="round"/>
<path d="M22.6206 25.7273L9.57373 34.797V64.9681" stroke="#1A1B3A" stroke-width="4" stroke-miterlimit="10" stroke-linecap="round" stroke-linejoin="round"/>
<path d="M16.284 24.384C16.284 30.1328 20.9264 34.797 26.6484 34.797C32.3705 34.797 37.0129 30.1328 37.0129 24.384C37.0129 18.6351 32.3705 13.9709 26.6484 13.9709C20.9181 13.9709 16.284 18.6351 16.284 24.384Z" fill="#1A1B3A"/>
<path d="M16.284 80.0369V70.9673L9.20829 64.1087L2.8717 70.9673V80.0369" stroke="#1A1B3A" stroke-width="4" stroke-miterlimit="10" stroke-linecap="round" stroke-linejoin="round"/>
<path d="M53.689 90.3415C37.9929 90.3415 25.22 77.7758 25.22 62.3398V17.3919C25.22 16.3573 26.0588 15.5229 27.0803 15.5229H80.2894C81.3192 15.5229 82.158 16.3656 82.158 17.3919V62.3398C82.1497 77.7841 69.3851 90.3415 53.689 90.3415Z" fill="#0673B0"/>
<path d="M80.2894 17.3919V62.3398C80.2894 76.7745 68.3802 88.4725 53.689 88.4725C38.9977 88.4725 27.0886 76.7745 27.0886 62.3398V17.3919H80.2894ZM80.2894 13.6455H27.0803C25.0207 13.6455 23.3514 15.3226 23.3514 17.3919V62.3398C23.3514 78.8188 36.9548 92.2189 53.6807 92.2189C70.4066 92.2189 84.0099 78.8188 84.0099 62.3398V17.3919C84.0183 15.3226 82.349 13.6455 80.2894 13.6455Z" fill="#1A1B3A"/>
<path d="M53.689 88.4725C51.4633 88.4725 49.2957 88.1971 47.2278 87.6882C58.7965 84.8513 67.3671 74.5801 67.3671 62.3398V17.3919H80.2894V62.3398C80.2894 76.7745 68.3802 88.4725 53.689 88.4725Z" fill="#0D5988"/>
<path d="M71.7935 22.1812H67.4086V26.5867H71.7935V22.1812Z" fill="#1A1B3A"/>
<path d="M65.4238 22.1812H61.0388V26.5867H65.4238V22.1812Z" fill="#1A1B3A"/>
<path d="M59.0623 22.1812H54.6773V26.5867H59.0623V22.1812Z" fill="#1A1B3A"/>
<path d="M52.6924 22.1812H48.3075V26.5867H52.6924V22.1812Z" fill="#1A1B3A"/>
<path d="M46.3309 22.1812H41.946V26.5867H46.3309V22.1812Z" fill="#1A1B3A"/>
<path d="M39.9611 22.1812H35.5762V26.5867H39.9611V22.1812Z" fill="#1A1B3A"/>
<path d="M21.4662 2.08942L34.7789 15.4645" stroke="#1A1B3A" stroke-width="4" stroke-miterlimit="10" stroke-linecap="round" stroke-linejoin="round"/>
<path d="M85.9035 2.08942L72.5908 15.4645" stroke="#1A1B3A" stroke-width="4" stroke-miterlimit="10" stroke-linecap="round" stroke-linejoin="round"/>
<path d="M47.5932 43.4412C47.5932 47.9969 43.9142 51.6931 39.3797 51.6931C34.8453 51.6931 31.1663 47.9969 31.1663 43.4412C31.1663 38.8855 34.8453 35.1892 39.3797 35.1892C43.9142 35.1892 47.5932 38.8855 47.5932 43.4412Z" fill="#FDFADE" stroke="#1A1B3A" stroke-width="4" stroke-miterlimit="10" stroke-linecap="round" stroke-linejoin="round"/>
<path d="M42.901 43.4412C42.901 45.3936 41.3231 46.9789 39.3798 46.9789C37.4364 46.9789 35.8585 45.3936 35.8585 43.4412C35.8585 41.4887 37.4364 39.9034 39.3798 39.9034C41.3231 39.9034 42.901 41.4887 42.901 43.4412Z" fill="#1A1B3A"/>
<path d="M76.2117 43.4412C76.2117 47.9969 72.5326 51.6931 67.9982 51.6931C63.4638 51.6931 59.7847 47.9969 59.7847 43.4412C59.7847 38.8855 63.4638 35.1892 67.9982 35.1892C72.5326 35.1892 76.2117 38.8855 76.2117 43.4412Z" fill="#FDFADE" stroke="#1A1B3A" stroke-width="4" stroke-miterlimit="10" stroke-linecap="round" stroke-linejoin="round"/>
<path d="M71.5111 43.4412C71.5111 45.3936 69.9332 46.9789 67.9899 46.9789C66.0465 46.9789 64.4686 45.3936 64.4686 43.4412C64.4686 41.4887 66.0465 39.9034 67.9899 39.9034C69.9332 39.9034 71.5111 41.4887 71.5111 43.4412Z" fill="#1A1B3A"/>
</svg>
