<svg width="85" height="96" viewBox="0 0 85 96" fill="none" xmlns="http://www.w3.org/2000/svg">
<path d="M42.5 58.6742V91.416" stroke="#1A1B3A" stroke-width="4" stroke-miterlimit="10" stroke-linecap="round" stroke-linejoin="round"/>
<path d="M10.1969 48.4238C9.71904 48.4238 9.27435 48.1997 8.98895 47.8108C8.71019 47.4285 8.63054 46.9341 8.77656 46.4858L23.2257 2.4983C23.4248 1.89185 23.9956 1.47656 24.6394 1.47656H60.3341C60.9779 1.47656 61.5487 1.89185 61.7478 2.4983L76.1969 46.4858C76.3429 46.9341 76.2699 47.4285 75.9845 47.8108C75.7058 48.1931 75.2544 48.4238 74.7766 48.4238H10.1969Z" fill="#0673B0"/>
<path d="M60.3473 2.95975L74.7965 46.9473H10.1969L24.646 2.95975H60.3473ZM60.3473 0H24.646C23.3584 0 22.2102 0.823983 21.8119 2.04348L7.36283 46.031C7.06416 46.9341 7.22345 47.9229 7.78097 48.6875C8.33849 49.4522 9.24115 49.907 10.1903 49.907H74.7898C75.7456 49.907 76.6416 49.4522 77.1991 48.6875C77.7566 47.9229 77.9159 46.9341 77.6173 46.031L63.1681 2.04348C62.7765 0.823983 61.635 0 60.3473 0Z" fill="#1A1B3A"/>
<path d="M60.3473 2.95975H46.1571L60.6062 46.9473H74.7965L60.3473 2.95975Z" fill="#0D5988"/>
<path d="M60.2478 58.4962L73.1902 71.3504V91.6797" stroke="#1A1B3A" stroke-width="4" stroke-miterlimit="10" stroke-linecap="round" stroke-linejoin="round"/>
<path d="M83 88.8386H64.7876V94H83V88.8386Z" fill="#0673B0" stroke="#1A1B3A" stroke-width="4" stroke-miterlimit="10" stroke-linecap="round" stroke-linejoin="round"/>
<path d="M51.6062 88.8386H33.3938V94H51.6062V88.8386Z" fill="#0673B0" stroke="#1A1B3A" stroke-width="4" stroke-miterlimit="10" stroke-linecap="round" stroke-linejoin="round"/>
<path d="M66.4004 71.4822C66.4004 75.2066 69.4403 78.2257 73.1903 78.2257C76.9403 78.2257 79.9801 75.2066 79.9801 71.4822C79.9801 67.7578 76.9403 64.7387 73.1903 64.7387C69.4403 64.7453 66.4004 67.7578 66.4004 71.4822Z" fill="#1A1B3A"/>
<path d="M24.7456 58.4962L11.8031 71.3504V91.6797" stroke="#1A1B3A" stroke-width="4" stroke-miterlimit="10" stroke-linecap="round" stroke-linejoin="round"/>
<path d="M20.2124 88.8386H2V94H20.2124V88.8386Z" fill="#0673B0" stroke="#1A1B3A" stroke-width="4" stroke-miterlimit="10" stroke-linecap="round" stroke-linejoin="round"/>
<path d="M18.5929 71.4822C18.5929 75.2066 15.5531 78.2257 11.8031 78.2257C8.0531 78.2257 5.01328 75.2066 5.01328 71.4822C5.01328 67.7578 8.0531 64.7387 11.8031 64.7387C15.5531 64.7453 18.5929 67.7578 18.5929 71.4822Z" fill="#1A1B3A"/>
<path d="M55.7677 20.8303C55.7677 28.1077 49.8274 34.0074 42.5 34.0074C35.1726 34.0074 29.2323 28.1077 29.2323 20.8303C29.2323 13.5529 35.1726 7.65317 42.5 7.65317C49.8274 7.65317 55.7677 13.5529 55.7677 20.8303Z" fill="#8CD3F6" stroke="#1A1B3A" stroke-width="4" stroke-miterlimit="10" stroke-linecap="round" stroke-linejoin="round"/>
<path d="M45.3474 19.7295C45.3474 22.2805 43.2633 24.3504 40.6947 24.3504C38.1261 24.3504 36.0421 22.2805 36.0421 19.7295C36.0421 17.1784 38.1261 15.1086 40.6947 15.1086C43.2633 15.1086 45.3474 17.1784 45.3474 19.7295Z" fill="white"/>
<path d="M10.1969 59.9728C9.37391 59.9728 8.70355 59.307 8.70355 58.4962V46.9473C8.70355 46.1299 9.37391 45.4641 10.1969 45.4641H74.7965C75.6195 45.4641 76.2832 46.1299 76.2832 46.9473V58.4962C76.2832 59.3136 75.6128 59.9728 74.7965 59.9728H10.1969Z" fill="#8CD3F6"/>
<path d="M74.7965 46.9473V58.4962H10.1969V46.9473H74.7965ZM74.7965 43.9875H10.1969C8.5509 43.9875 7.21683 45.3125 7.21683 46.9473V58.4962C7.21683 60.131 8.5509 61.456 10.1969 61.456H74.7965C76.4425 61.456 77.7766 60.131 77.7766 58.4962V46.9473C77.7766 45.3125 76.4425 43.9875 74.7965 43.9875Z" fill="#1A1B3A"/>
<path d="M15.7655 46.9473V57.8238" stroke="#1A1B3A" stroke-width="4" stroke-miterlimit="10" stroke-linecap="round" stroke-linejoin="round"/>
<path d="M25.9602 46.9473V57.8238" stroke="#1A1B3A" stroke-width="4" stroke-miterlimit="10" stroke-linecap="round" stroke-linejoin="round"/>
<path d="M36.1615 46.9473V57.8238" stroke="#1A1B3A" stroke-width="4" stroke-miterlimit="10" stroke-linecap="round" stroke-linejoin="round"/>
<path d="M46.3562 46.9473V57.8238" stroke="#1A1B3A" stroke-width="4" stroke-miterlimit="10" stroke-linecap="round" stroke-linejoin="round"/>
<path d="M56.5509 46.9473V57.8238" stroke="#1A1B3A" stroke-width="4" stroke-miterlimit="10" stroke-linecap="round" stroke-linejoin="round"/>
<path d="M66.7522 46.9473V57.8238" stroke="#1A1B3A" stroke-width="4" stroke-miterlimit="10" stroke-linecap="round" stroke-linejoin="round"/>
<path d="M35.7102 71.4822C35.7102 75.2066 38.75 78.2257 42.5 78.2257C46.25 78.2257 49.2898 75.2066 49.2898 71.4822C49.2898 67.7578 46.25 64.7387 42.5 64.7387C38.75 64.7453 35.7102 67.7578 35.7102 71.4822Z" fill="#1A1B3A"/>
</svg>
