<svg width="97" height="106" viewBox="0 0 97 106" fill="none" xmlns="http://www.w3.org/2000/svg">
<path d="M85.7273 23.994V29.0814C85.7273 37.8344 78.5895 44.9297 69.7841 44.9297H27.2088C18.4033 44.9297 11.2655 37.8344 11.2655 29.0814V23.994" stroke="#1A1B3A" stroke-width="4" stroke-miterlimit="10" stroke-linecap="round" stroke-linejoin="round"/>
<path d="M20.5454 14.7765C20.5454 19.8711 16.3906 23.9939 11.2727 23.9939C6.15474 23.9939 2 19.864 2 14.7765" stroke="#1A1B3A" stroke-width="4" stroke-miterlimit="10" stroke-linecap="round" stroke-linejoin="round"/>
<path d="M95 14.7765C95 19.8711 90.8452 23.9939 85.7273 23.9939C80.6093 23.9939 76.4546 19.864 76.4546 14.7765" stroke="#1A1B3A" stroke-width="4" stroke-miterlimit="10" stroke-linecap="round" stroke-linejoin="round"/>
<path d="M30.2134 84.4719C29.3221 84.4719 28.6033 83.7502 28.6033 82.8713V52.9325C28.6033 42.2502 37.5309 33.5544 48.5 33.5544C59.4691 33.5544 68.3967 42.2431 68.3967 52.9325V82.8713C68.3967 83.7573 67.6707 84.4719 66.7866 84.4719H30.2134Z" fill="#F6B700"/>
<path d="M48.5 35.1621C58.5993 35.1621 66.7866 43.1148 66.7866 52.9325V82.8713H30.2134V52.9325C30.2134 43.1148 38.4007 35.1621 48.5 35.1621ZM48.5 31.9539C36.6396 31.9539 26.986 41.3642 26.986 52.9325V82.8713C26.986 84.6434 28.4308 86.0796 30.2134 86.0796H66.7794C68.5621 86.0796 70.0069 84.6434 70.0069 82.8713V52.9325C70.0069 41.3642 60.3604 31.9539 48.5 31.9539Z" fill="#1A1B3A"/>
<path d="M48.5 35.1621C46.9689 35.1621 45.481 35.3479 44.0577 35.6909C52.0078 37.6201 57.9021 44.6082 57.9021 52.9325V82.8714H66.7794V52.9325C66.7794 43.1148 58.5921 35.1621 48.5 35.1621Z" fill="#CE9900"/>
<path d="M35.7842 95.8901C35.7842 100.37 32.1326 104 27.6257 104C23.1187 104 19.4672 100.37 19.4672 95.8901V69.8454C19.4672 65.3653 23.1187 61.7355 27.6257 61.7355C32.1326 61.7355 35.7842 65.3653 35.7842 69.8454V95.8901Z" fill="#0673B0" stroke="#1A1B3A" stroke-width="4" stroke-miterlimit="10" stroke-linecap="round" stroke-linejoin="round"/>
<path d="M20.8113 68.9236H34.0878" stroke="#1A1B3A" stroke-width="4" stroke-miterlimit="10" stroke-linecap="round" stroke-linejoin="round"/>
<path d="M20.8113 75.8975H34.0878" stroke="#1A1B3A" stroke-width="4" stroke-miterlimit="10" stroke-linecap="round" stroke-linejoin="round"/>
<path d="M20.8113 82.8641H34.0878" stroke="#1A1B3A" stroke-width="4" stroke-miterlimit="10" stroke-linecap="round" stroke-linejoin="round"/>
<path d="M20.8113 89.838H34.0878" stroke="#1A1B3A" stroke-width="4" stroke-miterlimit="10" stroke-linecap="round" stroke-linejoin="round"/>
<path d="M20.8113 96.8118H34.0878" stroke="#1A1B3A" stroke-width="4" stroke-miterlimit="10" stroke-linecap="round" stroke-linejoin="round"/>
<path d="M77.5257 95.8901C77.5257 100.37 73.8741 104 69.3671 104C64.8602 104 61.2086 100.37 61.2086 95.8901V69.8454C61.2086 65.3653 64.8602 61.7355 69.3671 61.7355C73.8741 61.7355 77.5257 65.3653 77.5257 69.8454V95.8901Z" fill="#0673B0" stroke="#1A1B3A" stroke-width="4" stroke-miterlimit="10" stroke-linecap="round" stroke-linejoin="round"/>
<path d="M62.5456 68.9236H75.8221" stroke="#1A1B3A" stroke-width="4" stroke-miterlimit="10" stroke-linecap="round" stroke-linejoin="round"/>
<path d="M62.5456 75.8975H75.8221" stroke="#1A1B3A" stroke-width="4" stroke-miterlimit="10" stroke-linecap="round" stroke-linejoin="round"/>
<path d="M62.5456 82.8641H75.8221" stroke="#1A1B3A" stroke-width="4" stroke-miterlimit="10" stroke-linecap="round" stroke-linejoin="round"/>
<path d="M62.5456 89.838H75.8221" stroke="#1A1B3A" stroke-width="4" stroke-miterlimit="10" stroke-linecap="round" stroke-linejoin="round"/>
<path d="M62.5456 96.8118H75.8221" stroke="#1A1B3A" stroke-width="4" stroke-miterlimit="10" stroke-linecap="round" stroke-linejoin="round"/>
<path d="M33.9656 43.2434C33.0743 43.2434 32.3555 42.5289 32.3555 41.6428L32.3483 17.3416C32.3483 8.66724 39.5867 1.60767 48.4928 1.60052C57.3989 1.60052 64.6445 8.65295 64.6517 17.3274L64.6589 41.6286C64.6589 42.0573 64.4864 42.4646 64.1845 42.7647C63.8826 43.0648 63.4729 43.2362 63.0416 43.2362L33.9656 43.2434Z" fill="#F6B700"/>
<path d="M48.4928 3.20824C56.522 3.20824 63.0272 9.53184 63.0272 17.3345L63.0344 41.6357L33.9584 41.6429L33.9512 17.3417C33.9512 9.53899 40.4637 3.20824 48.4928 3.20824ZM48.4928 0C38.6954 0.00714531 30.7238 7.78125 30.731 17.3417L30.7381 41.6429C30.7381 43.4149 32.183 44.8511 33.9656 44.8511L63.0416 44.8368C63.897 44.8368 64.7164 44.501 65.3202 43.8937C65.924 43.2934 66.2619 42.4789 66.2619 41.6214L66.2547 17.3202C66.2547 7.7741 58.2831 0 48.4928 0Z" fill="#1A1B3A"/>
<path d="M48.4856 3.20826C47.2708 3.20826 46.0848 3.35831 44.9562 3.62983C51.2818 5.15893 55.9684 10.7108 55.9684 17.3345L55.9756 41.6357H63.0344L63.0272 17.3345C63.0272 9.52471 56.5147 3.20111 48.4856 3.20826Z" fill="#CE9900"/>
<path d="M41.0028 27.4737H38.6019V29.8602H41.0028V27.4737Z" fill="#1A1B3A"/>
<path d="M44.4818 27.4666H42.081V29.8531H44.4818V27.4666Z" fill="#1A1B3A"/>
<path d="M47.9609 27.4666H45.5601V29.8531H47.9609V27.4666Z" fill="#1A1B3A"/>
<path d="M51.4399 27.4666H49.0391V29.8531H51.4399V27.4666Z" fill="#1A1B3A"/>
<path d="M54.919 27.4666H52.5181V29.8531H54.919V27.4666Z" fill="#1A1B3A"/>
<path d="M58.398 27.4666H55.9972V29.8531H58.398V27.4666Z" fill="#1A1B3A"/>
<path d="M56.1985 23.551C56.1985 24.2512 55.6234 24.8228 54.919 24.8228H42.0738C41.3694 24.8228 40.7943 24.2512 40.7943 23.551V13.2974C40.7943 12.5972 41.3694 12.0256 42.0738 12.0256H54.919C55.6234 12.0256 56.1985 12.5972 56.1985 13.2974V23.551Z" fill="#1A1B3A"/>
<path d="M46.2932 20.6643C46.2932 21.6503 45.4882 22.4506 44.4962 22.4506C43.5042 22.4506 42.6992 21.6503 42.6992 20.6643V16.177C42.6992 15.191 43.5042 14.3907 44.4962 14.3907C45.4882 14.3907 46.2932 15.191 46.2932 16.177V20.6643Z" fill="#8CD3F6"/>
<path d="M54.3008 20.6643C54.3008 21.6503 53.4957 22.4506 52.5038 22.4506C51.5118 22.4506 50.7067 21.6503 50.7067 20.6643V16.177C50.7067 15.191 51.5118 14.3907 52.5038 14.3907C53.4957 14.3907 54.3008 15.191 54.3008 16.177V20.6643Z" fill="#8CD3F6"/>
</svg>
